<?xml version="1.0" encoding="UTF-8" standalone="no"?>
<!DOCTYPE svg PUBLIC "-//W3C//DTD SVG 1.1//EN"
 "http://www.w3.org/Graphics/SVG/1.1/DTD/svg11.dtd">
<!-- Generated by graphviz version 14.1.0 (20251206.1807)
 -->
<!-- Title: RFPMoura_DCBT_Reposicao_Chumbo_CADASTRO_CLIENTE Pages: 1 -->
<svg width="1572pt" height="1904pt"
 viewBox="14.00 14.00 1558.00 1890.00" xmlns="http://www.w3.org/2000/svg" xmlns:xlink="http://www.w3.org/1999/xlink">
<g id="graph0" class="graph" transform="scale(1 1) rotate(0) translate(28.8 1875.22)">
<title>RFPMoura_DCBT_Reposicao_Chumbo_CADASTRO_CLIENTE</title>
<polygon fill="white" stroke="none" points="-14.4,14.4 -14.4,-1860.82 1528.7,-1860.82 1528.7,14.4 -14.4,14.4"/>
<text xml:space="preserve" text-anchor="middle" x="757.15" y="-1825.32" font-family="Arial" font-size="18.00">AS&#45;IS | DCBT — Reposição (Chumbo)</text>
<text xml:space="preserve" text-anchor="middle" x="757.15" y="-1804.32" font-family="Arial" font-size="18.00">Cadastro de Cliente</text>
<!-- start -->
<g id="node1" class="node">
<title>start</title>
<ellipse fill="#2ecc71" stroke="#2ecc71" cx="334.97" cy="-1778.42" rx="7.2" ry="7.2"/>
</g>
<!-- receber_solicitacao -->
<g id="node13" class="node">
<title>receber_solicitacao</title>
<path fill="#e7f1ff" stroke="#0b5ed7" stroke-width="1.6" d="M450.18,-1699.42C450.18,-1699.42 219.75,-1699.42 219.75,-1699.42 213.75,-1699.42 207.75,-1693.42 207.75,-1687.42 207.75,-1687.42 207.75,-1627.14 207.75,-1627.14 207.75,-1621.14 213.75,-1615.14 219.75,-1615.14 219.75,-1615.14 450.18,-1615.14 450.18,-1615.14 456.18,-1615.14 462.18,-1621.14 462.18,-1627.14 462.18,-1627.14 462.18,-1687.42 462.18,-1687.42 462.18,-1693.42 456.18,-1699.42 450.18,-1699.42"/>
<text xml:space="preserve" text-anchor="middle" x="334.97" y="-1680.33" font-family="Arial" font-size="11.00">1) Receber Solicitação de Cadastro de Cliente</text>
<text xml:space="preserve" text-anchor="middle" x="334.97" y="-1666.83" font-family="Arial" font-size="11.00">Entrada: Ticket Ploomes e/ou Chamado SDM</text>
<text xml:space="preserve" text-anchor="middle" x="334.97" y="-1640.33" font-family="Arial" font-size="11.00">Atividade Executada:</text>
<text xml:space="preserve" text-anchor="middle" x="334.97" y="-1626.83" font-family="Arial" font-size="11.00">Cadastrar Cliente</text>
</g>
<!-- start&#45;&gt;receber_solicitacao -->
<g id="edge1" class="edge">
<title>start&#45;&gt;receber_solicitacao</title>
<path fill="none" stroke="#4a4a4a" d="M334.97,-1770.84C334.97,-1770.84 334.97,-1709.55 334.97,-1709.55"/>
<polygon fill="#4a4a4a" stroke="#4a4a4a" points="337.77,-1709.55 334.97,-1701.55 332.17,-1709.55 337.77,-1709.55"/>
</g>
<!-- end -->
<g id="node2" class="node">
<title>end</title>
<ellipse fill="#e74c3c" stroke="#e74c3c" cx="274.97" cy="-55.64" rx="8.64" ry="8.64"/>
<ellipse fill="none" stroke="#e74c3c" cx="274.97" cy="-55.64" rx="12.64" ry="12.64"/>
</g>
<!-- voltarHub -->
<g id="node3" class="node">
<title>voltarHub</title>
<g id="a_node3"><a xlink:href="RFPMoura_DCBT_Processos_MindMap.svg" xlink:title="↩ HUB (DCBT)" target="_self">
<path fill="#eef6ff" stroke="#1f5fbf" stroke-width="1.2" d="M488.81,-1796.42C488.81,-1796.42 397.12,-1796.42 397.12,-1796.42 391.12,-1796.42 385.12,-1790.42 385.12,-1784.42 385.12,-1784.42 385.12,-1772.42 385.12,-1772.42 385.12,-1766.42 391.12,-1760.42 397.12,-1760.42 397.12,-1760.42 488.81,-1760.42 488.81,-1760.42 494.81,-1760.42 500.81,-1766.42 500.81,-1772.42 500.81,-1772.42 500.81,-1784.42 500.81,-1784.42 500.81,-1790.42 494.81,-1796.42 488.81,-1796.42"/>
<text xml:space="preserve" text-anchor="middle" x="442.97" y="-1774.72" font-family="Arial" font-size="11.00">↩ HUB (DCBT)</text>
</a>
</g>
</g>
<!-- voltarReposicao -->
<g id="node4" class="node">
<title>voltarReposicao</title>
<g id="a_node4"><a xlink:href="RFPMoura_DCBT_Reposicao_MindMap.svg" xlink:title="⬅ Voltar para REPOSIÇÃO (Mindmap)" target="_self">
<path fill="#e7f1ff" stroke="#0b5ed7" stroke-width="1.6" d="M758.31,-1796.42C758.31,-1796.42 555.62,-1796.42 555.62,-1796.42 549.62,-1796.42 543.62,-1790.42 543.62,-1784.42 543.62,-1784.42 543.62,-1772.42 543.62,-1772.42 543.62,-1766.42 549.62,-1760.42 555.62,-1760.42 555.62,-1760.42 758.31,-1760.42 758.31,-1760.42 764.31,-1760.42 770.31,-1766.42 770.31,-1772.42 770.31,-1772.42 770.31,-1784.42 770.31,-1784.42 770.31,-1790.42 764.31,-1796.42 758.31,-1796.42"/>
<text xml:space="preserve" text-anchor="middle" x="656.97" y="-1774.72" font-family="Arial" font-size="11.00">⬅ Voltar para REPOSIÇÃO (Mindmap)</text>
</a>
</g>
</g>
<!-- voltarCriarProposta -->
<g id="node5" class="node">
<title>voltarCriarProposta</title>
<g id="a_node5"><a xlink:href="RFPMoura_DCBT_Reposicao_Chumbo_CRIAR_PROPOSTA.svg" xlink:title="⬅ Voltar para CRIAR PROPOSTA" target="_self">
<path fill="#e7f1ff" stroke="#0b5ed7" stroke-width="1.2" d="M1006.43,-1796.42C1006.43,-1796.42 825.5,-1796.42 825.5,-1796.42 819.5,-1796.42 813.5,-1790.42 813.5,-1784.42 813.5,-1784.42 813.5,-1772.42 813.5,-1772.42 813.5,-1766.42 819.5,-1760.42 825.5,-1760.42 825.5,-1760.42 1006.43,-1760.42 1006.43,-1760.42 1012.43,-1760.42 1018.43,-1766.42 1018.43,-1772.42 1018.43,-1772.42 1018.43,-1784.42 1018.43,-1784.42 1018.43,-1790.42 1012.43,-1796.42 1006.43,-1796.42"/>
<text xml:space="preserve" text-anchor="middle" x="915.97" y="-1774.72" font-family="Arial" font-size="11.00">⬅ Voltar para CRIAR PROPOSTA</text>
</a>
</g>
</g>
<!-- voltarCadastroSKU -->
<g id="node6" class="node">
<title>voltarCadastroSKU</title>
<g id="a_node6"><a xlink:href="RFPMoura_DCBT_Reposicao_Chumbo_CADASTRO_SKU.svg" xlink:title="⬅ Voltar para CADASTRO SKU" target="_self">
<path fill="#e7f1ff" stroke="#0b5ed7" stroke-width="1.2" d="M1244.18,-1796.42C1244.18,-1796.42 1073.75,-1796.42 1073.75,-1796.42 1067.75,-1796.42 1061.75,-1790.42 1061.75,-1784.42 1061.75,-1784.42 1061.75,-1772.42 1061.75,-1772.42 1061.75,-1766.42 1067.75,-1760.42 1073.75,-1760.42 1073.75,-1760.42 1244.18,-1760.42 1244.18,-1760.42 1250.18,-1760.42 1256.18,-1766.42 1256.18,-1772.42 1256.18,-1772.42 1256.18,-1784.42 1256.18,-1784.42 1256.18,-1790.42 1250.18,-1796.42 1244.18,-1796.42"/>
<text xml:space="preserve" text-anchor="middle" x="1158.97" y="-1774.72" font-family="Arial" font-size="11.00">⬅ Voltar para CADASTRO SKU</text>
</a>
</g>
</g>
<!-- irAnaliseCredito -->
<g id="node7" class="node">
<title>irAnaliseCredito</title>
<g id="a_node7"><a xlink:href="RFPMoura_DCBT_Reposicao_Chumbo_ANALISE_CREDITO.svg" xlink:title="Abrir fluxo: Análise de Crédito (quando disponível)" target="_self">
<path fill="#eef6ff" stroke="#1f5fbf" stroke-width="1.2" d="M1502.31,-1796.42C1502.31,-1796.42 1311.63,-1796.42 1311.63,-1796.42 1305.63,-1796.42 1299.63,-1790.42 1299.63,-1784.42 1299.63,-1784.42 1299.63,-1772.42 1299.63,-1772.42 1299.63,-1766.42 1305.63,-1760.42 1311.63,-1760.42 1311.63,-1760.42 1502.31,-1760.42 1502.31,-1760.42 1508.31,-1760.42 1514.31,-1766.42 1514.31,-1772.42 1514.31,-1772.42 1514.31,-1784.42 1514.31,-1784.42 1514.31,-1790.42 1508.31,-1796.42 1502.31,-1796.42"/>
<text xml:space="preserve" text-anchor="middle" x="1406.97" y="-1774.72" font-family="Arial" font-size="11.00">➡ Próximo: ANÁLISE DE CRÉDITO</text>
</a>
</g>
</g>
<!-- stakeholders -->
<g id="node8" class="node">
<title>stakeholders</title>
<polygon fill="#f8f9fa" stroke="#2b2b2b" points="751.06,-1692.92 504.88,-1692.92 504.88,-1621.64 757.06,-1621.64 757.06,-1686.92 751.06,-1692.92"/>
<polyline fill="none" stroke="#2b2b2b" points="751.06,-1692.92 751.06,-1686.92"/>
<polyline fill="none" stroke="#2b2b2b" points="757.06,-1686.92 751.06,-1686.92"/>
<text xml:space="preserve" text-anchor="middle" x="630.97" y="-1673.83" font-family="Arial" font-size="11.00">Key Users / Áreas / Stakeholders:</text>
<text xml:space="preserve" text-anchor="middle" x="630.97" y="-1660.33" font-family="Arial" font-size="11.00">• Unidades RSM</text>
<text xml:space="preserve" text-anchor="middle" x="630.97" y="-1646.83" font-family="Arial" font-size="11.00">• Atendimento de Vendas e Serviço ao Cliente</text>
<text xml:space="preserve" text-anchor="middle" x="630.97" y="-1633.33" font-family="Arial" font-size="11.00">• Central de Cadastro</text>
</g>
<!-- entradas -->
<g id="node9" class="node">
<title>entradas</title>
<polygon fill="#f8f9fa" stroke="#2b2b2b" points="662.68,-1554.14 483.25,-1554.14 483.25,-1415.86 668.68,-1415.86 668.68,-1548.14 662.68,-1554.14"/>
<polyline fill="none" stroke="#2b2b2b" points="662.68,-1554.14 662.68,-1548.14"/>
<polyline fill="none" stroke="#2b2b2b" points="668.68,-1548.14 662.68,-1548.14"/>
<text xml:space="preserve" text-anchor="middle" x="575.97" y="-1535.05" font-family="Arial" font-size="11.00">Entrada de Dados / Informação:</text>
<text xml:space="preserve" text-anchor="middle" x="575.97" y="-1521.55" font-family="Arial" font-size="11.00">• Ticket Ploomes</text>
<text xml:space="preserve" text-anchor="middle" x="575.97" y="-1508.05" font-family="Arial" font-size="11.00">• Chamado SDM</text>
<text xml:space="preserve" text-anchor="middle" x="575.97" y="-1481.55" font-family="Arial" font-size="11.00">Dados típicos:</text>
<text xml:space="preserve" text-anchor="middle" x="575.97" y="-1468.05" font-family="Arial" font-size="11.00">• CNPJ/CPF</text>
<text xml:space="preserve" text-anchor="middle" x="575.97" y="-1454.55" font-family="Arial" font-size="11.00">• Razão social / Nome</text>
<text xml:space="preserve" text-anchor="middle" x="575.97" y="-1441.05" font-family="Arial" font-size="11.00">• Endereços / Contatos</text>
<text xml:space="preserve" text-anchor="middle" x="575.97" y="-1427.55" font-family="Arial" font-size="11.00">• Dados fiscais e pagamento</text>
</g>
<!-- sistemas -->
<g id="node10" class="node">
<title>sistemas</title>
<polygon fill="#f8f9fa" stroke="#2b2b2b" points="727.18,-1205.3 604.75,-1205.3 604.75,-1054.02 733.18,-1054.02 733.18,-1199.3 727.18,-1205.3"/>
<polyline fill="none" stroke="#2b2b2b" points="727.18,-1205.3 727.18,-1199.3"/>
<polyline fill="none" stroke="#2b2b2b" points="733.18,-1199.3 727.18,-1199.3"/>
<text xml:space="preserve" text-anchor="middle" x="668.97" y="-1186.21" font-family="Arial" font-size="11.00">Sistemas Utilizados:</text>
<text xml:space="preserve" text-anchor="middle" x="668.97" y="-1172.71" font-family="Arial" font-size="11.00">• SDM</text>
<text xml:space="preserve" text-anchor="middle" x="668.97" y="-1159.21" font-family="Arial" font-size="11.00">• SAP</text>
<text xml:space="preserve" text-anchor="middle" x="668.97" y="-1145.71" font-family="Arial" font-size="11.00">• Ploomes</text>
<text xml:space="preserve" text-anchor="middle" x="668.97" y="-1119.21" font-family="Arial" font-size="11.00">Frequência:</text>
<text xml:space="preserve" text-anchor="middle" x="668.97" y="-1105.71" font-family="Arial" font-size="11.00">• Sob demanda</text>
<text xml:space="preserve" text-anchor="middle" x="668.97" y="-1079.21" font-family="Arial" font-size="11.00">Tempo Médio:</text>
<text xml:space="preserve" text-anchor="middle" x="668.97" y="-1065.71" font-family="Arial" font-size="11.00">• N/D</text>
</g>
<!-- oportunidades -->
<g id="node11" class="node">
<title>oportunidades</title>
<polygon fill="#f8f9fa" stroke="#2b2b2b" points="914.56,-675.54 605.38,-675.54 605.38,-604.26 920.56,-604.26 920.56,-669.54 914.56,-675.54"/>
<polyline fill="none" stroke="#2b2b2b" points="914.56,-675.54 914.56,-669.54"/>
<polyline fill="none" stroke="#2b2b2b" points="920.56,-669.54 914.56,-669.54"/>
<text xml:space="preserve" text-anchor="middle" x="762.97" y="-656.45" font-family="Arial" font-size="11.00">Oportunidades:</text>
<text xml:space="preserve" text-anchor="middle" x="762.97" y="-642.95" font-family="Arial" font-size="11.00">• Redução de retrabalho entre as áreas</text>
<text xml:space="preserve" text-anchor="middle" x="762.97" y="-629.45" font-family="Arial" font-size="11.00">• Centralização e padronização da comunicação</text>
<text xml:space="preserve" text-anchor="middle" x="762.97" y="-615.95" font-family="Arial" font-size="11.00">• Evolução das regras de validação e governança de dados</text>
</g>
<!-- produto_salesforce -->
<g id="node12" class="node">
<title>produto_salesforce</title>
<polygon fill="#f8f9fa" stroke="#2b2b2b" points="685.43,-111.28 330.5,-111.28 330.5,0 691.43,0 691.43,-105.28 685.43,-111.28"/>
<polyline fill="none" stroke="#2b2b2b" points="685.43,-111.28 685.43,-105.28"/>
<polyline fill="none" stroke="#2b2b2b" points="691.43,-105.28 685.43,-105.28"/>
<text xml:space="preserve" text-anchor="middle" x="510.97" y="-92.19" font-family="Arial" font-size="11.00">Produto Salesforce:</text>
<text xml:space="preserve" text-anchor="middle" x="510.97" y="-78.69" font-family="Arial" font-size="11.00">• Sales Cloud</text>
<text xml:space="preserve" text-anchor="middle" x="510.97" y="-65.19" font-family="Arial" font-size="11.00">• Integração</text>
<text xml:space="preserve" text-anchor="middle" x="510.97" y="-38.69" font-family="Arial" font-size="11.00">Soluções Aplicáveis:</text>
<text xml:space="preserve" text-anchor="middle" x="510.97" y="-25.19" font-family="Arial" font-size="11.00">• Organização do relacionamento com clientes (histórico e visão 360)</text>
<text xml:space="preserve" text-anchor="middle" x="510.97" y="-11.69" font-family="Arial" font-size="11.00">• Envio de solicitações de aprovação / cadastros para o ERP</text>
</g>
<!-- triagem -->
<g id="node14" class="node">
<title>triagem</title>
<path fill="#ffffff" stroke="#2b2b2b" d="M428.43,-1534.14C428.43,-1534.14 241.5,-1534.14 241.5,-1534.14 235.5,-1534.14 229.5,-1528.14 229.5,-1522.14 229.5,-1522.14 229.5,-1447.86 229.5,-1447.86 229.5,-1441.86 235.5,-1435.86 241.5,-1435.86 241.5,-1435.86 428.43,-1435.86 428.43,-1435.86 434.43,-1435.86 440.43,-1441.86 440.43,-1447.86 440.43,-1447.86 440.43,-1522.14 440.43,-1522.14 440.43,-1528.14 434.43,-1534.14 428.43,-1534.14"/>
<text xml:space="preserve" text-anchor="middle" x="334.97" y="-1515.05" font-family="Arial" font-size="11.00">2) Triagem e Validação Inicial</text>
<text xml:space="preserve" text-anchor="middle" x="334.97" y="-1501.55" font-family="Arial" font-size="11.00">Ações:</text>
<text xml:space="preserve" text-anchor="middle" x="334.97" y="-1488.05" font-family="Arial" font-size="11.00">• Identificar tipo de cliente (PJ/PF)</text>
<text xml:space="preserve" text-anchor="middle" x="334.97" y="-1474.55" font-family="Arial" font-size="11.00">• Verificar obrigatoriedade de campos</text>
<text xml:space="preserve" text-anchor="middle" x="334.97" y="-1461.05" font-family="Arial" font-size="11.00">• Conferir anexos e evidências</text>
<text xml:space="preserve" text-anchor="middle" x="334.97" y="-1447.55" font-family="Arial" font-size="11.00">• Confirmar solicitante/área</text>
</g>
<!-- receber_solicitacao&#45;&gt;triagem -->
<g id="edge2" class="edge">
<title>receber_solicitacao&#45;&gt;triagem</title>
<path fill="none" stroke="#4a4a4a" d="M334.97,-1614.69C334.97,-1614.69 334.97,-1543.93 334.97,-1543.93"/>
<polygon fill="#4a4a4a" stroke="#4a4a4a" points="337.77,-1543.93 334.97,-1535.93 332.17,-1543.93 337.77,-1543.93"/>
</g>
<!-- info_completa -->
<g id="node15" class="node">
<title>info_completa</title>
<polygon fill="#fff1b8" stroke="#2b2b2b" points="334.97,-1354.86 200.54,-1310.58 334.96,-1266.3 469.4,-1310.58 334.97,-1354.86"/>
<text xml:space="preserve" text-anchor="middle" x="334.97" y="-1313.63" font-family="Arial" font-size="11.00">Informações mínimas</text>
<text xml:space="preserve" text-anchor="middle" x="334.97" y="-1300.13" font-family="Arial" font-size="11.00">estão completas?</text>
</g>
<!-- triagem&#45;&gt;info_completa -->
<g id="edge3" class="edge">
<title>triagem&#45;&gt;info_completa</title>
<path fill="none" stroke="#4a4a4a" d="M334.97,-1435.48C334.97,-1435.48 334.97,-1364.67 334.97,-1364.67"/>
<polygon fill="#4a4a4a" stroke="#4a4a4a" points="337.77,-1364.67 334.97,-1356.67 332.17,-1364.67 337.77,-1364.67"/>
</g>
<!-- complementar_info -->
<g id="node16" class="node">
<title>complementar_info</title>
<path fill="#fffdf2" stroke="#2b2b2b" d="M201.93,-1192.05C201.93,-1192.05 36,-1192.05 36,-1192.05 30,-1192.05 24,-1186.05 24,-1180.05 24,-1180.05 24,-1079.27 24,-1079.27 24,-1073.27 30,-1067.27 36,-1067.27 36,-1067.27 201.93,-1067.27 201.93,-1067.27 207.93,-1067.27 213.93,-1073.27 213.93,-1079.27 213.93,-1079.27 213.93,-1180.05 213.93,-1180.05 213.93,-1186.05 207.93,-1192.05 201.93,-1192.05"/>
<text xml:space="preserve" text-anchor="middle" x="118.97" y="-1172.96" font-family="Arial" font-size="11.00">Complementar Informações</text>
<text xml:space="preserve" text-anchor="middle" x="118.97" y="-1159.46" font-family="Arial" font-size="11.00">Ações:</text>
<text xml:space="preserve" text-anchor="middle" x="118.97" y="-1145.96" font-family="Arial" font-size="11.00">• Solicitar dados faltantes</text>
<text xml:space="preserve" text-anchor="middle" x="118.97" y="-1132.46" font-family="Arial" font-size="11.00">• Atualizar ticket/chamado</text>
<text xml:space="preserve" text-anchor="middle" x="118.97" y="-1118.96" font-family="Arial" font-size="11.00">• Padronizar documentos/anexos</text>
<text xml:space="preserve" text-anchor="middle" x="118.97" y="-1092.46" font-family="Arial" font-size="11.00">Saída:</text>
<text xml:space="preserve" text-anchor="middle" x="118.97" y="-1078.96" font-family="Arial" font-size="11.00">• Solicitação atualizada</text>
</g>
<!-- info_completa&#45;&gt;complementar_info -->
<g id="edge5" class="edge">
<title>info_completa&#45;&gt;complementar_info</title>
<path fill="none" stroke="#4a4a4a" d="M207.23,-1308.02C207.23,-1308.02 207.23,-1201.78 207.23,-1201.78"/>
<polygon fill="#4a4a4a" stroke="#4a4a4a" points="210.03,-1201.78 207.23,-1193.78 204.43,-1201.78 210.03,-1201.78"/>
<text xml:space="preserve" text-anchor="middle" x="198.23" y="-1245.4" font-family="Arial" font-size="10.00">Não</text>
</g>
<!-- verificar_existencia -->
<g id="node17" class="node">
<title>verificar_existencia</title>
<path fill="#ffffff" stroke="#2b2b2b" d="M462.81,-1172.05C462.81,-1172.05 269.12,-1172.05 269.12,-1172.05 263.12,-1172.05 257.12,-1166.05 257.12,-1160.05 257.12,-1160.05 257.12,-1099.27 257.12,-1099.27 257.12,-1093.27 263.12,-1087.27 269.12,-1087.27 269.12,-1087.27 462.81,-1087.27 462.81,-1087.27 468.81,-1087.27 474.81,-1093.27 474.81,-1099.27 474.81,-1099.27 474.81,-1160.05 474.81,-1160.05 474.81,-1166.05 468.81,-1172.05 462.81,-1172.05"/>
<text xml:space="preserve" text-anchor="middle" x="365.97" y="-1152.96" font-family="Arial" font-size="11.00">3) Verificar Existência do Cliente</text>
<text xml:space="preserve" text-anchor="middle" x="365.97" y="-1139.46" font-family="Arial" font-size="11.00">Ações:</text>
<text xml:space="preserve" text-anchor="middle" x="365.97" y="-1125.96" font-family="Arial" font-size="11.00">• Pesquisar por CNPJ/CPF no SAP</text>
<text xml:space="preserve" text-anchor="middle" x="365.97" y="-1112.46" font-family="Arial" font-size="11.00">• Verificar duplicidade no Ploomes</text>
<text xml:space="preserve" text-anchor="middle" x="365.97" y="-1098.96" font-family="Arial" font-size="11.00">• Checar matriz/filial (quando aplicável)</text>
</g>
<!-- info_completa&#45;&gt;verificar_existencia -->
<g id="edge4" class="edge">
<title>info_completa&#45;&gt;verificar_existencia</title>
<path fill="none" stroke="#4a4a4a" d="M363.26,-1275.27C363.26,-1275.27 363.26,-1182.05 363.26,-1182.05"/>
<polygon fill="#4a4a4a" stroke="#4a4a4a" points="366.06,-1182.05 363.26,-1174.05 360.46,-1182.05 366.06,-1182.05"/>
<text xml:space="preserve" text-anchor="middle" x="354.64" y="-1231.16" font-family="Arial" font-size="10.00">Sim</text>
</g>
<!-- complementar_info&#45;&gt;triagem -->
<g id="edge6" class="edge">
<title>complementar_info&#45;&gt;triagem</title>
<path fill="none" stroke="#4a4a4a" d="M112.27,-1192.37C112.27,-1294.38 112.27,-1485 112.27,-1485 112.27,-1485 219.65,-1485 219.65,-1485"/>
<polygon fill="#4a4a4a" stroke="#4a4a4a" points="219.65,-1487.8 227.65,-1485 219.65,-1482.2 219.65,-1487.8"/>
<text xml:space="preserve" text-anchor="middle" x="91.64" y="-1394.87" font-family="Arial" font-size="10.00">Reavaliar</text>
</g>
<!-- cliente_existe -->
<g id="node18" class="node">
<title>cliente_existe</title>
<polygon fill="#fff1b8" stroke="#2b2b2b" points="365.97,-993.02 260.04,-948.74 365.96,-904.46 471.9,-948.74 365.97,-993.02"/>
<text xml:space="preserve" text-anchor="middle" x="365.97" y="-951.79" font-family="Arial" font-size="11.00">Cliente já</text>
<text xml:space="preserve" text-anchor="middle" x="365.97" y="-938.29" font-family="Arial" font-size="11.00">existe no SAP?</text>
</g>
<!-- verificar_existencia&#45;&gt;cliente_existe -->
<g id="edge7" class="edge">
<title>verificar_existencia&#45;&gt;cliente_existe</title>
<path fill="none" stroke="#4a4a4a" d="M365.97,-1086.78C365.97,-1086.78 365.97,-1003.03 365.97,-1003.03"/>
<polygon fill="#4a4a4a" stroke="#4a4a4a" points="368.77,-1003.03 365.97,-995.03 363.17,-1003.03 368.77,-1003.03"/>
</g>
<!-- atualizar_cadastro -->
<g id="node19" class="node">
<title>atualizar_cadastro</title>
<path fill="#fffdf2" stroke="#2b2b2b" d="M201.93,-843.46C201.93,-843.46 12,-843.46 12,-843.46 6,-843.46 0,-837.46 0,-831.46 0,-831.46 0,-757.18 0,-757.18 0,-751.18 6,-745.18 12,-745.18 12,-745.18 201.93,-745.18 201.93,-745.18 207.93,-745.18 213.93,-751.18 213.93,-757.18 213.93,-757.18 213.93,-831.46 213.93,-831.46 213.93,-837.46 207.93,-843.46 201.93,-843.46"/>
<text xml:space="preserve" text-anchor="middle" x="106.97" y="-824.37" font-family="Arial" font-size="11.00">Atualizar Cadastro Existente</text>
<text xml:space="preserve" text-anchor="middle" x="106.97" y="-810.87" font-family="Arial" font-size="11.00">Ações:</text>
<text xml:space="preserve" text-anchor="middle" x="106.97" y="-797.37" font-family="Arial" font-size="11.00">• Atualizar endereços/contatos</text>
<text xml:space="preserve" text-anchor="middle" x="106.97" y="-783.87" font-family="Arial" font-size="11.00">• Ajustar dados fiscais</text>
<text xml:space="preserve" text-anchor="middle" x="106.97" y="-770.37" font-family="Arial" font-size="11.00">• Atualizar condições quando aplicável</text>
<text xml:space="preserve" text-anchor="middle" x="106.97" y="-756.87" font-family="Arial" font-size="11.00">• Registrar motivo da alteração</text>
</g>
<!-- cliente_existe&#45;&gt;atualizar_cadastro -->
<g id="edge8" class="edge">
<title>cliente_existe&#45;&gt;atualizar_cadastro</title>
<path fill="none" stroke="#4a4a4a" d="M259.42,-949C192.57,-949 118.97,-949 118.97,-949 118.97,-949 118.97,-853.2 118.97,-853.2"/>
<polygon fill="#4a4a4a" stroke="#4a4a4a" points="121.77,-853.2 118.97,-845.2 116.17,-853.2 121.77,-853.2"/>
<text xml:space="preserve" text-anchor="middle" x="132.67" y="-951.5" font-family="Arial" font-size="10.00">Sim</text>
</g>
<!-- cadastrar_sap -->
<g id="node22" class="node">
<title>cadastrar_sap</title>
<path fill="#ffffff" stroke="#2b2b2b" d="M463.18,-843.46C463.18,-843.46 268.75,-843.46 268.75,-843.46 262.75,-843.46 256.75,-837.46 256.75,-831.46 256.75,-831.46 256.75,-757.18 256.75,-757.18 256.75,-751.18 262.75,-745.18 268.75,-745.18 268.75,-745.18 463.18,-745.18 463.18,-745.18 469.18,-745.18 475.18,-751.18 475.18,-757.18 475.18,-757.18 475.18,-831.46 475.18,-831.46 475.18,-837.46 469.18,-843.46 463.18,-843.46"/>
<text xml:space="preserve" text-anchor="middle" x="365.97" y="-824.37" font-family="Arial" font-size="11.00">4) Cadastrar Cliente no SAP (ERP)</text>
<text xml:space="preserve" text-anchor="middle" x="365.97" y="-810.87" font-family="Arial" font-size="11.00">Ações:</text>
<text xml:space="preserve" text-anchor="middle" x="365.97" y="-797.37" font-family="Arial" font-size="11.00">• Criar cadastro (cliente/conta)</text>
<text xml:space="preserve" text-anchor="middle" x="365.97" y="-783.87" font-family="Arial" font-size="11.00">• Registrar dados fiscais</text>
<text xml:space="preserve" text-anchor="middle" x="365.97" y="-770.37" font-family="Arial" font-size="11.00">• Registrar endereços/contatos</text>
<text xml:space="preserve" text-anchor="middle" x="365.97" y="-756.87" font-family="Arial" font-size="11.00">• Criar vínculo matriz/filial (se aplicável)</text>
</g>
<!-- cliente_existe&#45;&gt;cadastrar_sap -->
<g id="edge9" class="edge">
<title>cliente_existe&#45;&gt;cadastrar_sap</title>
<path fill="none" stroke="#4a4a4a" d="M365.97,-904.08C365.97,-904.08 365.97,-853.27 365.97,-853.27"/>
<polygon fill="#4a4a4a" stroke="#4a4a4a" points="368.77,-853.27 365.97,-845.27 363.17,-853.27 368.77,-853.27"/>
<text xml:space="preserve" text-anchor="middle" x="356.97" y="-881.17" font-family="Arial" font-size="10.00">Não</text>
</g>
<!-- validar_governanca -->
<g id="node20" class="node">
<title>validar_governanca</title>
<polygon fill="#fff1b8" stroke="#2b2b2b" points="299.97,-684.18 150.54,-639.9 299.96,-595.62 449.4,-639.9 299.97,-684.18"/>
<text xml:space="preserve" text-anchor="middle" x="299.97" y="-642.95" font-family="Arial" font-size="11.00">Dados em conformidade</text>
<text xml:space="preserve" text-anchor="middle" x="299.97" y="-629.45" font-family="Arial" font-size="11.00">(governança/validação)?</text>
</g>
<!-- atualizar_cadastro&#45;&gt;validar_governanca -->
<g id="edge10" class="edge">
<title>atualizar_cadastro&#45;&gt;validar_governanca</title>
<path fill="none" stroke="#4a4a4a" d="M182.23,-745.04C182.23,-745.04 182.23,-659.19 182.23,-659.19"/>
<polygon fill="#4a4a4a" stroke="#4a4a4a" points="185.03,-659.19 182.23,-651.19 179.43,-659.19 185.03,-659.19"/>
</g>
<!-- corrigir_dados -->
<g id="node21" class="node">
<title>corrigir_dados</title>
<path fill="#fffdf2" stroke="#2b2b2b" d="M601.93,-521.37C601.93,-521.37 478,-521.37 478,-521.37 472,-521.37 466,-515.37 466,-509.37 466,-509.37 466,-448.59 466,-448.59 466,-442.59 472,-436.59 478,-436.59 478,-436.59 601.93,-436.59 601.93,-436.59 607.93,-436.59 613.93,-442.59 613.93,-448.59 613.93,-448.59 613.93,-509.37 613.93,-509.37 613.93,-515.37 607.93,-521.37 601.93,-521.37"/>
<text xml:space="preserve" text-anchor="middle" x="539.97" y="-502.28" font-family="Arial" font-size="11.00">Corrigir Dados</text>
<text xml:space="preserve" text-anchor="middle" x="539.97" y="-488.78" font-family="Arial" font-size="11.00">Ações:</text>
<text xml:space="preserve" text-anchor="middle" x="539.97" y="-475.28" font-family="Arial" font-size="11.00">• Ajustar inconsistências</text>
<text xml:space="preserve" text-anchor="middle" x="539.97" y="-461.78" font-family="Arial" font-size="11.00">• Corrigir documentação</text>
<text xml:space="preserve" text-anchor="middle" x="539.97" y="-448.28" font-family="Arial" font-size="11.00">• Revalidar</text>
</g>
<!-- validar_governanca&#45;&gt;corrigir_dados -->
<g id="edge13" class="edge">
<title>validar_governanca&#45;&gt;corrigir_dados</title>
<path fill="none" stroke="#4a4a4a" d="M316.33,-600C359.03,-600 470.59,-600 470.59,-600 470.59,-600 470.59,-531.16 470.59,-531.16"/>
<polygon fill="#4a4a4a" stroke="#4a4a4a" points="473.39,-531.16 470.59,-523.16 467.79,-531.16 473.39,-531.16"/>
<text xml:space="preserve" text-anchor="middle" x="418.88" y="-590.5" font-family="Arial" font-size="10.00">Não</text>
</g>
<!-- sincronizar_ploomes -->
<g id="node23" class="node">
<title>sincronizar_ploomes</title>
<path fill="#ffffff" stroke="#2b2b2b" d="M410.81,-534.62C410.81,-534.62 139.12,-534.62 139.12,-534.62 133.12,-534.62 127.13,-528.62 127.13,-522.62 127.13,-522.62 127.13,-435.34 127.13,-435.34 127.13,-429.34 133.13,-423.34 139.13,-423.34 139.13,-423.34 410.81,-423.34 410.81,-423.34 416.81,-423.34 422.81,-429.34 422.81,-435.34 422.81,-435.34 422.81,-522.62 422.81,-522.62 422.81,-528.62 416.81,-534.62 410.81,-534.62"/>
<text xml:space="preserve" text-anchor="middle" x="274.97" y="-515.53" font-family="Arial" font-size="11.00">5) Sincronizar/Disponibilizar no Ploomes</text>
<text xml:space="preserve" text-anchor="middle" x="274.97" y="-502.03" font-family="Arial" font-size="11.00">Ações:</text>
<text xml:space="preserve" text-anchor="middle" x="274.97" y="-488.53" font-family="Arial" font-size="11.00">• Criar/atualizar registro no Ploomes</text>
<text xml:space="preserve" text-anchor="middle" x="274.97" y="-475.03" font-family="Arial" font-size="11.00">• Garantir vínculo com oportunidades/propostas</text>
<text xml:space="preserve" text-anchor="middle" x="274.97" y="-461.53" font-family="Arial" font-size="11.00">• Atualizar status do ticket/chamado</text>
<text xml:space="preserve" text-anchor="middle" x="274.97" y="-435.03" font-family="Arial" font-size="11.00">Obs.: integração pode ser automática quando existente</text>
</g>
<!-- validar_governanca&#45;&gt;sincronizar_ploomes -->
<g id="edge12" class="edge">
<title>validar_governanca&#45;&gt;sincronizar_ploomes</title>
<path fill="none" stroke="#4a4a4a" d="M286.67,-599.29C286.67,-599.29 286.67,-544.58 286.67,-544.58"/>
<polygon fill="#4a4a4a" stroke="#4a4a4a" points="289.47,-544.58 286.67,-536.58 283.87,-544.58 289.47,-544.58"/>
<text xml:space="preserve" text-anchor="middle" x="278.05" y="-574.44" font-family="Arial" font-size="10.00">Sim</text>
</g>
<!-- corrigir_dados&#45;&gt;triagem -->
<g id="edge14" class="edge">
<title>corrigir_dados&#45;&gt;triagem</title>
<path fill="none" stroke="#4a4a4a" d="M479.22,-521.56C479.22,-713.05 479.22,-1485 479.22,-1485 479.22,-1485 450.07,-1485 450.07,-1485"/>
<polygon fill="#4a4a4a" stroke="#4a4a4a" points="450.07,-1482.2 442.07,-1485 450.07,-1487.8 450.07,-1482.2"/>
<text xml:space="preserve" text-anchor="middle" x="463.84" y="-1020.35" font-family="Arial" font-size="10.00">Ajustar</text>
</g>
<!-- cadastrar_sap&#45;&gt;validar_governanca -->
<g id="edge11" class="edge">
<title>cadastrar_sap&#45;&gt;validar_governanca</title>
<path fill="none" stroke="#4a4a4a" d="M353.07,-745.04C353.07,-745.04 353.07,-678.03 353.07,-678.03"/>
<polygon fill="#4a4a4a" stroke="#4a4a4a" points="355.87,-678.03 353.07,-670.03 350.27,-678.03 355.87,-678.03"/>
</g>
<!-- saida -->
<g id="node24" class="node">
<title>saida</title>
<path fill="#d1e7dd" stroke="#1e7e34" stroke-width="1.8" d="M359.06,-362.34C359.06,-362.34 190.88,-362.34 190.88,-362.34 184.88,-362.34 178.88,-356.34 178.88,-350.34 178.88,-350.34 178.88,-289.56 178.88,-289.56 178.88,-283.56 184.88,-277.56 190.88,-277.56 190.88,-277.56 359.06,-277.56 359.06,-277.56 365.06,-277.56 371.06,-283.56 371.06,-289.56 371.06,-289.56 371.06,-350.34 371.06,-350.34 371.06,-356.34 365.06,-362.34 359.06,-362.34"/>
<text xml:space="preserve" text-anchor="middle" x="274.97" y="-343.25" font-family="Arial" font-size="11.00">✅ Cliente Cadastrado</text>
<text xml:space="preserve" text-anchor="middle" x="274.97" y="-329.75" font-family="Arial" font-size="11.00">Saída de Dados:</text>
<text xml:space="preserve" text-anchor="middle" x="274.97" y="-316.25" font-family="Arial" font-size="11.00">• Cliente cadastrado no SAP</text>
<text xml:space="preserve" text-anchor="middle" x="274.97" y="-302.75" font-family="Arial" font-size="11.00">• Cliente disponível no Ploomes</text>
<text xml:space="preserve" text-anchor="middle" x="274.97" y="-289.25" font-family="Arial" font-size="11.00">• Solicitação rastreável/encerrada</text>
</g>
<!-- sincronizar_ploomes&#45;&gt;saida -->
<g id="edge15" class="edge">
<title>sincronizar_ploomes&#45;&gt;saida</title>
<path fill="none" stroke="#4a4a4a" d="M274.97,-422.91C274.97,-422.91 274.97,-372.54 274.97,-372.54"/>
<polygon fill="#4a4a4a" stroke="#4a4a4a" points="277.77,-372.54 274.97,-364.54 272.17,-372.54 277.77,-372.54"/>
</g>
<!-- proximo_credito -->
<g id="node25" class="node">
<title>proximo_credito</title>
<g id="a_node25"><a xlink:href="RFPMoura_DCBT_Reposicao_Chumbo_ANALISE_CREDITO.svg" xlink:title="Abrir fluxo: Análise de Crédito (quando disponível)" target="_self">
<path fill="#eef6ff" stroke="#1f5fbf" stroke-width="1.2" d="M371.43,-216.56C371.43,-216.56 178.5,-216.56 178.5,-216.56 172.5,-216.56 166.5,-210.56 166.5,-204.56 166.5,-204.56 166.5,-184.28 166.5,-184.28 166.5,-178.28 172.5,-172.28 178.5,-172.28 178.5,-172.28 371.43,-172.28 371.43,-172.28 377.43,-172.28 383.43,-178.28 383.43,-184.28 383.43,-184.28 383.43,-204.56 383.43,-204.56 383.43,-210.56 377.43,-216.56 371.43,-216.56"/>
<text xml:space="preserve" text-anchor="middle" x="274.97" y="-197.47" font-family="Arial" font-size="11.00">➡ Próximo Passo: Análise de Crédito</text>
<text xml:space="preserve" text-anchor="middle" x="274.97" y="-183.97" font-family="Arial" font-size="11.00">(clique para abrir o fluxo)</text>
</a>
</g>
</g>
<!-- saida&#45;&gt;proximo_credito -->
<g id="edge16" class="edge">
<title>saida&#45;&gt;proximo_credito</title>
<path fill="none" stroke="#4a4a4a" d="M274.97,-276.75C274.97,-276.75 274.97,-226.39 274.97,-226.39"/>
<polygon fill="#4a4a4a" stroke="#4a4a4a" points="277.77,-226.39 274.97,-218.39 272.17,-226.39 277.77,-226.39"/>
</g>
<!-- proximo_credito&#45;&gt;end -->
<g id="edge17" class="edge">
<title>proximo_credito&#45;&gt;end</title>
<path fill="none" stroke="#4a4a4a" d="M274.97,-171.81C274.97,-171.81 274.97,-78.14 274.97,-78.14"/>
<polygon fill="#4a4a4a" stroke="#4a4a4a" points="277.77,-78.14 274.97,-70.14 272.17,-78.14 277.77,-78.14"/>
</g>
</g>
</svg>
