<?xml version="1.0" encoding="UTF-8" standalone="no"?>
<!DOCTYPE svg PUBLIC "-//W3C//DTD SVG 1.1//EN"
 "http://www.w3.org/Graphics/SVG/1.1/DTD/svg11.dtd">
<!-- Generated by graphviz version 14.1.0 (20251206.1807)
 -->
<!-- Title: RFPMoura_DCEX_Extracompany_ANALISE_CREDITO Pages: 1 -->
<svg width="898pt" height="981pt"
 viewBox="0.00 0.00 898.00 981.00" xmlns="http://www.w3.org/2000/svg" xmlns:xlink="http://www.w3.org/1999/xlink">
<g id="graph0" class="graph" transform="scale(1 1) rotate(0) translate(36 945.37)">
<title>RFPMoura_DCEX_Extracompany_ANALISE_CREDITO</title>
<polygon fill="white" stroke="none" points="-36,36 -36,-945.37 862,-945.37 862,36 -36,36"/>
<text xml:space="preserve" text-anchor="middle" x="413" y="-882.57" font-family="Arial Bold" font-size="24.00">RFPMoura | DCEX — Processo de ANALISE_CREDITO (Extracompany)</text>
<!-- ANALISE_CREDITO_VOLTAR -->
<g id="node1" class="node">
<title>ANALISE_CREDITO_VOLTAR</title>
<g id="a_node1"><a xlink:href="RFPMoura_DCEX_Extracompany_MindMap.svg" xlink:title="Voltar ao mindmap de Extracompany" target="_self">
<path fill="#ffffff" stroke="#1f5fbf" stroke-width="3" d="M540.12,-874.37C540.12,-874.37 285.88,-874.37 285.88,-874.37 279.88,-874.37 273.88,-868.37 273.88,-862.37 273.88,-862.37 273.88,-850.37 273.88,-850.37 273.88,-844.37 279.88,-838.37 285.88,-838.37 285.88,-838.37 540.12,-838.37 540.12,-838.37 546.12,-838.37 552.12,-844.37 552.12,-850.37 552.12,-850.37 552.12,-862.37 552.12,-862.37 552.12,-868.37 546.12,-874.37 540.12,-874.37"/>
<text xml:space="preserve" text-anchor="middle" x="413" y="-852.1" font-family="Arial" font-size="12.00" fill="#1f5fbf">⟵ Voltar para Macroprocesso Extracompany</text>
</a>
</g>
</g>
<!-- ANALISE_CREDITO_ETAPA1 -->
<g id="node2" class="node">
<title>ANALISE_CREDITO_ETAPA1</title>
<path fill="#e7f1ff" stroke="#0b5ed7" stroke-width="2" d="M535.25,-773.37C535.25,-773.37 290.75,-773.37 290.75,-773.37 284.75,-773.37 278.75,-767.37 278.75,-761.37 278.75,-761.37 278.75,-736.71 278.75,-736.71 278.75,-730.71 284.75,-724.71 290.75,-724.71 290.75,-724.71 535.25,-724.71 535.25,-724.71 541.25,-724.71 547.25,-730.71 547.25,-736.71 547.25,-736.71 547.25,-761.37 547.25,-761.37 547.25,-767.37 541.25,-773.37 535.25,-773.37"/>
<text xml:space="preserve" text-anchor="middle" x="413" y="-751.89" font-family="Arial" font-size="12.00" fill="#0b5ed7">1. Receber solicitação de análise de crédito</text>
<text xml:space="preserve" text-anchor="middle" x="413" y="-737.64" font-family="Arial" font-size="12.00" fill="#0b5ed7">(Entrada: Chamado SDM)</text>
</g>
<!-- ANALISE_CREDITO_VOLTAR&#45;&gt;ANALISE_CREDITO_ETAPA1 -->
<g id="edge1" class="edge">
<title>ANALISE_CREDITO_VOLTAR&#45;&gt;ANALISE_CREDITO_ETAPA1</title>
<path fill="none" stroke="#6c757d" stroke-width="1.8" d="M413,-837.18C413,-837.18 413,-785.85 413,-785.85"/>
<polygon fill="#6c757d" stroke="#6c757d" stroke-width="1.8" points="416.15,-785.85 413,-776.85 409.85,-785.85 416.15,-785.85"/>
</g>
<!-- ANALISE_CREDITO_ETAPA2 -->
<g id="node3" class="node">
<title>ANALISE_CREDITO_ETAPA2</title>
<path fill="#ffffff" stroke="#2b2b2b" d="M555.5,-659.71C555.5,-659.71 270.5,-659.71 270.5,-659.71 264.5,-659.71 258.5,-653.71 258.5,-647.71 258.5,-647.71 258.5,-623.05 258.5,-623.05 258.5,-617.05 264.5,-611.05 270.5,-611.05 270.5,-611.05 555.5,-611.05 555.5,-611.05 561.5,-611.05 567.5,-617.05 567.5,-623.05 567.5,-623.05 567.5,-647.71 567.5,-647.71 567.5,-653.71 561.5,-659.71 555.5,-659.71"/>
<text xml:space="preserve" text-anchor="middle" x="413" y="-638.23" font-family="Arial" font-size="12.00">2. Coletar informações financeiras</text>
<text xml:space="preserve" text-anchor="middle" x="413" y="-623.98" font-family="Arial" font-size="12.00">(SDM, Portal Seguradora, E&#45;mail, Teams, Ploomes)</text>
</g>
<!-- ANALISE_CREDITO_ETAPA1&#45;&gt;ANALISE_CREDITO_ETAPA2 -->
<g id="edge2" class="edge">
<title>ANALISE_CREDITO_ETAPA1&#45;&gt;ANALISE_CREDITO_ETAPA2</title>
<path fill="none" stroke="#6c757d" stroke-width="1.8" d="M413,-723.82C413,-723.82 413,-671.87 413,-671.87"/>
<polygon fill="#6c757d" stroke="#6c757d" stroke-width="1.8" points="416.15,-671.87 413,-662.87 409.85,-671.87 416.15,-671.87"/>
</g>
<!-- ANALISE_CREDITO_ETAPA3 -->
<g id="node4" class="node">
<title>ANALISE_CREDITO_ETAPA3</title>
<path fill="#ffffff" stroke="#2b2b2b" d="M522.88,-546.05C522.88,-546.05 303.12,-546.05 303.12,-546.05 297.12,-546.05 291.12,-540.05 291.12,-534.05 291.12,-534.05 291.12,-466.64 291.12,-466.64 291.12,-460.64 297.12,-454.64 303.12,-454.64 303.12,-454.64 522.88,-454.64 522.88,-454.64 528.88,-454.64 534.88,-460.64 534.88,-466.64 534.88,-466.64 534.88,-534.05 534.88,-534.05 534.88,-540.05 528.88,-546.05 522.88,-546.05"/>
<text xml:space="preserve" text-anchor="middle" x="413" y="-524.57" font-family="Arial" font-size="12.00">3. Avaliar situação financeira do cliente</text>
<text xml:space="preserve" text-anchor="middle" x="413" y="-510.32" font-family="Arial" font-size="12.00">&#45; Saldos</text>
<text xml:space="preserve" text-anchor="middle" x="413" y="-496.07" font-family="Arial" font-size="12.00">&#45; Créditos</text>
<text xml:space="preserve" text-anchor="middle" x="413" y="-481.82" font-family="Arial" font-size="12.00">&#45; Vencimentos</text>
<text xml:space="preserve" text-anchor="middle" x="413" y="-467.57" font-family="Arial" font-size="12.00">&#45; Riscos da operação</text>
</g>
<!-- ANALISE_CREDITO_ETAPA2&#45;&gt;ANALISE_CREDITO_ETAPA3 -->
<g id="edge3" class="edge">
<title>ANALISE_CREDITO_ETAPA2&#45;&gt;ANALISE_CREDITO_ETAPA3</title>
<path fill="none" stroke="#6c757d" stroke-width="1.8" d="M413,-610.61C413,-610.61 413,-558.26 413,-558.26"/>
<polygon fill="#6c757d" stroke="#6c757d" stroke-width="1.8" points="416.15,-558.26 413,-549.26 409.85,-558.26 416.15,-558.26"/>
</g>
<!-- ANALISE_CREDITO_ETAPA4 -->
<g id="node5" class="node">
<title>ANALISE_CREDITO_ETAPA4</title>
<path fill="#ffffff" stroke="#2b2b2b" d="M533.38,-389.64C533.38,-389.64 292.62,-389.64 292.62,-389.64 286.62,-389.64 280.62,-383.64 280.62,-377.64 280.62,-377.64 280.62,-352.98 280.62,-352.98 280.62,-346.98 286.62,-340.98 292.62,-340.98 292.62,-340.98 533.38,-340.98 533.38,-340.98 539.38,-340.98 545.38,-346.98 545.38,-352.98 545.38,-352.98 545.38,-377.64 545.38,-377.64 545.38,-383.64 539.38,-389.64 533.38,-389.64"/>
<text xml:space="preserve" text-anchor="middle" x="413" y="-368.16" font-family="Arial" font-size="12.00">4. Consultar limites e bloqueios financeiros</text>
<text xml:space="preserve" text-anchor="middle" x="413" y="-353.91" font-family="Arial" font-size="12.00">(ERP / Seguradora)</text>
</g>
<!-- ANALISE_CREDITO_ETAPA3&#45;&gt;ANALISE_CREDITO_ETAPA4 -->
<g id="edge4" class="edge">
<title>ANALISE_CREDITO_ETAPA3&#45;&gt;ANALISE_CREDITO_ETAPA4</title>
<path fill="none" stroke="#6c757d" stroke-width="1.8" d="M413,-454.25C413,-454.25 413,-401.71 413,-401.71"/>
<polygon fill="#6c757d" stroke="#6c757d" stroke-width="1.8" points="416.15,-401.71 413,-392.71 409.85,-401.71 416.15,-401.71"/>
</g>
<!-- ANALISE_CREDITO_ETAPA5 -->
<g id="node6" class="node">
<title>ANALISE_CREDITO_ETAPA5</title>
<path fill="#ffffff" stroke="#2b2b2b" d="M540.5,-275.98C540.5,-275.98 285.5,-275.98 285.5,-275.98 279.5,-275.98 273.5,-269.98 273.5,-263.98 273.5,-263.98 273.5,-239.32 273.5,-239.32 273.5,-233.32 279.5,-227.32 285.5,-227.32 285.5,-227.32 540.5,-227.32 540.5,-227.32 546.5,-227.32 552.5,-233.32 552.5,-239.32 552.5,-239.32 552.5,-263.98 552.5,-263.98 552.5,-269.98 546.5,-275.98 540.5,-275.98"/>
<text xml:space="preserve" text-anchor="middle" x="413" y="-254.5" font-family="Arial" font-size="12.00">5. Validar necessidade de aprovação superior</text>
<text xml:space="preserve" text-anchor="middle" x="413" y="-240.25" font-family="Arial" font-size="12.00">(Gestão de Aprovação / Diretoria)</text>
</g>
<!-- ANALISE_CREDITO_ETAPA4&#45;&gt;ANALISE_CREDITO_ETAPA5 -->
<g id="edge5" class="edge">
<title>ANALISE_CREDITO_ETAPA4&#45;&gt;ANALISE_CREDITO_ETAPA5</title>
<path fill="none" stroke="#6c757d" stroke-width="1.8" d="M413,-340.65C413,-340.65 413,-287.99 413,-287.99"/>
<polygon fill="#6c757d" stroke="#6c757d" stroke-width="1.8" points="416.15,-287.99 413,-278.99 409.85,-287.99 416.15,-287.99"/>
</g>
<!-- ANALISE_CREDITO_ETAPA6 -->
<g id="node7" class="node">
<title>ANALISE_CREDITO_ETAPA6</title>
<path fill="#ffffff" stroke="#2b2b2b" d="M539.38,-162.32C539.38,-162.32 286.62,-162.32 286.62,-162.32 280.62,-162.32 274.62,-156.32 274.62,-150.32 274.62,-150.32 274.62,-125.66 274.62,-125.66 274.62,-119.66 280.62,-113.66 286.62,-113.66 286.62,-113.66 539.38,-113.66 539.38,-113.66 545.38,-113.66 551.38,-119.66 551.38,-125.66 551.38,-125.66 551.38,-150.32 551.38,-150.32 551.38,-156.32 545.38,-162.32 539.38,-162.32"/>
<text xml:space="preserve" text-anchor="middle" x="413" y="-140.84" font-family="Arial" font-size="12.00">6. Formalizar parecer de crédito</text>
<text xml:space="preserve" text-anchor="middle" x="413" y="-126.59" font-family="Arial" font-size="12.00">Interno: até 48h / Seguradora: até 5 dias úteis</text>
</g>
<!-- ANALISE_CREDITO_ETAPA5&#45;&gt;ANALISE_CREDITO_ETAPA6 -->
<g id="edge6" class="edge">
<title>ANALISE_CREDITO_ETAPA5&#45;&gt;ANALISE_CREDITO_ETAPA6</title>
<path fill="none" stroke="#6c757d" stroke-width="1.8" d="M413,-226.99C413,-226.99 413,-174.33 413,-174.33"/>
<polygon fill="#6c757d" stroke="#6c757d" stroke-width="1.8" points="416.15,-174.33 413,-165.33 409.85,-174.33 416.15,-174.33"/>
</g>
<!-- ANALISE_CREDITO_ETAPA7 -->
<g id="node8" class="node">
<title>ANALISE_CREDITO_ETAPA7</title>
<path fill="#eaf7ef" stroke="#146c43" stroke-width="2" d="M495.88,-48.66C495.88,-48.66 330.12,-48.66 330.12,-48.66 324.12,-48.66 318.12,-42.66 318.12,-36.66 318.12,-36.66 318.12,-12 318.12,-12 318.12,-6 324.12,0 330.12,0 330.12,0 495.88,0 495.88,0 501.88,0 507.88,-6 507.88,-12 507.88,-12 507.88,-36.66 507.88,-36.66 507.88,-42.66 501.88,-48.66 495.88,-48.66"/>
<text xml:space="preserve" text-anchor="middle" x="413" y="-27.18" font-family="Arial" font-size="12.00" fill="#146c43">7. Emitir decisão final</text>
<text xml:space="preserve" text-anchor="middle" x="413" y="-12.93" font-family="Arial" font-size="12.00" fill="#146c43">Saída: Aprovação de Crédito</text>
</g>
<!-- ANALISE_CREDITO_ETAPA6&#45;&gt;ANALISE_CREDITO_ETAPA7 -->
<g id="edge7" class="edge">
<title>ANALISE_CREDITO_ETAPA6&#45;&gt;ANALISE_CREDITO_ETAPA7</title>
<path fill="none" stroke="#6c757d" stroke-width="1.8" d="M413,-113.33C413,-113.33 413,-61.06 413,-61.06"/>
<polygon fill="#6c757d" stroke="#6c757d" stroke-width="1.8" points="416.15,-61.06 413,-52.06 409.85,-61.06 416.15,-61.06"/>
</g>
</g>
</svg>
