<?xml version="1.0" encoding="UTF-8" standalone="no"?>
<!DOCTYPE svg PUBLIC "-//W3C//DTD SVG 1.1//EN"
 "http://www.w3.org/Graphics/SVG/1.1/DTD/svg11.dtd">
<!-- Generated by graphviz version 14.1.0 (20251206.1807)
 -->
<!-- Title: RFPMoura_DCBT_Reposicao_Chumbo_POSVENDA_GARANTIA Pages: 1 -->
<svg width="1461pt" height="2213pt"
 viewBox="14.00 14.00 1446.00 2199.00" xmlns="http://www.w3.org/2000/svg" xmlns:xlink="http://www.w3.org/1999/xlink">
<g id="graph0" class="graph" transform="scale(1 1) rotate(0) translate(28.8 2184.5)">
<title>RFPMoura_DCBT_Reposicao_Chumbo_POSVENDA_GARANTIA</title>
<polygon fill="white" stroke="none" points="-14.4,14.4 -14.4,-2170.1 1417.33,-2170.1 1417.33,14.4 -14.4,14.4"/>
<text xml:space="preserve" text-anchor="middle" x="701.46" y="-2134.6" font-family="Arial" font-size="18.00">AS&#45;IS | DCBT — Reposição (Chumbo)</text>
<text xml:space="preserve" text-anchor="middle" x="701.46" y="-2113.6" font-family="Arial" font-size="18.00">Pós&#45;Venda (Garantia) — Suporte e Tratativa de Garantia</text>
<!-- start -->
<g id="node1" class="node">
<title>start</title>
<ellipse fill="#2ecc71" stroke="#2ecc71" cx="317.22" cy="-2087.7" rx="7.2" ry="7.2"/>
</g>
<!-- receber_solicitacao -->
<g id="node13" class="node">
<title>receber_solicitacao</title>
<path fill="#f2fbf6" stroke="#1e7e34" stroke-width="1.8" d="M436.18,-2008.2C436.18,-2008.2 198.25,-2008.2 198.25,-2008.2 192.25,-2008.2 186.25,-2002.2 186.25,-1996.2 186.25,-1996.2 186.25,-1909.42 186.25,-1909.42 186.25,-1903.42 192.25,-1897.42 198.25,-1897.42 198.25,-1897.42 436.18,-1897.42 436.18,-1897.42 442.18,-1897.42 448.18,-1903.42 448.18,-1909.42 448.18,-1909.42 448.18,-1996.2 448.18,-1996.2 448.18,-2002.2 442.18,-2008.2 436.18,-2008.2"/>
<text xml:space="preserve" text-anchor="middle" x="317.22" y="-1989.11" font-family="Arial" font-size="11.00">1) Receber Solicitação de Pós&#45;Venda / Garantia</text>
<text xml:space="preserve" text-anchor="middle" x="317.22" y="-1975.61" font-family="Arial" font-size="11.00">Entrada: solicitação do cliente</text>
<text xml:space="preserve" text-anchor="middle" x="317.22" y="-1949.11" font-family="Arial" font-size="11.00">Atividade Executada:</text>
<text xml:space="preserve" text-anchor="middle" x="317.22" y="-1935.61" font-family="Arial" font-size="11.00">Suporte e Garantia</text>
<text xml:space="preserve" text-anchor="middle" x="317.22" y="-1909.11" font-family="Arial" font-size="11.00">Canais: 0800 / E&#45;mail / WhatsApp / Forms</text>
</g>
<!-- start&#45;&gt;receber_solicitacao -->
<g id="edge1" class="edge">
<title>start&#45;&gt;receber_solicitacao</title>
<path fill="none" stroke="#4a4a4a" d="M317.22,-2080.06C317.22,-2080.06 317.22,-2018.57 317.22,-2018.57"/>
<polygon fill="#4a4a4a" stroke="#4a4a4a" points="320.02,-2018.57 317.22,-2010.57 314.42,-2018.57 320.02,-2018.57"/>
</g>
<!-- end -->
<g id="node2" class="node">
<title>end</title>
<ellipse fill="#e74c3c" stroke="#e74c3c" cx="141.22" cy="-89.39" rx="8.64" ry="8.64"/>
<ellipse fill="none" stroke="#e74c3c" cx="141.22" cy="-89.39" rx="12.64" ry="12.64"/>
</g>
<!-- voltarHub -->
<g id="node3" class="node">
<title>voltarHub</title>
<g id="a_node3"><a xlink:href="RFPMoura_DCBT_Processos_MindMap.svg" xlink:title="↩ HUB (DCBT)" target="_self">
<path fill="#eef6ff" stroke="#1f5fbf" stroke-width="1.2" d="M471.06,-2105.7C471.06,-2105.7 379.38,-2105.7 379.38,-2105.7 373.38,-2105.7 367.38,-2099.7 367.38,-2093.7 367.38,-2093.7 367.38,-2081.7 367.38,-2081.7 367.38,-2075.7 373.38,-2069.7 379.38,-2069.7 379.38,-2069.7 471.06,-2069.7 471.06,-2069.7 477.06,-2069.7 483.06,-2075.7 483.06,-2081.7 483.06,-2081.7 483.06,-2093.7 483.06,-2093.7 483.06,-2099.7 477.06,-2105.7 471.06,-2105.7"/>
<text xml:space="preserve" text-anchor="middle" x="425.22" y="-2084" font-family="Arial" font-size="11.00">↩ HUB (DCBT)</text>
</a>
</g>
</g>
<!-- voltarReposicao -->
<g id="node4" class="node">
<title>voltarReposicao</title>
<g id="a_node4"><a xlink:href="RFPMoura_DCBT_Reposicao_MindMap.svg" xlink:title="⬅ Voltar para REPOSIÇÃO (Mindmap)" target="_self">
<path fill="#e7f1ff" stroke="#0b5ed7" stroke-width="1.6" d="M740.56,-2105.7C740.56,-2105.7 537.88,-2105.7 537.88,-2105.7 531.88,-2105.7 525.88,-2099.7 525.88,-2093.7 525.88,-2093.7 525.88,-2081.7 525.88,-2081.7 525.88,-2075.7 531.88,-2069.7 537.88,-2069.7 537.88,-2069.7 740.56,-2069.7 740.56,-2069.7 746.56,-2069.7 752.56,-2075.7 752.56,-2081.7 752.56,-2081.7 752.56,-2093.7 752.56,-2093.7 752.56,-2099.7 746.56,-2105.7 740.56,-2105.7"/>
<text xml:space="preserve" text-anchor="middle" x="639.22" y="-2084" font-family="Arial" font-size="11.00">⬅ Voltar para REPOSIÇÃO (Mindmap)</text>
</a>
</g>
</g>
<!-- voltarPAM -->
<g id="node5" class="node">
<title>voltarPAM</title>
<g id="a_node5"><a xlink:href="RFPMoura_DCBT_Reposicao_Chumbo_PAM.svg" xlink:title="PAM pode originar casos de garantia (BIN)" target="_self">
<path fill="#fff3e0" stroke="#e65100" stroke-width="1.2" d="M912.81,-2105.7C912.81,-2105.7 807.62,-2105.7 807.62,-2105.7 801.62,-2105.7 795.62,-2099.7 795.62,-2093.7 795.62,-2093.7 795.62,-2081.7 795.62,-2081.7 795.62,-2075.7 801.62,-2069.7 807.62,-2069.7 807.62,-2069.7 912.81,-2069.7 912.81,-2069.7 918.81,-2069.7 924.81,-2075.7 924.81,-2081.7 924.81,-2081.7 924.81,-2093.7 924.81,-2093.7 924.81,-2099.7 918.81,-2105.7 912.81,-2105.7"/>
<text xml:space="preserve" text-anchor="middle" x="860.22" y="-2084" font-family="Arial" font-size="11.00">⬅ Voltar para PAM</text>
</a>
</g>
</g>
<!-- voltarPedido -->
<g id="node6" class="node">
<title>voltarPedido</title>
<g id="a_node6"><a xlink:href="RFPMoura_DCBT_Reposicao_Chumbo_REALIZAR_PEDIDO.svg" xlink:title="⬅ Voltar para REALIZAR PEDIDO" target="_self">
<path fill="#e7f1ff" stroke="#0b5ed7" stroke-width="1.2" d="M1162.43,-2105.7C1162.43,-2105.7 980,-2105.7 980,-2105.7 974,-2105.7 968,-2099.7 968,-2093.7 968,-2093.7 968,-2081.7 968,-2081.7 968,-2075.7 974,-2069.7 980,-2069.7 980,-2069.7 1162.43,-2069.7 1162.43,-2069.7 1168.43,-2069.7 1174.43,-2075.7 1174.43,-2081.7 1174.43,-2081.7 1174.43,-2093.7 1174.43,-2093.7 1174.43,-2099.7 1168.43,-2105.7 1162.43,-2105.7"/>
<text xml:space="preserve" text-anchor="middle" x="1071.22" y="-2084" font-family="Arial" font-size="11.00">⬅ Voltar para REALIZAR PEDIDO</text>
</a>
</g>
</g>
<!-- irEncerramento -->
<g id="node7" class="node">
<title>irEncerramento</title>
<g id="a_node7"><a xlink:title="Etapas administrativas do fluxo" target="_self">
<path fill="#f2fbf6" stroke="#1e7e34" stroke-width="1.2" d="M1390.93,-2105.7C1390.93,-2105.7 1229.5,-2105.7 1229.5,-2105.7 1223.5,-2105.7 1217.5,-2099.7 1217.5,-2093.7 1217.5,-2093.7 1217.5,-2081.7 1217.5,-2081.7 1217.5,-2075.7 1223.5,-2069.7 1229.5,-2069.7 1229.5,-2069.7 1390.93,-2069.7 1390.93,-2069.7 1396.93,-2069.7 1402.93,-2075.7 1402.93,-2081.7 1402.93,-2081.7 1402.93,-2093.7 1402.93,-2093.7 1402.93,-2099.7 1396.93,-2105.7 1390.93,-2105.7"/>
<text xml:space="preserve" text-anchor="middle" x="1310.22" y="-2084" font-family="Arial" font-size="11.00">✅ Encerramento e Pagamento</text>
</a>
</g>
</g>
<!-- stakeholders -->
<g id="node8" class="node">
<title>stakeholders</title>
<polygon fill="#f8f9fa" stroke="#2b2b2b" points="727.43,-2008.7 491,-2008.7 491,-1896.92 733.43,-1896.92 733.43,-2002.7 727.43,-2008.7"/>
<polyline fill="none" stroke="#2b2b2b" points="727.43,-2008.7 727.43,-2002.7"/>
<polyline fill="none" stroke="#2b2b2b" points="733.43,-2002.7 727.43,-2002.7"/>
<text xml:space="preserve" text-anchor="middle" x="612.22" y="-1989.61" font-family="Arial" font-size="11.00">Key Users / Áreas / Stakeholders:</text>
<text xml:space="preserve" text-anchor="middle" x="612.22" y="-1976.11" font-family="Arial" font-size="11.00">• DCBT</text>
<text xml:space="preserve" text-anchor="middle" x="612.22" y="-1962.61" font-family="Arial" font-size="11.00">• Unidades RSM</text>
<text xml:space="preserve" text-anchor="middle" x="612.22" y="-1949.11" font-family="Arial" font-size="11.00">• Engenharia de Pós&#45;Vendas</text>
<text xml:space="preserve" text-anchor="middle" x="612.22" y="-1935.61" font-family="Arial" font-size="11.00">• Atendimento Vendas e Serviços ao Cliente</text>
<text xml:space="preserve" text-anchor="middle" x="612.22" y="-1922.11" font-family="Arial" font-size="11.00">• Financeiro</text>
<text xml:space="preserve" text-anchor="middle" x="612.22" y="-1908.61" font-family="Arial" font-size="11.00">• Compras</text>
</g>
<!-- entradas -->
<g id="node9" class="node">
<title>entradas</title>
<polygon fill="#f8f9fa" stroke="#2b2b2b" points="825.93,-1835.67 496.5,-1835.67 496.5,-1737.89 831.93,-1737.89 831.93,-1829.67 825.93,-1835.67"/>
<polyline fill="none" stroke="#2b2b2b" points="825.93,-1835.67 825.93,-1829.67"/>
<polyline fill="none" stroke="#2b2b2b" points="831.93,-1829.67 825.93,-1829.67"/>
<text xml:space="preserve" text-anchor="middle" x="664.22" y="-1816.58" font-family="Arial" font-size="11.00">Entrada de Dados / Informação:</text>
<text xml:space="preserve" text-anchor="middle" x="664.22" y="-1803.08" font-family="Arial" font-size="11.00">• Solicitação encaminhada para Engenharia ou RSM (Garantia)</text>
<text xml:space="preserve" text-anchor="middle" x="664.22" y="-1776.58" font-family="Arial" font-size="11.00">Canais:</text>
<text xml:space="preserve" text-anchor="middle" x="664.22" y="-1763.08" font-family="Arial" font-size="11.00">• 0800 / E&#45;mail / WhatsApp / Forms</text>
<text xml:space="preserve" text-anchor="middle" x="664.22" y="-1749.58" font-family="Arial" font-size="11.00">• Planilhas (Excel) quando aplicável</text>
</g>
<!-- sistemas -->
<g id="node10" class="node">
<title>sistemas</title>
<polygon fill="#f8f9fa" stroke="#2b2b2b" points="599.43,-1676.64 477,-1676.64 477,-1484.86 605.43,-1484.86 605.43,-1670.64 599.43,-1676.64"/>
<polyline fill="none" stroke="#2b2b2b" points="599.43,-1676.64 599.43,-1670.64"/>
<polyline fill="none" stroke="#2b2b2b" points="605.43,-1670.64 599.43,-1670.64"/>
<text xml:space="preserve" text-anchor="middle" x="541.22" y="-1657.55" font-family="Arial" font-size="11.00">Sistemas Utilizados:</text>
<text xml:space="preserve" text-anchor="middle" x="541.22" y="-1644.05" font-family="Arial" font-size="11.00">• 0800</text>
<text xml:space="preserve" text-anchor="middle" x="541.22" y="-1630.55" font-family="Arial" font-size="11.00">• E&#45;mail</text>
<text xml:space="preserve" text-anchor="middle" x="541.22" y="-1617.05" font-family="Arial" font-size="11.00">• WhatsApp</text>
<text xml:space="preserve" text-anchor="middle" x="541.22" y="-1603.55" font-family="Arial" font-size="11.00">• Forms</text>
<text xml:space="preserve" text-anchor="middle" x="541.22" y="-1590.05" font-family="Arial" font-size="11.00">• Excel</text>
<text xml:space="preserve" text-anchor="middle" x="541.22" y="-1576.55" font-family="Arial" font-size="11.00">• SAP</text>
<text xml:space="preserve" text-anchor="middle" x="541.22" y="-1550.05" font-family="Arial" font-size="11.00">Frequência:</text>
<text xml:space="preserve" text-anchor="middle" x="541.22" y="-1536.55" font-family="Arial" font-size="11.00">• Sob demanda</text>
<text xml:space="preserve" text-anchor="middle" x="541.22" y="-1510.05" font-family="Arial" font-size="11.00">Tempo Médio:</text>
<text xml:space="preserve" text-anchor="middle" x="541.22" y="-1496.55" font-family="Arial" font-size="11.00">• N/D</text>
</g>
<!-- oportunidades -->
<g id="node11" class="node">
<title>oportunidades</title>
<polygon fill="#f8f9fa" stroke="#2b2b2b" points="1131.18,-636.37 875.25,-636.37 875.25,-551.59 1137.18,-551.59 1137.18,-630.37 1131.18,-636.37"/>
<polyline fill="none" stroke="#2b2b2b" points="1131.18,-636.37 1131.18,-630.37"/>
<polyline fill="none" stroke="#2b2b2b" points="1137.18,-630.37 1131.18,-630.37"/>
<text xml:space="preserve" text-anchor="middle" x="1006.22" y="-617.28" font-family="Arial" font-size="11.00">Oportunidades:</text>
<text xml:space="preserve" text-anchor="middle" x="1006.22" y="-603.78" font-family="Arial" font-size="11.00">• Centralização e padronização da comunicação</text>
<text xml:space="preserve" text-anchor="middle" x="1006.22" y="-590.28" font-family="Arial" font-size="11.00">• Melhoria na experiência de uso</text>
<text xml:space="preserve" text-anchor="middle" x="1006.22" y="-576.78" font-family="Arial" font-size="11.00">• Gestão de SLAs</text>
<text xml:space="preserve" text-anchor="middle" x="1006.22" y="-563.28" font-family="Arial" font-size="11.00">• Redução de retrabalho entre áreas</text>
</g>
<!-- produto_salesforce -->
<g id="node12" class="node">
<title>produto_salesforce</title>
<polygon fill="#f8f9fa" stroke="#2b2b2b" points="505.81,-178.78 196.63,-178.78 196.63,0 511.81,0 511.81,-172.78 505.81,-178.78"/>
<polyline fill="none" stroke="#2b2b2b" points="505.81,-178.78 505.81,-172.78"/>
<polyline fill="none" stroke="#2b2b2b" points="511.81,-172.78 505.81,-172.78"/>
<text xml:space="preserve" text-anchor="middle" x="354.22" y="-159.69" font-family="Arial" font-size="11.00">Produto Salesforce:</text>
<text xml:space="preserve" text-anchor="middle" x="354.22" y="-146.19" font-family="Arial" font-size="11.00">• Service Cloud</text>
<text xml:space="preserve" text-anchor="middle" x="354.22" y="-132.69" font-family="Arial" font-size="11.00">• Experience Cloud</text>
<text xml:space="preserve" text-anchor="middle" x="354.22" y="-119.19" font-family="Arial" font-size="11.00">• Integração</text>
<text xml:space="preserve" text-anchor="middle" x="354.22" y="-92.69" font-family="Arial" font-size="11.00">Soluções Aplicáveis:</text>
<text xml:space="preserve" text-anchor="middle" x="354.22" y="-79.19" font-family="Arial" font-size="11.00">• Portal para registrar solicitações e acompanhar progresso</text>
<text xml:space="preserve" text-anchor="middle" x="354.22" y="-65.69" font-family="Arial" font-size="11.00">• Acesso a dados, pedidos e documentos</text>
<text xml:space="preserve" text-anchor="middle" x="354.22" y="-52.19" font-family="Arial" font-size="11.00">• Autosserviço e redução de custo</text>
<text xml:space="preserve" text-anchor="middle" x="354.22" y="-38.69" font-family="Arial" font-size="11.00">• Status de pedidos vinculados ao caso</text>
<text xml:space="preserve" text-anchor="middle" x="354.22" y="-25.19" font-family="Arial" font-size="11.00">• Abertura/classificação/priorização/resolução de casos</text>
<text xml:space="preserve" text-anchor="middle" x="354.22" y="-11.69" font-family="Arial" font-size="11.00">• Controle de prazos e SLAs</text>
</g>
<!-- registrar_caso -->
<g id="node14" class="node">
<title>registrar_caso</title>
<path fill="#ffffff" stroke="#2b2b2b" d="M441.81,-1835.92C441.81,-1835.92 192.62,-1835.92 192.62,-1835.92 186.62,-1835.92 180.63,-1829.92 180.63,-1823.92 180.63,-1823.92 180.63,-1749.64 180.63,-1749.64 180.63,-1743.64 186.63,-1737.64 192.63,-1737.64 192.63,-1737.64 441.81,-1737.64 441.81,-1737.64 447.81,-1737.64 453.81,-1743.64 453.81,-1749.64 453.81,-1749.64 453.81,-1823.92 453.81,-1823.92 453.81,-1829.92 447.81,-1835.92 441.81,-1835.92"/>
<text xml:space="preserve" text-anchor="middle" x="317.22" y="-1816.83" font-family="Arial" font-size="11.00">2) Registrar Caso e Informações</text>
<text xml:space="preserve" text-anchor="middle" x="317.22" y="-1803.33" font-family="Arial" font-size="11.00">Ações:</text>
<text xml:space="preserve" text-anchor="middle" x="317.22" y="-1789.83" font-family="Arial" font-size="11.00">• Consolidar dados do cliente/produto</text>
<text xml:space="preserve" text-anchor="middle" x="317.22" y="-1776.33" font-family="Arial" font-size="11.00">• Coletar evidências (NF, lote, fotos, sintomas)</text>
<text xml:space="preserve" text-anchor="middle" x="317.22" y="-1762.83" font-family="Arial" font-size="11.00">• Vincular pedido/nota quando aplicável</text>
<text xml:space="preserve" text-anchor="middle" x="317.22" y="-1749.33" font-family="Arial" font-size="11.00">• Encaminhar para Engenharia ou Unidade (RSM)</text>
</g>
<!-- receber_solicitacao&#45;&gt;registrar_caso -->
<g id="edge2" class="edge">
<title>receber_solicitacao&#45;&gt;registrar_caso</title>
<path fill="none" stroke="#4a4a4a" d="M317.22,-1896.6C317.22,-1896.6 317.22,-1845.77 317.22,-1845.77"/>
<polygon fill="#4a4a4a" stroke="#4a4a4a" points="320.02,-1845.77 317.22,-1837.77 314.42,-1845.77 320.02,-1845.77"/>
</g>
<!-- verificar_elegibilidade -->
<g id="node15" class="node">
<title>verificar_elegibilidade</title>
<path fill="#ffffff" stroke="#2b2b2b" d="M421.56,-1623.14C421.56,-1623.14 212.88,-1623.14 212.88,-1623.14 206.88,-1623.14 200.88,-1617.14 200.88,-1611.14 200.88,-1611.14 200.88,-1550.36 200.88,-1550.36 200.88,-1544.36 206.88,-1538.36 212.88,-1538.36 212.88,-1538.36 421.56,-1538.36 421.56,-1538.36 427.56,-1538.36 433.56,-1544.36 433.56,-1550.36 433.56,-1550.36 433.56,-1611.14 433.56,-1611.14 433.56,-1617.14 427.56,-1623.14 421.56,-1623.14"/>
<text xml:space="preserve" text-anchor="middle" x="317.22" y="-1604.05" font-family="Arial" font-size="11.00">3) Verificar Elegibilidade para Garantia</text>
<text xml:space="preserve" text-anchor="middle" x="317.22" y="-1590.55" font-family="Arial" font-size="11.00">Ações:</text>
<text xml:space="preserve" text-anchor="middle" x="317.22" y="-1577.05" font-family="Arial" font-size="11.00">• Validar prazo/condições</text>
<text xml:space="preserve" text-anchor="middle" x="317.22" y="-1563.55" font-family="Arial" font-size="11.00">• Validar documentação (NF/identificação)</text>
<text xml:space="preserve" text-anchor="middle" x="317.22" y="-1550.05" font-family="Arial" font-size="11.00">• Checar histórico (quando aplicável)</text>
</g>
<!-- registrar_caso&#45;&gt;verificar_elegibilidade -->
<g id="edge3" class="edge">
<title>registrar_caso&#45;&gt;verificar_elegibilidade</title>
<path fill="none" stroke="#4a4a4a" d="M317.22,-1737.17C317.22,-1737.17 317.22,-1632.83 317.22,-1632.83"/>
<polygon fill="#4a4a4a" stroke="#4a4a4a" points="320.02,-1632.83 317.22,-1624.83 314.42,-1632.83 320.02,-1632.83"/>
</g>
<!-- elegivel -->
<g id="node16" class="node">
<title>elegivel</title>
<polygon fill="#fff1b8" stroke="#2b2b2b" points="317.22,-1423.86 215.79,-1379.58 317.21,-1335.3 418.65,-1379.58 317.22,-1423.86"/>
<text xml:space="preserve" text-anchor="middle" x="317.22" y="-1382.63" font-family="Arial" font-size="11.00">Elegível</text>
<text xml:space="preserve" text-anchor="middle" x="317.22" y="-1369.13" font-family="Arial" font-size="11.00">para garantia?</text>
</g>
<!-- verificar_elegibilidade&#45;&gt;elegivel -->
<g id="edge4" class="edge">
<title>verificar_elegibilidade&#45;&gt;elegivel</title>
<path fill="none" stroke="#4a4a4a" d="M317.22,-1538.09C317.22,-1538.09 317.22,-1433.79 317.22,-1433.79"/>
<polygon fill="#4a4a4a" stroke="#4a4a4a" points="320.02,-1433.79 317.22,-1425.79 314.42,-1433.79 320.02,-1433.79"/>
</g>
<!-- negar_garantia -->
<g id="node17" class="node">
<title>negar_garantia</title>
<path fill="#fdecea" stroke="#b02a37" stroke-width="1.2" d="M212.43,-1126.63C212.43,-1126.63 12,-1126.63 12,-1126.63 6,-1126.63 0,-1120.63 0,-1114.63 0,-1114.63 0,-1053.85 0,-1053.85 0,-1047.85 6,-1041.85 12,-1041.85 12,-1041.85 212.43,-1041.85 212.43,-1041.85 218.43,-1041.85 224.43,-1047.85 224.43,-1053.85 224.43,-1053.85 224.43,-1114.63 224.43,-1114.63 224.43,-1120.63 218.43,-1126.63 212.43,-1126.63"/>
<text xml:space="preserve" text-anchor="middle" x="112.22" y="-1107.54" font-family="Arial" font-size="11.00">❌ Não Elegível / Indeferido</text>
<text xml:space="preserve" text-anchor="middle" x="112.22" y="-1094.04" font-family="Arial" font-size="11.00">Ações:</text>
<text xml:space="preserve" text-anchor="middle" x="112.22" y="-1080.54" font-family="Arial" font-size="11.00">• Registrar motivo</text>
<text xml:space="preserve" text-anchor="middle" x="112.22" y="-1067.04" font-family="Arial" font-size="11.00">• Comunicar cliente</text>
<text xml:space="preserve" text-anchor="middle" x="112.22" y="-1053.54" font-family="Arial" font-size="11.00">• Orientar alternativa (serviço pago, etc.)</text>
</g>
<!-- elegivel&#45;&gt;negar_garantia -->
<g id="edge5" class="edge">
<title>elegivel&#45;&gt;negar_garantia</title>
<path fill="none" stroke="#4a4a4a" d="M220.11,-1377.37C220.11,-1377.37 220.11,-1136.65 220.11,-1136.65"/>
<polygon fill="#4a4a4a" stroke="#4a4a4a" points="222.91,-1136.65 220.11,-1128.65 217.31,-1136.65 222.91,-1136.65"/>
<text xml:space="preserve" text-anchor="middle" x="211.11" y="-1259.51" font-family="Arial" font-size="10.00">Não</text>
</g>
<!-- validacao_tecnica -->
<g id="node18" class="node">
<title>validacao_tecnica</title>
<path fill="#ffffff" stroke="#2b2b2b" d="M571.68,-1274.3C571.68,-1274.3 342.75,-1274.3 342.75,-1274.3 336.75,-1274.3 330.75,-1268.3 330.75,-1262.3 330.75,-1262.3 330.75,-1201.52 330.75,-1201.52 330.75,-1195.52 336.75,-1189.52 342.75,-1189.52 342.75,-1189.52 571.68,-1189.52 571.68,-1189.52 577.68,-1189.52 583.68,-1195.52 583.68,-1201.52 583.68,-1201.52 583.68,-1262.3 583.68,-1262.3 583.68,-1268.3 577.68,-1274.3 571.68,-1274.3"/>
<text xml:space="preserve" text-anchor="middle" x="457.22" y="-1255.21" font-family="Arial" font-size="11.00">4) Validação Técnica e Identificação da Causa</text>
<text xml:space="preserve" text-anchor="middle" x="457.22" y="-1241.71" font-family="Arial" font-size="11.00">Ações:</text>
<text xml:space="preserve" text-anchor="middle" x="457.22" y="-1228.21" font-family="Arial" font-size="11.00">• Engenharia Pós&#45;Vendas analisa sintomas</text>
<text xml:space="preserve" text-anchor="middle" x="457.22" y="-1214.71" font-family="Arial" font-size="11.00">• Identificar causa provável</text>
<text xml:space="preserve" text-anchor="middle" x="457.22" y="-1201.21" font-family="Arial" font-size="11.00">• Definir necessidade de ação corretiva</text>
</g>
<!-- elegivel&#45;&gt;validacao_tecnica -->
<g id="edge7" class="edge">
<title>elegivel&#45;&gt;validacao_tecnica</title>
<path fill="none" stroke="#4a4a4a" d="M374.7,-1359.97C374.7,-1359.97 374.7,-1284.16 374.7,-1284.16"/>
<polygon fill="#4a4a4a" stroke="#4a4a4a" points="377.5,-1284.16 374.7,-1276.16 371.9,-1284.16 377.5,-1284.16"/>
<text xml:space="preserve" text-anchor="middle" x="366.07" y="-1324.57" font-family="Arial" font-size="10.00">Sim</text>
</g>
<!-- negar_garantia&#45;&gt;end -->
<g id="edge6" class="edge">
<title>negar_garantia&#45;&gt;end</title>
<path fill="none" stroke="#4a4a4a" d="M55.38,-1041.48C55.38,-850.98 55.38,-89 55.38,-89 55.38,-89 118.66,-89 118.66,-89"/>
<polygon fill="#4a4a4a" stroke="#4a4a4a" points="118.66,-91.8 126.66,-89 118.66,-86.2 118.66,-91.8"/>
</g>
<!-- definir_acao -->
<g id="node19" class="node">
<title>definir_acao</title>
<polygon fill="#fff1b8" stroke="#2b2b2b" points="457.22,-1128.52 332.54,-1084.24 457.21,-1039.96 581.89,-1084.24 457.22,-1128.52"/>
<text xml:space="preserve" text-anchor="middle" x="457.22" y="-1087.29" font-family="Arial" font-size="11.00">Qual ação corretiva</text>
<text xml:space="preserve" text-anchor="middle" x="457.22" y="-1073.79" font-family="Arial" font-size="11.00">é necessária?</text>
</g>
<!-- validacao_tecnica&#45;&gt;definir_acao -->
<g id="edge8" class="edge">
<title>validacao_tecnica&#45;&gt;definir_acao</title>
<path fill="none" stroke="#4a4a4a" d="M457.22,-1189.2C457.22,-1189.2 457.22,-1138.43 457.22,-1138.43"/>
<polygon fill="#4a4a4a" stroke="#4a4a4a" points="460.02,-1138.43 457.22,-1130.43 454.42,-1138.43 460.02,-1138.43"/>
</g>
<!-- enviar_peca -->
<g id="node20" class="node">
<title>enviar_peca</title>
<path fill="#ffffff" stroke="#2b2b2b" d="M297.68,-972.21C297.68,-972.21 122.75,-972.21 122.75,-972.21 116.75,-972.21 110.75,-966.21 110.75,-960.21 110.75,-960.21 110.75,-899.43 110.75,-899.43 110.75,-893.43 116.75,-887.43 122.75,-887.43 122.75,-887.43 297.68,-887.43 297.68,-887.43 303.68,-887.43 309.68,-893.43 309.68,-899.43 309.68,-899.43 309.68,-960.21 309.68,-960.21 309.68,-966.21 303.68,-972.21 297.68,-972.21"/>
<text xml:space="preserve" text-anchor="middle" x="210.22" y="-953.12" font-family="Arial" font-size="11.00">5A) Enviar Peças de Reposição</text>
<text xml:space="preserve" text-anchor="middle" x="210.22" y="-939.62" font-family="Arial" font-size="11.00">Ações:</text>
<text xml:space="preserve" text-anchor="middle" x="210.22" y="-926.12" font-family="Arial" font-size="11.00">• Solicitar peça (Compras/estoque)</text>
<text xml:space="preserve" text-anchor="middle" x="210.22" y="-912.62" font-family="Arial" font-size="11.00">• Separar e enviar</text>
<text xml:space="preserve" text-anchor="middle" x="210.22" y="-899.12" font-family="Arial" font-size="11.00">• Registrar rastreio e SLA</text>
</g>
<!-- definir_acao&#45;&gt;enviar_peca -->
<g id="edge9" class="edge">
<title>definir_acao&#45;&gt;enviar_peca</title>
<path fill="none" stroke="#4a4a4a" d="M342.52,-1080.43C342.52,-1056.68 342.52,-930 342.52,-930 342.52,-930 319.67,-930 319.67,-930"/>
<polygon fill="#4a4a4a" stroke="#4a4a4a" points="319.67,-927.2 311.67,-930 319.67,-932.8 319.67,-927.2"/>
<text xml:space="preserve" text-anchor="middle" x="331.27" y="-996.29" font-family="Arial" font-size="10.00">Peça</text>
</g>
<!-- devolver_para_analise -->
<g id="node21" class="node">
<title>devolver_para_analise</title>
<path fill="#ffffff" stroke="#2b2b2b" d="M549.93,-972.21C549.93,-972.21 364.5,-972.21 364.5,-972.21 358.5,-972.21 352.5,-966.21 352.5,-960.21 352.5,-960.21 352.5,-899.43 352.5,-899.43 352.5,-893.43 358.5,-887.43 364.5,-887.43 364.5,-887.43 549.93,-887.43 549.93,-887.43 555.93,-887.43 561.93,-893.43 561.93,-899.43 561.93,-899.43 561.93,-960.21 561.93,-960.21 561.93,-966.21 555.93,-972.21 549.93,-972.21"/>
<text xml:space="preserve" text-anchor="middle" x="457.22" y="-953.12" font-family="Arial" font-size="11.00">5B) Solicitar Devolução para Análise</text>
<text xml:space="preserve" text-anchor="middle" x="457.22" y="-939.62" font-family="Arial" font-size="11.00">Ações:</text>
<text xml:space="preserve" text-anchor="middle" x="457.22" y="-926.12" font-family="Arial" font-size="11.00">• Orientar envio/devolução</text>
<text xml:space="preserve" text-anchor="middle" x="457.22" y="-912.62" font-family="Arial" font-size="11.00">• Receber item (CD/Almox)</text>
<text xml:space="preserve" text-anchor="middle" x="457.22" y="-899.12" font-family="Arial" font-size="11.00">• Encaminhar para Centro de Análise</text>
</g>
<!-- definir_acao&#45;&gt;devolver_para_analise -->
<g id="edge10" class="edge">
<title>definir_acao&#45;&gt;devolver_para_analise</title>
<path fill="none" stroke="#4a4a4a" d="M457.22,-1039.58C457.22,-1039.58 457.22,-982.04 457.22,-982.04"/>
<polygon fill="#4a4a4a" stroke="#4a4a4a" points="460.02,-982.04 457.22,-974.04 454.42,-982.04 460.02,-982.04"/>
<text xml:space="preserve" text-anchor="middle" x="433.97" y="-1013.31" font-family="Arial" font-size="10.00">Devolução</text>
</g>
<!-- outra_acao -->
<g id="node22" class="node">
<title>outra_acao</title>
<path fill="#ffffff" stroke="#2b2b2b" d="M747.18,-978.96C747.18,-978.96 617.25,-978.96 617.25,-978.96 611.25,-978.96 605.25,-972.96 605.25,-966.96 605.25,-966.96 605.25,-892.68 605.25,-892.68 605.25,-886.68 611.25,-880.68 617.25,-880.68 617.25,-880.68 747.18,-880.68 747.18,-880.68 753.18,-880.68 759.18,-886.68 759.18,-892.68 759.18,-892.68 759.18,-966.96 759.18,-966.96 759.18,-972.96 753.18,-978.96 747.18,-978.96"/>
<text xml:space="preserve" text-anchor="middle" x="682.22" y="-959.87" font-family="Arial" font-size="11.00">5C) Outra Ação Corretiva</text>
<text xml:space="preserve" text-anchor="middle" x="682.22" y="-946.37" font-family="Arial" font-size="11.00">Ações:</text>
<text xml:space="preserve" text-anchor="middle" x="682.22" y="-932.87" font-family="Arial" font-size="11.00">• Ajuste operacional</text>
<text xml:space="preserve" text-anchor="middle" x="682.22" y="-919.37" font-family="Arial" font-size="11.00">• Reparo/visita técnica</text>
<text xml:space="preserve" text-anchor="middle" x="682.22" y="-905.87" font-family="Arial" font-size="11.00">• Orientação técnica</text>
<text xml:space="preserve" text-anchor="middle" x="682.22" y="-892.37" font-family="Arial" font-size="11.00">• Registro do plano</text>
</g>
<!-- definir_acao&#45;&gt;outra_acao -->
<g id="edge11" class="edge">
<title>definir_acao&#45;&gt;outra_acao</title>
<path fill="none" stroke="#4a4a4a" d="M571.91,-1080.43C571.91,-1056.68 571.91,-930 571.91,-930 571.91,-930 595.49,-930 595.49,-930"/>
<polygon fill="#4a4a4a" stroke="#4a4a4a" points="595.49,-932.8 603.49,-930 595.49,-927.2 595.49,-932.8"/>
<text xml:space="preserve" text-anchor="middle" x="559.91" y="-995.92" font-family="Arial" font-size="10.00">Outra</text>
</g>
<!-- confirmar_execucao -->
<g id="node23" class="node">
<title>confirmar_execucao</title>
<polygon fill="#fff1b8" stroke="#2b2b2b" points="457.22,-819.68 357.29,-761.9 457.21,-704.12 557.14,-761.9 457.22,-819.68"/>
<text xml:space="preserve" text-anchor="middle" x="457.22" y="-771.7" font-family="Arial" font-size="11.00">Serviço/ação</text>
<text xml:space="preserve" text-anchor="middle" x="457.22" y="-758.2" font-family="Arial" font-size="11.00">executada</text>
<text xml:space="preserve" text-anchor="middle" x="457.22" y="-744.7" font-family="Arial" font-size="11.00">com sucesso?</text>
</g>
<!-- enviar_peca&#45;&gt;confirmar_execucao -->
<g id="edge12" class="edge">
<title>enviar_peca&#45;&gt;confirmar_execucao</title>
<path fill="none" stroke="#4a4a4a" d="M264.47,-887.04C264.47,-837.32 264.47,-762 264.47,-762 264.47,-762 347.09,-762 347.09,-762"/>
<polygon fill="#4a4a4a" stroke="#4a4a4a" points="347.09,-764.8 355.09,-762 347.09,-759.2 347.09,-764.8"/>
</g>
<!-- devolver_para_analise&#45;&gt;confirmar_execucao -->
<g id="edge13" class="edge">
<title>devolver_para_analise&#45;&gt;confirmar_execucao</title>
<path fill="none" stroke="#4a4a4a" d="M457.22,-887.01C457.22,-887.01 457.22,-829.67 457.22,-829.67"/>
<polygon fill="#4a4a4a" stroke="#4a4a4a" points="460.02,-829.67 457.22,-821.67 454.42,-829.67 460.02,-829.67"/>
</g>
<!-- outra_acao&#45;&gt;confirmar_execucao -->
<g id="edge14" class="edge">
<title>outra_acao&#45;&gt;confirmar_execucao</title>
<path fill="none" stroke="#4a4a4a" d="M613.5,-880.38C613.5,-830.87 613.5,-762 613.5,-762 613.5,-762 567.47,-762 567.47,-762"/>
<polygon fill="#4a4a4a" stroke="#4a4a4a" points="567.47,-759.2 559.47,-762 567.47,-764.8 567.47,-759.2"/>
</g>
<!-- retrabalho -->
<g id="node24" class="node">
<title>retrabalho</title>
<path fill="#fffdf2" stroke="#2b2b2b" d="M820.68,-636.37C820.68,-636.37 633.75,-636.37 633.75,-636.37 627.75,-636.37 621.75,-630.37 621.75,-624.37 621.75,-624.37 621.75,-563.59 621.75,-563.59 621.75,-557.59 627.75,-551.59 633.75,-551.59 633.75,-551.59 820.68,-551.59 820.68,-551.59 826.68,-551.59 832.68,-557.59 832.68,-563.59 832.68,-563.59 832.68,-624.37 832.68,-624.37 832.68,-630.37 826.68,-636.37 820.68,-636.37"/>
<text xml:space="preserve" text-anchor="middle" x="727.22" y="-617.28" font-family="Arial" font-size="11.00">Reavaliar e Ajustar Tratativa</text>
<text xml:space="preserve" text-anchor="middle" x="727.22" y="-603.78" font-family="Arial" font-size="11.00">Ações:</text>
<text xml:space="preserve" text-anchor="middle" x="727.22" y="-590.28" font-family="Arial" font-size="11.00">• Coletar mais evidências</text>
<text xml:space="preserve" text-anchor="middle" x="727.22" y="-576.78" font-family="Arial" font-size="11.00">• Ajustar ação (peça/devolução/outra)</text>
<text xml:space="preserve" text-anchor="middle" x="727.22" y="-563.28" font-family="Arial" font-size="11.00">• Replanejar execução</text>
</g>
<!-- confirmar_execucao&#45;&gt;retrabalho -->
<g id="edge16" class="edge">
<title>confirmar_execucao&#45;&gt;retrabalho</title>
<path fill="none" stroke="#4a4a4a" d="M534.48,-748.44C534.48,-708.6 534.48,-594 534.48,-594 534.48,-594 611.75,-594 611.75,-594"/>
<polygon fill="#4a4a4a" stroke="#4a4a4a" points="611.75,-596.8 619.75,-594 611.75,-591.2 611.75,-596.8"/>
<text xml:space="preserve" text-anchor="middle" x="525.48" y="-635.09" font-family="Arial" font-size="10.00">Não</text>
</g>
<!-- tratativa_admin -->
<g id="node25" class="node">
<title>tratativa_admin</title>
<path fill="#ffffff" stroke="#2b2b2b" d="M469.18,-643.12C469.18,-643.12 231.25,-643.12 231.25,-643.12 225.25,-643.12 219.25,-637.12 219.25,-631.12 219.25,-631.12 219.25,-556.84 219.25,-556.84 219.25,-550.84 225.25,-544.84 231.25,-544.84 231.25,-544.84 469.18,-544.84 469.18,-544.84 475.18,-544.84 481.18,-550.84 481.18,-556.84 481.18,-556.84 481.18,-631.12 481.18,-631.12 481.18,-637.12 475.18,-643.12 469.18,-643.12"/>
<text xml:space="preserve" text-anchor="middle" x="350.22" y="-624.03" font-family="Arial" font-size="11.00">6) Tratativa Administrativa da Garantia</text>
<text xml:space="preserve" text-anchor="middle" x="350.22" y="-610.53" font-family="Arial" font-size="11.00">Ações:</text>
<text xml:space="preserve" text-anchor="middle" x="350.22" y="-597.03" font-family="Arial" font-size="11.00">• Atualizar SAP e controles</text>
<text xml:space="preserve" text-anchor="middle" x="350.22" y="-583.53" font-family="Arial" font-size="11.00">• Registrar custos/ocorrência</text>
<text xml:space="preserve" text-anchor="middle" x="350.22" y="-570.03" font-family="Arial" font-size="11.00">• Consolidar documentação</text>
<text xml:space="preserve" text-anchor="middle" x="350.22" y="-556.53" font-family="Arial" font-size="11.00">• Preparar pagamento de NF (quando aplicável)</text>
</g>
<!-- confirmar_execucao&#45;&gt;tratativa_admin -->
<g id="edge15" class="edge">
<title>confirmar_execucao&#45;&gt;tratativa_admin</title>
<path fill="none" stroke="#4a4a4a" d="M419.23,-725.88C419.23,-725.88 419.23,-652.83 419.23,-652.83"/>
<polygon fill="#4a4a4a" stroke="#4a4a4a" points="422.03,-652.83 419.23,-644.83 416.43,-652.83 422.03,-652.83"/>
<text xml:space="preserve" text-anchor="middle" x="410.61" y="-691.86" font-family="Arial" font-size="10.00">Sim</text>
</g>
<!-- retrabalho&#45;&gt;validacao_tecnica -->
<g id="edge17" class="edge">
<title>retrabalho&#45;&gt;validacao_tecnica</title>
<path fill="none" stroke="#4a4a4a" d="M795.56,-636.83C795.56,-779.89 795.56,-1232 795.56,-1232 795.56,-1232 593.68,-1232 593.68,-1232"/>
<polygon fill="#4a4a4a" stroke="#4a4a4a" points="593.68,-1229.2 585.68,-1232 593.68,-1234.8 593.68,-1229.2"/>
<text xml:space="preserve" text-anchor="middle" x="774.93" y="-1037.86" font-family="Arial" font-size="10.00">Reavaliar</text>
</g>
<!-- comunicar_cliente -->
<g id="node26" class="node">
<title>comunicar_cliente</title>
<path fill="#ffffff" stroke="#2b2b2b" d="M420.68,-483.84C420.68,-483.84 221.75,-483.84 221.75,-483.84 215.75,-483.84 209.75,-477.84 209.75,-471.84 209.75,-471.84 209.75,-411.06 209.75,-411.06 209.75,-405.06 215.75,-399.06 221.75,-399.06 221.75,-399.06 420.68,-399.06 420.68,-399.06 426.68,-399.06 432.68,-405.06 432.68,-411.06 432.68,-411.06 432.68,-471.84 432.68,-471.84 432.68,-477.84 426.68,-483.84 420.68,-483.84"/>
<text xml:space="preserve" text-anchor="middle" x="321.22" y="-464.75" font-family="Arial" font-size="11.00">7) Comunicar Cliente e Encerrar Caso</text>
<text xml:space="preserve" text-anchor="middle" x="321.22" y="-451.25" font-family="Arial" font-size="11.00">Ações:</text>
<text xml:space="preserve" text-anchor="middle" x="321.22" y="-437.75" font-family="Arial" font-size="11.00">• Informar resultado e próximos passos</text>
<text xml:space="preserve" text-anchor="middle" x="321.22" y="-424.25" font-family="Arial" font-size="11.00">• Enviar comprovantes quando aplicável</text>
<text xml:space="preserve" text-anchor="middle" x="321.22" y="-410.75" font-family="Arial" font-size="11.00">• Registrar encerramento e SLA</text>
</g>
<!-- tratativa_admin&#45;&gt;comunicar_cliente -->
<g id="edge18" class="edge">
<title>tratativa_admin&#45;&gt;comunicar_cliente</title>
<path fill="none" stroke="#4a4a4a" d="M325.97,-544.46C325.97,-544.46 325.97,-493.83 325.97,-493.83"/>
<polygon fill="#4a4a4a" stroke="#4a4a4a" points="328.77,-493.83 325.97,-485.83 323.17,-493.83 328.77,-493.83"/>
</g>
<!-- saida -->
<g id="node27" class="node">
<title>saida</title>
<path fill="#d1e7dd" stroke="#1e7e34" stroke-width="1.8" d="M406.93,-338.06C406.93,-338.06 179.5,-338.06 179.5,-338.06 173.5,-338.06 167.5,-332.06 167.5,-326.06 167.5,-326.06 167.5,-251.78 167.5,-251.78 167.5,-245.78 173.5,-239.78 179.5,-239.78 179.5,-239.78 406.93,-239.78 406.93,-239.78 412.93,-239.78 418.93,-245.78 418.93,-251.78 418.93,-251.78 418.93,-326.06 418.93,-326.06 418.93,-332.06 412.93,-338.06 406.93,-338.06"/>
<text xml:space="preserve" text-anchor="middle" x="293.22" y="-318.97" font-family="Arial" font-size="11.00">✅ Execução do Serviço e Pagamento de NF</text>
<text xml:space="preserve" text-anchor="middle" x="293.22" y="-305.47" font-family="Arial" font-size="11.00">Saída de Dados:</text>
<text xml:space="preserve" text-anchor="middle" x="293.22" y="-291.97" font-family="Arial" font-size="11.00">• Caso encerrado</text>
<text xml:space="preserve" text-anchor="middle" x="293.22" y="-278.47" font-family="Arial" font-size="11.00">• Sistemas atualizados</text>
<text xml:space="preserve" text-anchor="middle" x="293.22" y="-264.97" font-family="Arial" font-size="11.00">• Comunicação ao cliente realizada</text>
<text xml:space="preserve" text-anchor="middle" x="293.22" y="-251.47" font-family="Arial" font-size="11.00">• Pagamento/regularização concluídos</text>
</g>
<!-- comunicar_cliente&#45;&gt;saida -->
<g id="edge19" class="edge">
<title>comunicar_cliente&#45;&gt;saida</title>
<path fill="none" stroke="#4a4a4a" d="M314.34,-398.96C314.34,-398.96 314.34,-348.25 314.34,-348.25"/>
<polygon fill="#4a4a4a" stroke="#4a4a4a" points="317.14,-348.25 314.34,-340.25 311.54,-348.25 317.14,-348.25"/>
</g>
<!-- saida&#45;&gt;end -->
<g id="edge20" class="edge">
<title>saida&#45;&gt;end</title>
<path fill="none" stroke="#4a4a4a" d="M182.06,-238.99C182.06,-179.77 182.06,-89 182.06,-89 182.06,-89 163.65,-89 163.65,-89"/>
<polygon fill="#4a4a4a" stroke="#4a4a4a" points="163.65,-86.2 155.65,-89 163.65,-91.8 163.65,-86.2"/>
</g>
</g>
</svg>
