<?xml version="1.0" encoding="UTF-8" standalone="no"?>
<!DOCTYPE svg PUBLIC "-//W3C//DTD SVG 1.1//EN"
 "http://www.w3.org/Graphics/SVG/1.1/DTD/svg11.dtd">
<!-- Generated by graphviz version 14.1.0 (20251206.1807)
 -->
<!-- Title: RFPMoura_DCBT_Reposicao_Chumbo_REALIZAR_PEDIDO Pages: 1 -->
<svg width="1664pt" height="2504pt"
 viewBox="14.00 14.00 1650.00 2490.00" xmlns="http://www.w3.org/2000/svg" xmlns:xlink="http://www.w3.org/1999/xlink">
<g id="graph0" class="graph" transform="scale(1 1) rotate(0) translate(28.8 2475.56)">
<title>RFPMoura_DCBT_Reposicao_Chumbo_REALIZAR_PEDIDO</title>
<polygon fill="white" stroke="none" points="-14.4,14.4 -14.4,-2461.16 1620.7,-2461.16 1620.7,14.4 -14.4,14.4"/>
<text xml:space="preserve" text-anchor="middle" x="803.15" y="-2425.66" font-family="Arial" font-size="18.00">AS&#45;IS | DCBT — Reposição (Chumbo)</text>
<text xml:space="preserve" text-anchor="middle" x="803.15" y="-2404.66" font-family="Arial" font-size="18.00">Realizar Pedido (Cadastro de OVs no SAP + Liberação + Faturamento + Entrega)</text>
<!-- start -->
<g id="node1" class="node">
<title>start</title>
<ellipse fill="#2ecc71" stroke="#2ecc71" cx="374.84" cy="-2378.76" rx="7.2" ry="7.2"/>
</g>
<!-- receber_demanda -->
<g id="node13" class="node">
<title>receber_demanda</title>
<path fill="#e7f1ff" stroke="#0b5ed7" stroke-width="1.6" d="M483.68,-2272.51C483.68,-2272.51 266,-2272.51 266,-2272.51 260,-2272.51 254,-2266.51 254,-2260.51 254,-2260.51 254,-2200.23 254,-2200.23 254,-2194.23 260,-2188.23 266,-2188.23 266,-2188.23 483.68,-2188.23 483.68,-2188.23 489.68,-2188.23 495.68,-2194.23 495.68,-2200.23 495.68,-2200.23 495.68,-2260.51 495.68,-2260.51 495.68,-2266.51 489.68,-2272.51 483.68,-2272.51"/>
<text xml:space="preserve" text-anchor="middle" x="374.84" y="-2253.42" font-family="Arial" font-size="11.00">1) Receber Demanda de Pedido</text>
<text xml:space="preserve" text-anchor="middle" x="374.84" y="-2239.92" font-family="Arial" font-size="11.00">Origem: oportunidade/negociação aprovada</text>
<text xml:space="preserve" text-anchor="middle" x="374.84" y="-2213.42" font-family="Arial" font-size="11.00">Atividade Executada:</text>
<text xml:space="preserve" text-anchor="middle" x="374.84" y="-2199.92" font-family="Arial" font-size="11.00">Cadastro/Execução e Entrega de Pedido</text>
</g>
<!-- start&#45;&gt;receber_demanda -->
<g id="edge1" class="edge">
<title>start&#45;&gt;receber_demanda</title>
<path fill="none" stroke="#4a4a4a" d="M374.84,-2371.2C374.84,-2371.2 374.84,-2282.52 374.84,-2282.52"/>
<polygon fill="#4a4a4a" stroke="#4a4a4a" points="377.64,-2282.52 374.84,-2274.52 372.04,-2282.52 377.64,-2282.52"/>
</g>
<!-- end -->
<g id="node2" class="node">
<title>end</title>
<ellipse fill="#e74c3c" stroke="#e74c3c" cx="138.84" cy="-89.39" rx="8.64" ry="8.64"/>
<ellipse fill="none" stroke="#e74c3c" cx="138.84" cy="-89.39" rx="12.64" ry="12.64"/>
</g>
<!-- voltarHub -->
<g id="node3" class="node">
<title>voltarHub</title>
<g id="a_node3"><a xlink:href="RFPMoura_DCBT_Processos_MindMap.svg" xlink:title="↩ HUB (DCBT)" target="_self">
<path fill="#eef6ff" stroke="#1f5fbf" stroke-width="1.2" d="M892.68,-2396.76C892.68,-2396.76 801,-2396.76 801,-2396.76 795,-2396.76 789,-2390.76 789,-2384.76 789,-2384.76 789,-2372.76 789,-2372.76 789,-2366.76 795,-2360.76 801,-2360.76 801,-2360.76 892.68,-2360.76 892.68,-2360.76 898.68,-2360.76 904.68,-2366.76 904.68,-2372.76 904.68,-2372.76 904.68,-2384.76 904.68,-2384.76 904.68,-2390.76 898.68,-2396.76 892.68,-2396.76"/>
<text xml:space="preserve" text-anchor="middle" x="846.84" y="-2375.06" font-family="Arial" font-size="11.00">↩ HUB (DCBT)</text>
</a>
</g>
</g>
<!-- voltarReposicao -->
<g id="node4" class="node">
<title>voltarReposicao</title>
<g id="a_node4"><a xlink:href="RFPMoura_DCBT_Reposicao_MindMap.svg" xlink:title="⬅ Voltar para REPOSIÇÃO (Mindmap)" target="_self">
<path fill="#e7f1ff" stroke="#0b5ed7" stroke-width="1.6" d="M1162.18,-2396.76C1162.18,-2396.76 959.5,-2396.76 959.5,-2396.76 953.5,-2396.76 947.5,-2390.76 947.5,-2384.76 947.5,-2384.76 947.5,-2372.76 947.5,-2372.76 947.5,-2366.76 953.5,-2360.76 959.5,-2360.76 959.5,-2360.76 1162.18,-2360.76 1162.18,-2360.76 1168.18,-2360.76 1174.18,-2366.76 1174.18,-2372.76 1174.18,-2372.76 1174.18,-2384.76 1174.18,-2384.76 1174.18,-2390.76 1168.18,-2396.76 1162.18,-2396.76"/>
<text xml:space="preserve" text-anchor="middle" x="1060.84" y="-2375.06" font-family="Arial" font-size="11.00">⬅ Voltar para REPOSIÇÃO (Mindmap)</text>
</a>
</g>
</g>
<!-- voltarCredito -->
<g id="node5" class="node">
<title>voltarCredito</title>
<g id="a_node5"><a xlink:href="RFPMoura_DCBT_Reposicao_Chumbo_ANALISE_CREDITO.svg" xlink:title="⬅ Voltar para ANÁLISE DE CRÉDITO" target="_self">
<path fill="#e7f1ff" stroke="#0b5ed7" stroke-width="1.2" d="M734.06,-2396.76C734.06,-2396.76 533.62,-2396.76 533.62,-2396.76 527.62,-2396.76 521.62,-2390.76 521.62,-2384.76 521.62,-2384.76 521.62,-2372.76 521.62,-2372.76 521.62,-2366.76 527.62,-2360.76 533.62,-2360.76 533.62,-2360.76 734.06,-2360.76 734.06,-2360.76 740.06,-2360.76 746.06,-2366.76 746.06,-2372.76 746.06,-2372.76 746.06,-2384.76 746.06,-2384.76 746.06,-2390.76 740.06,-2396.76 734.06,-2396.76"/>
<text xml:space="preserve" text-anchor="middle" x="633.84" y="-2375.06" font-family="Arial" font-size="11.00">⬅ Voltar para ANÁLISE DE CRÉDITO</text>
</a>
</g>
</g>
<!-- voltarCadastroCliente -->
<g id="node6" class="node">
<title>voltarCadastroCliente</title>
<g id="a_node6"><a xlink:href="RFPMoura_DCBT_Reposicao_Chumbo_CADASTRO_CLIENTE.svg" xlink:title="⬅ Voltar para CADASTRO CLIENTE" target="_self">
<path fill="#e7f1ff" stroke="#0b5ed7" stroke-width="1.2" d="M1424.05,-2396.76C1424.05,-2396.76 1229.62,-2396.76 1229.62,-2396.76 1223.62,-2396.76 1217.62,-2390.76 1217.62,-2384.76 1217.62,-2384.76 1217.62,-2372.76 1217.62,-2372.76 1217.62,-2366.76 1223.62,-2360.76 1229.62,-2360.76 1229.62,-2360.76 1424.05,-2360.76 1424.05,-2360.76 1430.05,-2360.76 1436.05,-2366.76 1436.05,-2372.76 1436.05,-2372.76 1436.05,-2384.76 1436.05,-2384.76 1436.05,-2390.76 1430.05,-2396.76 1424.05,-2396.76"/>
<text xml:space="preserve" text-anchor="middle" x="1326.84" y="-2375.06" font-family="Arial" font-size="11.00">⬅ Voltar para CADASTRO CLIENTE</text>
</a>
</g>
</g>
<!-- irSOP -->
<g id="node7" class="node">
<title>irSOP</title>
<g id="a_node7"><a xlink:href="RFPMoura_DCBT_REP_SOP.svg" xlink:title="Abrir (quando disponível)" target="_self">
<path fill="#e0f2f1" stroke="#00695c" stroke-width="1.2" d="M1594.3,-2396.76C1594.3,-2396.76 1491.38,-2396.76 1491.38,-2396.76 1485.38,-2396.76 1479.38,-2390.76 1479.38,-2384.76 1479.38,-2384.76 1479.38,-2372.76 1479.38,-2372.76 1479.38,-2366.76 1485.38,-2360.76 1491.38,-2360.76 1491.38,-2360.76 1594.3,-2360.76 1594.3,-2360.76 1600.3,-2360.76 1606.3,-2366.76 1606.3,-2372.76 1606.3,-2372.76 1606.3,-2384.76 1606.3,-2384.76 1606.3,-2390.76 1600.3,-2396.76 1594.3,-2396.76"/>
<text xml:space="preserve" text-anchor="middle" x="1542.84" y="-2375.06" font-family="Arial" font-size="11.00">➡ Próximo: S&amp;OP</text>
</a>
</g>
</g>
<!-- stakeholders -->
<g id="node8" class="node">
<title>stakeholders</title>
<polygon fill="#f8f9fa" stroke="#2b2b2b" points="887.06,-2299.76 698.62,-2299.76 698.62,-2160.98 893.06,-2160.98 893.06,-2293.76 887.06,-2299.76"/>
<polyline fill="none" stroke="#2b2b2b" points="887.06,-2299.76 887.06,-2293.76"/>
<polyline fill="none" stroke="#2b2b2b" points="893.06,-2293.76 887.06,-2293.76"/>
<text xml:space="preserve" text-anchor="middle" x="795.84" y="-2280.67" font-family="Arial" font-size="11.00">Key Users / Áreas / Stakeholders:</text>
<text xml:space="preserve" text-anchor="middle" x="795.84" y="-2267.17" font-family="Arial" font-size="11.00">• Unidades RSM</text>
<text xml:space="preserve" text-anchor="middle" x="795.84" y="-2253.67" font-family="Arial" font-size="11.00">• Atendimento de Vendas</text>
<text xml:space="preserve" text-anchor="middle" x="795.84" y="-2240.17" font-family="Arial" font-size="11.00">• Centro de Distribuição</text>
<text xml:space="preserve" text-anchor="middle" x="795.84" y="-2226.67" font-family="Arial" font-size="11.00">• Financeiro</text>
<text xml:space="preserve" text-anchor="middle" x="795.84" y="-2213.17" font-family="Arial" font-size="11.00">• DPI (Planejamento Integrado)</text>
<text xml:space="preserve" text-anchor="middle" x="795.84" y="-2199.67" font-family="Arial" font-size="11.00">• PCP</text>
<text xml:space="preserve" text-anchor="middle" x="795.84" y="-2186.17" font-family="Arial" font-size="11.00">• Faturamento</text>
<text xml:space="preserve" text-anchor="middle" x="795.84" y="-2172.67" font-family="Arial" font-size="11.00">• Transportadora</text>
</g>
<!-- entradas -->
<g id="node9" class="node">
<title>entradas</title>
<polygon fill="#f8f9fa" stroke="#2b2b2b" points="890.93,-2099.98 698.75,-2099.98 698.75,-1988.7 896.93,-1988.7 896.93,-2093.98 890.93,-2099.98"/>
<polyline fill="none" stroke="#2b2b2b" points="890.93,-2099.98 890.93,-2093.98"/>
<polyline fill="none" stroke="#2b2b2b" points="896.93,-2093.98 890.93,-2093.98"/>
<text xml:space="preserve" text-anchor="middle" x="797.84" y="-2080.89" font-family="Arial" font-size="11.00">Entrada de Dados / Informação:</text>
<text xml:space="preserve" text-anchor="middle" x="797.84" y="-2067.39" font-family="Arial" font-size="11.00">• Excel de Pedidos (Ploomes)</text>
<text xml:space="preserve" text-anchor="middle" x="797.84" y="-2040.89" font-family="Arial" font-size="11.00">Pré&#45;requisitos (AS&#45;IS):</text>
<text xml:space="preserve" text-anchor="middle" x="797.84" y="-2027.39" font-family="Arial" font-size="11.00">• Cadastro do Cliente</text>
<text xml:space="preserve" text-anchor="middle" x="797.84" y="-2013.89" font-family="Arial" font-size="11.00">• Análise de Crédito</text>
<text xml:space="preserve" text-anchor="middle" x="797.84" y="-2000.39" font-family="Arial" font-size="11.00">• Checklist preenchido no Ploomes</text>
</g>
<!-- sistemas -->
<g id="node10" class="node">
<title>sistemas</title>
<polygon fill="#f8f9fa" stroke="#2b2b2b" points="821.06,-1778.14 698.62,-1778.14 698.62,-1599.86 827.06,-1599.86 827.06,-1772.14 821.06,-1778.14"/>
<polyline fill="none" stroke="#2b2b2b" points="821.06,-1778.14 821.06,-1772.14"/>
<polyline fill="none" stroke="#2b2b2b" points="827.06,-1772.14 821.06,-1772.14"/>
<text xml:space="preserve" text-anchor="middle" x="762.84" y="-1759.05" font-family="Arial" font-size="11.00">Sistemas Utilizados:</text>
<text xml:space="preserve" text-anchor="middle" x="762.84" y="-1745.55" font-family="Arial" font-size="11.00">• Ploomes</text>
<text xml:space="preserve" text-anchor="middle" x="762.84" y="-1732.05" font-family="Arial" font-size="11.00">• Excel</text>
<text xml:space="preserve" text-anchor="middle" x="762.84" y="-1718.55" font-family="Arial" font-size="11.00">• SAP</text>
<text xml:space="preserve" text-anchor="middle" x="762.84" y="-1705.05" font-family="Arial" font-size="11.00">• PowerApps</text>
<text xml:space="preserve" text-anchor="middle" x="762.84" y="-1691.55" font-family="Arial" font-size="11.00">• SDM</text>
<text xml:space="preserve" text-anchor="middle" x="762.84" y="-1665.05" font-family="Arial" font-size="11.00">Frequência:</text>
<text xml:space="preserve" text-anchor="middle" x="762.84" y="-1651.55" font-family="Arial" font-size="11.00">• Sob demanda</text>
<text xml:space="preserve" text-anchor="middle" x="762.84" y="-1625.05" font-family="Arial" font-size="11.00">Tempo Médio:</text>
<text xml:space="preserve" text-anchor="middle" x="762.84" y="-1611.55" font-family="Arial" font-size="11.00">• N/D</text>
</g>
<!-- oportunidades -->
<g id="node11" class="node">
<title>oportunidades</title>
<polygon fill="#f8f9fa" stroke="#2b2b2b" points="954.81,-1060.21 698.88,-1060.21 698.88,-988.93 960.81,-988.93 960.81,-1054.21 954.81,-1060.21"/>
<polyline fill="none" stroke="#2b2b2b" points="954.81,-1060.21 954.81,-1054.21"/>
<polyline fill="none" stroke="#2b2b2b" points="960.81,-1054.21 954.81,-1054.21"/>
<text xml:space="preserve" text-anchor="middle" x="829.84" y="-1041.12" font-family="Arial" font-size="11.00">Oportunidades:</text>
<text xml:space="preserve" text-anchor="middle" x="829.84" y="-1027.62" font-family="Arial" font-size="11.00">• Redução de retrabalho entre áreas</text>
<text xml:space="preserve" text-anchor="middle" x="829.84" y="-1014.12" font-family="Arial" font-size="11.00">• Redução do lead time operacional</text>
<text xml:space="preserve" text-anchor="middle" x="829.84" y="-1000.62" font-family="Arial" font-size="11.00">• Centralização e padronização da comunicação</text>
</g>
<!-- produto_salesforce -->
<g id="node12" class="node">
<title>produto_salesforce</title>
<polygon fill="#f8f9fa" stroke="#2b2b2b" points="501.31,-178.78 194.38,-178.78 194.38,0 507.31,0 507.31,-172.78 501.31,-178.78"/>
<polyline fill="none" stroke="#2b2b2b" points="501.31,-178.78 501.31,-172.78"/>
<polyline fill="none" stroke="#2b2b2b" points="507.31,-172.78 501.31,-172.78"/>
<text xml:space="preserve" text-anchor="middle" x="350.84" y="-159.69" font-family="Arial" font-size="11.00">Produto Salesforce:</text>
<text xml:space="preserve" text-anchor="middle" x="350.84" y="-146.19" font-family="Arial" font-size="11.00">• Sales Cloud</text>
<text xml:space="preserve" text-anchor="middle" x="350.84" y="-132.69" font-family="Arial" font-size="11.00">• Service Cloud</text>
<text xml:space="preserve" text-anchor="middle" x="350.84" y="-119.19" font-family="Arial" font-size="11.00">• Integração</text>
<text xml:space="preserve" text-anchor="middle" x="350.84" y="-92.69" font-family="Arial" font-size="11.00">Soluções Aplicáveis:</text>
<text xml:space="preserve" text-anchor="middle" x="350.84" y="-79.19" font-family="Arial" font-size="11.00">• Envio/consulta de solicitações de compra</text>
<text xml:space="preserve" text-anchor="middle" x="350.84" y="-65.69" font-family="Arial" font-size="11.00">• Envio para faturamento e recepção de NF</text>
<text xml:space="preserve" text-anchor="middle" x="350.84" y="-52.19" font-family="Arial" font-size="11.00">• Consulta de modalidades logísticas/condições de entrega</text>
<text xml:space="preserve" text-anchor="middle" x="350.84" y="-38.69" font-family="Arial" font-size="11.00">• Promoções e condições especiais vigentes</text>
<text xml:space="preserve" text-anchor="middle" x="350.84" y="-25.19" font-family="Arial" font-size="11.00">• Consulta de preços conforme regras do ERP</text>
<text xml:space="preserve" text-anchor="middle" x="350.84" y="-11.69" font-family="Arial" font-size="11.00">• Controle de prazos e SLAs</text>
</g>
<!-- checar_prerequisitos -->
<g id="node14" class="node">
<title>checar_prerequisitos</title>
<path fill="#ffffff" stroke="#2b2b2b" d="M464.93,-2086.73C464.93,-2086.73 284.75,-2086.73 284.75,-2086.73 278.75,-2086.73 272.75,-2080.73 272.75,-2074.73 272.75,-2074.73 272.75,-2013.95 272.75,-2013.95 272.75,-2007.95 278.75,-2001.95 284.75,-2001.95 284.75,-2001.95 464.93,-2001.95 464.93,-2001.95 470.93,-2001.95 476.93,-2007.95 476.93,-2013.95 476.93,-2013.95 476.93,-2074.73 476.93,-2074.73 476.93,-2080.73 470.93,-2086.73 464.93,-2086.73"/>
<text xml:space="preserve" text-anchor="middle" x="374.84" y="-2067.64" font-family="Arial" font-size="11.00">2) Checar Pré&#45;requisitos</text>
<text xml:space="preserve" text-anchor="middle" x="374.84" y="-2054.14" font-family="Arial" font-size="11.00">Ações:</text>
<text xml:space="preserve" text-anchor="middle" x="374.84" y="-2040.64" font-family="Arial" font-size="11.00">• Cliente cadastrado?</text>
<text xml:space="preserve" text-anchor="middle" x="374.84" y="-2027.14" font-family="Arial" font-size="11.00">• Crédito aprovado?</text>
<text xml:space="preserve" text-anchor="middle" x="374.84" y="-2013.64" font-family="Arial" font-size="11.00">• Checklist no Ploomes preenchido?</text>
</g>
<!-- receber_demanda&#45;&gt;checar_prerequisitos -->
<g id="edge2" class="edge">
<title>receber_demanda&#45;&gt;checar_prerequisitos</title>
<path fill="none" stroke="#4a4a4a" d="M374.84,-2187.69C374.84,-2187.69 374.84,-2096.66 374.84,-2096.66"/>
<polygon fill="#4a4a4a" stroke="#4a4a4a" points="377.64,-2096.66 374.84,-2088.66 372.04,-2096.66 377.64,-2096.66"/>
</g>
<!-- prereq_ok -->
<g id="node15" class="node">
<title>prereq_ok</title>
<polygon fill="#fff1b8" stroke="#2b2b2b" points="301.84,-1927.7 203.41,-1883.42 301.84,-1839.14 400.27,-1883.42 301.84,-1927.7"/>
<text xml:space="preserve" text-anchor="middle" x="301.84" y="-1886.47" font-family="Arial" font-size="11.00">Pré&#45;requisitos</text>
<text xml:space="preserve" text-anchor="middle" x="301.84" y="-1872.97" font-family="Arial" font-size="11.00">OK?</text>
</g>
<!-- checar_prerequisitos&#45;&gt;prereq_ok -->
<g id="edge3" class="edge">
<title>checar_prerequisitos&#45;&gt;prereq_ok</title>
<path fill="none" stroke="#4a4a4a" d="M336.51,-2001.64C336.51,-2001.64 336.51,-1922.09 336.51,-1922.09"/>
<polygon fill="#4a4a4a" stroke="#4a4a4a" points="339.31,-1922.09 336.51,-1914.09 333.71,-1922.09 339.31,-1922.09"/>
</g>
<!-- corrigir_pendencias -->
<g id="node16" class="node">
<title>corrigir_pendencias</title>
<path fill="#fffdf2" stroke="#2b2b2b" d="M557.18,-1731.39C557.18,-1731.39 372.5,-1731.39 372.5,-1731.39 366.5,-1731.39 360.5,-1725.39 360.5,-1719.39 360.5,-1719.39 360.5,-1658.61 360.5,-1658.61 360.5,-1652.61 366.5,-1646.61 372.5,-1646.61 372.5,-1646.61 557.18,-1646.61 557.18,-1646.61 563.18,-1646.61 569.18,-1652.61 569.18,-1658.61 569.18,-1658.61 569.18,-1719.39 569.18,-1719.39 569.18,-1725.39 563.18,-1731.39 557.18,-1731.39"/>
<text xml:space="preserve" text-anchor="middle" x="464.84" y="-1712.3" font-family="Arial" font-size="11.00">Tratar Pendências</text>
<text xml:space="preserve" text-anchor="middle" x="464.84" y="-1698.8" font-family="Arial" font-size="11.00">Ações:</text>
<text xml:space="preserve" text-anchor="middle" x="464.84" y="-1685.3" font-family="Arial" font-size="11.00">• Acionar Cadastro Cliente / Crédito</text>
<text xml:space="preserve" text-anchor="middle" x="464.84" y="-1671.8" font-family="Arial" font-size="11.00">• Completar checklist no Ploomes</text>
<text xml:space="preserve" text-anchor="middle" x="464.84" y="-1658.3" font-family="Arial" font-size="11.00">• Registrar no SDM quando aplicável</text>
</g>
<!-- prereq_ok&#45;&gt;corrigir_pendencias -->
<g id="edge5" class="edge">
<title>prereq_ok&#45;&gt;corrigir_pendencias</title>
<path fill="none" stroke="#4a4a4a" d="M380.38,-1874.04C380.38,-1874.04 380.38,-1741.29 380.38,-1741.29"/>
<polygon fill="#4a4a4a" stroke="#4a4a4a" points="383.19,-1741.29 380.39,-1733.29 377.59,-1741.29 383.19,-1741.29"/>
<text xml:space="preserve" text-anchor="middle" x="371.38" y="-1810.17" font-family="Arial" font-size="10.00">Não</text>
</g>
<!-- gerar_pedido_ploomes -->
<g id="node17" class="node">
<title>gerar_pedido_ploomes</title>
<path fill="#ffffff" stroke="#2b2b2b" d="M305.68,-1731.39C305.68,-1731.39 76,-1731.39 76,-1731.39 70,-1731.39 64,-1725.39 64,-1719.39 64,-1719.39 64,-1658.61 64,-1658.61 64,-1652.61 70,-1646.61 76,-1646.61 76,-1646.61 305.68,-1646.61 305.68,-1646.61 311.68,-1646.61 317.68,-1652.61 317.68,-1658.61 317.68,-1658.61 317.68,-1719.39 317.68,-1719.39 317.68,-1725.39 311.68,-1731.39 305.68,-1731.39"/>
<text xml:space="preserve" text-anchor="middle" x="190.84" y="-1712.3" font-family="Arial" font-size="11.00">3) Gerar Pedido no Ploomes</text>
<text xml:space="preserve" text-anchor="middle" x="190.84" y="-1698.8" font-family="Arial" font-size="11.00">Ações:</text>
<text xml:space="preserve" text-anchor="middle" x="190.84" y="-1685.3" font-family="Arial" font-size="11.00">• Montar itens/SKUs, quantidades e condições</text>
<text xml:space="preserve" text-anchor="middle" x="190.84" y="-1671.8" font-family="Arial" font-size="11.00">• Validar checklist</text>
<text xml:space="preserve" text-anchor="middle" x="190.84" y="-1658.3" font-family="Arial" font-size="11.00">• Gerar &#39;Excel de Pedidos&#39;</text>
</g>
<!-- prereq_ok&#45;&gt;gerar_pedido_ploomes -->
<g id="edge4" class="edge">
<title>prereq_ok&#45;&gt;gerar_pedido_ploomes</title>
<path fill="none" stroke="#4a4a4a" d="M260.54,-1857.2C260.54,-1857.2 260.54,-1741.39 260.54,-1741.39"/>
<polygon fill="#4a4a4a" stroke="#4a4a4a" points="263.35,-1741.39 260.55,-1733.39 257.75,-1741.39 263.35,-1741.39"/>
<text xml:space="preserve" text-anchor="middle" x="251.92" y="-1801.8" font-family="Arial" font-size="10.00">Sim</text>
</g>
<!-- corrigir_pendencias&#45;&gt;checar_prerequisitos -->
<g id="edge6" class="edge">
<title>corrigir_pendencias&#45;&gt;checar_prerequisitos</title>
<path fill="none" stroke="#4a4a4a" d="M438.6,-1731.86C438.6,-1731.86 438.6,-1992.09 438.6,-1992.09"/>
<polygon fill="#4a4a4a" stroke="#4a4a4a" points="435.8,-1992.09 438.6,-2000.09 441.4,-1992.09 435.8,-1992.09"/>
<text xml:space="preserve" text-anchor="middle" x="459.23" y="-1864.48" font-family="Arial" font-size="10.00">Revalidar</text>
</g>
<!-- validar_excel -->
<g id="node18" class="node">
<title>validar_excel</title>
<polygon fill="#fff1b8" stroke="#2b2b2b" points="190.84,-1538.86 75.91,-1481.08 190.84,-1423.3 305.77,-1481.08 190.84,-1538.86"/>
<text xml:space="preserve" text-anchor="middle" x="190.84" y="-1490.88" font-family="Arial" font-size="11.00">Excel de Pedidos</text>
<text xml:space="preserve" text-anchor="middle" x="190.84" y="-1477.38" font-family="Arial" font-size="11.00">está consistente</text>
<text xml:space="preserve" text-anchor="middle" x="190.84" y="-1463.88" font-family="Arial" font-size="11.00">(campos/itens)?</text>
</g>
<!-- gerar_pedido_ploomes&#45;&gt;validar_excel -->
<g id="edge7" class="edge">
<title>gerar_pedido_ploomes&#45;&gt;validar_excel</title>
<path fill="none" stroke="#4a4a4a" d="M190.84,-1646.17C190.84,-1646.17 190.84,-1548.74 190.84,-1548.74"/>
<polygon fill="#4a4a4a" stroke="#4a4a4a" points="193.64,-1548.74 190.84,-1540.74 188.04,-1548.74 193.64,-1548.74"/>
</g>
<!-- ajustar_excel -->
<g id="node19" class="node">
<title>ajustar_excel</title>
<path fill="#fffdf2" stroke="#2b2b2b" d="M466.93,-1362.3C466.93,-1362.3 316.75,-1362.3 316.75,-1362.3 310.75,-1362.3 304.75,-1356.3 304.75,-1350.3 304.75,-1350.3 304.75,-1289.52 304.75,-1289.52 304.75,-1283.52 310.75,-1277.52 316.75,-1277.52 316.75,-1277.52 466.93,-1277.52 466.93,-1277.52 472.93,-1277.52 478.93,-1283.52 478.93,-1289.52 478.93,-1289.52 478.93,-1350.3 478.93,-1350.3 478.93,-1356.3 472.93,-1362.3 466.93,-1362.3"/>
<text xml:space="preserve" text-anchor="middle" x="391.84" y="-1343.21" font-family="Arial" font-size="11.00">Ajustar Excel/Itens</text>
<text xml:space="preserve" text-anchor="middle" x="391.84" y="-1329.71" font-family="Arial" font-size="11.00">Ações:</text>
<text xml:space="preserve" text-anchor="middle" x="391.84" y="-1316.21" font-family="Arial" font-size="11.00">• Corrigir campos obrigatórios</text>
<text xml:space="preserve" text-anchor="middle" x="391.84" y="-1302.71" font-family="Arial" font-size="11.00">• Ajustar itens/quantidades</text>
<text xml:space="preserve" text-anchor="middle" x="391.84" y="-1289.21" font-family="Arial" font-size="11.00">• Regerar exportação</text>
</g>
<!-- validar_excel&#45;&gt;ajustar_excel -->
<g id="edge9" class="edge">
<title>validar_excel&#45;&gt;ajustar_excel</title>
<path fill="none" stroke="#4a4a4a" d="M306.56,-1481C308.61,-1481 309.74,-1481 309.74,-1481 309.74,-1481 309.74,-1372.17 309.74,-1372.17"/>
<polygon fill="#4a4a4a" stroke="#4a4a4a" points="312.54,-1372.17 309.74,-1364.17 306.94,-1372.17 312.54,-1372.17"/>
<text xml:space="preserve" text-anchor="middle" x="318.74" y="-1430.68" font-family="Arial" font-size="10.00">Não</text>
</g>
<!-- importar_sap -->
<g id="node20" class="node">
<title>importar_sap</title>
<path fill="#ffffff" stroke="#2b2b2b" d="M249.31,-1362.3C249.31,-1362.3 92.38,-1362.3 92.38,-1362.3 86.38,-1362.3 80.38,-1356.3 80.38,-1350.3 80.38,-1350.3 80.38,-1289.52 80.38,-1289.52 80.38,-1283.52 86.38,-1277.52 92.38,-1277.52 92.38,-1277.52 249.31,-1277.52 249.31,-1277.52 255.31,-1277.52 261.31,-1283.52 261.31,-1289.52 261.31,-1289.52 261.31,-1350.3 261.31,-1350.3 261.31,-1356.3 255.31,-1362.3 249.31,-1362.3"/>
<text xml:space="preserve" text-anchor="middle" x="170.84" y="-1343.21" font-family="Arial" font-size="11.00">4) Importar OVs no SAP</text>
<text xml:space="preserve" text-anchor="middle" x="170.84" y="-1329.71" font-family="Arial" font-size="11.00">Entrada: Excel de Pedidos</text>
<text xml:space="preserve" text-anchor="middle" x="170.84" y="-1316.21" font-family="Arial" font-size="11.00">Ações:</text>
<text xml:space="preserve" text-anchor="middle" x="170.84" y="-1302.71" font-family="Arial" font-size="11.00">• Importar via planilha</text>
<text xml:space="preserve" text-anchor="middle" x="170.84" y="-1289.21" font-family="Arial" font-size="11.00">• Criar Ordens de Venda (OVs)</text>
</g>
<!-- validar_excel&#45;&gt;importar_sap -->
<g id="edge8" class="edge">
<title>validar_excel&#45;&gt;importar_sap</title>
<path fill="none" stroke="#4a4a4a" d="M170.84,-1433.16C170.84,-1433.16 170.84,-1372.22 170.84,-1372.22"/>
<polygon fill="#4a4a4a" stroke="#4a4a4a" points="173.64,-1372.22 170.84,-1364.22 168.04,-1372.22 173.64,-1372.22"/>
<text xml:space="preserve" text-anchor="middle" x="162.22" y="-1405.19" font-family="Arial" font-size="10.00">Sim</text>
</g>
<!-- ajustar_excel&#45;&gt;gerar_pedido_ploomes -->
<g id="edge10" class="edge">
<title>ajustar_excel&#45;&gt;gerar_pedido_ploomes</title>
<path fill="none" stroke="#4a4a4a" d="M313.71,-1362.61C313.71,-1362.61 313.71,-1636.6 313.71,-1636.6"/>
<polygon fill="#4a4a4a" stroke="#4a4a4a" points="310.91,-1636.6 313.71,-1644.6 316.51,-1636.6 310.91,-1636.6"/>
<text xml:space="preserve" text-anchor="middle" x="330.96" y="-1502.11" font-family="Arial" font-size="10.00">Regerar</text>
</g>
<!-- bloqueio_financeiro -->
<g id="node21" class="node">
<title>bloqueio_financeiro</title>
<polygon fill="#fff1b8" stroke="#2b2b2b" points="253.84,-1216.52 134.41,-1172.24 253.84,-1127.96 373.27,-1172.24 253.84,-1216.52"/>
<text xml:space="preserve" text-anchor="middle" x="253.84" y="-1175.29" font-family="Arial" font-size="11.00">OV com bloqueio</text>
<text xml:space="preserve" text-anchor="middle" x="253.84" y="-1161.79" font-family="Arial" font-size="11.00">financeiro/crédito?</text>
</g>
<!-- importar_sap&#45;&gt;bloqueio_financeiro -->
<g id="edge11" class="edge">
<title>importar_sap&#45;&gt;bloqueio_financeiro</title>
<path fill="none" stroke="#4a4a4a" d="M197.86,-1277.2C197.86,-1277.2 197.86,-1205.54 197.86,-1205.54"/>
<polygon fill="#4a4a4a" stroke="#4a4a4a" points="200.66,-1205.54 197.86,-1197.54 195.06,-1205.54 200.66,-1205.54"/>
</g>
<!-- liberar_financeiro -->
<g id="node22" class="node">
<title>liberar_financeiro</title>
<path fill="#ffffff" stroke="#2b2b2b" d="M473.93,-1066.96C473.93,-1066.96 323.75,-1066.96 323.75,-1066.96 317.75,-1066.96 311.75,-1060.96 311.75,-1054.96 311.75,-1054.96 311.75,-994.18 311.75,-994.18 311.75,-988.18 317.75,-982.18 323.75,-982.18 323.75,-982.18 473.93,-982.18 473.93,-982.18 479.93,-982.18 485.93,-988.18 485.93,-994.18 485.93,-994.18 485.93,-1054.96 485.93,-1054.96 485.93,-1060.96 479.93,-1066.96 473.93,-1066.96"/>
<text xml:space="preserve" text-anchor="middle" x="398.84" y="-1047.87" font-family="Arial" font-size="11.00">5) Liberação Financeira</text>
<text xml:space="preserve" text-anchor="middle" x="398.84" y="-1034.37" font-family="Arial" font-size="11.00">Ações:</text>
<text xml:space="preserve" text-anchor="middle" x="398.84" y="-1020.87" font-family="Arial" font-size="11.00">• Financeiro analisa bloqueios</text>
<text xml:space="preserve" text-anchor="middle" x="398.84" y="-1007.37" font-family="Arial" font-size="11.00">• Libera OV no SAP</text>
<text xml:space="preserve" text-anchor="middle" x="398.84" y="-993.87" font-family="Arial" font-size="11.00">• Registra motivo/decisão</text>
</g>
<!-- bloqueio_financeiro&#45;&gt;liberar_financeiro -->
<g id="edge13" class="edge">
<title>bloqueio_financeiro&#45;&gt;liberar_financeiro</title>
<path fill="none" stroke="#4a4a4a" d="M352.76,-1164.3C352.76,-1164.3 352.76,-1076.87 352.76,-1076.87"/>
<polygon fill="#4a4a4a" stroke="#4a4a4a" points="355.56,-1076.87 352.76,-1068.87 349.96,-1076.87 355.56,-1076.87"/>
<text xml:space="preserve" text-anchor="middle" x="344.14" y="-1111.09" font-family="Arial" font-size="10.00">Sim</text>
</g>
<!-- enviar_dpi -->
<g id="node24" class="node">
<title>enviar_dpi</title>
<path fill="#ffffff" stroke="#2b2b2b" d="M254.31,-1066.96C254.31,-1066.96 31.38,-1066.96 31.38,-1066.96 25.38,-1066.96 19.38,-1060.96 19.38,-1054.96 19.38,-1054.96 19.38,-994.18 19.38,-994.18 19.38,-988.18 25.38,-982.18 31.38,-982.18 31.38,-982.18 254.31,-982.18 254.31,-982.18 260.31,-982.18 266.31,-988.18 266.31,-994.18 266.31,-994.18 266.31,-1054.96 266.31,-1054.96 266.31,-1060.96 260.31,-1066.96 254.31,-1066.96"/>
<text xml:space="preserve" text-anchor="middle" x="142.84" y="-1047.87" font-family="Arial" font-size="11.00">6) Enviar para DPI (Planejamento Integrado)</text>
<text xml:space="preserve" text-anchor="middle" x="142.84" y="-1034.37" font-family="Arial" font-size="11.00">Ações:</text>
<text xml:space="preserve" text-anchor="middle" x="142.84" y="-1020.87" font-family="Arial" font-size="11.00">• DPI avalia disponibilidade</text>
<text xml:space="preserve" text-anchor="middle" x="142.84" y="-1007.37" font-family="Arial" font-size="11.00">• Programação/planejamento</text>
<text xml:space="preserve" text-anchor="middle" x="142.84" y="-993.87" font-family="Arial" font-size="11.00">• Alinhamento com PCP/CD</text>
</g>
<!-- bloqueio_financeiro&#45;&gt;enviar_dpi -->
<g id="edge12" class="edge">
<title>bloqueio_financeiro&#45;&gt;enviar_dpi</title>
<path fill="none" stroke="#4a4a4a" d="M200.36,-1147.52C200.36,-1147.52 200.36,-1076.83 200.36,-1076.83"/>
<polygon fill="#4a4a4a" stroke="#4a4a4a" points="203.16,-1076.83 200.36,-1068.83 197.56,-1076.83 203.16,-1076.83"/>
<text xml:space="preserve" text-anchor="middle" x="191.36" y="-1114.68" font-family="Arial" font-size="10.00">Não</text>
</g>
<!-- liberar_financeiro&#45;&gt;bloqueio_financeiro -->
<g id="edge14" class="edge">
<title>liberar_financeiro&#45;&gt;bloqueio_financeiro</title>
<path fill="none" stroke="#4a4a4a" d="M332.26,-1067.28C332.26,-1067.28 332.26,-1147.17 332.26,-1147.17"/>
<polygon fill="#4a4a4a" stroke="#4a4a4a" points="329.46,-1147.17 332.26,-1155.17 335.06,-1147.17 329.46,-1147.17"/>
<text xml:space="preserve" text-anchor="middle" x="273.38" y="-1109.72" font-family="Arial" font-size="10.00">Liberado? (reavaliar status)</text>
</g>
<!-- reavaliar_credito -->
<g id="node23" class="node">
<title>reavaliar_credito</title>
<path fill="#fffdf2" stroke="#2b2b2b" d="M502.43,-921.18C502.43,-921.18 301.25,-921.18 301.25,-921.18 295.25,-921.18 289.25,-915.18 289.25,-909.18 289.25,-909.18 289.25,-848.4 289.25,-848.4 289.25,-842.4 295.25,-836.4 301.25,-836.4 301.25,-836.4 502.43,-836.4 502.43,-836.4 508.43,-836.4 514.43,-842.4 514.43,-848.4 514.43,-848.4 514.43,-909.18 514.43,-909.18 514.43,-915.18 508.43,-921.18 502.43,-921.18"/>
<text xml:space="preserve" text-anchor="middle" x="401.84" y="-902.09" font-family="Arial" font-size="11.00">Reavaliar Crédito / Ajustar Condições</text>
<text xml:space="preserve" text-anchor="middle" x="401.84" y="-888.59" font-family="Arial" font-size="11.00">Ações:</text>
<text xml:space="preserve" text-anchor="middle" x="401.84" y="-875.09" font-family="Arial" font-size="11.00">• Acionar Contas a Receber/Seguradora</text>
<text xml:space="preserve" text-anchor="middle" x="401.84" y="-861.59" font-family="Arial" font-size="11.00">• Ajustar limite/condições</text>
<text xml:space="preserve" text-anchor="middle" x="401.84" y="-848.09" font-family="Arial" font-size="11.00">• Reprocessar liberação</text>
</g>
<!-- liberar_financeiro&#45;&gt;reavaliar_credito -->
<g id="edge15" class="edge">
<title>liberar_financeiro&#45;&gt;reavaliar_credito</title>
<path fill="none" stroke="#0b5ed7" stroke-dasharray="5,2" d="M427.87,-982.01C427.87,-982.01 427.87,-931.17 427.87,-931.17"/>
<polygon fill="#0b5ed7" stroke="#0b5ed7" points="430.67,-931.17 427.87,-923.17 425.07,-931.17 430.67,-931.17"/>
<text xml:space="preserve" text-anchor="middle" x="390.37" y="-959.09" font-family="Arial" font-size="10.00">Bloqueio persiste</text>
</g>
<!-- reavaliar_credito&#45;&gt;voltarCredito -->
<!-- reavaliar_credito&#45;&gt;liberar_financeiro -->
<g id="edge17" class="edge">
<title>reavaliar_credito&#45;&gt;liberar_financeiro</title>
<path fill="none" stroke="#4a4a4a" d="M369.81,-921.35C369.81,-921.35 369.81,-972.19 369.81,-972.19"/>
<polygon fill="#4a4a4a" stroke="#4a4a4a" points="367.01,-972.19 369.81,-980.19 372.61,-972.19 367.01,-972.19"/>
<text xml:space="preserve" text-anchor="middle" x="350.69" y="-937.27" font-family="Arial" font-size="10.00">Ajustado</text>
</g>
<!-- programar_pcp -->
<g id="node25" class="node">
<title>programar_pcp</title>
<path fill="#ffffff" stroke="#2b2b2b" d="M233.81,-921.18C233.81,-921.18 43.88,-921.18 43.88,-921.18 37.88,-921.18 31.88,-915.18 31.88,-909.18 31.88,-909.18 31.88,-848.4 31.88,-848.4 31.88,-842.4 37.88,-836.4 43.88,-836.4 43.88,-836.4 233.81,-836.4 233.81,-836.4 239.81,-836.4 245.81,-842.4 245.81,-848.4 245.81,-848.4 245.81,-909.18 245.81,-909.18 245.81,-915.18 239.81,-921.18 233.81,-921.18"/>
<text xml:space="preserve" text-anchor="middle" x="138.84" y="-902.09" font-family="Arial" font-size="11.00">7) PCP / Produção (quando aplicável)</text>
<text xml:space="preserve" text-anchor="middle" x="138.84" y="-888.59" font-family="Arial" font-size="11.00">Ações:</text>
<text xml:space="preserve" text-anchor="middle" x="138.84" y="-875.09" font-family="Arial" font-size="11.00">• Planejar produção/separação</text>
<text xml:space="preserve" text-anchor="middle" x="138.84" y="-861.59" font-family="Arial" font-size="11.00">• Confirmar prazos</text>
<text xml:space="preserve" text-anchor="middle" x="138.84" y="-848.09" font-family="Arial" font-size="11.00">• Alimentar status (quando disponível)</text>
</g>
<!-- enviar_dpi&#45;&gt;programar_pcp -->
<g id="edge18" class="edge">
<title>enviar_dpi&#45;&gt;programar_pcp</title>
<path fill="none" stroke="#4a4a4a" d="M138.84,-982.01C138.84,-982.01 138.84,-931.17 138.84,-931.17"/>
<polygon fill="#4a4a4a" stroke="#4a4a4a" points="141.64,-931.17 138.84,-923.17 136.04,-931.17 141.64,-931.17"/>
</g>
<!-- separar_cd -->
<g id="node26" class="node">
<title>separar_cd</title>
<path fill="#ffffff" stroke="#2b2b2b" d="M216.18,-775.4C216.18,-775.4 61.5,-775.4 61.5,-775.4 55.5,-775.4 49.5,-769.4 49.5,-763.4 49.5,-763.4 49.5,-702.62 49.5,-702.62 49.5,-696.62 55.5,-690.62 61.5,-690.62 61.5,-690.62 216.18,-690.62 216.18,-690.62 222.18,-690.62 228.18,-696.62 228.18,-702.62 228.18,-702.62 228.18,-763.4 228.18,-763.4 228.18,-769.4 222.18,-775.4 216.18,-775.4"/>
<text xml:space="preserve" text-anchor="middle" x="138.84" y="-756.31" font-family="Arial" font-size="11.00">8) Centro de Distribuição (CD)</text>
<text xml:space="preserve" text-anchor="middle" x="138.84" y="-742.81" font-family="Arial" font-size="11.00">Ações:</text>
<text xml:space="preserve" text-anchor="middle" x="138.84" y="-729.31" font-family="Arial" font-size="11.00">• Separação e preparação</text>
<text xml:space="preserve" text-anchor="middle" x="138.84" y="-715.81" font-family="Arial" font-size="11.00">• Conferência</text>
<text xml:space="preserve" text-anchor="middle" x="138.84" y="-702.31" font-family="Arial" font-size="11.00">• Liberação para expedição</text>
</g>
<!-- programar_pcp&#45;&gt;separar_cd -->
<g id="edge19" class="edge">
<title>programar_pcp&#45;&gt;separar_cd</title>
<path fill="none" stroke="#4a4a4a" d="M138.84,-836.23C138.84,-836.23 138.84,-785.39 138.84,-785.39"/>
<polygon fill="#4a4a4a" stroke="#4a4a4a" points="141.64,-785.39 138.84,-777.39 136.04,-785.39 141.64,-785.39"/>
</g>
<!-- faturar -->
<g id="node27" class="node">
<title>faturar</title>
<path fill="#ffffff" stroke="#2b2b2b" d="M216.18,-629.62C216.18,-629.62 61.5,-629.62 61.5,-629.62 55.5,-629.62 49.5,-623.62 49.5,-617.62 49.5,-617.62 49.5,-556.84 49.5,-556.84 49.5,-550.84 55.5,-544.84 61.5,-544.84 61.5,-544.84 216.18,-544.84 216.18,-544.84 222.18,-544.84 228.18,-550.84 228.18,-556.84 228.18,-556.84 228.18,-617.62 228.18,-617.62 228.18,-623.62 222.18,-629.62 216.18,-629.62"/>
<text xml:space="preserve" text-anchor="middle" x="138.84" y="-610.53" font-family="Arial" font-size="11.00">9) Faturamento</text>
<text xml:space="preserve" text-anchor="middle" x="138.84" y="-597.03" font-family="Arial" font-size="11.00">Ações:</text>
<text xml:space="preserve" text-anchor="middle" x="138.84" y="-583.53" font-family="Arial" font-size="11.00">• Emitir NF no SAP</text>
<text xml:space="preserve" text-anchor="middle" x="138.84" y="-570.03" font-family="Arial" font-size="11.00">• Registrar documentos</text>
<text xml:space="preserve" text-anchor="middle" x="138.84" y="-556.53" font-family="Arial" font-size="11.00">• Disponibilizar para transporte</text>
</g>
<!-- separar_cd&#45;&gt;faturar -->
<g id="edge20" class="edge">
<title>separar_cd&#45;&gt;faturar</title>
<path fill="none" stroke="#4a4a4a" d="M138.84,-690.45C138.84,-690.45 138.84,-639.61 138.84,-639.61"/>
<polygon fill="#4a4a4a" stroke="#4a4a4a" points="141.64,-639.61 138.84,-631.61 136.04,-639.61 141.64,-639.61"/>
</g>
<!-- transportar_entregar -->
<g id="node28" class="node">
<title>transportar_entregar</title>
<path fill="#ffffff" stroke="#2b2b2b" d="M203.06,-483.84C203.06,-483.84 74.62,-483.84 74.62,-483.84 68.62,-483.84 62.62,-477.84 62.62,-471.84 62.62,-471.84 62.62,-411.06 62.62,-411.06 62.62,-405.06 68.62,-399.06 74.62,-399.06 74.62,-399.06 203.06,-399.06 203.06,-399.06 209.06,-399.06 215.06,-405.06 215.06,-411.06 215.06,-411.06 215.06,-471.84 215.06,-471.84 215.06,-477.84 209.06,-483.84 203.06,-483.84"/>
<text xml:space="preserve" text-anchor="middle" x="138.84" y="-464.75" font-family="Arial" font-size="11.00">10) Transporte e Entrega</text>
<text xml:space="preserve" text-anchor="middle" x="138.84" y="-451.25" font-family="Arial" font-size="11.00">Ações:</text>
<text xml:space="preserve" text-anchor="middle" x="138.84" y="-437.75" font-family="Arial" font-size="11.00">• Acionar transportadora</text>
<text xml:space="preserve" text-anchor="middle" x="138.84" y="-424.25" font-family="Arial" font-size="11.00">• Acompanhar entrega</text>
<text xml:space="preserve" text-anchor="middle" x="138.84" y="-410.75" font-family="Arial" font-size="11.00">• Tratar ocorrências</text>
</g>
<!-- faturar&#45;&gt;transportar_entregar -->
<g id="edge21" class="edge">
<title>faturar&#45;&gt;transportar_entregar</title>
<path fill="none" stroke="#4a4a4a" d="M138.84,-544.67C138.84,-544.67 138.84,-493.83 138.84,-493.83"/>
<polygon fill="#4a4a4a" stroke="#4a4a4a" points="141.64,-493.83 138.84,-485.83 136.04,-493.83 141.64,-493.83"/>
</g>
<!-- saida -->
<g id="node29" class="node">
<title>saida</title>
<path fill="#d1e7dd" stroke="#1e7e34" stroke-width="1.8" d="M265.68,-338.06C265.68,-338.06 12,-338.06 12,-338.06 6,-338.06 0,-332.06 0,-326.06 0,-326.06 0,-251.78 0,-251.78 0,-245.78 6,-239.78 12,-239.78 12,-239.78 265.68,-239.78 265.68,-239.78 271.68,-239.78 277.68,-245.78 277.68,-251.78 277.68,-251.78 277.68,-326.06 277.68,-326.06 277.68,-332.06 271.68,-338.06 265.68,-338.06"/>
<text xml:space="preserve" text-anchor="middle" x="138.84" y="-318.97" font-family="Arial" font-size="11.00">✅ Pedido / Produção / Fatura / Entrega Realizada</text>
<text xml:space="preserve" text-anchor="middle" x="138.84" y="-305.47" font-family="Arial" font-size="11.00">Saída de Dados:</text>
<text xml:space="preserve" text-anchor="middle" x="138.84" y="-291.97" font-family="Arial" font-size="11.00">• OV criada e liberada</text>
<text xml:space="preserve" text-anchor="middle" x="138.84" y="-278.47" font-family="Arial" font-size="11.00">• NF emitida</text>
<text xml:space="preserve" text-anchor="middle" x="138.84" y="-264.97" font-family="Arial" font-size="11.00">• Entrega concluída</text>
<text xml:space="preserve" text-anchor="middle" x="138.84" y="-251.47" font-family="Arial" font-size="11.00">• Status registrado</text>
</g>
<!-- transportar_entregar&#45;&gt;saida -->
<g id="edge22" class="edge">
<title>transportar_entregar&#45;&gt;saida</title>
<path fill="none" stroke="#4a4a4a" d="M138.84,-398.96C138.84,-398.96 138.84,-348.25 138.84,-348.25"/>
<polygon fill="#4a4a4a" stroke="#4a4a4a" points="141.64,-348.25 138.84,-340.25 136.04,-348.25 141.64,-348.25"/>
</g>
<!-- saida&#45;&gt;end -->
<g id="edge23" class="edge">
<title>saida&#45;&gt;end</title>
<path fill="none" stroke="#4a4a4a" d="M138.84,-239.08C138.84,-239.08 138.84,-111.85 138.84,-111.85"/>
<polygon fill="#4a4a4a" stroke="#4a4a4a" points="141.64,-111.85 138.84,-103.85 136.04,-111.85 141.64,-111.85"/>
</g>
</g>
</svg>
