<?xml version="1.0" encoding="UTF-8" standalone="no"?>
<!DOCTYPE svg PUBLIC "-//W3C//DTD SVG 1.1//EN"
 "http://www.w3.org/Graphics/SVG/1.1/DTD/svg11.dtd">
<!-- Generated by graphviz version 14.1.0 (20251206.1807)
 -->
<!-- Title: RFPMoura_DCM_Montadoras_PREVENDA Pages: 1 -->
<svg width="765pt" height="853pt"
 viewBox="0.00 0.00 765.00 853.00" xmlns="http://www.w3.org/2000/svg" xmlns:xlink="http://www.w3.org/1999/xlink">
<g id="graph0" class="graph" transform="scale(1 1) rotate(0) translate(36 817.46)">
<title>RFPMoura_DCM_Montadoras_PREVENDA</title>
<polygon fill="white" stroke="none" points="-36,36 -36,-817.46 728.5,-817.46 728.5,36 -36,36"/>
<text xml:space="preserve" text-anchor="middle" x="346.25" y="-754.66" font-family="Arial Bold" font-size="24.00">RFPMoura | DCM — Processo de PREVENDA (Montadoras)</text>
<!-- PREVENDA_VOLTAR -->
<g id="node1" class="node">
<title>PREVENDA_VOLTAR</title>
<g id="a_node1"><a xlink:href="RFPMoura_DCM_Montadoras_MindMap.svg" xlink:title="Voltar ao mindmap Montadoras" target="_self">
<path fill="#ffffff" stroke="#1f5fbf" stroke-width="3" d="M466.62,-746.46C466.62,-746.46 225.88,-746.46 225.88,-746.46 219.88,-746.46 213.88,-740.46 213.88,-734.46 213.88,-734.46 213.88,-722.46 213.88,-722.46 213.88,-716.46 219.88,-710.46 225.88,-710.46 225.88,-710.46 466.62,-710.46 466.62,-710.46 472.62,-710.46 478.62,-716.46 478.62,-722.46 478.62,-722.46 478.62,-734.46 478.62,-734.46 478.62,-740.46 472.62,-746.46 466.62,-746.46"/>
<text xml:space="preserve" text-anchor="middle" x="346.25" y="-724.19" font-family="Arial" font-size="12.00" fill="#1f5fbf">⟵ Voltar para Macroprocesso Montadoras</text>
</a>
</g>
</g>
<!-- PREVENDA_ETAPA1 -->
<g id="node2" class="node">
<title>PREVENDA_ETAPA1</title>
<path fill="#e7f1ff" stroke="#0b5ed7" stroke-width="2" d="M485,-645.46C485,-645.46 207.5,-645.46 207.5,-645.46 201.5,-645.46 195.5,-639.46 195.5,-633.46 195.5,-633.46 195.5,-608.8 195.5,-608.8 195.5,-602.8 201.5,-596.8 207.5,-596.8 207.5,-596.8 485,-596.8 485,-596.8 491,-596.8 497,-602.8 497,-608.8 497,-608.8 497,-633.46 497,-633.46 497,-639.46 491,-645.46 485,-645.46"/>
<text xml:space="preserve" text-anchor="middle" x="346.25" y="-623.98" font-family="Arial" font-size="12.00" fill="#0b5ed7">1. Recebimento do relatório de potenciais clientes</text>
<text xml:space="preserve" text-anchor="middle" x="346.25" y="-609.73" font-family="Arial" font-size="12.00" fill="#0b5ed7">(Consultorias ou solicitação direta do cliente)</text>
</g>
<!-- PREVENDA_VOLTAR&#45;&gt;PREVENDA_ETAPA1 -->
<g id="edge1" class="edge">
<title>PREVENDA_VOLTAR&#45;&gt;PREVENDA_ETAPA1</title>
<path fill="none" stroke="#6c757d" stroke-width="1.8" d="M346.25,-709.27C346.25,-709.27 346.25,-657.94 346.25,-657.94"/>
<polygon fill="#6c757d" stroke="#6c757d" stroke-width="1.8" points="349.4,-657.94 346.25,-648.94 343.1,-657.94 349.4,-657.94"/>
</g>
<!-- PREVENDA_ETAPA2 -->
<g id="node3" class="node">
<title>PREVENDA_ETAPA2</title>
<path fill="#ffffff" stroke="#2b2b2b" d="M421.62,-531.8C421.62,-531.8 270.88,-531.8 270.88,-531.8 264.88,-531.8 258.88,-525.8 258.88,-519.8 258.88,-519.8 258.88,-466.64 258.88,-466.64 258.88,-460.64 264.88,-454.64 270.88,-454.64 270.88,-454.64 421.62,-454.64 421.62,-454.64 427.62,-454.64 433.62,-460.64 433.62,-466.64 433.62,-466.64 433.62,-519.8 433.62,-519.8 433.62,-525.8 427.62,-531.8 421.62,-531.8"/>
<text xml:space="preserve" text-anchor="middle" x="346.25" y="-510.32" font-family="Arial" font-size="12.00">2. Análise do cliente</text>
<text xml:space="preserve" text-anchor="middle" x="346.25" y="-496.07" font-family="Arial" font-size="12.00">&#45; Cliente recorrente?</text>
<text xml:space="preserve" text-anchor="middle" x="346.25" y="-481.82" font-family="Arial" font-size="12.00">&#45; Tipo de projeto</text>
<text xml:space="preserve" text-anchor="middle" x="346.25" y="-467.57" font-family="Arial" font-size="12.00">&#45; Faixa de share desejada</text>
</g>
<!-- PREVENDA_ETAPA1&#45;&gt;PREVENDA_ETAPA2 -->
<g id="edge2" class="edge">
<title>PREVENDA_ETAPA1&#45;&gt;PREVENDA_ETAPA2</title>
<path fill="none" stroke="#6c757d" stroke-width="1.8" d="M346.25,-595.86C346.25,-595.86 346.25,-543.77 346.25,-543.77"/>
<polygon fill="#6c757d" stroke="#6c757d" stroke-width="1.8" points="349.4,-543.77 346.25,-534.77 343.1,-543.77 349.4,-543.77"/>
</g>
<!-- PREVENDA_ETAPA3 -->
<g id="node4" class="node">
<title>PREVENDA_ETAPA3</title>
<path fill="#ffffff" stroke="#2b2b2b" d="M456.5,-389.64C456.5,-389.64 236,-389.64 236,-389.64 230,-389.64 224,-383.64 224,-377.64 224,-377.64 224,-352.98 224,-352.98 224,-346.98 230,-340.98 236,-340.98 236,-340.98 456.5,-340.98 456.5,-340.98 462.5,-340.98 468.5,-346.98 468.5,-352.98 468.5,-352.98 468.5,-377.64 468.5,-377.64 468.5,-383.64 462.5,-389.64 456.5,-389.64"/>
<text xml:space="preserve" text-anchor="middle" x="346.25" y="-368.16" font-family="Arial" font-size="12.00">3. Avaliação de necessidade de alçada</text>
<text xml:space="preserve" text-anchor="middle" x="346.25" y="-353.91" font-family="Arial" font-size="12.00">(Ajustes de preço / aprovação)</text>
</g>
<!-- PREVENDA_ETAPA2&#45;&gt;PREVENDA_ETAPA3 -->
<g id="edge3" class="edge">
<title>PREVENDA_ETAPA2&#45;&gt;PREVENDA_ETAPA3</title>
<path fill="none" stroke="#6c757d" stroke-width="1.8" d="M346.25,-454.15C346.25,-454.15 346.25,-401.78 346.25,-401.78"/>
<polygon fill="#6c757d" stroke="#6c757d" stroke-width="1.8" points="349.4,-401.78 346.25,-392.78 343.1,-401.78 349.4,-401.78"/>
</g>
<!-- PREVENDA_ETAPA4 -->
<g id="node5" class="node">
<title>PREVENDA_ETAPA4</title>
<path fill="#ffffff" stroke="#2b2b2b" d="M467,-275.98C467,-275.98 225.5,-275.98 225.5,-275.98 219.5,-275.98 213.5,-269.98 213.5,-263.98 213.5,-263.98 213.5,-239.32 213.5,-239.32 213.5,-233.32 219.5,-227.32 225.5,-227.32 225.5,-227.32 467,-227.32 467,-227.32 473,-227.32 479,-233.32 479,-239.32 479,-239.32 479,-263.98 479,-263.98 479,-269.98 473,-275.98 467,-275.98"/>
<text xml:space="preserve" text-anchor="middle" x="346.25" y="-254.5" font-family="Arial" font-size="12.00">4. Negociação com o cliente</text>
<text xml:space="preserve" text-anchor="middle" x="346.25" y="-240.25" font-family="Arial" font-size="12.00">(Interação comercial / condições / volumes)</text>
</g>
<!-- PREVENDA_ETAPA3&#45;&gt;PREVENDA_ETAPA4 -->
<g id="edge4" class="edge">
<title>PREVENDA_ETAPA3&#45;&gt;PREVENDA_ETAPA4</title>
<path fill="none" stroke="#6c757d" stroke-width="1.8" d="M346.25,-340.65C346.25,-340.65 346.25,-287.99 346.25,-287.99"/>
<polygon fill="#6c757d" stroke="#6c757d" stroke-width="1.8" points="349.4,-287.99 346.25,-278.99 343.1,-287.99 349.4,-287.99"/>
</g>
<!-- PREVENDA_ETAPA5 -->
<g id="node6" class="node">
<title>PREVENDA_ETAPA5</title>
<path fill="#ffffff" stroke="#2b2b2b" d="M450.88,-162.32C450.88,-162.32 241.62,-162.32 241.62,-162.32 235.62,-162.32 229.62,-156.32 229.62,-150.32 229.62,-150.32 229.62,-125.66 229.62,-125.66 229.62,-119.66 235.62,-113.66 241.62,-113.66 241.62,-113.66 450.88,-113.66 450.88,-113.66 456.88,-113.66 462.88,-119.66 462.88,-125.66 462.88,-125.66 462.88,-150.32 462.88,-150.32 462.88,-156.32 456.88,-162.32 450.88,-162.32"/>
<text xml:space="preserve" text-anchor="middle" x="346.25" y="-140.84" font-family="Arial" font-size="12.00">5. Criação da proposta comercial</text>
<text xml:space="preserve" text-anchor="middle" x="346.25" y="-126.59" font-family="Arial" font-size="12.00">(DCM + P&amp;R + Atendimento/Vendas)</text>
</g>
<!-- PREVENDA_ETAPA4&#45;&gt;PREVENDA_ETAPA5 -->
<g id="edge5" class="edge">
<title>PREVENDA_ETAPA4&#45;&gt;PREVENDA_ETAPA5</title>
<path fill="none" stroke="#6c757d" stroke-width="1.8" d="M346.25,-226.99C346.25,-226.99 346.25,-174.33 346.25,-174.33"/>
<polygon fill="#6c757d" stroke="#6c757d" stroke-width="1.8" points="349.4,-174.33 346.25,-165.33 343.1,-174.33 349.4,-174.33"/>
</g>
<!-- PREVENDA_ETAPA6 -->
<g id="node7" class="node">
<title>PREVENDA_ETAPA6</title>
<path fill="#eaf7ef" stroke="#146c43" stroke-width="2" d="M463.62,-48.66C463.62,-48.66 228.88,-48.66 228.88,-48.66 222.88,-48.66 216.88,-42.66 216.88,-36.66 216.88,-36.66 216.88,-12 216.88,-12 216.88,-6 222.88,0 228.88,0 228.88,0 463.62,0 463.62,0 469.62,0 475.62,-6 475.62,-12 475.62,-12 475.62,-36.66 475.62,-36.66 475.62,-42.66 469.62,-48.66 463.62,-48.66"/>
<text xml:space="preserve" text-anchor="middle" x="346.25" y="-27.18" font-family="Arial" font-size="12.00" fill="#146c43">6. Proposta aceita e formalizada</text>
<text xml:space="preserve" text-anchor="middle" x="346.25" y="-12.93" font-family="Arial" font-size="12.00" fill="#146c43">Saída: Importação da tabela base no SAP</text>
</g>
<!-- PREVENDA_ETAPA5&#45;&gt;PREVENDA_ETAPA6 -->
<g id="edge6" class="edge">
<title>PREVENDA_ETAPA5&#45;&gt;PREVENDA_ETAPA6</title>
<path fill="none" stroke="#6c757d" stroke-width="1.8" d="M346.25,-113.33C346.25,-113.33 346.25,-61.06 346.25,-61.06"/>
<polygon fill="#6c757d" stroke="#6c757d" stroke-width="1.8" points="349.4,-61.06 346.25,-52.06 343.1,-61.06 349.4,-61.06"/>
</g>
</g>
</svg>
