<?xml version="1.0" encoding="UTF-8" standalone="no"?>
<!DOCTYPE svg PUBLIC "-//W3C//DTD SVG 1.1//EN"
 "http://www.w3.org/Graphics/SVG/1.1/DTD/svg11.dtd">
<!-- Generated by graphviz version 14.1.0 (20251206.1807)
 -->
<!-- Title: RFPMoura_DCBT_Reposicao_Chumbo_CRIAR_PROPOSTA Pages: 1 -->
<svg width="1299pt" height="2486pt"
 viewBox="14.00 14.00 1285.00 2471.00" xmlns="http://www.w3.org/2000/svg" xmlns:xlink="http://www.w3.org/1999/xlink">
<g id="graph0" class="graph" transform="scale(1 1) rotate(0) translate(28.8 2456.9)">
<title>RFPMoura_DCBT_Reposicao_Chumbo_CRIAR_PROPOSTA</title>
<polygon fill="white" stroke="none" points="-14.4,14.4 -14.4,-2442.5 1256.21,-2442.5 1256.21,14.4 -14.4,14.4"/>
<text xml:space="preserve" text-anchor="middle" x="620.9" y="-2407" font-family="Arial" font-size="18.00">AS&#45;IS | DCBT — Reposição (Chumbo)</text>
<text xml:space="preserve" text-anchor="middle" x="620.9" y="-2386" font-family="Arial" font-size="18.00">Criar Proposta</text>
<!-- start -->
<g id="node1" class="node">
<title>start</title>
<ellipse fill="#2ecc71" stroke="#2ecc71" cx="314.47" cy="-2360.1" rx="7.2" ry="7.2"/>
</g>
<!-- receber_demanda -->
<g id="node12" class="node">
<title>receber_demanda</title>
<path fill="#e7f1ff" stroke="#0b5ed7" stroke-width="1.6" d="M438.31,-2284.1C438.31,-2284.1 190.62,-2284.1 190.62,-2284.1 184.62,-2284.1 178.63,-2278.1 178.63,-2272.1 178.63,-2272.1 178.63,-2211.82 178.63,-2211.82 178.63,-2205.82 184.63,-2199.82 190.63,-2199.82 190.63,-2199.82 438.31,-2199.82 438.31,-2199.82 444.31,-2199.82 450.31,-2205.82 450.31,-2211.82 450.31,-2211.82 450.31,-2272.1 450.31,-2272.1 450.31,-2278.1 444.31,-2284.1 438.31,-2284.1"/>
<text xml:space="preserve" text-anchor="middle" x="314.47" y="-2265.01" font-family="Arial" font-size="11.00">1) Receber Demanda de Proposta</text>
<text xml:space="preserve" text-anchor="middle" x="314.47" y="-2251.51" font-family="Arial" font-size="11.00">Origem: Lead Qualificado / Cliente em negociação</text>
<text xml:space="preserve" text-anchor="middle" x="314.47" y="-2225.01" font-family="Arial" font-size="11.00">Atividade Executada:</text>
<text xml:space="preserve" text-anchor="middle" x="314.47" y="-2211.51" font-family="Arial" font-size="11.00">Negociação com o Cliente e Criação de Proposta</text>
</g>
<!-- start&#45;&gt;receber_demanda -->
<g id="edge1" class="edge">
<title>start&#45;&gt;receber_demanda</title>
<path fill="none" stroke="#4a4a4a" d="M314.47,-2352.71C314.47,-2352.71 314.47,-2294.3 314.47,-2294.3"/>
<polygon fill="#4a4a4a" stroke="#4a4a4a" points="317.27,-2294.3 314.47,-2286.3 311.67,-2294.3 317.27,-2294.3"/>
</g>
<!-- end -->
<g id="node2" class="node">
<title>end</title>
<ellipse fill="#e74c3c" stroke="#e74c3c" cx="381.47" cy="-12.64" rx="8.64" ry="8.64"/>
<ellipse fill="none" stroke="#e74c3c" cx="381.47" cy="-12.64" rx="12.64" ry="12.64"/>
</g>
<!-- voltarHub -->
<g id="node3" class="node">
<title>voltarHub</title>
<g id="a_node3"><a xlink:href="RFPMoura_DCBT_Processos_MindMap.svg" xlink:title="↩ HUB (DCBT)" target="_self">
<path fill="#eef6ff" stroke="#1f5fbf" stroke-width="1.2" d="M468.31,-2378.1C468.31,-2378.1 376.62,-2378.1 376.62,-2378.1 370.62,-2378.1 364.62,-2372.1 364.62,-2366.1 364.62,-2366.1 364.62,-2354.1 364.62,-2354.1 364.62,-2348.1 370.62,-2342.1 376.62,-2342.1 376.62,-2342.1 468.31,-2342.1 468.31,-2342.1 474.31,-2342.1 480.31,-2348.1 480.31,-2354.1 480.31,-2354.1 480.31,-2366.1 480.31,-2366.1 480.31,-2372.1 474.31,-2378.1 468.31,-2378.1"/>
<text xml:space="preserve" text-anchor="middle" x="422.47" y="-2356.4" font-family="Arial" font-size="11.00">↩ HUB (DCBT)</text>
</a>
</g>
</g>
<!-- voltarReposicao -->
<g id="node4" class="node">
<title>voltarReposicao</title>
<g id="a_node4"><a xlink:href="RFPMoura_DCBT_Reposicao_MindMap.svg" xlink:title="⬅ Voltar para REPOSIÇÃO (Mindmap)" target="_self">
<path fill="#e7f1ff" stroke="#0b5ed7" stroke-width="1.6" d="M737.81,-2378.1C737.81,-2378.1 535.12,-2378.1 535.12,-2378.1 529.12,-2378.1 523.12,-2372.1 523.12,-2366.1 523.12,-2366.1 523.12,-2354.1 523.12,-2354.1 523.12,-2348.1 529.12,-2342.1 535.12,-2342.1 535.12,-2342.1 737.81,-2342.1 737.81,-2342.1 743.81,-2342.1 749.81,-2348.1 749.81,-2354.1 749.81,-2354.1 749.81,-2366.1 749.81,-2366.1 749.81,-2372.1 743.81,-2378.1 737.81,-2378.1"/>
<text xml:space="preserve" text-anchor="middle" x="636.47" y="-2356.4" font-family="Arial" font-size="11.00">⬅ Voltar para REPOSIÇÃO (Mindmap)</text>
</a>
</g>
</g>
<!-- voltarProspeccao -->
<g id="node5" class="node">
<title>voltarProspeccao</title>
<g id="a_node5"><a xlink:href="RFPMoura_DCBT_Reposicao_Chumbo_PROSPECCAO_QUALIFICACAO.svg" xlink:title="⬅ Voltar para PROSPECÇÃO/QUALIFICAÇÃO" target="_self">
<path fill="#e7f1ff" stroke="#0b5ed7" stroke-width="1.2" d="M1050.56,-2378.1C1050.56,-2378.1 804.38,-2378.1 804.38,-2378.1 798.38,-2378.1 792.38,-2372.1 792.38,-2366.1 792.38,-2366.1 792.38,-2354.1 792.38,-2354.1 792.38,-2348.1 798.38,-2342.1 804.38,-2342.1 804.38,-2342.1 1050.56,-2342.1 1050.56,-2342.1 1056.56,-2342.1 1062.56,-2348.1 1062.56,-2354.1 1062.56,-2354.1 1062.56,-2366.1 1062.56,-2366.1 1062.56,-2372.1 1056.56,-2378.1 1050.56,-2378.1"/>
<text xml:space="preserve" text-anchor="middle" x="927.47" y="-2356.4" font-family="Arial" font-size="11.00">⬅ Voltar para PROSPECÇÃO/QUALIFICAÇÃO</text>
</a>
</g>
</g>
<!-- irProjeto -->
<g id="node6" class="node">
<title>irProjeto</title>
<g id="a_node6"><a xlink:href="RFPMoura_DCBT_Reposicao_Chumbo_PROJETO.svg" xlink:title="➡ Ir para PROJETO" target="_self">
<path fill="#e7f1ff" stroke="#0b5ed7" stroke-width="1.2" d="M1229.81,-2378.1C1229.81,-2378.1 1117.13,-2378.1 1117.13,-2378.1 1111.13,-2378.1 1105.13,-2372.1 1105.13,-2366.1 1105.13,-2366.1 1105.13,-2354.1 1105.13,-2354.1 1105.13,-2348.1 1111.13,-2342.1 1117.13,-2342.1 1117.13,-2342.1 1229.81,-2342.1 1229.81,-2342.1 1235.81,-2342.1 1241.81,-2348.1 1241.81,-2354.1 1241.81,-2354.1 1241.81,-2366.1 1241.81,-2366.1 1241.81,-2372.1 1235.81,-2378.1 1229.81,-2378.1"/>
<text xml:space="preserve" text-anchor="middle" x="1173.47" y="-2356.4" font-family="Arial" font-size="11.00">➡ Ir para PROJETO</text>
</a>
</g>
</g>
<!-- stakeholders -->
<g id="node7" class="node">
<title>stakeholders</title>
<polygon fill="#f8f9fa" stroke="#2b2b2b" points="681.68,-2277.6 493.25,-2277.6 493.25,-2206.32 687.68,-2206.32 687.68,-2271.6 681.68,-2277.6"/>
<polyline fill="none" stroke="#2b2b2b" points="681.68,-2277.6 681.68,-2271.6"/>
<polyline fill="none" stroke="#2b2b2b" points="687.68,-2271.6 681.68,-2271.6"/>
<text xml:space="preserve" text-anchor="middle" x="590.47" y="-2258.51" font-family="Arial" font-size="11.00">Key Users / Áreas / Stakeholders:</text>
<text xml:space="preserve" text-anchor="middle" x="590.47" y="-2245.01" font-family="Arial" font-size="11.00">• Vendedor</text>
<text xml:space="preserve" text-anchor="middle" x="590.47" y="-2231.51" font-family="Arial" font-size="11.00">• Supervisor</text>
<text xml:space="preserve" text-anchor="middle" x="590.47" y="-2218.01" font-family="Arial" font-size="11.00">• Gestor</text>
</g>
<!-- entradas -->
<g id="node8" class="node">
<title>entradas</title>
<polygon fill="#f8f9fa" stroke="#2b2b2b" points="701.06,-2135.07 505.88,-2135.07 505.88,-2063.79 707.06,-2063.79 707.06,-2129.07 701.06,-2135.07"/>
<polyline fill="none" stroke="#2b2b2b" points="701.06,-2135.07 701.06,-2129.07"/>
<polyline fill="none" stroke="#2b2b2b" points="707.06,-2129.07 701.06,-2129.07"/>
<text xml:space="preserve" text-anchor="middle" x="606.47" y="-2115.98" font-family="Arial" font-size="11.00">Entrada de Dados / Informação:</text>
<text xml:space="preserve" text-anchor="middle" x="606.47" y="-2102.48" font-family="Arial" font-size="11.00">• Dados cadastrais do Cliente</text>
<text xml:space="preserve" text-anchor="middle" x="606.47" y="-2088.98" font-family="Arial" font-size="11.00">• Dados/itens do Produto</text>
<text xml:space="preserve" text-anchor="middle" x="606.47" y="-2075.48" font-family="Arial" font-size="11.00">• Condições comerciais negociadas</text>
</g>
<!-- sistemas -->
<g id="node9" class="node">
<title>sistemas</title>
<polygon fill="#f8f9fa" stroke="#2b2b2b" points="570.68,-1057.02 448.25,-1057.02 448.25,-972.74 576.68,-972.74 576.68,-1051.02 570.68,-1057.02"/>
<polyline fill="none" stroke="#2b2b2b" points="570.68,-1057.02 570.68,-1051.02"/>
<polyline fill="none" stroke="#2b2b2b" points="576.68,-1051.02 570.68,-1051.02"/>
<text xml:space="preserve" text-anchor="middle" x="512.47" y="-1037.93" font-family="Arial" font-size="11.00">Sistemas Utilizados:</text>
<text xml:space="preserve" text-anchor="middle" x="512.47" y="-1024.43" font-family="Arial" font-size="11.00">• Ploomes</text>
<text xml:space="preserve" text-anchor="middle" x="512.47" y="-997.93" font-family="Arial" font-size="11.00">Frequência:</text>
<text xml:space="preserve" text-anchor="middle" x="512.47" y="-984.43" font-family="Arial" font-size="11.00">• Sob demanda</text>
</g>
<!-- oportunidades -->
<g id="node10" class="node">
<title>oportunidades</title>
<polygon fill="#f8f9fa" stroke="#2b2b2b" points="871.43,-438.34 567.5,-438.34 567.5,-353.56 877.43,-353.56 877.43,-432.34 871.43,-438.34"/>
<polyline fill="none" stroke="#2b2b2b" points="871.43,-438.34 871.43,-432.34"/>
<polyline fill="none" stroke="#2b2b2b" points="877.43,-432.34 871.43,-432.34"/>
<text xml:space="preserve" text-anchor="middle" x="722.47" y="-419.25" font-family="Arial" font-size="11.00">Oportunidades:</text>
<text xml:space="preserve" text-anchor="middle" x="722.47" y="-405.75" font-family="Arial" font-size="11.00">• Ampliação da visibilidade e alinhamento entre áreas</text>
<text xml:space="preserve" text-anchor="middle" x="722.47" y="-392.25" font-family="Arial" font-size="11.00">• Evolução de regras de validação e governança de dados</text>
<text xml:space="preserve" text-anchor="middle" x="722.47" y="-378.75" font-family="Arial" font-size="11.00">• Centralização e padronização da comunicação</text>
<text xml:space="preserve" text-anchor="middle" x="722.47" y="-365.25" font-family="Arial" font-size="11.00">• Redução do lead time operacional</text>
</g>
<!-- produto_salesforce -->
<g id="node11" class="node">
<title>produto_salesforce</title>
<polygon fill="#f8f9fa" stroke="#2b2b2b" points="873.31,-289.06 541.62,-289.06 541.62,-83.28 879.31,-83.28 879.31,-283.06 873.31,-289.06"/>
<polyline fill="none" stroke="#2b2b2b" points="873.31,-289.06 873.31,-283.06"/>
<polyline fill="none" stroke="#2b2b2b" points="879.31,-283.06 873.31,-283.06"/>
<text xml:space="preserve" text-anchor="middle" x="710.47" y="-269.97" font-family="Arial" font-size="11.00">Produto Salesforce:</text>
<text xml:space="preserve" text-anchor="middle" x="710.47" y="-256.47" font-family="Arial" font-size="11.00">• Sales Cloud</text>
<text xml:space="preserve" text-anchor="middle" x="710.47" y="-242.97" font-family="Arial" font-size="11.00">• Service Cloud</text>
<text xml:space="preserve" text-anchor="middle" x="710.47" y="-229.47" font-family="Arial" font-size="11.00">• Advanced Approvals</text>
<text xml:space="preserve" text-anchor="middle" x="710.47" y="-215.97" font-family="Arial" font-size="11.00">• DocuSign</text>
<text xml:space="preserve" text-anchor="middle" x="710.47" y="-189.47" font-family="Arial" font-size="11.00">Soluções Aplicáveis:</text>
<text xml:space="preserve" text-anchor="middle" x="710.47" y="-175.97" font-family="Arial" font-size="11.00">• Configuração de produtos, precificação e geração de cotações</text>
<text xml:space="preserve" text-anchor="middle" x="710.47" y="-162.47" font-family="Arial" font-size="11.00">• Previsão de receita baseada no pipeline</text>
<text xml:space="preserve" text-anchor="middle" x="710.47" y="-148.97" font-family="Arial" font-size="11.00">• Rotinas comerciais (tarefas, agendas, fluxos)</text>
<text xml:space="preserve" text-anchor="middle" x="710.47" y="-135.47" font-family="Arial" font-size="11.00">• Gestão do pipeline/equipe (etapas, estagnações, metas)</text>
<text xml:space="preserve" text-anchor="middle" x="710.47" y="-121.97" font-family="Arial" font-size="11.00">• Registro e resolução de solicitações (atendimento)</text>
<text xml:space="preserve" text-anchor="middle" x="710.47" y="-108.47" font-family="Arial" font-size="11.00">• Assinatura digital via oportunidade (DocuSign)</text>
<text xml:space="preserve" text-anchor="middle" x="710.47" y="-94.97" font-family="Arial" font-size="11.00">• Automação de aprovações e contratos (Advanced Approvals)</text>
</g>
<!-- validar_cadastro -->
<g id="node13" class="node">
<title>validar_cadastro</title>
<path fill="#ffffff" stroke="#2b2b2b" d="M451.06,-2141.82C451.06,-2141.82 177.88,-2141.82 177.88,-2141.82 171.88,-2141.82 165.88,-2135.82 165.88,-2129.82 165.88,-2129.82 165.88,-2069.04 165.88,-2069.04 165.88,-2063.04 171.88,-2057.04 177.88,-2057.04 177.88,-2057.04 451.06,-2057.04 451.06,-2057.04 457.06,-2057.04 463.06,-2063.04 463.06,-2069.04 463.06,-2069.04 463.06,-2129.82 463.06,-2129.82 463.06,-2135.82 457.06,-2141.82 451.06,-2141.82"/>
<text xml:space="preserve" text-anchor="middle" x="314.47" y="-2122.73" font-family="Arial" font-size="11.00">2) Validar Dados de Cliente e Produtos</text>
<text xml:space="preserve" text-anchor="middle" x="314.47" y="-2109.23" font-family="Arial" font-size="11.00">Ações:</text>
<text xml:space="preserve" text-anchor="middle" x="314.47" y="-2095.73" font-family="Arial" font-size="11.00">• Confirmar dados cadastrais</text>
<text xml:space="preserve" text-anchor="middle" x="314.47" y="-2082.23" font-family="Arial" font-size="11.00">• Confirmar SKUs/itens e disponibilidade de informação</text>
<text xml:space="preserve" text-anchor="middle" x="314.47" y="-2068.73" font-family="Arial" font-size="11.00">• Checar histórico e condições já praticadas</text>
</g>
<!-- receber_demanda&#45;&gt;validar_cadastro -->
<g id="edge2" class="edge">
<title>receber_demanda&#45;&gt;validar_cadastro</title>
<path fill="none" stroke="#4a4a4a" d="M314.47,-2199.2C314.47,-2199.2 314.47,-2151.68 314.47,-2151.68"/>
<polygon fill="#4a4a4a" stroke="#4a4a4a" points="317.27,-2151.68 314.47,-2143.68 311.67,-2151.68 317.27,-2151.68"/>
</g>
<!-- decisao_precisa_projeto -->
<g id="node14" class="node">
<title>decisao_precisa_projeto</title>
<polygon fill="#fff1b8" stroke="#2b2b2b" points="314.47,-1999.04 154.54,-1941.26 314.46,-1883.48 474.4,-1941.26 314.47,-1999.04"/>
<text xml:space="preserve" text-anchor="middle" x="314.47" y="-1951.06" font-family="Arial" font-size="11.00">Necessita novo SKU</text>
<text xml:space="preserve" text-anchor="middle" x="314.47" y="-1937.56" font-family="Arial" font-size="11.00">ou Projeto/Ficha Técnica</text>
<text xml:space="preserve" text-anchor="middle" x="314.47" y="-1924.06" font-family="Arial" font-size="11.00">para precificar/especificar?</text>
</g>
<!-- validar_cadastro&#45;&gt;decisao_precisa_projeto -->
<g id="edge3" class="edge">
<title>validar_cadastro&#45;&gt;decisao_precisa_projeto</title>
<path fill="none" stroke="#4a4a4a" d="M314.47,-2056.63C314.47,-2056.63 314.47,-2009.05 314.47,-2009.05"/>
<polygon fill="#4a4a4a" stroke="#4a4a4a" points="317.27,-2009.05 314.47,-2001.05 311.67,-2009.05 317.27,-2009.05"/>
</g>
<!-- abrir_fluxo_projeto -->
<g id="node15" class="node">
<title>abrir_fluxo_projeto</title>
<g id="a_node15"><a xlink:href="RFPMoura_DCBT_Reposicao_Chumbo_PROJETO.svg" xlink:title="Abrir Fluxo: PROJETO\n(Projeto e/ou Ficha Técnica)\n\nClique para acessar o fluxo" target="_self">
<path fill="#fffdf2" stroke="#2b2b2b" d="M312.18,-1825.48C312.18,-1825.48 168.75,-1825.48 168.75,-1825.48 162.75,-1825.48 156.75,-1819.48 156.75,-1813.48 156.75,-1813.48 156.75,-1766.7 156.75,-1766.7 156.75,-1760.7 162.75,-1754.7 168.75,-1754.7 168.75,-1754.7 312.18,-1754.7 312.18,-1754.7 318.18,-1754.7 324.18,-1760.7 324.18,-1766.7 324.18,-1766.7 324.18,-1813.48 324.18,-1813.48 324.18,-1819.48 318.18,-1825.48 312.18,-1825.48"/>
<text xml:space="preserve" text-anchor="middle" x="240.47" y="-1806.39" font-family="Arial" font-size="11.00">Abrir Fluxo: PROJETO</text>
<text xml:space="preserve" text-anchor="middle" x="240.47" y="-1792.89" font-family="Arial" font-size="11.00">(Projeto e/ou Ficha Técnica)</text>
<text xml:space="preserve" text-anchor="middle" x="240.47" y="-1766.39" font-family="Arial" font-size="11.00">Clique para acessar o fluxo</text>
</a>
</g>
</g>
<!-- decisao_precisa_projeto&#45;&gt;abrir_fluxo_projeto -->
<g id="edge4" class="edge">
<title>decisao_precisa_projeto&#45;&gt;abrir_fluxo_projeto</title>
<path fill="none" stroke="#4a4a4a" d="M240.47,-1909.94C240.47,-1909.94 240.47,-1835.39 240.47,-1835.39"/>
<polygon fill="#4a4a4a" stroke="#4a4a4a" points="243.27,-1835.39 240.47,-1827.39 237.67,-1835.39 243.27,-1835.39"/>
<text xml:space="preserve" text-anchor="middle" x="231.84" y="-1863.17" font-family="Arial" font-size="10.00">Sim</text>
</g>
<!-- decisao_tipo_venda -->
<g id="node16" class="node">
<title>decisao_tipo_venda</title>
<polygon fill="#fff1b8" stroke="#2b2b2b" points="314.47,-1696.7 173.29,-1638.92 314.46,-1581.14 455.65,-1638.92 314.47,-1696.7"/>
<text xml:space="preserve" text-anchor="middle" x="314.47" y="-1648.72" font-family="Arial" font-size="11.00">Negociação será</text>
<text xml:space="preserve" text-anchor="middle" x="314.47" y="-1635.22" font-family="Arial" font-size="11.00">Venda Direta (Fábrica)</text>
<text xml:space="preserve" text-anchor="middle" x="314.47" y="-1621.72" font-family="Arial" font-size="11.00">ou Revenda?</text>
</g>
<!-- decisao_precisa_projeto&#45;&gt;decisao_tipo_venda -->
<g id="edge5" class="edge">
<title>decisao_precisa_projeto&#45;&gt;decisao_tipo_venda</title>
<path fill="none" stroke="#4a4a4a" d="M389.91,-1910.33C389.91,-1910.33 389.91,-1675.59 389.91,-1675.59"/>
<polygon fill="#4a4a4a" stroke="#4a4a4a" points="392.71,-1675.59 389.91,-1667.59 387.11,-1675.59 392.71,-1675.59"/>
<text xml:space="preserve" text-anchor="middle" x="380.91" y="-1795.46" font-family="Arial" font-size="10.00">Não</text>
</g>
<!-- abrir_fluxo_projeto&#45;&gt;decisao_tipo_venda -->
<g id="edge6" class="edge">
<title>abrir_fluxo_projeto&#45;&gt;decisao_tipo_venda</title>
<path fill="none" stroke="#0b5ed7" stroke-dasharray="5,2" d="M248.73,-1754.26C248.73,-1754.26 248.73,-1679.65 248.73,-1679.65"/>
<polygon fill="#0b5ed7" stroke="#0b5ed7" points="251.53,-1679.65 248.73,-1671.65 245.93,-1679.65 251.53,-1679.65"/>
<text xml:space="preserve" text-anchor="middle" x="202.23" y="-1719.46" font-family="Arial" font-size="10.00">Após concluir Projeto</text>
</g>
<!-- definir_condicoes_direta -->
<g id="node17" class="node">
<title>definir_condicoes_direta</title>
<path fill="#ffffff" stroke="#2b2b2b" d="M283.31,-1523.14C283.31,-1523.14 89.62,-1523.14 89.62,-1523.14 83.62,-1523.14 77.63,-1517.14 77.63,-1511.14 77.63,-1511.14 77.63,-1450.36 77.63,-1450.36 77.63,-1444.36 83.63,-1438.36 89.63,-1438.36 89.63,-1438.36 283.31,-1438.36 283.31,-1438.36 289.31,-1438.36 295.31,-1444.36 295.31,-1450.36 295.31,-1450.36 295.31,-1511.14 295.31,-1511.14 295.31,-1517.14 289.31,-1523.14 283.31,-1523.14"/>
<text xml:space="preserve" text-anchor="middle" x="186.47" y="-1504.05" font-family="Arial" font-size="11.00">3A) Definir Condições — Venda Direta</text>
<text xml:space="preserve" text-anchor="middle" x="186.47" y="-1490.55" font-family="Arial" font-size="11.00">Ações:</text>
<text xml:space="preserve" text-anchor="middle" x="186.47" y="-1477.05" font-family="Arial" font-size="11.00">• Definir preços e margens</text>
<text xml:space="preserve" text-anchor="middle" x="186.47" y="-1463.55" font-family="Arial" font-size="11.00">• Definir impostos/condições</text>
<text xml:space="preserve" text-anchor="middle" x="186.47" y="-1450.05" font-family="Arial" font-size="11.00">• Definir prazos e logística</text>
</g>
<!-- decisao_tipo_venda&#45;&gt;definir_condicoes_direta -->
<g id="edge7" class="edge">
<title>decisao_tipo_venda&#45;&gt;definir_condicoes_direta</title>
<path fill="none" stroke="#4a4a4a" d="M234.3,-1613.51C234.3,-1613.51 234.3,-1532.89 234.3,-1532.89"/>
<polygon fill="#4a4a4a" stroke="#4a4a4a" points="237.1,-1532.89 234.3,-1524.89 231.5,-1532.89 237.1,-1532.89"/>
<text xml:space="preserve" text-anchor="middle" x="221.17" y="-1563.7" font-family="Arial" font-size="10.00">Direta</text>
</g>
<!-- definir_condicoes_revenda -->
<g id="node18" class="node">
<title>definir_condicoes_revenda</title>
<path fill="#ffffff" stroke="#2b2b2b" d="M536.93,-1523.14C536.93,-1523.14 350,-1523.14 350,-1523.14 344,-1523.14 338,-1517.14 338,-1511.14 338,-1511.14 338,-1450.36 338,-1450.36 338,-1444.36 344,-1438.36 350,-1438.36 350,-1438.36 536.93,-1438.36 536.93,-1438.36 542.93,-1438.36 548.93,-1444.36 548.93,-1450.36 548.93,-1450.36 548.93,-1511.14 548.93,-1511.14 548.93,-1517.14 542.93,-1523.14 536.93,-1523.14"/>
<text xml:space="preserve" text-anchor="middle" x="443.47" y="-1504.05" font-family="Arial" font-size="11.00">3B) Definir Condições — Revenda</text>
<text xml:space="preserve" text-anchor="middle" x="443.47" y="-1490.55" font-family="Arial" font-size="11.00">Ações:</text>
<text xml:space="preserve" text-anchor="middle" x="443.47" y="-1477.05" font-family="Arial" font-size="11.00">• Definir preços e margens</text>
<text xml:space="preserve" text-anchor="middle" x="443.47" y="-1463.55" font-family="Arial" font-size="11.00">• Definir política comercial aplicável</text>
<text xml:space="preserve" text-anchor="middle" x="443.47" y="-1450.05" font-family="Arial" font-size="11.00">• Definir prazos/condições de entrega</text>
</g>
<!-- decisao_tipo_venda&#45;&gt;definir_condicoes_revenda -->
<g id="edge8" class="edge">
<title>decisao_tipo_venda&#45;&gt;definir_condicoes_revenda</title>
<path fill="none" stroke="#4a4a4a" d="M396.82,-1614.55C396.82,-1614.55 396.82,-1533.15 396.82,-1533.15"/>
<polygon fill="#4a4a4a" stroke="#4a4a4a" points="399.62,-1533.15 396.82,-1525.15 394.02,-1533.15 399.62,-1533.15"/>
<text xml:space="preserve" text-anchor="middle" x="377.32" y="-1564.35" font-family="Arial" font-size="10.00">Revenda</text>
</g>
<!-- decisao_bin -->
<g id="node19" class="node">
<title>decisao_bin</title>
<polygon fill="#fff1b8" stroke="#2b2b2b" points="314.47,-1380.36 188.29,-1322.58 314.46,-1264.8 440.65,-1322.58 314.47,-1380.36"/>
<text xml:space="preserve" text-anchor="middle" x="314.47" y="-1332.38" font-family="Arial" font-size="11.00">Há necessidade de</text>
<text xml:space="preserve" text-anchor="middle" x="314.47" y="-1318.88" font-family="Arial" font-size="11.00">base de troca BIN</text>
<text xml:space="preserve" text-anchor="middle" x="314.47" y="-1305.38" font-family="Arial" font-size="11.00">(bateria inservível)?</text>
</g>
<!-- definir_condicoes_direta&#45;&gt;decisao_bin -->
<g id="edge9" class="edge">
<title>definir_condicoes_direta&#45;&gt;decisao_bin</title>
<path fill="none" stroke="#4a4a4a" d="M241.8,-1437.95C241.8,-1437.95 241.8,-1356.7 241.8,-1356.7"/>
<polygon fill="#4a4a4a" stroke="#4a4a4a" points="244.6,-1356.7 241.8,-1348.7 239,-1356.7 244.6,-1356.7"/>
</g>
<!-- definir_condicoes_revenda&#45;&gt;decisao_bin -->
<g id="edge10" class="edge">
<title>definir_condicoes_revenda&#45;&gt;decisao_bin</title>
<path fill="none" stroke="#4a4a4a" d="M389.32,-1437.95C389.32,-1437.95 389.32,-1355.79 389.32,-1355.79"/>
<polygon fill="#4a4a4a" stroke="#4a4a4a" points="392.12,-1355.79 389.32,-1347.79 386.52,-1355.79 392.12,-1355.79"/>
</g>
<!-- ajustar_com_bin -->
<g id="node20" class="node">
<title>ajustar_com_bin</title>
<path fill="#fffdf2" stroke="#2b2b2b" d="M288.68,-1206.8C288.68,-1206.8 88.25,-1206.8 88.25,-1206.8 82.25,-1206.8 76.25,-1200.8 76.25,-1194.8 76.25,-1194.8 76.25,-1134.02 76.25,-1134.02 76.25,-1128.02 82.25,-1122.02 88.25,-1122.02 88.25,-1122.02 288.68,-1122.02 288.68,-1122.02 294.68,-1122.02 300.68,-1128.02 300.68,-1134.02 300.68,-1134.02 300.68,-1194.8 300.68,-1194.8 300.68,-1200.8 294.68,-1206.8 288.68,-1206.8"/>
<text xml:space="preserve" text-anchor="middle" x="188.47" y="-1187.71" font-family="Arial" font-size="11.00">4) Ajustar Proposta com BIN</text>
<text xml:space="preserve" text-anchor="middle" x="188.47" y="-1174.21" font-family="Arial" font-size="11.00">Ações:</text>
<text xml:space="preserve" text-anchor="middle" x="188.47" y="-1160.71" font-family="Arial" font-size="11.00">• Definir regras/valores da base de troca</text>
<text xml:space="preserve" text-anchor="middle" x="188.47" y="-1147.21" font-family="Arial" font-size="11.00">• Ajustar custo e margem</text>
<text xml:space="preserve" text-anchor="middle" x="188.47" y="-1133.71" font-family="Arial" font-size="11.00">• Registrar condições no Ploomes</text>
</g>
<!-- decisao_bin&#45;&gt;ajustar_com_bin -->
<g id="edge11" class="edge">
<title>decisao_bin&#45;&gt;ajustar_com_bin</title>
<path fill="none" stroke="#4a4a4a" d="M244.48,-1296.46C244.48,-1296.46 244.48,-1216.79 244.48,-1216.79"/>
<polygon fill="#4a4a4a" stroke="#4a4a4a" points="247.28,-1216.79 244.48,-1208.79 241.68,-1216.79 247.28,-1216.79"/>
<text xml:space="preserve" text-anchor="middle" x="235.86" y="-1247.13" font-family="Arial" font-size="10.00">Sim</text>
</g>
<!-- seguir_sem_bin -->
<g id="node21" class="node">
<title>seguir_sem_bin</title>
<path fill="#ffffff" stroke="#2b2b2b" d="M525.31,-1200.05C525.31,-1200.05 355.62,-1200.05 355.62,-1200.05 349.62,-1200.05 343.62,-1194.05 343.62,-1188.05 343.62,-1188.05 343.62,-1140.77 343.62,-1140.77 343.62,-1134.77 349.62,-1128.77 355.62,-1128.77 355.62,-1128.77 525.31,-1128.77 525.31,-1128.77 531.31,-1128.77 537.31,-1134.77 537.31,-1140.77 537.31,-1140.77 537.31,-1188.05 537.31,-1188.05 537.31,-1194.05 531.31,-1200.05 525.31,-1200.05"/>
<text xml:space="preserve" text-anchor="middle" x="440.47" y="-1180.96" font-family="Arial" font-size="11.00">4) Seguir Sem BIN</text>
<text xml:space="preserve" text-anchor="middle" x="440.47" y="-1167.46" font-family="Arial" font-size="11.00">Ações:</text>
<text xml:space="preserve" text-anchor="middle" x="440.47" y="-1153.96" font-family="Arial" font-size="11.00">• Confirmar valores e margens</text>
<text xml:space="preserve" text-anchor="middle" x="440.47" y="-1140.46" font-family="Arial" font-size="11.00">• Registrar condições no Ploomes</text>
</g>
<!-- decisao_bin&#45;&gt;seguir_sem_bin -->
<g id="edge12" class="edge">
<title>decisao_bin&#45;&gt;seguir_sem_bin</title>
<path fill="none" stroke="#4a4a4a" d="M392.14,-1299.92C392.14,-1299.92 392.14,-1209.99 392.14,-1209.99"/>
<polygon fill="#4a4a4a" stroke="#4a4a4a" points="394.94,-1209.99 392.14,-1201.99 389.34,-1209.99 394.94,-1209.99"/>
<text xml:space="preserve" text-anchor="middle" x="383.14" y="-1245.45" font-family="Arial" font-size="10.00">Não</text>
</g>
<!-- montar_proposta -->
<g id="node22" class="node">
<title>montar_proposta</title>
<path fill="#ffffff" stroke="#2b2b2b" d="M393.31,-1064.02C393.31,-1064.02 235.63,-1064.02 235.63,-1064.02 229.63,-1064.02 223.63,-1058.02 223.63,-1052.02 223.63,-1052.02 223.63,-977.74 223.63,-977.74 223.63,-971.74 229.63,-965.74 235.63,-965.74 235.63,-965.74 393.31,-965.74 393.31,-965.74 399.31,-965.74 405.31,-971.74 405.31,-977.74 405.31,-977.74 405.31,-1052.02 405.31,-1052.02 405.31,-1058.02 399.31,-1064.02 393.31,-1064.02"/>
<text xml:space="preserve" text-anchor="middle" x="314.47" y="-1044.93" font-family="Arial" font-size="11.00">5) Montar Proposta no Sistema</text>
<text xml:space="preserve" text-anchor="middle" x="314.47" y="-1031.43" font-family="Arial" font-size="11.00">Sistema: Ploomes</text>
<text xml:space="preserve" text-anchor="middle" x="314.47" y="-1017.93" font-family="Arial" font-size="11.00">Ações:</text>
<text xml:space="preserve" text-anchor="middle" x="314.47" y="-1004.43" font-family="Arial" font-size="11.00">• Criar cotação/proposta</text>
<text xml:space="preserve" text-anchor="middle" x="314.47" y="-990.93" font-family="Arial" font-size="11.00">• Vincular cliente e itens</text>
<text xml:space="preserve" text-anchor="middle" x="314.47" y="-977.43" font-family="Arial" font-size="11.00">• Gerar versão para envio</text>
</g>
<!-- ajustar_com_bin&#45;&gt;montar_proposta -->
<g id="edge13" class="edge">
<title>ajustar_com_bin&#45;&gt;montar_proposta</title>
<path fill="none" stroke="#4a4a4a" d="M262.15,-1121.56C262.15,-1121.56 262.15,-1073.84 262.15,-1073.84"/>
<polygon fill="#4a4a4a" stroke="#4a4a4a" points="264.95,-1073.84 262.15,-1065.84 259.35,-1073.84 264.95,-1073.84"/>
</g>
<!-- seguir_sem_bin&#45;&gt;montar_proposta -->
<g id="edge14" class="edge">
<title>seguir_sem_bin&#45;&gt;montar_proposta</title>
<path fill="none" stroke="#4a4a4a" d="M374.47,-1128.59C374.47,-1128.59 374.47,-1073.77 374.47,-1073.77"/>
<polygon fill="#4a4a4a" stroke="#4a4a4a" points="377.27,-1073.77 374.47,-1065.77 371.67,-1073.77 377.27,-1073.77"/>
</g>
<!-- decisao_aprovacao -->
<g id="node23" class="node">
<title>decisao_aprovacao</title>
<polygon fill="#fff1b8" stroke="#2b2b2b" points="314.47,-907.74 188.29,-849.96 314.46,-792.18 440.65,-849.96 314.47,-907.74"/>
<text xml:space="preserve" text-anchor="middle" x="314.47" y="-859.76" font-family="Arial" font-size="11.00">Aprovação interna</text>
<text xml:space="preserve" text-anchor="middle" x="314.47" y="-846.26" font-family="Arial" font-size="11.00">(Supervisor/Gestor)</text>
<text xml:space="preserve" text-anchor="middle" x="314.47" y="-832.76" font-family="Arial" font-size="11.00">necessária?</text>
</g>
<!-- montar_proposta&#45;&gt;decisao_aprovacao -->
<g id="edge15" class="edge">
<title>montar_proposta&#45;&gt;decisao_aprovacao</title>
<path fill="none" stroke="#4a4a4a" d="M314.47,-965.4C314.47,-965.4 314.47,-917.63 314.47,-917.63"/>
<polygon fill="#4a4a4a" stroke="#4a4a4a" points="317.27,-917.63 314.47,-909.63 311.67,-917.63 317.27,-917.63"/>
</g>
<!-- submeter_aprovacao -->
<g id="node24" class="node">
<title>submeter_aprovacao</title>
<path fill="#ffffff" stroke="#2b2b2b" d="M322.93,-734.18C322.93,-734.18 118,-734.18 118,-734.18 112,-734.18 106,-728.18 106,-722.18 106,-722.18 106,-661.4 106,-661.4 106,-655.4 112,-649.4 118,-649.4 118,-649.4 322.93,-649.4 322.93,-649.4 328.93,-649.4 334.93,-655.4 334.93,-661.4 334.93,-661.4 334.93,-722.18 334.93,-722.18 334.93,-728.18 328.93,-734.18 322.93,-734.18"/>
<text xml:space="preserve" text-anchor="middle" x="220.47" y="-715.09" font-family="Arial" font-size="11.00">6) Submeter para Aprovação</text>
<text xml:space="preserve" text-anchor="middle" x="220.47" y="-701.59" font-family="Arial" font-size="11.00">Ações:</text>
<text xml:space="preserve" text-anchor="middle" x="220.47" y="-688.09" font-family="Arial" font-size="11.00">• Enviar proposta para Supervisor/Gestor</text>
<text xml:space="preserve" text-anchor="middle" x="220.47" y="-674.59" font-family="Arial" font-size="11.00">• Registrar justificativas e margens</text>
<text xml:space="preserve" text-anchor="middle" x="220.47" y="-661.09" font-family="Arial" font-size="11.00">• Controlar SLA de aprovação</text>
</g>
<!-- decisao_aprovacao&#45;&gt;submeter_aprovacao -->
<g id="edge16" class="edge">
<title>decisao_aprovacao&#45;&gt;submeter_aprovacao</title>
<path fill="none" stroke="#4a4a4a" d="M261.61,-816.03C261.61,-816.03 261.61,-743.94 261.61,-743.94"/>
<polygon fill="#4a4a4a" stroke="#4a4a4a" points="264.41,-743.94 261.61,-735.94 258.81,-743.94 264.41,-743.94"/>
<text xml:space="preserve" text-anchor="middle" x="252.98" y="-782.48" font-family="Arial" font-size="10.00">Sim</text>
</g>
<!-- enviar_cliente -->
<g id="node27" class="node">
<title>enviar_cliente</title>
<path fill="#d1e7dd" stroke="#1e7e34" stroke-width="1.8" d="M512.81,-444.84C512.81,-444.84 250.12,-444.84 250.12,-444.84 244.12,-444.84 238.13,-438.84 238.13,-432.84 238.13,-432.84 238.13,-359.06 238.13,-359.06 238.13,-353.06 244.13,-347.06 250.13,-347.06 250.13,-347.06 512.81,-347.06 512.81,-347.06 518.81,-347.06 524.81,-353.06 524.81,-359.06 524.81,-359.06 524.81,-432.84 524.81,-432.84 524.81,-438.84 518.81,-444.84 512.81,-444.84"/>
<text xml:space="preserve" text-anchor="middle" x="381.47" y="-425.75" font-family="Arial" font-size="11.00">7) Enviar Proposta ao Cliente</text>
<text xml:space="preserve" text-anchor="middle" x="381.47" y="-412.25" font-family="Arial" font-size="11.00">Saída de Dados:</text>
<text xml:space="preserve" text-anchor="middle" x="381.47" y="-398.75" font-family="Arial" font-size="11.00">• Proposta encaminhada para aprovação do cliente</text>
<text xml:space="preserve" text-anchor="middle" x="381.47" y="-372.25" font-family="Arial" font-size="11.00">Canais: e&#45;mail / WhatsApp / portal (quando aplicável)</text>
<text xml:space="preserve" text-anchor="middle" x="381.47" y="-358.75" font-family="Arial" font-size="11.00">(Assinatura digital opcional)</text>
</g>
<!-- decisao_aprovacao&#45;&gt;enviar_cliente -->
<g id="edge17" class="edge">
<title>decisao_aprovacao&#45;&gt;enviar_cliente</title>
<path fill="none" stroke="#4a4a4a" d="M392.15,-827.45C392.15,-827.45 392.15,-455.02 392.15,-455.02"/>
<polygon fill="#4a4a4a" stroke="#4a4a4a" points="394.95,-455.02 392.15,-447.02 389.35,-455.02 394.95,-455.02"/>
<text xml:space="preserve" text-anchor="middle" x="383.15" y="-643.73" font-family="Arial" font-size="10.00">Não</text>
</g>
<!-- aprovada_internamente -->
<g id="node25" class="node">
<title>aprovada_internamente</title>
<polygon fill="#fff1b8" stroke="#2b2b2b" points="220.47,-591.4 97.29,-547.12 220.46,-502.84 343.65,-547.12 220.47,-591.4"/>
<text xml:space="preserve" text-anchor="middle" x="220.47" y="-550.17" font-family="Arial" font-size="11.00">Proposta aprovada</text>
<text xml:space="preserve" text-anchor="middle" x="220.47" y="-536.67" font-family="Arial" font-size="11.00">internamente?</text>
</g>
<!-- submeter_aprovacao&#45;&gt;aprovada_internamente -->
<g id="edge18" class="edge">
<title>submeter_aprovacao&#45;&gt;aprovada_internamente</title>
<path fill="none" stroke="#4a4a4a" d="M220.47,-649.17C220.47,-649.17 220.47,-601.21 220.47,-601.21"/>
<polygon fill="#4a4a4a" stroke="#4a4a4a" points="223.27,-601.21 220.47,-593.21 217.67,-601.21 223.27,-601.21"/>
</g>
<!-- ajustar_proposta -->
<g id="node26" class="node">
<title>ajustar_proposta</title>
<path fill="#fffdf2" stroke="#2b2b2b" d="M156.93,-438.34C156.93,-438.34 12,-438.34 12,-438.34 6,-438.34 0,-432.34 0,-426.34 0,-426.34 0,-365.56 0,-365.56 0,-359.56 6,-353.56 12,-353.56 12,-353.56 156.93,-353.56 156.93,-353.56 162.93,-353.56 168.93,-359.56 168.93,-365.56 168.93,-365.56 168.93,-426.34 168.93,-426.34 168.93,-432.34 162.93,-438.34 156.93,-438.34"/>
<text xml:space="preserve" text-anchor="middle" x="84.47" y="-419.25" font-family="Arial" font-size="11.00">Ajustar Proposta</text>
<text xml:space="preserve" text-anchor="middle" x="84.47" y="-405.75" font-family="Arial" font-size="11.00">Ações:</text>
<text xml:space="preserve" text-anchor="middle" x="84.47" y="-392.25" font-family="Arial" font-size="11.00">• Revisar condições/margem</text>
<text xml:space="preserve" text-anchor="middle" x="84.47" y="-378.75" font-family="Arial" font-size="11.00">• Corrigir dados</text>
<text xml:space="preserve" text-anchor="middle" x="84.47" y="-365.25" font-family="Arial" font-size="11.00">• Reenviar para aprovação</text>
</g>
<!-- aprovada_internamente&#45;&gt;ajustar_proposta -->
<g id="edge20" class="edge">
<title>aprovada_internamente&#45;&gt;ajustar_proposta</title>
<path fill="none" stroke="#4a4a4a" d="M133.11,-533.97C133.11,-533.97 133.11,-448.06 133.11,-448.06"/>
<polygon fill="#4a4a4a" stroke="#4a4a4a" points="135.91,-448.06 133.11,-440.06 130.31,-448.06 135.91,-448.06"/>
<text xml:space="preserve" text-anchor="middle" x="124.11" y="-493.52" font-family="Arial" font-size="10.00">Não</text>
</g>
<!-- aprovada_internamente&#45;&gt;enviar_cliente -->
<g id="edge19" class="edge">
<title>aprovada_internamente&#45;&gt;enviar_cliente</title>
<path fill="none" stroke="#4a4a4a" d="M290.89,-527.67C290.89,-527.67 290.89,-455.04 290.89,-455.04"/>
<polygon fill="#4a4a4a" stroke="#4a4a4a" points="293.69,-455.03 290.89,-447.04 288.09,-455.04 293.69,-455.03"/>
<text xml:space="preserve" text-anchor="middle" x="282.26" y="-493.85" font-family="Arial" font-size="10.00">Sim</text>
</g>
<!-- ajustar_proposta&#45;&gt;submeter_aprovacao -->
<g id="edge21" class="edge">
<title>ajustar_proposta&#45;&gt;submeter_aprovacao</title>
<path fill="none" stroke="#4a4a4a" d="M86.77,-438.68C86.77,-520.67 86.77,-692 86.77,-692 86.77,-692 96.13,-692 96.13,-692"/>
<polygon fill="#4a4a4a" stroke="#4a4a4a" points="96.13,-694.8 104.13,-692 96.13,-689.2 96.13,-694.8"/>
<text xml:space="preserve" text-anchor="middle" x="67.27" y="-572.52" font-family="Arial" font-size="10.00">Reenviar</text>
</g>
<!-- registrar_followup -->
<g id="node28" class="node">
<title>registrar_followup</title>
<path fill="#ffffff" stroke="#2b2b2b" d="M486.56,-228.56C486.56,-228.56 276.38,-228.56 276.38,-228.56 270.38,-228.56 264.38,-222.56 264.38,-216.56 264.38,-216.56 264.38,-155.78 264.38,-155.78 264.38,-149.78 270.38,-143.78 276.38,-143.78 276.38,-143.78 486.56,-143.78 486.56,-143.78 492.56,-143.78 498.56,-149.78 498.56,-155.78 498.56,-155.78 498.56,-216.56 498.56,-216.56 498.56,-222.56 492.56,-228.56 486.56,-228.56"/>
<text xml:space="preserve" text-anchor="middle" x="381.47" y="-209.47" font-family="Arial" font-size="11.00">8) Registrar Follow&#45;up e Próximos Passos</text>
<text xml:space="preserve" text-anchor="middle" x="381.47" y="-195.97" font-family="Arial" font-size="11.00">Ações:</text>
<text xml:space="preserve" text-anchor="middle" x="381.47" y="-182.47" font-family="Arial" font-size="11.00">• Criar tarefa/agenda</text>
<text xml:space="preserve" text-anchor="middle" x="381.47" y="-168.97" font-family="Arial" font-size="11.00">• Registrar feedback do cliente</text>
<text xml:space="preserve" text-anchor="middle" x="381.47" y="-155.47" font-family="Arial" font-size="11.00">• Preparar transição para próxima etapa</text>
</g>
<!-- enviar_cliente&#45;&gt;registrar_followup -->
<g id="edge22" class="edge">
<title>enviar_cliente&#45;&gt;registrar_followup</title>
<path fill="none" stroke="#4a4a4a" d="M381.47,-346.24C381.47,-346.24 381.47,-238.31 381.47,-238.31"/>
<polygon fill="#4a4a4a" stroke="#4a4a4a" points="384.27,-238.31 381.47,-230.31 378.67,-238.31 384.27,-238.31"/>
</g>
<!-- registrar_followup&#45;&gt;end -->
<g id="edge23" class="edge">
<title>registrar_followup&#45;&gt;end</title>
<path fill="none" stroke="#4a4a4a" d="M381.47,-143.72C381.47,-143.72 381.47,-35.02 381.47,-35.02"/>
<polygon fill="#4a4a4a" stroke="#4a4a4a" points="384.27,-35.02 381.47,-27.02 378.67,-35.02 384.27,-35.02"/>
</g>
</g>
</svg>
