<?xml version="1.0" encoding="UTF-8" standalone="no"?>
<!DOCTYPE svg PUBLIC "-//W3C//DTD SVG 1.1//EN"
 "http://www.w3.org/Graphics/SVG/1.1/DTD/svg11.dtd">
<!-- Generated by graphviz version 14.1.0 (20251206.1807)
 -->
<!-- Title: RFPMoura_DCEX_Extracompany_PROJETO Pages: 1 -->
<svg width="787pt" height="783pt"
 viewBox="0.00 0.00 787.00 783.00" xmlns="http://www.w3.org/2000/svg" xmlns:xlink="http://www.w3.org/1999/xlink">
<g id="graph0" class="graph" transform="scale(1 1) rotate(0) translate(36 746.96)">
<title>RFPMoura_DCEX_Extracompany_PROJETO</title>
<polygon fill="white" stroke="none" points="-36,36 -36,-746.96 751,-746.96 751,36 -36,36"/>
<text xml:space="preserve" text-anchor="middle" x="357.5" y="-684.16" font-family="Arial Bold" font-size="24.00">RFPMoura | DCEX — Processo de PROJETO (Extracompany)</text>
<!-- PROJETO_VOLTAR -->
<g id="node1" class="node">
<title>PROJETO_VOLTAR</title>
<g id="a_node1"><a xlink:href="RFPMoura_DCEX_Extracompany_MindMap.svg" xlink:title="Voltar ao mindmap de Extracompany" target="_self">
<path fill="#ffffff" stroke="#1f5fbf" stroke-width="3" d="M484.62,-675.96C484.62,-675.96 230.38,-675.96 230.38,-675.96 224.38,-675.96 218.38,-669.96 218.38,-663.96 218.38,-663.96 218.38,-651.96 218.38,-651.96 218.38,-645.96 224.38,-639.96 230.38,-639.96 230.38,-639.96 484.62,-639.96 484.62,-639.96 490.62,-639.96 496.62,-645.96 496.62,-651.96 496.62,-651.96 496.62,-663.96 496.62,-663.96 496.62,-669.96 490.62,-675.96 484.62,-675.96"/>
<text xml:space="preserve" text-anchor="middle" x="357.5" y="-653.69" font-family="Arial" font-size="12.00" fill="#1f5fbf">⟵ Voltar para Macroprocesso Extracompany</text>
</a>
</g>
</g>
<!-- PROJETO_ETAPA1 -->
<g id="node2" class="node">
<title>PROJETO_ETAPA1</title>
<path fill="#e7f1ff" stroke="#0b5ed7" stroke-width="2" d="M440.38,-581.96C440.38,-581.96 274.62,-581.96 274.62,-581.96 268.62,-581.96 262.62,-575.96 262.62,-569.96 262.62,-569.96 262.62,-545.3 262.62,-545.3 262.62,-539.3 268.62,-533.3 274.62,-533.3 274.62,-533.3 440.38,-533.3 440.38,-533.3 446.38,-533.3 452.38,-539.3 452.38,-545.3 452.38,-545.3 452.38,-569.96 452.38,-569.96 452.38,-575.96 446.38,-581.96 440.38,-581.96"/>
<text xml:space="preserve" text-anchor="middle" x="357.5" y="-560.48" font-family="Arial" font-size="12.00" fill="#0b5ed7">1. Recebimento da demanda</text>
<text xml:space="preserve" text-anchor="middle" x="357.5" y="-546.23" font-family="Arial" font-size="12.00" fill="#0b5ed7">(Entrada: Chamado SDM)</text>
</g>
<!-- PROJETO_VOLTAR&#45;&gt;PROJETO_ETAPA1 -->
<g id="edge1" class="edge">
<title>PROJETO_VOLTAR&#45;&gt;PROJETO_ETAPA1</title>
<path fill="none" stroke="#6c757d" stroke-width="1.8" d="M357.5,-638.62C357.5,-638.62 357.5,-594.35 357.5,-594.35"/>
<polygon fill="#6c757d" stroke="#6c757d" stroke-width="1.8" points="360.65,-594.35 357.5,-585.35 354.35,-594.35 360.65,-594.35"/>
</g>
<!-- PROJETO_ETAPA2 -->
<g id="node3" class="node">
<title>PROJETO_ETAPA2</title>
<path fill="#ffffff" stroke="#2b2b2b" d="M476.75,-475.3C476.75,-475.3 238.25,-475.3 238.25,-475.3 232.25,-475.3 226.25,-469.3 226.25,-463.3 226.25,-463.3 226.25,-438.64 226.25,-438.64 226.25,-432.64 232.25,-426.64 238.25,-426.64 238.25,-426.64 476.75,-426.64 476.75,-426.64 482.75,-426.64 488.75,-432.64 488.75,-438.64 488.75,-438.64 488.75,-463.3 488.75,-463.3 488.75,-469.3 482.75,-475.3 476.75,-475.3"/>
<text xml:space="preserve" text-anchor="middle" x="357.5" y="-453.82" font-family="Arial" font-size="12.00">2. Análise da necessidade de novo projeto</text>
<text xml:space="preserve" text-anchor="middle" x="357.5" y="-439.57" font-family="Arial" font-size="12.00">ou novo SKU</text>
</g>
<!-- PROJETO_ETAPA1&#45;&gt;PROJETO_ETAPA2 -->
<g id="edge2" class="edge">
<title>PROJETO_ETAPA1&#45;&gt;PROJETO_ETAPA2</title>
<path fill="none" stroke="#6c757d" stroke-width="1.8" d="M357.5,-532.35C357.5,-532.35 357.5,-487.42 357.5,-487.42"/>
<polygon fill="#6c757d" stroke="#6c757d" stroke-width="1.8" points="360.65,-487.42 357.5,-478.42 354.35,-487.42 360.65,-487.42"/>
</g>
<!-- PROJETO_ETAPA3 -->
<g id="node4" class="node">
<title>PROJETO_ETAPA3</title>
<path fill="#ffffff" stroke="#2b2b2b" d="M461.75,-368.64C461.75,-368.64 253.25,-368.64 253.25,-368.64 247.25,-368.64 241.25,-362.64 241.25,-356.64 241.25,-356.64 241.25,-331.98 241.25,-331.98 241.25,-325.98 247.25,-319.98 253.25,-319.98 253.25,-319.98 461.75,-319.98 461.75,-319.98 467.75,-319.98 473.75,-325.98 473.75,-331.98 473.75,-331.98 473.75,-356.64 473.75,-356.64 473.75,-362.64 467.75,-368.64 461.75,-368.64"/>
<text xml:space="preserve" text-anchor="middle" x="357.5" y="-347.16" font-family="Arial" font-size="12.00">3. Elaboração do projeto técnico</text>
<text xml:space="preserve" text-anchor="middle" x="357.5" y="-332.91" font-family="Arial" font-size="12.00">(Modelos, especificações, requisitos)</text>
</g>
<!-- PROJETO_ETAPA2&#45;&gt;PROJETO_ETAPA3 -->
<g id="edge3" class="edge">
<title>PROJETO_ETAPA2&#45;&gt;PROJETO_ETAPA3</title>
<path fill="none" stroke="#6c757d" stroke-width="1.8" d="M357.5,-426.23C357.5,-426.23 357.5,-380.64 357.5,-380.64"/>
<polygon fill="#6c757d" stroke="#6c757d" stroke-width="1.8" points="360.65,-380.64 357.5,-371.64 354.35,-380.64 360.65,-380.64"/>
</g>
<!-- PROJETO_ETAPA4 -->
<g id="node5" class="node">
<title>PROJETO_ETAPA4</title>
<path fill="#ffffff" stroke="#2b2b2b" d="M472.25,-261.98C472.25,-261.98 242.75,-261.98 242.75,-261.98 236.75,-261.98 230.75,-255.98 230.75,-249.98 230.75,-249.98 230.75,-225.32 230.75,-225.32 230.75,-219.32 236.75,-213.32 242.75,-213.32 242.75,-213.32 472.25,-213.32 472.25,-213.32 478.25,-213.32 484.25,-219.32 484.25,-225.32 484.25,-225.32 484.25,-249.98 484.25,-249.98 484.25,-255.98 478.25,-261.98 472.25,-261.98"/>
<text xml:space="preserve" text-anchor="middle" x="357.5" y="-240.5" font-family="Arial" font-size="12.00">4. Elaboração da Ficha Técnica</text>
<text xml:space="preserve" text-anchor="middle" x="357.5" y="-226.25" font-family="Arial" font-size="12.00">(Componentes, estrutura, características)</text>
</g>
<!-- PROJETO_ETAPA3&#45;&gt;PROJETO_ETAPA4 -->
<g id="edge4" class="edge">
<title>PROJETO_ETAPA3&#45;&gt;PROJETO_ETAPA4</title>
<path fill="none" stroke="#6c757d" stroke-width="1.8" d="M357.5,-319.57C357.5,-319.57 357.5,-273.98 357.5,-273.98"/>
<polygon fill="#6c757d" stroke="#6c757d" stroke-width="1.8" points="360.65,-273.98 357.5,-264.98 354.35,-273.98 360.65,-273.98"/>
</g>
<!-- PROJETO_ETAPA5 -->
<g id="node6" class="node">
<title>PROJETO_ETAPA5</title>
<path fill="#ffffff" stroke="#2b2b2b" d="M466.25,-155.32C466.25,-155.32 248.75,-155.32 248.75,-155.32 242.75,-155.32 236.75,-149.32 236.75,-143.32 236.75,-143.32 236.75,-118.66 236.75,-118.66 236.75,-112.66 242.75,-106.66 248.75,-106.66 248.75,-106.66 466.25,-106.66 466.25,-106.66 472.25,-106.66 478.25,-112.66 478.25,-118.66 478.25,-118.66 478.25,-143.32 478.25,-143.32 478.25,-149.32 472.25,-155.32 466.25,-155.32"/>
<text xml:space="preserve" text-anchor="middle" x="357.5" y="-133.84" font-family="Arial" font-size="12.00">5. Registro e documentação do projeto</text>
<text xml:space="preserve" text-anchor="middle" x="357.5" y="-119.59" font-family="Arial" font-size="12.00">(SDM, Excel, SAP)</text>
</g>
<!-- PROJETO_ETAPA4&#45;&gt;PROJETO_ETAPA5 -->
<g id="edge5" class="edge">
<title>PROJETO_ETAPA4&#45;&gt;PROJETO_ETAPA5</title>
<path fill="none" stroke="#6c757d" stroke-width="1.8" d="M357.5,-212.91C357.5,-212.91 357.5,-167.32 357.5,-167.32"/>
<polygon fill="#6c757d" stroke="#6c757d" stroke-width="1.8" points="360.65,-167.32 357.5,-158.32 354.35,-167.32 360.65,-167.32"/>
</g>
<!-- PROJETO_ETAPA6 -->
<g id="node7" class="node">
<title>PROJETO_ETAPA6</title>
<path fill="#eaf7ef" stroke="#146c43" stroke-width="2" d="M459.12,-48.66C459.12,-48.66 255.88,-48.66 255.88,-48.66 249.88,-48.66 243.88,-42.66 243.88,-36.66 243.88,-36.66 243.88,-12 243.88,-12 243.88,-6 249.88,0 255.88,0 255.88,0 459.12,0 459.12,0 465.12,0 471.12,-6 471.12,-12 471.12,-12 471.12,-36.66 471.12,-36.66 471.12,-42.66 465.12,-48.66 459.12,-48.66"/>
<text xml:space="preserve" text-anchor="middle" x="357.5" y="-27.18" font-family="Arial" font-size="12.00" fill="#146c43">6. Entrega do Projeto/Ficha Técnica</text>
<text xml:space="preserve" text-anchor="middle" x="357.5" y="-12.93" font-family="Arial" font-size="12.00" fill="#146c43">Saída: Base para Cadastro do SKU</text>
</g>
<!-- PROJETO_ETAPA5&#45;&gt;PROJETO_ETAPA6 -->
<g id="edge6" class="edge">
<title>PROJETO_ETAPA5&#45;&gt;PROJETO_ETAPA6</title>
<path fill="none" stroke="#6c757d" stroke-width="1.8" d="M357.5,-106.25C357.5,-106.25 357.5,-61.03 357.5,-61.03"/>
<polygon fill="#6c757d" stroke="#6c757d" stroke-width="1.8" points="360.65,-61.03 357.5,-52.03 354.35,-61.03 360.65,-61.03"/>
</g>
</g>
</svg>
