<?xml version="1.0" encoding="UTF-8" standalone="no"?>
<!DOCTYPE svg PUBLIC "-//W3C//DTD SVG 1.1//EN"
 "http://www.w3.org/Graphics/SVG/1.1/DTD/svg11.dtd">
<!-- Generated by graphviz version 14.1.0 (20251206.1807)
 -->
<!-- Title: RFPMoura_DCBT_Litio_POS_VENDA_GARANTIA Pages: 1 -->
<svg width="865pt" height="2209pt"
 viewBox="14.00 14.00 850.00 2194.00" xmlns="http://www.w3.org/2000/svg" xmlns:xlink="http://www.w3.org/1999/xlink">
<g id="graph0" class="graph" transform="scale(1 1) rotate(0) translate(28.8 2179.94)">
<title>RFPMoura_DCBT_Litio_POS_VENDA_GARANTIA</title>
<polygon fill="white" stroke="none" points="-14.4,14.4 -14.4,-2165.54 821.33,-2165.54 821.33,14.4 -14.4,14.4"/>
<text xml:space="preserve" text-anchor="middle" x="403.47" y="-2130.04" font-family="Arial" font-size="18.00">AS&#45;IS | Lítio (Reposição e OEM)</text>
<text xml:space="preserve" text-anchor="middle" x="403.47" y="-2109.04" font-family="Arial" font-size="18.00">Pós&#45;Venda (Garantia)</text>
<!-- start -->
<g id="node1" class="node">
<title>start</title>
<ellipse fill="#2ecc71" stroke="#2ecc71" cx="257.97" cy="-2083.14" rx="7.2" ry="7.2"/>
</g>
<!-- receber_solicitacao -->
<g id="node9" class="node">
<title>receber_solicitacao</title>
<path fill="#e7f1ff" stroke="#146c43" stroke-width="1.6" d="M435.06,-1977.14C435.06,-1977.14 80.88,-1977.14 80.88,-1977.14 74.88,-1977.14 68.88,-1971.14 68.88,-1965.14 68.88,-1965.14 68.88,-1931.36 68.88,-1931.36 68.88,-1925.36 74.88,-1919.36 80.88,-1919.36 80.88,-1919.36 435.06,-1919.36 435.06,-1919.36 441.06,-1919.36 447.06,-1925.36 447.06,-1931.36 447.06,-1931.36 447.06,-1965.14 447.06,-1965.14 447.06,-1971.14 441.06,-1977.14 435.06,-1977.14"/>
<text xml:space="preserve" text-anchor="middle" x="257.97" y="-1958.05" font-family="Arial" font-size="11.00">1) Receber Solicitação de Garantia</text>
<text xml:space="preserve" text-anchor="middle" x="257.97" y="-1944.55" font-family="Arial" font-size="11.00">Origem: Cliente / Unidade RSM</text>
<text xml:space="preserve" text-anchor="middle" x="257.97" y="-1931.05" font-family="Arial" font-size="11.00">Entrada: Solicitação encaminhada para Engenharia referente à Garantia</text>
</g>
<!-- start&#45;&gt;receber_solicitacao -->
<g id="edge1" class="edge">
<title>start&#45;&gt;receber_solicitacao</title>
<path fill="none" stroke="#4a4a4a" d="M257.97,-2075.5C257.97,-2075.5 257.97,-1987.31 257.97,-1987.31"/>
<polygon fill="#4a4a4a" stroke="#4a4a4a" points="260.77,-1987.31 257.97,-1979.31 255.17,-1987.31 260.77,-1987.31"/>
</g>
<!-- end -->
<g id="node2" class="node">
<title>end</title>
<ellipse fill="#e74c3c" stroke="#e74c3c" cx="257.97" cy="-102.89" rx="8.64" ry="8.64"/>
<ellipse fill="none" stroke="#e74c3c" cx="257.97" cy="-102.89" rx="12.64" ry="12.64"/>
</g>
<!-- voltarLitioMindMap -->
<g id="node3" class="node">
<title>voltarLitioMindMap</title>
<g id="a_node3"><a xlink:href="RFPMoura_DCBT_Litio_MindMap.svg" xlink:title="Voltar para o Mindmap de Lítio (Reposição e OEM)" target="_self">
<path fill="#eaf7ef" stroke="#146c43" stroke-width="1.6" d="M490.18,-2101.14C490.18,-2101.14 319.75,-2101.14 319.75,-2101.14 313.75,-2101.14 307.75,-2095.14 307.75,-2089.14 307.75,-2089.14 307.75,-2077.14 307.75,-2077.14 307.75,-2071.14 313.75,-2065.14 319.75,-2065.14 319.75,-2065.14 490.18,-2065.14 490.18,-2065.14 496.18,-2065.14 502.18,-2071.14 502.18,-2077.14 502.18,-2077.14 502.18,-2089.14 502.18,-2089.14 502.18,-2095.14 496.18,-2101.14 490.18,-2101.14"/>
<text xml:space="preserve" text-anchor="middle" x="404.97" y="-2079.44" font-family="Arial" font-size="11.00">⬅ Voltar para LÍTIO — Mindmap</text>
</a>
</g>
</g>
<!-- stakeholders -->
<g id="node4" class="node">
<title>stakeholders</title>
<polygon fill="#f8f9fa" stroke="#2b2b2b" points="726.18,-2004.14 489.75,-2004.14 489.75,-1892.36 732.18,-1892.36 732.18,-1998.14 726.18,-2004.14"/>
<polyline fill="none" stroke="#2b2b2b" points="726.18,-2004.14 726.18,-1998.14"/>
<polyline fill="none" stroke="#2b2b2b" points="732.18,-1998.14 726.18,-1998.14"/>
<text xml:space="preserve" text-anchor="middle" x="610.97" y="-1985.05" font-family="Arial" font-size="11.00">Stakeholders / Áreas:</text>
<text xml:space="preserve" text-anchor="middle" x="610.97" y="-1971.55" font-family="Arial" font-size="11.00">• DCBT</text>
<text xml:space="preserve" text-anchor="middle" x="610.97" y="-1958.05" font-family="Arial" font-size="11.00">• Engenharia de Pós&#45;Venda</text>
<text xml:space="preserve" text-anchor="middle" x="610.97" y="-1944.55" font-family="Arial" font-size="11.00">• Atendimento Vendas e Serviços ao Cliente</text>
<text xml:space="preserve" text-anchor="middle" x="610.97" y="-1931.05" font-family="Arial" font-size="11.00">• Unidades RSM</text>
<text xml:space="preserve" text-anchor="middle" x="610.97" y="-1917.55" font-family="Arial" font-size="11.00">• Compras</text>
<text xml:space="preserve" text-anchor="middle" x="610.97" y="-1904.05" font-family="Arial" font-size="11.00">• Financeiro</text>
</g>
<!-- entradas -->
<g id="node5" class="node">
<title>entradas</title>
<polygon fill="#f8f9fa" stroke="#2b2b2b" points="748.31,-1811.11 413.62,-1811.11 413.62,-1766.83 754.31,-1766.83 754.31,-1805.11 748.31,-1811.11"/>
<polyline fill="none" stroke="#2b2b2b" points="748.31,-1811.11 748.31,-1805.11"/>
<polyline fill="none" stroke="#2b2b2b" points="754.31,-1805.11 748.31,-1805.11"/>
<text xml:space="preserve" text-anchor="middle" x="583.97" y="-1792.02" font-family="Arial" font-size="11.00">Entrada de Dados / Informação:</text>
<text xml:space="preserve" text-anchor="middle" x="583.97" y="-1778.52" font-family="Arial" font-size="11.00">• Solicitação encaminhada para Engenharia referente à Garantia</text>
</g>
<!-- sistemas -->
<g id="node6" class="node">
<title>sistemas</title>
<polygon fill="#f8f9fa" stroke="#2b2b2b" points="645.81,-1536.02 530.12,-1536.02 530.12,-1384.24 651.81,-1384.24 651.81,-1530.02 645.81,-1536.02"/>
<polyline fill="none" stroke="#2b2b2b" points="645.81,-1536.02 645.81,-1530.02"/>
<polyline fill="none" stroke="#2b2b2b" points="651.81,-1530.02 645.81,-1530.02"/>
<text xml:space="preserve" text-anchor="middle" x="590.97" y="-1516.93" font-family="Arial" font-size="11.00">Sistemas / Canais:</text>
<text xml:space="preserve" text-anchor="middle" x="590.97" y="-1503.43" font-family="Arial" font-size="11.00">• SAP</text>
<text xml:space="preserve" text-anchor="middle" x="590.97" y="-1489.93" font-family="Arial" font-size="11.00">• Sistema Argo</text>
<text xml:space="preserve" text-anchor="middle" x="590.97" y="-1476.43" font-family="Arial" font-size="11.00">• E&#45;mail</text>
<text xml:space="preserve" text-anchor="middle" x="590.97" y="-1462.93" font-family="Arial" font-size="11.00">• WhatsApp</text>
<text xml:space="preserve" text-anchor="middle" x="590.97" y="-1449.43" font-family="Arial" font-size="11.00">• Excel</text>
<text xml:space="preserve" text-anchor="middle" x="590.97" y="-1435.93" font-family="Arial" font-size="11.00">• Forms</text>
<text xml:space="preserve" text-anchor="middle" x="590.97" y="-1409.43" font-family="Arial" font-size="11.00">Frequência:</text>
<text xml:space="preserve" text-anchor="middle" x="590.97" y="-1395.93" font-family="Arial" font-size="11.00">• Sob Demanda</text>
</g>
<!-- oportunidades -->
<g id="node7" class="node">
<title>oportunidades</title>
<polygon fill="#f8f9fa" stroke="#2b2b2b" points="800.93,-448.56 545,-448.56 545,-363.78 806.93,-363.78 806.93,-442.56 800.93,-448.56"/>
<polyline fill="none" stroke="#2b2b2b" points="800.93,-448.56 800.93,-442.56"/>
<polyline fill="none" stroke="#2b2b2b" points="806.93,-442.56 800.93,-442.56"/>
<text xml:space="preserve" text-anchor="middle" x="675.97" y="-429.47" font-family="Arial" font-size="11.00">Oportunidades:</text>
<text xml:space="preserve" text-anchor="middle" x="675.97" y="-415.97" font-family="Arial" font-size="11.00">• Centralização e padronização da comunicação</text>
<text xml:space="preserve" text-anchor="middle" x="675.97" y="-402.47" font-family="Arial" font-size="11.00">• Melhoria na experiência de uso</text>
<text xml:space="preserve" text-anchor="middle" x="675.97" y="-388.97" font-family="Arial" font-size="11.00">• Gestão de SLAs</text>
<text xml:space="preserve" text-anchor="middle" x="675.97" y="-375.47" font-family="Arial" font-size="11.00">• Redução de retrabalho entre as áreas</text>
</g>
<!-- salesforce_prod -->
<g id="node8" class="node">
<title>salesforce_prod</title>
<polygon fill="#f8f9fa" stroke="#2b2b2b" points="642.68,-205.78 313.25,-205.78 313.25,0 648.68,0 648.68,-199.78 642.68,-205.78"/>
<polyline fill="none" stroke="#2b2b2b" points="642.68,-205.78 642.68,-199.78"/>
<polyline fill="none" stroke="#2b2b2b" points="648.68,-199.78 642.68,-199.78"/>
<text xml:space="preserve" text-anchor="middle" x="480.97" y="-186.69" font-family="Arial" font-size="11.00">Produto Salesforce:</text>
<text xml:space="preserve" text-anchor="middle" x="480.97" y="-173.19" font-family="Arial" font-size="11.00">• Service Cloud</text>
<text xml:space="preserve" text-anchor="middle" x="480.97" y="-159.69" font-family="Arial" font-size="11.00">• Experience Cloud</text>
<text xml:space="preserve" text-anchor="middle" x="480.97" y="-146.19" font-family="Arial" font-size="11.00">• Integração</text>
<text xml:space="preserve" text-anchor="middle" x="480.97" y="-119.69" font-family="Arial" font-size="11.00">Soluções Aplicáveis:</text>
<text xml:space="preserve" text-anchor="middle" x="480.97" y="-106.19" font-family="Arial" font-size="11.00">• Portal para registrar solicitações e acompanhar progresso</text>
<text xml:space="preserve" text-anchor="middle" x="480.97" y="-92.69" font-family="Arial" font-size="11.00">• Acesso a dados pessoais, pedidos e documentos</text>
<text xml:space="preserve" text-anchor="middle" x="480.97" y="-79.19" font-family="Arial" font-size="11.00">• Conteúdo de autosserviço</text>
<text xml:space="preserve" text-anchor="middle" x="480.97" y="-65.69" font-family="Arial" font-size="11.00">• Atualização de informações pelo cliente</text>
<text xml:space="preserve" text-anchor="middle" x="480.97" y="-52.19" font-family="Arial" font-size="11.00">• Eficiência do autosserviço e redução de custo</text>
<text xml:space="preserve" text-anchor="middle" x="480.97" y="-38.69" font-family="Arial" font-size="11.00">• Consulta de status de pedidos vinculados ao caso</text>
<text xml:space="preserve" text-anchor="middle" x="480.97" y="-25.19" font-family="Arial" font-size="11.00">• Abertura, classificação, priorização e resolução de solicitações</text>
<text xml:space="preserve" text-anchor="middle" x="480.97" y="-11.69" font-family="Arial" font-size="11.00">• Controle de prazos de atendimento e SLAs</text>
</g>
<!-- verificar_elegibilidade -->
<g id="node10" class="node">
<title>verificar_elegibilidade</title>
<path fill="#ffffff" stroke="#2b2b2b" d="M358.18,-1831.36C358.18,-1831.36 157.75,-1831.36 157.75,-1831.36 151.75,-1831.36 145.75,-1825.36 145.75,-1819.36 145.75,-1819.36 145.75,-1758.58 145.75,-1758.58 145.75,-1752.58 151.75,-1746.58 157.75,-1746.58 157.75,-1746.58 358.18,-1746.58 358.18,-1746.58 364.18,-1746.58 370.18,-1752.58 370.18,-1758.58 370.18,-1758.58 370.18,-1819.36 370.18,-1819.36 370.18,-1825.36 364.18,-1831.36 358.18,-1831.36"/>
<text xml:space="preserve" text-anchor="middle" x="257.97" y="-1812.27" font-family="Arial" font-size="11.00">2) Verificar Elegibilidade para Garantia</text>
<text xml:space="preserve" text-anchor="middle" x="257.97" y="-1798.77" font-family="Arial" font-size="11.00">Ações:</text>
<text xml:space="preserve" text-anchor="middle" x="257.97" y="-1785.27" font-family="Arial" font-size="11.00">• Conferir dados do produto, NF e prazo</text>
<text xml:space="preserve" text-anchor="middle" x="257.97" y="-1771.77" font-family="Arial" font-size="11.00">• Verificar regras de garantia aplicáveis</text>
<text xml:space="preserve" text-anchor="middle" x="257.97" y="-1758.27" font-family="Arial" font-size="11.00">• Decidir se o item é elegível</text>
</g>
<!-- receber_solicitacao&#45;&gt;verificar_elegibilidade -->
<g id="edge2" class="edge">
<title>receber_solicitacao&#45;&gt;verificar_elegibilidade</title>
<path fill="none" stroke="#4a4a4a" d="M257.97,-1918.66C257.97,-1918.66 257.97,-1841.13 257.97,-1841.13"/>
<polygon fill="#4a4a4a" stroke="#4a4a4a" points="260.77,-1841.13 257.97,-1833.13 255.17,-1841.13 260.77,-1841.13"/>
</g>
<!-- decisao_elegivel -->
<g id="node11" class="node">
<title>decisao_elegivel</title>
<polygon fill="#fff1b8" stroke="#2b2b2b" points="257.97,-1685.58 165.54,-1641.3 257.96,-1597.02 350.4,-1641.3 257.97,-1685.58"/>
<text xml:space="preserve" text-anchor="middle" x="257.97" y="-1644.35" font-family="Arial" font-size="11.00">Item elegível</text>
<text xml:space="preserve" text-anchor="middle" x="257.97" y="-1630.85" font-family="Arial" font-size="11.00">à garantia?</text>
</g>
<!-- verificar_elegibilidade&#45;&gt;decisao_elegivel -->
<g id="edge3" class="edge">
<title>verificar_elegibilidade&#45;&gt;decisao_elegivel</title>
<path fill="none" stroke="#4a4a4a" d="M257.97,-1746.26C257.97,-1746.26 257.97,-1695.49 257.97,-1695.49"/>
<polygon fill="#4a4a4a" stroke="#4a4a4a" points="260.77,-1695.49 257.97,-1687.49 255.17,-1695.49 260.77,-1695.49"/>
</g>
<!-- tratar_nao_elegivel -->
<g id="node12" class="node">
<title>tratar_nao_elegivel</title>
<path fill="#fdecea" stroke="#b02a37" stroke-width="1.2" d="M225.93,-1302.99C225.93,-1302.99 12,-1302.99 12,-1302.99 6,-1302.99 0,-1296.99 0,-1290.99 0,-1290.99 0,-1230.21 0,-1230.21 0,-1224.21 6,-1218.21 12,-1218.21 12,-1218.21 225.93,-1218.21 225.93,-1218.21 231.93,-1218.21 237.93,-1224.21 237.93,-1230.21 237.93,-1230.21 237.93,-1290.99 237.93,-1290.99 237.93,-1296.99 231.93,-1302.99 225.93,-1302.99"/>
<text xml:space="preserve" text-anchor="middle" x="118.97" y="-1283.9" font-family="Arial" font-size="11.00">Tratar Caso Não Elegível</text>
<text xml:space="preserve" text-anchor="middle" x="118.97" y="-1270.4" font-family="Arial" font-size="11.00">Ações:</text>
<text xml:space="preserve" text-anchor="middle" x="118.97" y="-1256.9" font-family="Arial" font-size="11.00">• Comunicar cliente sobre não elegibilidade</text>
<text xml:space="preserve" text-anchor="middle" x="118.97" y="-1243.4" font-family="Arial" font-size="11.00">• Registrar motivo e evidências</text>
<text xml:space="preserve" text-anchor="middle" x="118.97" y="-1229.9" font-family="Arial" font-size="11.00">• Encerrar atendimento</text>
</g>
<!-- decisao_elegivel&#45;&gt;tratar_nao_elegivel -->
<g id="edge4" class="edge">
<title>decisao_elegivel&#45;&gt;tratar_nao_elegivel</title>
<path fill="none" stroke="#4a4a4a" d="M201.73,-1623.45C201.73,-1623.45 201.73,-1312.97 201.73,-1312.97"/>
<polygon fill="#4a4a4a" stroke="#4a4a4a" points="204.53,-1312.97 201.73,-1304.97 198.93,-1312.97 204.53,-1312.97"/>
<text xml:space="preserve" text-anchor="middle" x="192.73" y="-1470.71" font-family="Arial" font-size="10.00">Não</text>
</g>
<!-- analise_tecnica -->
<g id="node13" class="node">
<title>analise_tecnica</title>
<path fill="#ffffff" stroke="#2b2b2b" d="M475.06,-1502.52C475.06,-1502.52 270.88,-1502.52 270.88,-1502.52 264.88,-1502.52 258.88,-1496.52 258.88,-1490.52 258.88,-1490.52 258.88,-1429.74 258.88,-1429.74 258.88,-1423.74 264.88,-1417.74 270.88,-1417.74 270.88,-1417.74 475.06,-1417.74 475.06,-1417.74 481.06,-1417.74 487.06,-1423.74 487.06,-1429.74 487.06,-1429.74 487.06,-1490.52 487.06,-1490.52 487.06,-1496.52 481.06,-1502.52 475.06,-1502.52"/>
<text xml:space="preserve" text-anchor="middle" x="372.97" y="-1483.43" font-family="Arial" font-size="11.00">3) Realizar Análise Técnica</text>
<text xml:space="preserve" text-anchor="middle" x="372.97" y="-1469.93" font-family="Arial" font-size="11.00">Ações:</text>
<text xml:space="preserve" text-anchor="middle" x="372.97" y="-1456.43" font-family="Arial" font-size="11.00">• Engenharia de Pós&#45;Venda analisa falha</text>
<text xml:space="preserve" text-anchor="middle" x="372.97" y="-1442.93" font-family="Arial" font-size="11.00">• Registrar laudo técnico</text>
<text xml:space="preserve" text-anchor="middle" x="372.97" y="-1429.43" font-family="Arial" font-size="11.00">• Identificar causa raiz</text>
</g>
<!-- decisao_elegivel&#45;&gt;analise_tecnica -->
<g id="edge6" class="edge">
<title>decisao_elegivel&#45;&gt;analise_tecnica</title>
<path fill="none" stroke="#4a4a4a" d="M304.64,-1619.09C304.64,-1619.09 304.64,-1512.45 304.64,-1512.45"/>
<polygon fill="#4a4a4a" stroke="#4a4a4a" points="307.44,-1512.45 304.64,-1504.45 301.84,-1512.45 307.44,-1512.45"/>
<text xml:space="preserve" text-anchor="middle" x="296.01" y="-1568.27" font-family="Arial" font-size="10.00">Sim</text>
</g>
<!-- tratar_nao_elegivel&#45;&gt;end -->
<g id="edge5" class="edge">
<title>tratar_nao_elegivel&#45;&gt;end</title>
<path fill="none" stroke="#4a4a4a" d="M109.88,-1217.68C109.88,-1008.18 109.88,-103 109.88,-103 109.88,-103 235.57,-103 235.57,-103"/>
<polygon fill="#4a4a4a" stroke="#4a4a4a" points="235.57,-105.8 243.57,-103 235.57,-100.2 235.57,-105.8"/>
</g>
<!-- definir_acao_corretiva -->
<g id="node14" class="node">
<title>definir_acao_corretiva</title>
<path fill="#ffffff" stroke="#2b2b2b" d="M502.68,-1323.24C502.68,-1323.24 293.25,-1323.24 293.25,-1323.24 287.25,-1323.24 281.25,-1317.24 281.25,-1311.24 281.25,-1311.24 281.25,-1209.96 281.25,-1209.96 281.25,-1203.96 287.25,-1197.96 293.25,-1197.96 293.25,-1197.96 502.68,-1197.96 502.68,-1197.96 508.68,-1197.96 514.68,-1203.96 514.68,-1209.96 514.68,-1209.96 514.68,-1311.24 514.68,-1311.24 514.68,-1317.24 508.68,-1323.24 502.68,-1323.24"/>
<text xml:space="preserve" text-anchor="middle" x="397.97" y="-1304.15" font-family="Arial" font-size="11.00">4) Definir Ação Corretiva</text>
<text xml:space="preserve" text-anchor="middle" x="397.97" y="-1290.65" font-family="Arial" font-size="11.00">Possíveis ações:</text>
<text xml:space="preserve" text-anchor="middle" x="397.97" y="-1277.15" font-family="Arial" font-size="11.00">• Reposição</text>
<text xml:space="preserve" text-anchor="middle" x="397.97" y="-1263.65" font-family="Arial" font-size="11.00">• Devolução</text>
<text xml:space="preserve" text-anchor="middle" x="397.97" y="-1250.15" font-family="Arial" font-size="11.00">• Reparo</text>
<text xml:space="preserve" text-anchor="middle" x="397.97" y="-1236.65" font-family="Arial" font-size="11.00">Ações:</text>
<text xml:space="preserve" text-anchor="middle" x="397.97" y="-1223.15" font-family="Arial" font-size="11.00">• Definir qual ação será adotada</text>
<text xml:space="preserve" text-anchor="middle" x="397.97" y="-1209.65" font-family="Arial" font-size="11.00">• Planejar execução com áreas envolvidas</text>
</g>
<!-- analise_tecnica&#45;&gt;definir_acao_corretiva -->
<g id="edge7" class="edge">
<title>analise_tecnica&#45;&gt;definir_acao_corretiva</title>
<path fill="none" stroke="#4a4a4a" d="M384.15,-1417.33C384.15,-1417.33 384.15,-1332.93 384.15,-1332.93"/>
<polygon fill="#4a4a4a" stroke="#4a4a4a" points="386.95,-1332.93 384.15,-1324.93 381.35,-1332.93 386.95,-1332.93"/>
</g>
<!-- executar_servico -->
<g id="node15" class="node">
<title>executar_servico</title>
<path fill="#ffffff" stroke="#2b2b2b" d="M504.68,-1136.96C504.68,-1136.96 289.25,-1136.96 289.25,-1136.96 283.25,-1136.96 277.25,-1130.96 277.25,-1124.96 277.25,-1124.96 277.25,-1077.68 277.25,-1077.68 277.25,-1071.68 283.25,-1065.68 289.25,-1065.68 289.25,-1065.68 504.68,-1065.68 504.68,-1065.68 510.68,-1065.68 516.68,-1071.68 516.68,-1077.68 516.68,-1077.68 516.68,-1124.96 516.68,-1124.96 516.68,-1130.96 510.68,-1136.96 504.68,-1136.96"/>
<text xml:space="preserve" text-anchor="middle" x="396.97" y="-1117.87" font-family="Arial" font-size="11.00">5) Executar Serviço de Garantia</text>
<text xml:space="preserve" text-anchor="middle" x="396.97" y="-1104.37" font-family="Arial" font-size="11.00">Ações:</text>
<text xml:space="preserve" text-anchor="middle" x="396.97" y="-1090.87" font-family="Arial" font-size="11.00">• Realizar reposição, devolução ou reparo</text>
<text xml:space="preserve" text-anchor="middle" x="396.97" y="-1077.37" font-family="Arial" font-size="11.00">• Coordenar logística e serviços associados</text>
</g>
<!-- definir_acao_corretiva&#45;&gt;executar_servico -->
<g id="edge8" class="edge">
<title>definir_acao_corretiva&#45;&gt;executar_servico</title>
<path fill="none" stroke="#4a4a4a" d="M397.97,-1197.65C397.97,-1197.65 397.97,-1146.74 397.97,-1146.74"/>
<polygon fill="#4a4a4a" stroke="#4a4a4a" points="400.77,-1146.74 397.97,-1138.74 395.17,-1146.74 400.77,-1146.74"/>
</g>
<!-- emitir_notas_fiscais -->
<g id="node16" class="node">
<title>emitir_notas_fiscais</title>
<path fill="#ffffff" stroke="#2b2b2b" d="M476.81,-1004.68C476.81,-1004.68 283.12,-1004.68 283.12,-1004.68 277.12,-1004.68 271.12,-998.68 271.12,-992.68 271.12,-992.68 271.12,-945.4 271.12,-945.4 271.12,-939.4 277.12,-933.4 283.12,-933.4 283.12,-933.4 476.81,-933.4 476.81,-933.4 482.81,-933.4 488.81,-939.4 488.81,-945.4 488.81,-945.4 488.81,-992.68 488.81,-992.68 488.81,-998.68 482.81,-1004.68 476.81,-1004.68"/>
<text xml:space="preserve" text-anchor="middle" x="379.97" y="-985.59" font-family="Arial" font-size="11.00">6) Emitir Notas Fiscais</text>
<text xml:space="preserve" text-anchor="middle" x="379.97" y="-972.09" font-family="Arial" font-size="11.00">Ações:</text>
<text xml:space="preserve" text-anchor="middle" x="379.97" y="-958.59" font-family="Arial" font-size="11.00">• Emitir NF(s) pertinente(s) à operação</text>
<text xml:space="preserve" text-anchor="middle" x="379.97" y="-945.09" font-family="Arial" font-size="11.00">• Garantir aderência fiscal e contábil</text>
</g>
<!-- executar_servico&#45;&gt;emitir_notas_fiscais -->
<g id="edge9" class="edge">
<title>executar_servico&#45;&gt;emitir_notas_fiscais</title>
<path fill="none" stroke="#4a4a4a" d="M383.03,-1065.52C383.03,-1065.52 383.03,-1014.38 383.03,-1014.38"/>
<polygon fill="#4a4a4a" stroke="#4a4a4a" points="385.83,-1014.38 383.03,-1006.38 380.23,-1014.38 385.83,-1014.38"/>
</g>
<!-- organizar_logistica -->
<g id="node17" class="node">
<title>organizar_logistica</title>
<path fill="#ffffff" stroke="#2b2b2b" d="M504.68,-872.4C504.68,-872.4 253.25,-872.4 253.25,-872.4 247.25,-872.4 241.25,-866.4 241.25,-860.4 241.25,-860.4 241.25,-813.12 241.25,-813.12 241.25,-807.12 247.25,-801.12 253.25,-801.12 253.25,-801.12 504.68,-801.12 504.68,-801.12 510.68,-801.12 516.68,-807.12 516.68,-813.12 516.68,-813.12 516.68,-860.4 516.68,-860.4 516.68,-866.4 510.68,-872.4 504.68,-872.4"/>
<text xml:space="preserve" text-anchor="middle" x="378.97" y="-853.31" font-family="Arial" font-size="11.00">7) Organizar Logística e Entrega</text>
<text xml:space="preserve" text-anchor="middle" x="378.97" y="-839.81" font-family="Arial" font-size="11.00">Ações:</text>
<text xml:space="preserve" text-anchor="middle" x="378.97" y="-826.31" font-family="Arial" font-size="11.00">• Coordenar transporte com RSM / Transportadora</text>
<text xml:space="preserve" text-anchor="middle" x="378.97" y="-812.81" font-family="Arial" font-size="11.00">• Garantir retorno/entrega conforme ação corretiva</text>
</g>
<!-- emitir_notas_fiscais&#45;&gt;organizar_logistica -->
<g id="edge10" class="edge">
<title>emitir_notas_fiscais&#45;&gt;organizar_logistica</title>
<path fill="none" stroke="#4a4a4a" d="M379.97,-933.24C379.97,-933.24 379.97,-882.1 379.97,-882.1"/>
<polygon fill="#4a4a4a" stroke="#4a4a4a" points="382.77,-882.1 379.97,-874.1 377.17,-882.1 382.77,-882.1"/>
</g>
<!-- registrar_evidencias_comunicar -->
<g id="node18" class="node">
<title>registrar_evidencias_comunicar</title>
<path fill="#ffffff" stroke="#2b2b2b" d="M480.31,-740.12C480.31,-740.12 259.62,-740.12 259.62,-740.12 253.63,-740.12 247.63,-734.12 247.63,-728.12 247.63,-728.12 247.63,-667.34 247.63,-667.34 247.63,-661.34 253.63,-655.34 259.62,-655.34 259.62,-655.34 480.31,-655.34 480.31,-655.34 486.31,-655.34 492.31,-661.34 492.31,-667.34 492.31,-667.34 492.31,-728.12 492.31,-728.12 492.31,-734.12 486.31,-740.12 480.31,-740.12"/>
<text xml:space="preserve" text-anchor="middle" x="369.97" y="-721.03" font-family="Arial" font-size="11.00">8) Registrar Evidências e Comunicar Cliente</text>
<text xml:space="preserve" text-anchor="middle" x="369.97" y="-707.53" font-family="Arial" font-size="11.00">Ações:</text>
<text xml:space="preserve" text-anchor="middle" x="369.97" y="-694.03" font-family="Arial" font-size="11.00">• Registrar fotos, laudos e comprovantes</text>
<text xml:space="preserve" text-anchor="middle" x="369.97" y="-680.53" font-family="Arial" font-size="11.00">• Atualizar status do caso</text>
<text xml:space="preserve" text-anchor="middle" x="369.97" y="-667.03" font-family="Arial" font-size="11.00">• Comunicar conclusão ao cliente / RSM</text>
</g>
<!-- organizar_logistica&#45;&gt;registrar_evidencias_comunicar -->
<g id="edge11" class="edge">
<title>organizar_logistica&#45;&gt;registrar_evidencias_comunicar</title>
<path fill="none" stroke="#4a4a4a" d="M369.97,-800.96C369.97,-800.96 369.97,-750.1 369.97,-750.1"/>
<polygon fill="#4a4a4a" stroke="#4a4a4a" points="372.77,-750.1 369.97,-742.1 367.17,-750.1 372.77,-750.1"/>
</g>
<!-- atualizar_sistemas_tratar_material -->
<g id="node19" class="node">
<title>atualizar_sistemas_tratar_material</title>
<path fill="#ffffff" stroke="#2b2b2b" d="M495.06,-594.34C495.06,-594.34 242.88,-594.34 242.88,-594.34 236.88,-594.34 230.88,-588.34 230.88,-582.34 230.88,-582.34 230.88,-521.56 230.88,-521.56 230.88,-515.56 236.88,-509.56 242.88,-509.56 242.88,-509.56 495.06,-509.56 495.06,-509.56 501.06,-509.56 507.06,-515.56 507.06,-521.56 507.06,-521.56 507.06,-582.34 507.06,-582.34 507.06,-588.34 501.06,-594.34 495.06,-594.34"/>
<text xml:space="preserve" text-anchor="middle" x="368.97" y="-575.25" font-family="Arial" font-size="11.00">9) Atualizar Sistemas e Tratar Material</text>
<text xml:space="preserve" text-anchor="middle" x="368.97" y="-561.75" font-family="Arial" font-size="11.00">Ações:</text>
<text xml:space="preserve" text-anchor="middle" x="368.97" y="-548.25" font-family="Arial" font-size="11.00">• Atualizar SAP, Argo, planilhas e Forms</text>
<text xml:space="preserve" text-anchor="middle" x="368.97" y="-534.75" font-family="Arial" font-size="11.00">• Encaminhar material para descarte ou reciclagem</text>
<text xml:space="preserve" text-anchor="middle" x="368.97" y="-521.25" font-family="Arial" font-size="11.00">• Garantir rastreabilidade</text>
</g>
<!-- registrar_evidencias_comunicar&#45;&gt;atualizar_sistemas_tratar_material -->
<g id="edge12" class="edge">
<title>registrar_evidencias_comunicar&#45;&gt;atualizar_sistemas_tratar_material</title>
<path fill="none" stroke="#4a4a4a" d="M369.97,-655.17C369.97,-655.17 369.97,-604.33 369.97,-604.33"/>
<polygon fill="#4a4a4a" stroke="#4a4a4a" points="372.77,-604.33 369.97,-596.33 367.17,-604.33 372.77,-604.33"/>
</g>
<!-- encerrar_servico_pagamento -->
<g id="node20" class="node">
<title>encerrar_servico_pagamento</title>
<path fill="#d1e7dd" stroke="#1e7e34" stroke-width="1.8" d="M489.93,-448.56C489.93,-448.56 240,-448.56 240,-448.56 234,-448.56 228,-442.56 228,-436.56 228,-436.56 228,-375.78 228,-375.78 228,-369.78 234,-363.78 240,-363.78 240,-363.78 489.93,-363.78 489.93,-363.78 495.93,-363.78 501.93,-369.78 501.93,-375.78 501.93,-375.78 501.93,-436.56 501.93,-436.56 501.93,-442.56 495.93,-448.56 489.93,-448.56"/>
<text xml:space="preserve" text-anchor="middle" x="364.97" y="-429.47" font-family="Arial" font-size="11.00">10) Encerrar Serviço e Efetuar Pagamento à RSM</text>
<text xml:space="preserve" text-anchor="middle" x="364.97" y="-415.97" font-family="Arial" font-size="11.00">Saída:</text>
<text xml:space="preserve" text-anchor="middle" x="364.97" y="-402.47" font-family="Arial" font-size="11.00">• Execução do Serviço concluída</text>
<text xml:space="preserve" text-anchor="middle" x="364.97" y="-388.97" font-family="Arial" font-size="11.00">• Pagamento à RSM realizado</text>
<text xml:space="preserve" text-anchor="middle" x="364.97" y="-375.47" font-family="Arial" font-size="11.00">• Caso de garantia encerrado</text>
</g>
<!-- atualizar_sistemas_tratar_material&#45;&gt;encerrar_servico_pagamento -->
<g id="edge13" class="edge">
<title>atualizar_sistemas_tratar_material&#45;&gt;encerrar_servico_pagamento</title>
<path fill="none" stroke="#4a4a4a" d="M366.4,-509.39C366.4,-509.39 366.4,-458.8 366.4,-458.8"/>
<polygon fill="#4a4a4a" stroke="#4a4a4a" points="369.2,-458.8 366.4,-450.8 363.6,-458.8 369.2,-458.8"/>
</g>
<!-- irMacrofluxoLitio -->
<g id="node21" class="node">
<title>irMacrofluxoLitio</title>
<g id="a_node21"><a xlink:href="RFPMoura_DCBT_Litio_MACROFLUXO_REPOSICAO_OEM.svg" xlink:title="Abrir fluxo: Macrofluxo Reposição/OEM (Lítio)" target="_self">
<path fill="#f3e5f5" stroke="#6a1b9a" stroke-width="1.2" d="M498.18,-302.78C498.18,-302.78 231.75,-302.78 231.75,-302.78 225.75,-302.78 219.75,-296.78 219.75,-290.78 219.75,-290.78 219.75,-278.78 219.75,-278.78 219.75,-272.78 225.75,-266.78 231.75,-266.78 231.75,-266.78 498.18,-266.78 498.18,-266.78 504.18,-266.78 510.18,-272.78 510.18,-278.78 510.18,-278.78 510.18,-290.78 510.18,-290.78 510.18,-296.78 504.18,-302.78 498.18,-302.78"/>
<text xml:space="preserve" text-anchor="middle" x="364.97" y="-281.08" font-family="Arial" font-size="11.00">➡ Ir para MACROFLUXO REPOSIÇÃO/OEM (Lítio)</text>
</a>
</g>
</g>
<!-- encerrar_servico_pagamento&#45;&gt;irMacrofluxoLitio -->
<g id="edge14" class="edge">
<title>encerrar_servico_pagamento&#45;&gt;irMacrofluxoLitio</title>
<path fill="none" stroke="#4a4a4a" d="M364.97,-363.03C364.97,-363.03 364.97,-312.6 364.97,-312.6"/>
<polygon fill="#4a4a4a" stroke="#4a4a4a" points="367.77,-312.6 364.97,-304.6 362.17,-312.6 367.77,-312.6"/>
</g>
<!-- irMacrofluxoLitio&#45;&gt;end -->
<g id="edge15" class="edge">
<title>irMacrofluxoLitio&#45;&gt;end</title>
<path fill="none" stroke="#4a4a4a" d="M257.97,-266.34C257.97,-266.34 257.97,-125.33 257.97,-125.33"/>
<polygon fill="#4a4a4a" stroke="#4a4a4a" points="260.77,-125.33 257.97,-117.33 255.17,-125.33 260.77,-125.33"/>
</g>
</g>
</svg>
