<?xml version="1.0" encoding="UTF-8" standalone="no"?>
<!DOCTYPE svg PUBLIC "-//W3C//DTD SVG 1.1//EN"
 "http://www.w3.org/Graphics/SVG/1.1/DTD/svg11.dtd">
<!-- Generated by graphviz version 14.1.0 (20251206.1807)
 -->
<!-- Title: RFPMoura_DCBT_Reposicao_Chumbo_PROSPECCAO_QUALIFICACAO Pages: 1 -->
<svg width="1178pt" height="1064pt"
 viewBox="14.00 14.00 1164.00 1050.00" xmlns="http://www.w3.org/2000/svg" xmlns:xlink="http://www.w3.org/1999/xlink">
<g id="graph0" class="graph" transform="scale(1 1) rotate(0) translate(28.8 1035.26)">
<title>RFPMoura_DCBT_Reposicao_Chumbo_PROSPECCAO_QUALIFICACAO</title>
<polygon fill="white" stroke="none" points="-14.4,14.4 -14.4,-1020.86 1135.21,-1020.86 1135.21,14.4 -14.4,14.4"/>
<text xml:space="preserve" text-anchor="middle" x="560.4" y="-985.36" font-family="Arial" font-size="18.00">AS&#45;IS | DCBT — Reposição (Chumbo)</text>
<text xml:space="preserve" text-anchor="middle" x="560.4" y="-964.36" font-family="Arial" font-size="18.00">Prospectar e Qualificar Clientes</text>
<!-- start -->
<g id="node1" class="node">
<title>start</title>
<ellipse fill="#2ecc71" stroke="#2ecc71" cx="191.22" cy="-938.46" rx="7.2" ry="7.2"/>
</g>
<!-- captura_lead -->
<g id="node8" class="node">
<title>captura_lead</title>
<path fill="#e7f1ff" stroke="#0b5ed7" stroke-width="1.6" d="M270.43,-862.46C270.43,-862.46 112,-862.46 112,-862.46 106,-862.46 100,-856.46 100,-850.46 100,-850.46 100,-763.18 100,-763.18 100,-757.18 106,-751.18 112,-751.18 112,-751.18 270.43,-751.18 270.43,-751.18 276.43,-751.18 282.43,-757.18 282.43,-763.18 282.43,-763.18 282.43,-850.46 282.43,-850.46 282.43,-856.46 276.43,-862.46 270.43,-862.46"/>
<text xml:space="preserve" text-anchor="middle" x="191.22" y="-843.37" font-family="Arial" font-size="11.00">1) Capturar Lead (Entrada)</text>
<text xml:space="preserve" text-anchor="middle" x="191.22" y="-829.87" font-family="Arial" font-size="11.00">Canais: 0800 / WhatsApp / Site</text>
<text xml:space="preserve" text-anchor="middle" x="191.22" y="-803.37" font-family="Arial" font-size="11.00">Entrada de Dados:</text>
<text xml:space="preserve" text-anchor="middle" x="191.22" y="-789.87" font-family="Arial" font-size="11.00">• CNPJ</text>
<text xml:space="preserve" text-anchor="middle" x="191.22" y="-776.37" font-family="Arial" font-size="11.00">• Classificação do Lead</text>
<text xml:space="preserve" text-anchor="middle" x="191.22" y="-762.87" font-family="Arial" font-size="11.00">• Quantificação de Volume</text>
</g>
<!-- start&#45;&gt;captura_lead -->
<g id="edge1" class="edge">
<title>start&#45;&gt;captura_lead</title>
<path fill="none" stroke="#4a4a4a" d="M191.22,-931.01C191.22,-931.01 191.22,-872.53 191.22,-872.53"/>
<polygon fill="#4a4a4a" stroke="#4a4a4a" points="194.02,-872.53 191.22,-864.53 188.42,-872.53 194.02,-872.53"/>
</g>
<!-- end -->
<g id="node2" class="node">
<title>end</title>
<ellipse fill="#e74c3c" stroke="#e74c3c" cx="431.22" cy="-12.64" rx="8.64" ry="8.64"/>
<ellipse fill="none" stroke="#e74c3c" cx="431.22" cy="-12.64" rx="12.64" ry="12.64"/>
</g>
<!-- voltarReposicao -->
<g id="node3" class="node">
<title>voltarReposicao</title>
<g id="a_node3"><a xlink:href="RFPMoura_DCBT_Reposicao_MindMap.svg" xlink:title="⬅ Voltar para REPOSIÇÃO (Mindmap)" target="_self">
<path fill="#e7f1ff" stroke="#0b5ed7" stroke-width="1.6" d="M456.56,-956.46C456.56,-956.46 253.88,-956.46 253.88,-956.46 247.88,-956.46 241.88,-950.46 241.88,-944.46 241.88,-944.46 241.88,-932.46 241.88,-932.46 241.88,-926.46 247.88,-920.46 253.88,-920.46 253.88,-920.46 456.56,-920.46 456.56,-920.46 462.56,-920.46 468.56,-926.46 468.56,-932.46 468.56,-932.46 468.56,-944.46 468.56,-944.46 468.56,-950.46 462.56,-956.46 456.56,-956.46"/>
<text xml:space="preserve" text-anchor="middle" x="355.22" y="-934.76" font-family="Arial" font-size="11.00">⬅ Voltar para REPOSIÇÃO (Mindmap)</text>
</a>
</g>
</g>
<!-- stakeholders -->
<g id="node4" class="node">
<title>stakeholders</title>
<polygon fill="#f8f9fa" stroke="#2b2b2b" points="513.43,-842.46 325,-842.46 325,-771.18 519.43,-771.18 519.43,-836.46 513.43,-842.46"/>
<polyline fill="none" stroke="#2b2b2b" points="513.43,-842.46 513.43,-836.46"/>
<polyline fill="none" stroke="#2b2b2b" points="519.43,-836.46 513.43,-836.46"/>
<text xml:space="preserve" text-anchor="middle" x="422.22" y="-823.37" font-family="Arial" font-size="11.00">Key Users / Áreas / Stakeholders:</text>
<text xml:space="preserve" text-anchor="middle" x="422.22" y="-809.87" font-family="Arial" font-size="11.00">• Inteligência de Mercado</text>
<text xml:space="preserve" text-anchor="middle" x="422.22" y="-796.37" font-family="Arial" font-size="11.00">• Central de Atendimento (RSM)</text>
<text xml:space="preserve" text-anchor="middle" x="422.22" y="-782.87" font-family="Arial" font-size="11.00">• Unidades RSM</text>
</g>
<!-- sistemas -->
<g id="node5" class="node">
<title>sistemas</title>
<polygon fill="#f8f9fa" stroke="#2b2b2b" points="482.43,-679.93 360,-679.93 360,-595.15 488.43,-595.15 488.43,-673.93 482.43,-679.93"/>
<polyline fill="none" stroke="#2b2b2b" points="482.43,-679.93 482.43,-673.93"/>
<polyline fill="none" stroke="#2b2b2b" points="488.43,-673.93 482.43,-673.93"/>
<text xml:space="preserve" text-anchor="middle" x="424.22" y="-660.84" font-family="Arial" font-size="11.00">Sistemas Utilizados:</text>
<text xml:space="preserve" text-anchor="middle" x="424.22" y="-647.34" font-family="Arial" font-size="11.00">• 0800</text>
<text xml:space="preserve" text-anchor="middle" x="424.22" y="-633.84" font-family="Arial" font-size="11.00">• Ploomes</text>
<text xml:space="preserve" text-anchor="middle" x="424.22" y="-620.34" font-family="Arial" font-size="11.00">• WhatsApp</text>
<text xml:space="preserve" text-anchor="middle" x="424.22" y="-606.84" font-family="Arial" font-size="11.00">• Site</text>
</g>
<!-- produto_salesforce -->
<g id="node6" class="node">
<title>produto_salesforce</title>
<polygon fill="#f8f9fa" stroke="#2b2b2b" points="1114.81,-194.56 709.62,-194.56 709.62,-83.28 1120.81,-83.28 1120.81,-188.56 1114.81,-194.56"/>
<polyline fill="none" stroke="#2b2b2b" points="1114.81,-194.56 1114.81,-188.56"/>
<polyline fill="none" stroke="#2b2b2b" points="1120.81,-188.56 1114.81,-188.56"/>
<text xml:space="preserve" text-anchor="middle" x="915.22" y="-175.47" font-family="Arial" font-size="11.00">Produto Salesforce:</text>
<text xml:space="preserve" text-anchor="middle" x="915.22" y="-161.97" font-family="Arial" font-size="11.00">• Sales Cloud</text>
<text xml:space="preserve" text-anchor="middle" x="915.22" y="-135.47" font-family="Arial" font-size="11.00">Soluções Aplicáveis:</text>
<text xml:space="preserve" text-anchor="middle" x="915.22" y="-121.97" font-family="Arial" font-size="11.00">• Entrada, classificação e conversão de Leads em Conta/Contato/Oportunidade</text>
<text xml:space="preserve" text-anchor="middle" x="915.22" y="-108.47" font-family="Arial" font-size="11.00">• Histórico de interações e visão 360 da carteira</text>
<text xml:space="preserve" text-anchor="middle" x="915.22" y="-94.97" font-family="Arial" font-size="11.00">• Gestão do funil, próximos passos e acompanhamento do ciclo</text>
</g>
<!-- oportunidades -->
<g id="node7" class="node">
<title>oportunidades</title>
<polygon fill="#f8f9fa" stroke="#2b2b2b" points="794.06,-497.15 462.38,-497.15 462.38,-425.87 800.06,-425.87 800.06,-491.15 794.06,-497.15"/>
<polyline fill="none" stroke="#2b2b2b" points="794.06,-497.15 794.06,-491.15"/>
<polyline fill="none" stroke="#2b2b2b" points="800.06,-491.15 794.06,-491.15"/>
<text xml:space="preserve" text-anchor="middle" x="631.22" y="-478.06" font-family="Arial" font-size="11.00">Oportunidades:</text>
<text xml:space="preserve" text-anchor="middle" x="631.22" y="-464.56" font-family="Arial" font-size="11.00">• Otimização da gestão de Leads</text>
<text xml:space="preserve" text-anchor="middle" x="631.22" y="-451.06" font-family="Arial" font-size="11.00">• Redução de retrabalho entre áreas</text>
<text xml:space="preserve" text-anchor="middle" x="631.22" y="-437.56" font-family="Arial" font-size="11.00">• Ampliação da visibilidade do pipeline e das taxas de conversão</text>
</g>
<!-- registrar_lead -->
<g id="node9" class="node">
<title>registrar_lead</title>
<path fill="#ffffff" stroke="#2b2b2b" d="M305.31,-693.18C305.31,-693.18 77.12,-693.18 77.12,-693.18 71.12,-693.18 65.12,-687.18 65.12,-681.18 65.12,-681.18 65.12,-593.9 65.12,-593.9 65.12,-587.9 71.12,-581.9 77.12,-581.9 77.12,-581.9 305.31,-581.9 305.31,-581.9 311.31,-581.9 317.31,-587.9 317.31,-593.9 317.31,-593.9 317.31,-681.18 317.31,-681.18 317.31,-687.18 311.31,-693.18 305.31,-693.18"/>
<text xml:space="preserve" text-anchor="middle" x="191.22" y="-674.09" font-family="Arial" font-size="11.00">2) Registrar e Consolidar Informações</text>
<text xml:space="preserve" text-anchor="middle" x="191.22" y="-660.59" font-family="Arial" font-size="11.00">Atividade Executada: Geração do Lead</text>
<text xml:space="preserve" text-anchor="middle" x="191.22" y="-634.09" font-family="Arial" font-size="11.00">Ações:</text>
<text xml:space="preserve" text-anchor="middle" x="191.22" y="-620.59" font-family="Arial" font-size="11.00">• Registrar lead no CRM</text>
<text xml:space="preserve" text-anchor="middle" x="191.22" y="-607.09" font-family="Arial" font-size="11.00">• Normalizar dados (CNPJ, segmento, região)</text>
<text xml:space="preserve" text-anchor="middle" x="191.22" y="-593.59" font-family="Arial" font-size="11.00">• Validar duplicidade (se houver)</text>
</g>
<!-- captura_lead&#45;&gt;registrar_lead -->
<g id="edge2" class="edge">
<title>captura_lead&#45;&gt;registrar_lead</title>
<path fill="none" stroke="#4a4a4a" d="M191.22,-750.45C191.22,-750.45 191.22,-703.18 191.22,-703.18"/>
<polygon fill="#4a4a4a" stroke="#4a4a4a" points="194.02,-703.18 191.22,-695.18 188.42,-703.18 194.02,-703.18"/>
</g>
<!-- qualificar_lead -->
<g id="node10" class="node">
<title>qualificar_lead</title>
<path fill="#ffffff" stroke="#2b2b2b" d="M407.43,-523.9C407.43,-523.9 195,-523.9 195,-523.9 189,-523.9 183,-517.9 183,-511.9 183,-511.9 183,-411.12 183,-411.12 183,-405.12 189,-399.12 195,-399.12 195,-399.12 407.43,-399.12 407.43,-399.12 413.43,-399.12 419.43,-405.12 419.43,-411.12 419.43,-411.12 419.43,-511.9 419.43,-511.9 419.43,-517.9 413.43,-523.9 407.43,-523.9"/>
<text xml:space="preserve" text-anchor="middle" x="301.22" y="-504.81" font-family="Arial" font-size="11.00">3) Qualificar Lead</text>
<text xml:space="preserve" text-anchor="middle" x="301.22" y="-491.31" font-family="Arial" font-size="11.00">Atividade Executada: Qualificação de Lead</text>
<text xml:space="preserve" text-anchor="middle" x="301.22" y="-464.81" font-family="Arial" font-size="11.00">Ações:</text>
<text xml:space="preserve" text-anchor="middle" x="301.22" y="-451.31" font-family="Arial" font-size="11.00">• Avaliar interesse real</text>
<text xml:space="preserve" text-anchor="middle" x="301.22" y="-437.81" font-family="Arial" font-size="11.00">• Avaliar capacidade de compra</text>
<text xml:space="preserve" text-anchor="middle" x="301.22" y="-424.31" font-family="Arial" font-size="11.00">• Priorizar (potencial/volume)</text>
<text xml:space="preserve" text-anchor="middle" x="301.22" y="-410.81" font-family="Arial" font-size="11.00">• Definir responsável (RSM/unidade)</text>
</g>
<!-- registrar_lead&#45;&gt;qualificar_lead -->
<g id="edge3" class="edge">
<title>registrar_lead&#45;&gt;qualificar_lead</title>
<path fill="none" stroke="#4a4a4a" d="M250.15,-581.84C250.15,-581.84 250.15,-533.7 250.15,-533.7"/>
<polygon fill="#4a4a4a" stroke="#4a4a4a" points="252.95,-533.7 250.15,-525.7 247.35,-533.7 252.95,-533.7"/>
</g>
<!-- decisao_qualificado -->
<g id="node11" class="node">
<title>decisao_qualificado</title>
<polygon fill="#fff1b8" stroke="#2b2b2b" points="305.22,-341.12 192.54,-296.84 305.21,-252.56 417.9,-296.84 305.22,-341.12"/>
<text xml:space="preserve" text-anchor="middle" x="305.22" y="-299.89" font-family="Arial" font-size="11.00">Lead qualificado</text>
<text xml:space="preserve" text-anchor="middle" x="305.22" y="-286.39" font-family="Arial" font-size="11.00">para prosseguir?</text>
</g>
<!-- qualificar_lead&#45;&gt;decisao_qualificado -->
<g id="edge4" class="edge">
<title>qualificar_lead&#45;&gt;decisao_qualificado</title>
<path fill="none" stroke="#4a4a4a" d="M305.22,-398.79C305.22,-398.79 305.22,-351 305.22,-351"/>
<polygon fill="#4a4a4a" stroke="#4a4a4a" points="308.02,-351 305.22,-343 302.42,-351 308.02,-351"/>
</g>
<!-- complementar_dados -->
<g id="node12" class="node">
<title>complementar_dados</title>
<path fill="#fffdf2" stroke="#2b2b2b" d="M170.43,-187.81C170.43,-187.81 12,-187.81 12,-187.81 6,-187.81 0,-181.81 0,-175.81 0,-175.81 0,-102.03 0,-102.03 0,-96.03 6,-90.03 12,-90.03 12,-90.03 170.43,-90.03 170.43,-90.03 176.43,-90.03 182.43,-96.03 182.43,-102.03 182.43,-102.03 182.43,-175.81 182.43,-175.81 182.43,-181.81 176.43,-187.81 170.43,-187.81"/>
<text xml:space="preserve" text-anchor="middle" x="91.22" y="-168.72" font-family="Arial" font-size="11.00">Complementar / Corrigir Dados</text>
<text xml:space="preserve" text-anchor="middle" x="91.22" y="-142.22" font-family="Arial" font-size="11.00">Ações:</text>
<text xml:space="preserve" text-anchor="middle" x="91.22" y="-128.72" font-family="Arial" font-size="11.00">• Solicitar informações faltantes</text>
<text xml:space="preserve" text-anchor="middle" x="91.22" y="-115.22" font-family="Arial" font-size="11.00">• Recontato (RSM)</text>
<text xml:space="preserve" text-anchor="middle" x="91.22" y="-101.72" font-family="Arial" font-size="11.00">• Ajustar classificação/volume</text>
</g>
<!-- decisao_qualificado&#45;&gt;complementar_dados -->
<g id="edge6" class="edge">
<title>decisao_qualificado&#45;&gt;complementar_dados</title>
<path fill="none" stroke="#4a4a4a" d="M209.14,-290.06C209.14,-259.85 209.14,-139 209.14,-139 209.14,-139 192.19,-139 192.19,-139"/>
<polygon fill="#4a4a4a" stroke="#4a4a4a" points="192.19,-136.2 184.19,-139 192.19,-141.8 192.19,-136.2"/>
<text xml:space="preserve" text-anchor="middle" x="166.02" y="-208.55" font-family="Arial" font-size="10.00">Dados insuficientes</text>
</g>
<!-- descartar_ou_nutrir -->
<g id="node13" class="node">
<title>descartar_ou_nutrir</title>
<path fill="#fdecea" stroke="#b02a37" stroke-width="1.2" d="M382.68,-181.06C382.68,-181.06 237.75,-181.06 237.75,-181.06 231.75,-181.06 225.75,-175.06 225.75,-169.06 225.75,-169.06 225.75,-108.78 225.75,-108.78 225.75,-102.78 231.75,-96.78 237.75,-96.78 237.75,-96.78 382.68,-96.78 382.68,-96.78 388.68,-96.78 394.68,-102.78 394.68,-108.78 394.68,-108.78 394.68,-169.06 394.68,-169.06 394.68,-175.06 388.68,-181.06 382.68,-181.06"/>
<text xml:space="preserve" text-anchor="middle" x="310.22" y="-161.97" font-family="Arial" font-size="11.00">Encerrar ou Nutrir</text>
<text xml:space="preserve" text-anchor="middle" x="310.22" y="-135.47" font-family="Arial" font-size="11.00">Saída alternativa:</text>
<text xml:space="preserve" text-anchor="middle" x="310.22" y="-121.97" font-family="Arial" font-size="11.00">• Lead não qualificado</text>
<text xml:space="preserve" text-anchor="middle" x="310.22" y="-108.47" font-family="Arial" font-size="11.00">• Registrar motivo e histórico</text>
</g>
<!-- decisao_qualificado&#45;&gt;descartar_ou_nutrir -->
<g id="edge8" class="edge">
<title>decisao_qualificado&#45;&gt;descartar_ou_nutrir</title>
<path fill="none" stroke="#4a4a4a" d="M310.22,-254.1C310.22,-254.1 310.22,-190.93 310.22,-190.93"/>
<polygon fill="#4a4a4a" stroke="#4a4a4a" points="313.02,-190.93 310.22,-182.93 307.42,-190.93 313.02,-190.93"/>
<text xml:space="preserve" text-anchor="middle" x="301.22" y="-225.02" font-family="Arial" font-size="10.00">Não</text>
</g>
<!-- lead_qualificado_saida -->
<g id="node14" class="node">
<title>lead_qualificado_saida</title>
<path fill="#d1e7dd" stroke="#1e7e34" stroke-width="1.8" d="M654.68,-187.81C654.68,-187.81 449.75,-187.81 449.75,-187.81 443.75,-187.81 437.75,-181.81 437.75,-175.81 437.75,-175.81 437.75,-102.03 437.75,-102.03 437.75,-96.03 443.75,-90.03 449.75,-90.03 449.75,-90.03 654.68,-90.03 654.68,-90.03 660.68,-90.03 666.68,-96.03 666.68,-102.03 666.68,-102.03 666.68,-175.81 666.68,-175.81 666.68,-181.81 660.68,-187.81 654.68,-187.81"/>
<text xml:space="preserve" text-anchor="middle" x="552.22" y="-168.72" font-family="Arial" font-size="11.00">✅ Lead Qualificado</text>
<text xml:space="preserve" text-anchor="middle" x="552.22" y="-142.22" font-family="Arial" font-size="11.00">Saída de Dados:</text>
<text xml:space="preserve" text-anchor="middle" x="552.22" y="-128.72" font-family="Arial" font-size="11.00">• Lead qualificado (pronto para Proposta)</text>
<text xml:space="preserve" text-anchor="middle" x="552.22" y="-115.22" font-family="Arial" font-size="11.00">• Responsável definido</text>
<text xml:space="preserve" text-anchor="middle" x="552.22" y="-101.72" font-family="Arial" font-size="11.00">• Próximo passo registrado</text>
</g>
<!-- decisao_qualificado&#45;&gt;lead_qualificado_saida -->
<g id="edge5" class="edge">
<title>decisao_qualificado&#45;&gt;lead_qualificado_saida</title>
<path fill="none" stroke="#4a4a4a" d="M418.63,-297C436.96,-297 450.06,-297 450.06,-297 450.06,-297 450.06,-198.02 450.06,-198.02"/>
<polygon fill="#4a4a4a" stroke="#4a4a4a" points="452.86,-198.02 450.06,-190.02 447.26,-198.02 452.86,-198.02"/>
<text xml:space="preserve" text-anchor="middle" x="441.44" y="-265.72" font-family="Arial" font-size="10.00">Sim</text>
</g>
<!-- complementar_dados&#45;&gt;registrar_lead -->
<g id="edge7" class="edge">
<title>complementar_dados&#45;&gt;registrar_lead</title>
<path fill="none" stroke="#4a4a4a" d="M123.78,-188.09C123.78,-188.09 123.78,-572.04 123.78,-572.04"/>
<polygon fill="#4a4a4a" stroke="#4a4a4a" points="120.98,-572.04 123.78,-580.04 126.58,-572.04 120.98,-572.04"/>
<text xml:space="preserve" text-anchor="middle" x="104.65" y="-382.57" font-family="Arial" font-size="10.00">Atualizar</text>
</g>
<!-- descartar_ou_nutrir&#45;&gt;end -->
<g id="edge9" class="edge">
<title>descartar_ou_nutrir&#45;&gt;end</title>
<path fill="none" stroke="#4a4a4a" d="M395.24,-153C412.52,-153 425.54,-153 425.54,-153 425.54,-153 425.54,-33.64 425.54,-33.64"/>
<polygon fill="#4a4a4a" stroke="#4a4a4a" points="428.34,-33.64 425.54,-25.64 422.74,-33.64 428.34,-33.64"/>
</g>
<!-- lead_qualificado_saida&#45;&gt;end -->
<g id="edge10" class="edge">
<title>lead_qualificado_saida&#45;&gt;end</title>
<path fill="none" stroke="#4a4a4a" d="M437.14,-125C433.65,-125 431.64,-125 431.64,-125 431.64,-125 431.64,-35.04 431.64,-35.04"/>
<polygon fill="#4a4a4a" stroke="#4a4a4a" points="434.44,-35.04 431.64,-27.04 428.84,-35.04 434.44,-35.04"/>
</g>
</g>
</svg>
