<?xml version="1.0" encoding="UTF-8" standalone="no"?>
<!DOCTYPE svg PUBLIC "-//W3C//DTD SVG 1.1//EN"
 "http://www.w3.org/Graphics/SVG/1.1/DTD/svg11.dtd">
<!-- Generated by graphviz version 14.1.0 (20251206.1807)
 -->
<!-- Title: RFPMoura_DCBT_OEM_MindMap Pages: 1 -->
<svg width="828pt" height="458pt"
 viewBox="0.00 0.00 828.00 458.00" xmlns="http://www.w3.org/2000/svg" xmlns:xlink="http://www.w3.org/1999/xlink">
<g id="graph0" class="graph" transform="scale(1 1) rotate(0) translate(36 422.3)">
<title>RFPMoura_DCBT_OEM_MindMap</title>
<polygon fill="white" stroke="none" points="-36,36 -36,-422.3 792.25,-422.3 792.25,36 -36,36"/>
<text xml:space="preserve" text-anchor="middle" x="378.12" y="-361.4" font-family="Arial Bold" font-size="22.00">RFPMoura | DCBT — OEM (Chumbo) — Mindmap de Processos (AS&#45;IS)</text>
<!-- HUB_OEM&#45;&gt;P_PROJETO -->
<g id="edge1" class="edge">
<title>HUB_OEM&#45;&gt;P_PROJETO</title>
<path fill="none" stroke="#6a1b9a" stroke-width="1.6" d="M311.72,-176.4C281.4,-176.4 248.16,-176.4 222.37,-176.4"/>
<polygon fill="#6a1b9a" stroke="#6a1b9a" stroke-width="1.6" points="222.5,-173.25 213.5,-176.4 222.5,-179.55 222.5,-173.25"/>
</g>
<!-- HUB_OEM&#45;&gt;P_CADSKU -->
<g id="edge2" class="edge">
<title>HUB_OEM&#45;&gt;P_CADSKU</title>
<path fill="none" stroke="#6a1b9a" stroke-width="1.6" d="M393.69,-142.81C393.69,-114.49 393.69,-74.36 393.69,-47.32"/>
<polygon fill="#6a1b9a" stroke="#6a1b9a" stroke-width="1.6" points="396.84,-47.68 393.69,-38.68 390.54,-47.68 396.84,-47.68"/>
</g>
<!-- HUB_OEM&#45;&gt;P_PEDIDO -->
<g id="edge3" class="edge">
<title>HUB_OEM&#45;&gt;P_PEDIDO</title>
<path fill="none" stroke="#6a1b9a" stroke-width="1.6" d="M475.66,-176.4C498.22,-176.4 522.39,-176.4 543.9,-176.4"/>
<polygon fill="#6a1b9a" stroke="#6a1b9a" stroke-width="1.6" points="543.8,-179.55 552.8,-176.4 543.8,-173.25 543.8,-179.55"/>
</g>
<!-- HUB_OEM&#45;&gt;P_PAM -->
<g id="edge4" class="edge">
<title>HUB_OEM&#45;&gt;P_PAM</title>
<path fill="none" stroke="#e65100" stroke-width="1.6" d="M393.69,-209.99C393.69,-238.31 393.69,-278.44 393.69,-305.48"/>
<polygon fill="#e65100" stroke="#e65100" stroke-width="1.6" points="390.54,-305.12 393.69,-314.12 396.84,-305.12 390.54,-305.12"/>
</g>
<!-- HUB_OEM&#45;&gt;P_POSVENDA -->
<g id="edge5" class="edge">
<title>HUB_OEM&#45;&gt;P_POSVENDA</title>
<path fill="none" stroke="#1e7e34" stroke-width="1.6" d="M311.72,-209.19C285.95,-219.5 258.08,-230.64 234.46,-240.09"/>
<polygon fill="#1e7e34" stroke="#1e7e34" stroke-width="1.6" points="233.36,-237.14 226.18,-243.4 235.7,-242.99 233.36,-237.14"/>
</g>
<!-- P_PROJETO&#45;&gt;P_CADSKU -->
<g id="edge6" class="edge">
<title>P_PROJETO&#45;&gt;P_CADSKU</title>
<path fill="none" stroke="#6a1b9a" stroke-width="1.8" d="M202.89,-157.92C241.58,-129.54 315.72,-75.18 359.31,-43.21"/>
<polygon fill="#6a1b9a" stroke="#6a1b9a" stroke-width="1.8" points="361.06,-45.84 366.45,-37.97 357.33,-40.76 361.06,-45.84"/>
<text xml:space="preserve" text-anchor="middle" x="263.19" y="-99.15" font-family="Arial" font-size="9.00"> sequência</text>
</g>
<!-- P_CADSKU&#45;&gt;P_PEDIDO -->
<g id="edge7" class="edge">
<title>P_CADSKU&#45;&gt;P_PEDIDO</title>
<path fill="none" stroke="#6a1b9a" stroke-width="1.8" d="M418.89,-36.48C457.58,-64.86 531.72,-119.22 575.31,-151.19"/>
<polygon fill="#6a1b9a" stroke="#6a1b9a" stroke-width="1.8" points="573.33,-153.64 582.45,-156.43 577.06,-148.56 573.33,-153.64"/>
<text xml:space="preserve" text-anchor="middle" x="474.31" y="-99.15" font-family="Arial" font-size="9.00"> gerar pedido</text>
</g>
<!-- P_PEDIDO&#45;&gt;P_PAM -->
<g id="edge8" class="edge">
<title>P_PEDIDO&#45;&gt;P_PAM</title>
<path fill="none" stroke="#e65100" stroke-width="1.8" d="M584.49,-194.88C545.79,-223.26 471.66,-277.62 428.07,-309.59"/>
<polygon fill="#e65100" stroke="#e65100" stroke-width="1.8" points="426.32,-306.96 420.92,-314.83 430.05,-312.04 426.32,-306.96"/>
<text xml:space="preserve" text-anchor="middle" x="493.06" y="-257.55" font-family="Arial" font-size="9.00"> BIN</text>
</g>
<!-- P_PAM&#45;&gt;P_POSVENDA -->
<g id="edge9" class="edge">
<title>P_PAM&#45;&gt;P_POSVENDA</title>
<path fill="none" stroke="#1e7e34" stroke-width="1.8" d="M365.89,-325.53C335.21,-315.31 284.73,-298.48 243.77,-284.83"/>
<polygon fill="#1e7e34" stroke="#1e7e34" stroke-width="1.8" points="244.89,-281.88 235.36,-282.02 242.9,-287.86 244.89,-281.88"/>
<text xml:space="preserve" text-anchor="middle" x="282.27" y="-315.86" font-family="Arial" font-size="9.00"> impacto</text>
<text xml:space="preserve" text-anchor="middle" x="282.27" y="-305.36" font-family="Arial" font-size="9.00">garantia</text>
</g>
<!-- HUB_OEM -->
<g id="node1" class="node">
<title>HUB_OEM</title>
<g id="a_node1"><a xlink:href="RFPMoura_DCBT_Processos_MindMap.svg" xlink:title="OEM (Chumbo)\n(DCBT / RFPMoura)\n↩ Voltar para o HUB" target="_self">
<path fill="#f3e5f5" stroke="#6a1b9a" stroke-width="3" d="M462.4,-208.67C462.4,-208.67 324.97,-208.67 324.97,-208.67 318.97,-208.67 312.97,-202.67 312.97,-196.67 312.97,-196.67 312.97,-156.14 312.97,-156.14 312.97,-150.14 318.97,-144.14 324.97,-144.14 324.97,-144.14 462.4,-144.14 462.4,-144.14 468.4,-144.14 474.4,-150.14 474.4,-156.14 474.4,-156.14 474.4,-196.67 474.4,-196.67 474.4,-202.67 468.4,-208.67 462.4,-208.67"/>
<text xml:space="preserve" text-anchor="middle" x="393.69" y="-186.73" font-family="Arial" font-size="14.00">OEM (Chumbo)</text>
<text xml:space="preserve" text-anchor="middle" x="393.69" y="-170.98" font-family="Arial" font-size="14.00">(DCBT / RFPMoura)</text>
<text xml:space="preserve" text-anchor="middle" x="393.69" y="-155.23" font-family="Arial" font-size="14.00">↩ Voltar para o HUB</text>
</a>
</g>
</g>
<!-- P_PROJETO -->
<g id="node2" class="node">
<title>P_PROJETO</title>
<g id="a_node2"><a xlink:href="RFPMoura_DCBT_OEM_Chumbo_PROJETO.svg" xlink:title="Projeto" target="_self">
<path fill="#fbf5ff" stroke="#6a1b9a" d="M198.78,-194.4C198.78,-194.4 156.6,-194.4 156.6,-194.4 150.6,-194.4 144.6,-188.4 144.6,-182.4 144.6,-182.4 144.6,-170.4 144.6,-170.4 144.6,-164.4 150.6,-158.4 156.6,-158.4 156.6,-158.4 198.78,-158.4 198.78,-158.4 204.78,-158.4 210.78,-164.4 210.78,-170.4 210.78,-170.4 210.78,-182.4 210.78,-182.4 210.78,-188.4 204.78,-194.4 198.78,-194.4"/>
<text xml:space="preserve" text-anchor="middle" x="177.69" y="-172.7" font-family="Arial" font-size="11.00">Projeto</text>
</a>
</g>
</g>
<!-- P_CADSKU -->
<g id="node3" class="node">
<title>P_CADSKU</title>
<g id="a_node3"><a xlink:href="RFPMoura_DCBT_OEM_Chumbo_CADASTRO_SKU.svg" xlink:title="Cadastro SKU" target="_self">
<path fill="#fbf5ff" stroke="#6a1b9a" d="M432.78,-36C432.78,-36 354.6,-36 354.6,-36 348.6,-36 342.6,-30 342.6,-24 342.6,-24 342.6,-12 342.6,-12 342.6,-6 348.6,0 354.6,0 354.6,0 432.78,0 432.78,0 438.78,0 444.78,-6 444.78,-12 444.78,-12 444.78,-24 444.78,-24 444.78,-30 438.78,-36 432.78,-36"/>
<text xml:space="preserve" text-anchor="middle" x="393.69" y="-14.3" font-family="Arial" font-size="11.00">Cadastro SKU</text>
</a>
</g>
</g>
<!-- P_PEDIDO -->
<g id="node4" class="node">
<title>P_PEDIDO</title>
<g id="a_node4"><a xlink:href="RFPMoura_DCBT_OEM_Chumbo_REALIZAR_PEDIDO.svg" xlink:title="Realizar Pedido" target="_self">
<path fill="#fbf5ff" stroke="#6a1b9a" d="M651.78,-194.4C651.78,-194.4 567.6,-194.4 567.6,-194.4 561.6,-194.4 555.6,-188.4 555.6,-182.4 555.6,-182.4 555.6,-170.4 555.6,-170.4 555.6,-164.4 561.6,-158.4 567.6,-158.4 567.6,-158.4 651.78,-158.4 651.78,-158.4 657.78,-158.4 663.78,-164.4 663.78,-170.4 663.78,-170.4 663.78,-182.4 663.78,-182.4 663.78,-188.4 657.78,-194.4 651.78,-194.4"/>
<text xml:space="preserve" text-anchor="middle" x="609.69" y="-172.7" font-family="Arial" font-size="11.00">Realizar Pedido</text>
</a>
</g>
</g>
<!-- P_PAM -->
<g id="node5" class="node">
<title>P_PAM</title>
<g id="a_node5"><a xlink:href="RFPMoura_DCBT_OEM_Chumbo_PAM.svg" xlink:title="PAM" target="_self">
<path fill="#fff3e0" stroke="#e65100" d="M409.15,-352.8C409.15,-352.8 378.22,-352.8 378.22,-352.8 372.22,-352.8 366.22,-346.8 366.22,-340.8 366.22,-340.8 366.22,-328.8 366.22,-328.8 366.22,-322.8 372.22,-316.8 378.22,-316.8 378.22,-316.8 409.15,-316.8 409.15,-316.8 415.15,-316.8 421.15,-322.8 421.15,-328.8 421.15,-328.8 421.15,-340.8 421.15,-340.8 421.15,-346.8 415.15,-352.8 409.15,-352.8"/>
<text xml:space="preserve" text-anchor="middle" x="393.69" y="-331.1" font-family="Arial" font-size="11.00">PAM</text>
</a>
</g>
</g>
<!-- P_POSVENDA -->
<g id="node6" class="node">
<title>P_POSVENDA</title>
<g id="a_node6"><a xlink:href="RFPMoura_DCBT_OEM_Chumbo_POS_VENDA_GARANTIA.svg" xlink:title="Pós&#45;Venda (Garantia / OEM)" target="_self">
<path fill="#f2fbf6" stroke="#1e7e34" d="M250.9,-280.8C250.9,-280.8 104.47,-280.8 104.47,-280.8 98.47,-280.8 92.47,-274.8 92.47,-268.8 92.47,-268.8 92.47,-256.8 92.47,-256.8 92.47,-250.8 98.47,-244.8 104.47,-244.8 104.47,-244.8 250.9,-244.8 250.9,-244.8 256.9,-244.8 262.9,-250.8 262.9,-256.8 262.9,-256.8 262.9,-268.8 262.9,-268.8 262.9,-274.8 256.9,-280.8 250.9,-280.8"/>
<text xml:space="preserve" text-anchor="middle" x="177.69" y="-259.1" font-family="Arial" font-size="11.00">Pós&#45;Venda (Garantia / OEM)</text>
</a>
</g>
</g>
</g>
</svg>
