<?xml version="1.0" encoding="UTF-8" standalone="no"?>
<!DOCTYPE svg PUBLIC "-//W3C//DTD SVG 1.1//EN"
 "http://www.w3.org/Graphics/SVG/1.1/DTD/svg11.dtd">
<!-- Generated by graphviz version 14.1.0 (20251206.1807)
 -->
<!-- Title: RFPMoura_DCEX_Intercompany_ARG Pages: 1 -->
<svg width="1113pt" height="1280pt"
 viewBox="0.00 0.00 1113.00 1280.00" xmlns="http://www.w3.org/2000/svg" xmlns:xlink="http://www.w3.org/1999/xlink">
<g id="graph0" class="graph" transform="scale(1 1) rotate(0) translate(36 1243.6)">
<title>RFPMoura_DCEX_Intercompany_ARG</title>
<polygon fill="white" stroke="none" points="-36,36 -36,-1243.6 1077.25,-1243.6 1077.25,36 -36,36"/>
<text xml:space="preserve" text-anchor="middle" x="520.62" y="-1180.8" font-family="Arial Bold" font-size="24.00">RFPMoura | DCEX — Processo INTERCOMPANY_ARG (Pedido / Faturamento &#45; Argentina)</text>
<!-- INTERCOMPANY_ARG_VOLTAR -->
<g id="node1" class="node">
<title>INTERCOMPANY_ARG_VOLTAR</title>
<g id="a_node1"><a xlink:href="RFPMoura_DCEX_Processos_MindMap.svg" xlink:title="Voltar ao mindmap de Intercompany (Argentina)" target="_self">
<path fill="#ffffff" stroke="#1f5fbf" stroke-width="3" d="M608,-1172.6C608,-1172.6 433.25,-1172.6 433.25,-1172.6 427.25,-1172.6 421.25,-1166.6 421.25,-1160.6 421.25,-1160.6 421.25,-1135.94 421.25,-1135.94 421.25,-1129.94 427.25,-1123.94 433.25,-1123.94 433.25,-1123.94 608,-1123.94 608,-1123.94 614,-1123.94 620,-1129.94 620,-1135.94 620,-1135.94 620,-1160.6 620,-1160.6 620,-1166.6 614,-1172.6 608,-1172.6"/>
<text xml:space="preserve" text-anchor="middle" x="520.62" y="-1151.12" font-family="Arial" font-size="12.00" fill="#1f5fbf">⟵ Voltar para Macroprocesso</text>
<text xml:space="preserve" text-anchor="middle" x="520.62" y="-1136.87" font-family="Arial" font-size="12.00" fill="#1f5fbf">Intercompany (Argentina)</text>
</a>
</g>
</g>
<!-- INTERCOMPANY_ARG_ETAPA1 -->
<g id="node2" class="node">
<title>INTERCOMPANY_ARG_ETAPA1</title>
<path fill="#e7f1ff" stroke="#0b5ed7" stroke-width="2" d="M599.75,-1058.94C599.75,-1058.94 441.5,-1058.94 441.5,-1058.94 435.5,-1058.94 429.5,-1052.94 429.5,-1046.94 429.5,-1046.94 429.5,-1022.28 429.5,-1022.28 429.5,-1016.28 435.5,-1010.28 441.5,-1010.28 441.5,-1010.28 599.75,-1010.28 599.75,-1010.28 605.75,-1010.28 611.75,-1016.28 611.75,-1022.28 611.75,-1022.28 611.75,-1046.94 611.75,-1046.94 611.75,-1052.94 605.75,-1058.94 599.75,-1058.94"/>
<text xml:space="preserve" text-anchor="middle" x="520.62" y="-1037.46" font-family="Arial" font-size="12.00" fill="#0b5ed7">1. Abertura de PNM</text>
<text xml:space="preserve" text-anchor="middle" x="520.62" y="-1023.21" font-family="Arial" font-size="12.00" fill="#0b5ed7">(Portal de Negócios Moura)</text>
</g>
<!-- INTERCOMPANY_ARG_VOLTAR&#45;&gt;INTERCOMPANY_ARG_ETAPA1 -->
<g id="edge1" class="edge">
<title>INTERCOMPANY_ARG_VOLTAR&#45;&gt;INTERCOMPANY_ARG_ETAPA1</title>
<path fill="none" stroke="#6c757d" stroke-width="1.8" d="M520.62,-1122.48C520.62,-1122.48 520.62,-1071.63 520.62,-1071.63"/>
<polygon fill="#6c757d" stroke="#6c757d" stroke-width="1.8" points="523.78,-1071.63 520.63,-1062.63 517.48,-1071.63 523.78,-1071.63"/>
</g>
<!-- INTERCOMPANY_ARG_ETAPA2 -->
<g id="node3" class="node">
<title>INTERCOMPANY_ARG_ETAPA2</title>
<path fill="#ffffff" stroke="#2b2b2b" d="M619.62,-945.28C619.62,-945.28 421.62,-945.28 421.62,-945.28 415.62,-945.28 409.62,-939.28 409.62,-933.28 409.62,-933.28 409.62,-921.28 409.62,-921.28 409.62,-915.28 415.62,-909.28 421.62,-909.28 421.62,-909.28 619.62,-909.28 619.62,-909.28 625.62,-909.28 631.62,-915.28 631.62,-921.28 631.62,-921.28 631.62,-933.28 631.62,-933.28 631.62,-939.28 625.62,-945.28 619.62,-945.28"/>
<text xml:space="preserve" text-anchor="middle" x="520.62" y="-923" font-family="Arial" font-size="12.00">2. Verificar otimização de container</text>
</g>
<!-- INTERCOMPANY_ARG_ETAPA1&#45;&gt;INTERCOMPANY_ARG_ETAPA2 -->
<g id="edge2" class="edge">
<title>INTERCOMPANY_ARG_ETAPA1&#45;&gt;INTERCOMPANY_ARG_ETAPA2</title>
<path fill="none" stroke="#6c757d" stroke-width="1.8" d="M520.62,-1009.45C520.62,-1009.45 520.62,-957.3 520.62,-957.3"/>
<polygon fill="#6c757d" stroke="#6c757d" stroke-width="1.8" points="523.78,-957.3 520.63,-948.3 517.48,-957.3 523.78,-957.3"/>
</g>
<!-- INTERCOMPANY_ARG_ETAPA3 -->
<g id="node4" class="node">
<title>INTERCOMPANY_ARG_ETAPA3</title>
<path fill="#ffffff" stroke="#2b2b2b" d="M611.75,-844.28C611.75,-844.28 429.5,-844.28 429.5,-844.28 423.5,-844.28 417.5,-838.28 417.5,-832.28 417.5,-832.28 417.5,-807.62 417.5,-807.62 417.5,-801.62 423.5,-795.62 429.5,-795.62 429.5,-795.62 611.75,-795.62 611.75,-795.62 617.75,-795.62 623.75,-801.62 623.75,-807.62 623.75,-807.62 623.75,-832.28 623.75,-832.28 623.75,-838.28 617.75,-844.28 611.75,-844.28"/>
<text xml:space="preserve" text-anchor="middle" x="520.62" y="-822.8" font-family="Arial" font-size="12.00">3. Preencher Proforma</text>
<text xml:space="preserve" text-anchor="middle" x="520.62" y="-808.55" font-family="Arial" font-size="12.00">(Base para formalização da OV)</text>
</g>
<!-- INTERCOMPANY_ARG_ETAPA2&#45;&gt;INTERCOMPANY_ARG_ETAPA3 -->
<g id="edge3" class="edge">
<title>INTERCOMPANY_ARG_ETAPA2&#45;&gt;INTERCOMPANY_ARG_ETAPA3</title>
<path fill="none" stroke="#6c757d" stroke-width="1.8" d="M520.62,-909.07C520.62,-909.07 520.62,-856.42 520.62,-856.42"/>
<polygon fill="#6c757d" stroke="#6c757d" stroke-width="1.8" points="523.78,-856.42 520.63,-847.42 517.48,-856.42 523.78,-856.42"/>
</g>
<!-- INTERCOMPANY_ARG_ETAPA4 -->
<g id="node5" class="node">
<title>INTERCOMPANY_ARG_ETAPA4</title>
<path fill="#ffffff" stroke="#2b2b2b" d="M642.88,-730.62C642.88,-730.62 398.38,-730.62 398.38,-730.62 392.38,-730.62 386.38,-724.62 386.38,-718.62 386.38,-718.62 386.38,-693.96 386.38,-693.96 386.38,-687.96 392.38,-681.96 398.38,-681.96 398.38,-681.96 642.88,-681.96 642.88,-681.96 648.88,-681.96 654.88,-687.96 654.88,-693.96 654.88,-693.96 654.88,-718.62 654.88,-718.62 654.88,-724.62 648.88,-730.62 642.88,-730.62"/>
<text xml:space="preserve" text-anchor="middle" x="520.62" y="-709.14" font-family="Arial" font-size="12.00">4. Formalizar OV</text>
<text xml:space="preserve" text-anchor="middle" x="520.62" y="-694.89" font-family="Arial" font-size="12.00">(Ordem de Venda para operação Argentina)</text>
</g>
<!-- INTERCOMPANY_ARG_ETAPA3&#45;&gt;INTERCOMPANY_ARG_ETAPA4 -->
<g id="edge4" class="edge">
<title>INTERCOMPANY_ARG_ETAPA3&#45;&gt;INTERCOMPANY_ARG_ETAPA4</title>
<path fill="none" stroke="#6c757d" stroke-width="1.8" d="M520.62,-795.29C520.62,-795.29 520.62,-742.63 520.62,-742.63"/>
<polygon fill="#6c757d" stroke="#6c757d" stroke-width="1.8" points="523.78,-742.63 520.63,-733.63 517.48,-742.63 523.78,-742.63"/>
</g>
<!-- INTERCOMPANY_ARG_ETAPA5 -->
<g id="node6" class="node">
<title>INTERCOMPANY_ARG_ETAPA5</title>
<path fill="#ffffff" stroke="#2b2b2b" d="M602.38,-616.96C602.38,-616.96 438.88,-616.96 438.88,-616.96 432.88,-616.96 426.88,-610.96 426.88,-604.96 426.88,-604.96 426.88,-580.3 426.88,-580.3 426.88,-574.3 432.88,-568.3 438.88,-568.3 438.88,-568.3 602.38,-568.3 602.38,-568.3 608.38,-568.3 614.38,-574.3 614.38,-580.3 614.38,-580.3 614.38,-604.96 614.38,-604.96 614.38,-610.96 608.38,-616.96 602.38,-616.96"/>
<text xml:space="preserve" text-anchor="middle" x="520.62" y="-595.48" font-family="Arial" font-size="12.00">5. Planejamento e Produção</text>
<text xml:space="preserve" text-anchor="middle" x="520.62" y="-581.23" font-family="Arial" font-size="12.00">(DPI / PCP)</text>
</g>
<!-- INTERCOMPANY_ARG_ETAPA4&#45;&gt;INTERCOMPANY_ARG_ETAPA5 -->
<g id="edge5" class="edge">
<title>INTERCOMPANY_ARG_ETAPA4&#45;&gt;INTERCOMPANY_ARG_ETAPA5</title>
<path fill="none" stroke="#6c757d" stroke-width="1.8" d="M520.62,-681.63C520.62,-681.63 520.62,-628.97 520.62,-628.97"/>
<polygon fill="#6c757d" stroke="#6c757d" stroke-width="1.8" points="523.78,-628.97 520.63,-619.97 517.48,-628.97 523.78,-628.97"/>
</g>
<!-- INTERCOMPANY_ARG_ETAPA6 -->
<g id="node7" class="node">
<title>INTERCOMPANY_ARG_ETAPA6</title>
<path fill="#ffffff" stroke="#2b2b2b" d="M629,-503.3C629,-503.3 412.25,-503.3 412.25,-503.3 406.25,-503.3 400.25,-497.3 400.25,-491.3 400.25,-491.3 400.25,-466.64 400.25,-466.64 400.25,-460.64 406.25,-454.64 412.25,-454.64 412.25,-454.64 629,-454.64 629,-454.64 635,-454.64 641,-460.64 641,-466.64 641,-466.64 641,-491.3 641,-491.3 641,-497.3 635,-503.3 629,-503.3"/>
<text xml:space="preserve" text-anchor="middle" x="520.62" y="-481.82" font-family="Arial" font-size="12.00">6. Inserir dados no OSGT</text>
<text xml:space="preserve" text-anchor="middle" x="520.62" y="-467.57" font-family="Arial" font-size="12.00">(Cadastro da operação de exportação)</text>
</g>
<!-- INTERCOMPANY_ARG_ETAPA5&#45;&gt;INTERCOMPANY_ARG_ETAPA6 -->
<g id="edge6" class="edge">
<title>INTERCOMPANY_ARG_ETAPA5&#45;&gt;INTERCOMPANY_ARG_ETAPA6</title>
<path fill="none" stroke="#6c757d" stroke-width="1.8" d="M520.62,-567.97C520.62,-567.97 520.62,-515.31 520.62,-515.31"/>
<polygon fill="#6c757d" stroke="#6c757d" stroke-width="1.8" points="523.78,-515.31 520.63,-506.31 517.48,-515.31 523.78,-515.31"/>
</g>
<!-- INTERCOMPANY_ARG_ETAPA7 -->
<g id="node8" class="node">
<title>INTERCOMPANY_ARG_ETAPA7</title>
<path fill="#ffffff" stroke="#2b2b2b" d="M648.88,-389.64C648.88,-389.64 392.38,-389.64 392.38,-389.64 386.38,-389.64 380.38,-383.64 380.38,-377.64 380.38,-377.64 380.38,-352.98 380.38,-352.98 380.38,-346.98 386.38,-340.98 392.38,-340.98 392.38,-340.98 648.88,-340.98 648.88,-340.98 654.88,-340.98 660.88,-346.98 660.88,-352.98 660.88,-352.98 660.88,-377.64 660.88,-377.64 660.88,-383.64 654.88,-389.64 648.88,-389.64"/>
<text xml:space="preserve" text-anchor="middle" x="520.62" y="-368.16" font-family="Arial" font-size="12.00">7. Acompanhar embarque da carga</text>
<text xml:space="preserve" text-anchor="middle" x="520.62" y="-353.91" font-family="Arial" font-size="12.00">(Roteiro de transporte / logística internacional)</text>
</g>
<!-- INTERCOMPANY_ARG_ETAPA6&#45;&gt;INTERCOMPANY_ARG_ETAPA7 -->
<g id="edge7" class="edge">
<title>INTERCOMPANY_ARG_ETAPA6&#45;&gt;INTERCOMPANY_ARG_ETAPA7</title>
<path fill="none" stroke="#6c757d" stroke-width="1.8" d="M520.62,-454.31C520.62,-454.31 520.62,-401.65 520.62,-401.65"/>
<polygon fill="#6c757d" stroke="#6c757d" stroke-width="1.8" points="523.78,-401.65 520.63,-392.65 517.48,-401.65 523.78,-401.65"/>
</g>
<!-- INTERCOMPANY_ARG_ETAPA8 -->
<g id="node9" class="node">
<title>INTERCOMPANY_ARG_ETAPA8</title>
<path fill="#ffffff" stroke="#2b2b2b" d="M629,-275.98C629,-275.98 412.25,-275.98 412.25,-275.98 406.25,-275.98 400.25,-269.98 400.25,-263.98 400.25,-263.98 400.25,-239.32 400.25,-239.32 400.25,-233.32 406.25,-227.32 412.25,-227.32 412.25,-227.32 629,-227.32 629,-227.32 635,-227.32 641,-233.32 641,-239.32 641,-239.32 641,-263.98 641,-263.98 641,-269.98 635,-275.98 629,-275.98"/>
<text xml:space="preserve" text-anchor="middle" x="520.62" y="-254.5" font-family="Arial" font-size="12.00">8. Transporte e Faturamento</text>
<text xml:space="preserve" text-anchor="middle" x="520.62" y="-240.25" font-family="Arial" font-size="12.00">(Emissão de NF e documentos fiscais)</text>
</g>
<!-- INTERCOMPANY_ARG_ETAPA7&#45;&gt;INTERCOMPANY_ARG_ETAPA8 -->
<g id="edge8" class="edge">
<title>INTERCOMPANY_ARG_ETAPA7&#45;&gt;INTERCOMPANY_ARG_ETAPA8</title>
<path fill="none" stroke="#6c757d" stroke-width="1.8" d="M520.62,-340.65C520.62,-340.65 520.62,-287.99 520.62,-287.99"/>
<polygon fill="#6c757d" stroke="#6c757d" stroke-width="1.8" points="523.78,-287.99 520.63,-278.99 517.48,-287.99 523.78,-287.99"/>
</g>
<!-- INTERCOMPANY_ARG_ETAPA9 -->
<g id="node10" class="node">
<title>INTERCOMPANY_ARG_ETAPA9</title>
<path fill="#ffffff" stroke="#2b2b2b" d="M646.62,-162.32C646.62,-162.32 394.62,-162.32 394.62,-162.32 388.62,-162.32 382.62,-156.32 382.62,-150.32 382.62,-150.32 382.62,-125.66 382.62,-125.66 382.62,-119.66 388.62,-113.66 394.62,-113.66 394.62,-113.66 646.62,-113.66 646.62,-113.66 652.62,-113.66 658.62,-119.66 658.62,-125.66 658.62,-125.66 658.62,-150.32 658.62,-150.32 658.62,-156.32 652.62,-162.32 646.62,-162.32"/>
<text xml:space="preserve" text-anchor="middle" x="520.62" y="-140.84" font-family="Arial" font-size="12.00">9. Preenchimento e envio de documentações</text>
<text xml:space="preserve" text-anchor="middle" x="520.62" y="-126.59" font-family="Arial" font-size="12.00">(Comerciais, fiscais e de embarque)</text>
</g>
<!-- INTERCOMPANY_ARG_ETAPA8&#45;&gt;INTERCOMPANY_ARG_ETAPA9 -->
<g id="edge9" class="edge">
<title>INTERCOMPANY_ARG_ETAPA8&#45;&gt;INTERCOMPANY_ARG_ETAPA9</title>
<path fill="none" stroke="#6c757d" stroke-width="1.8" d="M520.62,-226.99C520.62,-226.99 520.62,-174.33 520.62,-174.33"/>
<polygon fill="#6c757d" stroke="#6c757d" stroke-width="1.8" points="523.78,-174.33 520.63,-165.33 517.48,-174.33 523.78,-174.33"/>
</g>
<!-- INTERCOMPANY_ARG_ETAPA10 -->
<g id="node11" class="node">
<title>INTERCOMPANY_ARG_ETAPA10</title>
<path fill="#eaf7ef" stroke="#146c43" stroke-width="2" d="M669.88,-48.66C669.88,-48.66 371.38,-48.66 371.38,-48.66 365.38,-48.66 359.38,-42.66 359.38,-36.66 359.38,-36.66 359.38,-12 359.38,-12 359.38,-6 365.38,0 371.38,0 371.38,0 669.88,0 669.88,0 675.88,0 681.88,-6 681.88,-12 681.88,-12 681.88,-36.66 681.88,-36.66 681.88,-42.66 675.88,-48.66 669.88,-48.66"/>
<text xml:space="preserve" text-anchor="middle" x="520.62" y="-27.18" font-family="Arial" font-size="12.00" fill="#146c43">10. Entrega do produto</text>
<text xml:space="preserve" text-anchor="middle" x="520.62" y="-12.93" font-family="Arial" font-size="12.00" fill="#146c43">Saída: Pedido, Produção, Fatura e Entrega Realizada</text>
</g>
<!-- INTERCOMPANY_ARG_ETAPA9&#45;&gt;INTERCOMPANY_ARG_ETAPA10 -->
<g id="edge10" class="edge">
<title>INTERCOMPANY_ARG_ETAPA9&#45;&gt;INTERCOMPANY_ARG_ETAPA10</title>
<path fill="none" stroke="#6c757d" stroke-width="1.8" d="M520.62,-113.33C520.62,-113.33 520.62,-61.06 520.62,-61.06"/>
<polygon fill="#6c757d" stroke="#6c757d" stroke-width="1.8" points="523.78,-61.06 520.63,-52.06 517.48,-61.06 523.78,-61.06"/>
</g>
</g>
</svg>
