<?xml version="1.0" encoding="UTF-8" standalone="no"?>
<!DOCTYPE svg PUBLIC "-//W3C//DTD SVG 1.1//EN"
 "http://www.w3.org/Graphics/SVG/1.1/DTD/svg11.dtd">
<!-- Generated by graphviz version 14.1.0 (20251206.1807)
 -->
<!-- Title: RFPMoura_DCBT_Litio_REALIZAR_PEDIDO Pages: 1 -->
<svg width="1006pt" height="2022pt"
 viewBox="14.00 14.00 991.00 2008.00" xmlns="http://www.w3.org/2000/svg" xmlns:xlink="http://www.w3.org/1999/xlink">
<g id="graph0" class="graph" transform="scale(1 1) rotate(0) translate(28.8 1993.66)">
<title>RFPMoura_DCBT_Litio_REALIZAR_PEDIDO</title>
<polygon fill="white" stroke="none" points="-14.4,14.4 -14.4,-1979.26 962.46,-1979.26 962.46,14.4 -14.4,14.4"/>
<text xml:space="preserve" text-anchor="middle" x="474.03" y="-1943.76" font-family="Arial" font-size="18.00">AS&#45;IS | Lítio (Reposição e OEM)</text>
<text xml:space="preserve" text-anchor="middle" x="474.03" y="-1922.76" font-family="Arial" font-size="18.00">Realizar Pedido (Cadastro/Execução e Entrega de Pedido)</text>
<!-- start -->
<g id="node1" class="node">
<title>start</title>
<ellipse fill="#2ecc71" stroke="#2ecc71" cx="403.84" cy="-1896.86" rx="7.2" ry="7.2"/>
</g>
<!-- receber_checklist -->
<g id="node9" class="node">
<title>receber_checklist</title>
<path fill="#e7f1ff" stroke="#146c43" stroke-width="1.6" d="M549.81,-1770.61C549.81,-1770.61 257.88,-1770.61 257.88,-1770.61 251.88,-1770.61 245.88,-1764.61 245.88,-1758.61 245.88,-1758.61 245.88,-1724.83 245.88,-1724.83 245.88,-1718.83 251.88,-1712.83 257.88,-1712.83 257.88,-1712.83 549.81,-1712.83 549.81,-1712.83 555.81,-1712.83 561.81,-1718.83 561.81,-1724.83 561.81,-1724.83 561.81,-1758.61 561.81,-1758.61 561.81,-1764.61 555.81,-1770.61 549.81,-1770.61"/>
<text xml:space="preserve" text-anchor="middle" x="403.84" y="-1751.52" font-family="Arial" font-size="11.00">1) Receber Checklist de Pedido/Venda/Cadastro</text>
<text xml:space="preserve" text-anchor="middle" x="403.84" y="-1738.02" font-family="Arial" font-size="11.00">Origem: Unidades RSM</text>
<text xml:space="preserve" text-anchor="middle" x="403.84" y="-1724.52" font-family="Arial" font-size="11.00">Entrada: Checklist de Pedido / Venda / Cadastro do Cliente</text>
</g>
<!-- start&#45;&gt;receber_checklist -->
<g id="edge1" class="edge">
<title>start&#45;&gt;receber_checklist</title>
<path fill="none" stroke="#4a4a4a" d="M403.84,-1889.38C403.84,-1889.38 403.84,-1780.81 403.84,-1780.81"/>
<polygon fill="#4a4a4a" stroke="#4a4a4a" points="406.64,-1780.81 403.84,-1772.81 401.04,-1780.81 406.64,-1780.81"/>
</g>
<!-- end -->
<g id="node2" class="node">
<title>end</title>
<ellipse fill="#e74c3c" stroke="#e74c3c" cx="162.84" cy="-89.39" rx="8.64" ry="8.64"/>
<ellipse fill="none" stroke="#e74c3c" cx="162.84" cy="-89.39" rx="12.64" ry="12.64"/>
</g>
<!-- voltarLitioMindMap -->
<g id="node3" class="node">
<title>voltarLitioMindMap</title>
<g id="a_node3"><a xlink:href="RFPMoura_DCBT_Litio_MindMap.svg" xlink:title="Voltar para o mindmap de Lítio (Reposição e OEM)" target="_self">
<path fill="#eaf7ef" stroke="#146c43" stroke-width="1.6" d="M636.06,-1914.86C636.06,-1914.86 465.62,-1914.86 465.62,-1914.86 459.62,-1914.86 453.62,-1908.86 453.62,-1902.86 453.62,-1902.86 453.62,-1890.86 453.62,-1890.86 453.62,-1884.86 459.62,-1878.86 465.62,-1878.86 465.62,-1878.86 636.06,-1878.86 636.06,-1878.86 642.06,-1878.86 648.06,-1884.86 648.06,-1890.86 648.06,-1890.86 648.06,-1902.86 648.06,-1902.86 648.06,-1908.86 642.06,-1914.86 636.06,-1914.86"/>
<text xml:space="preserve" text-anchor="middle" x="550.84" y="-1893.16" font-family="Arial" font-size="11.00">⬅ Voltar para LÍTIO — Mindmap</text>
</a>
</g>
</g>
<!-- stakeholders -->
<g id="node4" class="node">
<title>stakeholders</title>
<polygon fill="#f8f9fa" stroke="#2b2b2b" points="841.06,-1817.86 604.62,-1817.86 604.62,-1665.58 847.06,-1665.58 847.06,-1811.86 841.06,-1817.86"/>
<polyline fill="none" stroke="#2b2b2b" points="841.06,-1817.86 841.06,-1811.86"/>
<polyline fill="none" stroke="#2b2b2b" points="847.06,-1811.86 841.06,-1811.86"/>
<text xml:space="preserve" text-anchor="middle" x="725.84" y="-1798.77" font-family="Arial" font-size="11.00">Stakeholders / Áreas:</text>
<text xml:space="preserve" text-anchor="middle" x="725.84" y="-1785.27" font-family="Arial" font-size="11.00">• DCBT</text>
<text xml:space="preserve" text-anchor="middle" x="725.84" y="-1771.77" font-family="Arial" font-size="11.00">• Unidades RSM</text>
<text xml:space="preserve" text-anchor="middle" x="725.84" y="-1758.27" font-family="Arial" font-size="11.00">• Atendimento Vendas e Serviços ao Cliente</text>
<text xml:space="preserve" text-anchor="middle" x="725.84" y="-1744.77" font-family="Arial" font-size="11.00">• Centro de Distribuição</text>
<text xml:space="preserve" text-anchor="middle" x="725.84" y="-1731.27" font-family="Arial" font-size="11.00">• Financeiro</text>
<text xml:space="preserve" text-anchor="middle" x="725.84" y="-1717.77" font-family="Arial" font-size="11.00">• DPI</text>
<text xml:space="preserve" text-anchor="middle" x="725.84" y="-1704.27" font-family="Arial" font-size="11.00">• PCP</text>
<text xml:space="preserve" text-anchor="middle" x="725.84" y="-1690.77" font-family="Arial" font-size="11.00">• Faturamento</text>
<text xml:space="preserve" text-anchor="middle" x="725.84" y="-1677.27" font-family="Arial" font-size="11.00">• Transportadora</text>
</g>
<!-- entradas -->
<g id="node5" class="node">
<title>entradas</title>
<polygon fill="#f8f9fa" stroke="#2b2b2b" points="942.06,-1282.24 669.62,-1282.24 669.62,-1237.96 948.06,-1237.96 948.06,-1276.24 942.06,-1282.24"/>
<polyline fill="none" stroke="#2b2b2b" points="942.06,-1282.24 942.06,-1276.24"/>
<polyline fill="none" stroke="#2b2b2b" points="948.06,-1276.24 942.06,-1276.24"/>
<text xml:space="preserve" text-anchor="middle" x="808.84" y="-1263.15" font-family="Arial" font-size="11.00">Entrada de Dados / Informação:</text>
<text xml:space="preserve" text-anchor="middle" x="808.84" y="-1249.65" font-family="Arial" font-size="11.00">• Checklist de Pedido / Venda / Cadastro do Cliente</text>
</g>
<!-- sistemas -->
<g id="node6" class="node">
<title>sistemas</title>
<polygon fill="#f8f9fa" stroke="#2b2b2b" points="476.06,-1149.96 353.62,-1149.96 353.62,-1025.18 482.06,-1025.18 482.06,-1143.96 476.06,-1149.96"/>
<polyline fill="none" stroke="#2b2b2b" points="476.06,-1149.96 476.06,-1143.96"/>
<polyline fill="none" stroke="#2b2b2b" points="482.06,-1143.96 476.06,-1143.96"/>
<text xml:space="preserve" text-anchor="middle" x="417.84" y="-1130.87" font-family="Arial" font-size="11.00">Sistemas Utilizados:</text>
<text xml:space="preserve" text-anchor="middle" x="417.84" y="-1117.37" font-family="Arial" font-size="11.00">• SAP</text>
<text xml:space="preserve" text-anchor="middle" x="417.84" y="-1103.87" font-family="Arial" font-size="11.00">• E&#45;mail</text>
<text xml:space="preserve" text-anchor="middle" x="417.84" y="-1090.37" font-family="Arial" font-size="11.00">• Excel</text>
<text xml:space="preserve" text-anchor="middle" x="417.84" y="-1076.87" font-family="Arial" font-size="11.00">• SDM</text>
<text xml:space="preserve" text-anchor="middle" x="417.84" y="-1050.37" font-family="Arial" font-size="11.00">Frequência:</text>
<text xml:space="preserve" text-anchor="middle" x="417.84" y="-1036.87" font-family="Arial" font-size="11.00">• Sob Demanda</text>
</g>
<!-- oportunidades -->
<g id="node7" class="node">
<title>oportunidades</title>
<polygon fill="#f8f9fa" stroke="#2b2b2b" points="593.81,-421.56 337.88,-421.56 337.88,-336.78 599.81,-336.78 599.81,-415.56 593.81,-421.56"/>
<polyline fill="none" stroke="#2b2b2b" points="593.81,-421.56 593.81,-415.56"/>
<polyline fill="none" stroke="#2b2b2b" points="599.81,-415.56 593.81,-415.56"/>
<text xml:space="preserve" text-anchor="middle" x="468.84" y="-402.47" font-family="Arial" font-size="11.00">Oportunidades:</text>
<text xml:space="preserve" text-anchor="middle" x="468.84" y="-388.97" font-family="Arial" font-size="11.00">• Redução de retrabalho entre as áreas</text>
<text xml:space="preserve" text-anchor="middle" x="468.84" y="-375.47" font-family="Arial" font-size="11.00">• Redução do lead time operacional</text>
<text xml:space="preserve" text-anchor="middle" x="468.84" y="-361.97" font-family="Arial" font-size="11.00">• Centralização e padronização da comunicação</text>
<text xml:space="preserve" text-anchor="middle" x="468.84" y="-348.47" font-family="Arial" font-size="11.00">• Assertividade na Produção</text>
</g>
<!-- produto_salesforce -->
<g id="node8" class="node">
<title>produto_salesforce</title>
<polygon fill="#f8f9fa" stroke="#2b2b2b" points="537.68,-178.78 218,-178.78 218,0 543.68,0 543.68,-172.78 537.68,-178.78"/>
<polyline fill="none" stroke="#2b2b2b" points="537.68,-178.78 537.68,-172.78"/>
<polyline fill="none" stroke="#2b2b2b" points="543.68,-172.78 537.68,-172.78"/>
<text xml:space="preserve" text-anchor="middle" x="380.84" y="-159.69" font-family="Arial" font-size="11.00">Produto Salesforce:</text>
<text xml:space="preserve" text-anchor="middle" x="380.84" y="-146.19" font-family="Arial" font-size="11.00">• Sales Cloud</text>
<text xml:space="preserve" text-anchor="middle" x="380.84" y="-132.69" font-family="Arial" font-size="11.00">• Service Cloud</text>
<text xml:space="preserve" text-anchor="middle" x="380.84" y="-119.19" font-family="Arial" font-size="11.00">• Integração</text>
<text xml:space="preserve" text-anchor="middle" x="380.84" y="-92.69" font-family="Arial" font-size="11.00">Soluções Aplicáveis:</text>
<text xml:space="preserve" text-anchor="middle" x="380.84" y="-79.19" font-family="Arial" font-size="11.00">• Envio e consulta de solicitações de compra</text>
<text xml:space="preserve" text-anchor="middle" x="380.84" y="-65.69" font-family="Arial" font-size="11.00">• Envio para faturamento e recepção das NFs</text>
<text xml:space="preserve" text-anchor="middle" x="380.84" y="-52.19" font-family="Arial" font-size="11.00">• Consulta de modalidades logísticas e condições de entrega</text>
<text xml:space="preserve" text-anchor="middle" x="380.84" y="-38.69" font-family="Arial" font-size="11.00">• Recepção de promoções e condições especiais</text>
<text xml:space="preserve" text-anchor="middle" x="380.84" y="-25.19" font-family="Arial" font-size="11.00">• Consulta de preços conforme regras do ERP</text>
<text xml:space="preserve" text-anchor="middle" x="380.84" y="-11.69" font-family="Arial" font-size="11.00">• Controle de prazos de atendimento e cumprimento de SLAs</text>
</g>
<!-- verificar_completude_checklist -->
<g id="node10" class="node">
<title>verificar_completude_checklist</title>
<path fill="#ffffff" stroke="#2b2b2b" d="M421.18,-1604.58C421.18,-1604.58 200.5,-1604.58 200.5,-1604.58 194.5,-1604.58 188.5,-1598.58 188.5,-1592.58 188.5,-1592.58 188.5,-1531.8 188.5,-1531.8 188.5,-1525.8 194.5,-1519.8 200.5,-1519.8 200.5,-1519.8 421.18,-1519.8 421.18,-1519.8 427.18,-1519.8 433.18,-1525.8 433.18,-1531.8 433.18,-1531.8 433.18,-1592.58 433.18,-1592.58 433.18,-1598.58 427.18,-1604.58 421.18,-1604.58"/>
<text xml:space="preserve" text-anchor="middle" x="310.84" y="-1585.49" font-family="Arial" font-size="11.00">2) Verificar Completude do Checklist</text>
<text xml:space="preserve" text-anchor="middle" x="310.84" y="-1571.99" font-family="Arial" font-size="11.00">Ações:</text>
<text xml:space="preserve" text-anchor="middle" x="310.84" y="-1558.49" font-family="Arial" font-size="11.00">• Conferir dados do cliente</text>
<text xml:space="preserve" text-anchor="middle" x="310.84" y="-1544.99" font-family="Arial" font-size="11.00">• Conferir dados do pedido e itens</text>
<text xml:space="preserve" text-anchor="middle" x="310.84" y="-1531.49" font-family="Arial" font-size="11.00">• Verificar anexos e informações obrigatórias</text>
</g>
<!-- receber_checklist&#45;&gt;verificar_completude_checklist -->
<g id="edge2" class="edge">
<title>receber_checklist&#45;&gt;verificar_completude_checklist</title>
<path fill="none" stroke="#4a4a4a" d="M339.53,-1712.07C339.53,-1712.07 339.53,-1614.5 339.53,-1614.5"/>
<polygon fill="#4a4a4a" stroke="#4a4a4a" points="342.33,-1614.5 339.53,-1606.5 336.73,-1614.5 342.33,-1614.5"/>
</g>
<!-- decisao_checklist_completo -->
<g id="node11" class="node">
<title>decisao_checklist_completo</title>
<polygon fill="#fff1b8" stroke="#2b2b2b" points="310.84,-1458.8 212.41,-1414.52 310.84,-1370.24 409.27,-1414.52 310.84,-1458.8"/>
<text xml:space="preserve" text-anchor="middle" x="310.84" y="-1417.57" font-family="Arial" font-size="11.00">Checklist está</text>
<text xml:space="preserve" text-anchor="middle" x="310.84" y="-1404.07" font-family="Arial" font-size="11.00">completo?</text>
</g>
<!-- verificar_completude_checklist&#45;&gt;decisao_checklist_completo -->
<g id="edge3" class="edge">
<title>verificar_completude_checklist&#45;&gt;decisao_checklist_completo</title>
<path fill="none" stroke="#4a4a4a" d="M310.84,-1519.48C310.84,-1519.48 310.84,-1468.71 310.84,-1468.71"/>
<polygon fill="#4a4a4a" stroke="#4a4a4a" points="313.64,-1468.71 310.84,-1460.71 308.04,-1468.71 313.64,-1468.71"/>
</g>
<!-- solicitar_ajuste_checklist -->
<g id="node12" class="node">
<title>solicitar_ajuste_checklist</title>
<path fill="#fffdf2" stroke="#2b2b2b" d="M614.93,-1302.49C614.93,-1302.49 380.75,-1302.49 380.75,-1302.49 374.75,-1302.49 368.75,-1296.49 368.75,-1290.49 368.75,-1290.49 368.75,-1229.71 368.75,-1229.71 368.75,-1223.71 374.75,-1217.71 380.75,-1217.71 380.75,-1217.71 614.93,-1217.71 614.93,-1217.71 620.93,-1217.71 626.93,-1223.71 626.93,-1229.71 626.93,-1229.71 626.93,-1290.49 626.93,-1290.49 626.93,-1296.49 620.93,-1302.49 614.93,-1302.49"/>
<text xml:space="preserve" text-anchor="middle" x="497.84" y="-1283.4" font-family="Arial" font-size="11.00">Solicitar Ajustes no Checklist</text>
<text xml:space="preserve" text-anchor="middle" x="497.84" y="-1269.9" font-family="Arial" font-size="11.00">Ações:</text>
<text xml:space="preserve" text-anchor="middle" x="497.84" y="-1256.4" font-family="Arial" font-size="11.00">• Devolver checklist para RSM com pendências</text>
<text xml:space="preserve" text-anchor="middle" x="497.84" y="-1242.9" font-family="Arial" font-size="11.00">• Registrar motivos e orientações</text>
<text xml:space="preserve" text-anchor="middle" x="497.84" y="-1229.4" font-family="Arial" font-size="11.00">• Aguardar retorno com informações corrigidas</text>
</g>
<!-- decisao_checklist_completo&#45;&gt;solicitar_ajuste_checklist -->
<g id="edge4" class="edge">
<title>decisao_checklist_completo&#45;&gt;solicitar_ajuste_checklist</title>
<path fill="none" stroke="#4a4a4a" d="M389.01,-1404.86C389.01,-1404.86 389.01,-1312.28 389.01,-1312.28"/>
<polygon fill="#4a4a4a" stroke="#4a4a4a" points="391.81,-1312.28 389.01,-1304.28 386.21,-1312.28 391.81,-1312.28"/>
<text xml:space="preserve" text-anchor="middle" x="380.01" y="-1349.07" font-family="Arial" font-size="10.00">Não</text>
</g>
<!-- verificar_pre_requisitos -->
<g id="node13" class="node">
<title>verificar_pre_requisitos</title>
<path fill="#ffffff" stroke="#2b2b2b" d="M313.68,-1309.24C313.68,-1309.24 12,-1309.24 12,-1309.24 6,-1309.24 0,-1303.24 0,-1297.24 0,-1297.24 0,-1222.96 0,-1222.96 0,-1216.96 6,-1210.96 12,-1210.96 12,-1210.96 313.68,-1210.96 313.68,-1210.96 319.68,-1210.96 325.68,-1216.96 325.68,-1222.96 325.68,-1222.96 325.68,-1297.24 325.68,-1297.24 325.68,-1303.24 319.68,-1309.24 313.68,-1309.24"/>
<text xml:space="preserve" text-anchor="middle" x="162.84" y="-1290.15" font-family="Arial" font-size="11.00">3) Verificar Pré&#45;Requisitos</text>
<text xml:space="preserve" text-anchor="middle" x="162.84" y="-1276.65" font-family="Arial" font-size="11.00">Ações:</text>
<text xml:space="preserve" text-anchor="middle" x="162.84" y="-1263.15" font-family="Arial" font-size="11.00">• Verificar necessidade de Projeto</text>
<text xml:space="preserve" text-anchor="middle" x="162.84" y="-1249.65" font-family="Arial" font-size="11.00">• Verificar necessidade de Cadastro de SKU</text>
<text xml:space="preserve" text-anchor="middle" x="162.84" y="-1236.15" font-family="Arial" font-size="11.00">• Verificar liberação financeira (crédito)</text>
<text xml:space="preserve" text-anchor="middle" x="162.84" y="-1222.65" font-family="Arial" font-size="11.00">• Confirmar atendimento de pré&#45;requisitos para formalizar OV</text>
</g>
<!-- decisao_checklist_completo&#45;&gt;verificar_pre_requisitos -->
<g id="edge6" class="edge">
<title>decisao_checklist_completo&#45;&gt;verificar_pre_requisitos</title>
<path fill="none" stroke="#4a4a4a" d="M269.04,-1388.67C269.04,-1388.67 269.04,-1318.98 269.04,-1318.98"/>
<polygon fill="#4a4a4a" stroke="#4a4a4a" points="271.85,-1318.98 269.05,-1310.98 266.25,-1318.98 271.85,-1318.98"/>
<text xml:space="preserve" text-anchor="middle" x="260.42" y="-1356.33" font-family="Arial" font-size="10.00">Sim</text>
</g>
<!-- solicitar_ajuste_checklist&#45;&gt;receber_checklist -->
<g id="edge5" class="edge">
<title>solicitar_ajuste_checklist&#45;&gt;receber_checklist</title>
<path fill="none" stroke="#4a4a4a" d="M497.49,-1302.84C497.49,-1302.84 497.49,-1702.7 497.49,-1702.7"/>
<polygon fill="#4a4a4a" stroke="#4a4a4a" points="494.69,-1702.7 497.49,-1710.7 500.29,-1702.7 494.69,-1702.7"/>
<text xml:space="preserve" text-anchor="middle" x="439.37" y="-1505.27" font-family="Arial" font-size="10.00">Retorno checklist ajustado</text>
</g>
<!-- criar_OV_SAP -->
<g id="node14" class="node">
<title>criar_OV_SAP</title>
<path fill="#ffffff" stroke="#2b2b2b" d="M298.31,-1123.21C298.31,-1123.21 27.38,-1123.21 27.38,-1123.21 21.38,-1123.21 15.38,-1117.21 15.38,-1111.21 15.38,-1111.21 15.38,-1063.93 15.38,-1063.93 15.38,-1057.93 21.38,-1051.93 27.38,-1051.93 27.38,-1051.93 298.31,-1051.93 298.31,-1051.93 304.31,-1051.93 310.31,-1057.93 310.31,-1063.93 310.31,-1063.93 310.31,-1111.21 310.31,-1111.21 310.31,-1117.21 304.31,-1123.21 298.31,-1123.21"/>
<text xml:space="preserve" text-anchor="middle" x="162.84" y="-1104.12" font-family="Arial" font-size="11.00">4) Cadastrar OV no SAP</text>
<text xml:space="preserve" text-anchor="middle" x="162.84" y="-1090.62" font-family="Arial" font-size="11.00">Ações:</text>
<text xml:space="preserve" text-anchor="middle" x="162.84" y="-1077.12" font-family="Arial" font-size="11.00">• Registrar pedido no SAP</text>
<text xml:space="preserve" text-anchor="middle" x="162.84" y="-1063.62" font-family="Arial" font-size="11.00">• Garantir vínculo com checklist e condições comerciais</text>
</g>
<!-- verificar_pre_requisitos&#45;&gt;criar_OV_SAP -->
<g id="edge7" class="edge">
<title>verificar_pre_requisitos&#45;&gt;criar_OV_SAP</title>
<path fill="none" stroke="#4a4a4a" d="M162.84,-1210.66C162.84,-1210.66 162.84,-1133.1 162.84,-1133.1"/>
<polygon fill="#4a4a4a" stroke="#4a4a4a" points="165.64,-1133.1 162.84,-1125.1 160.04,-1133.1 165.64,-1133.1"/>
</g>
<!-- analise_DPI -->
<g id="node15" class="node">
<title>analise_DPI</title>
<path fill="#ffffff" stroke="#2b2b2b" d="M261.93,-964.18C261.93,-964.18 63.75,-964.18 63.75,-964.18 57.75,-964.18 51.75,-958.18 51.75,-952.18 51.75,-952.18 51.75,-891.4 51.75,-891.4 51.75,-885.4 57.75,-879.4 63.75,-879.4 63.75,-879.4 261.93,-879.4 261.93,-879.4 267.93,-879.4 273.93,-885.4 273.93,-891.4 273.93,-891.4 273.93,-952.18 273.93,-952.18 273.93,-958.18 267.93,-964.18 261.93,-964.18"/>
<text xml:space="preserve" text-anchor="middle" x="162.84" y="-945.09" font-family="Arial" font-size="11.00">5) Análise pelo DPI / PCP</text>
<text xml:space="preserve" text-anchor="middle" x="162.84" y="-931.59" font-family="Arial" font-size="11.00">Ações:</text>
<text xml:space="preserve" text-anchor="middle" x="162.84" y="-918.09" font-family="Arial" font-size="11.00">• Avaliar capacidade produtiva</text>
<text xml:space="preserve" text-anchor="middle" x="162.84" y="-904.59" font-family="Arial" font-size="11.00">• Planejar produção conforme demanda</text>
<text xml:space="preserve" text-anchor="middle" x="162.84" y="-891.09" font-family="Arial" font-size="11.00">• Ajustar datas de entrega</text>
</g>
<!-- criar_OV_SAP&#45;&gt;analise_DPI -->
<g id="edge8" class="edge">
<title>criar_OV_SAP&#45;&gt;analise_DPI</title>
<path fill="none" stroke="#4a4a4a" d="M162.84,-1051.6C162.84,-1051.6 162.84,-973.96 162.84,-973.96"/>
<polygon fill="#4a4a4a" stroke="#4a4a4a" points="165.64,-973.96 162.84,-965.96 160.04,-973.96 165.64,-973.96"/>
</g>
<!-- preparar_transporte -->
<g id="node16" class="node">
<title>preparar_transporte</title>
<path fill="#ffffff" stroke="#2b2b2b" d="M302.81,-818.4C302.81,-818.4 22.88,-818.4 22.88,-818.4 16.88,-818.4 10.88,-812.4 10.88,-806.4 10.88,-806.4 10.88,-759.12 10.88,-759.12 10.88,-753.12 16.88,-747.12 22.88,-747.12 22.88,-747.12 302.81,-747.12 302.81,-747.12 308.81,-747.12 314.81,-753.12 314.81,-759.12 314.81,-759.12 314.81,-806.4 314.81,-806.4 314.81,-812.4 308.81,-818.4 302.81,-818.4"/>
<text xml:space="preserve" text-anchor="middle" x="162.84" y="-799.31" font-family="Arial" font-size="11.00">6) Planejar Transporte e Logística</text>
<text xml:space="preserve" text-anchor="middle" x="162.84" y="-785.81" font-family="Arial" font-size="11.00">Ações:</text>
<text xml:space="preserve" text-anchor="middle" x="162.84" y="-772.31" font-family="Arial" font-size="11.00">• Definir modal e transportadora</text>
<text xml:space="preserve" text-anchor="middle" x="162.84" y="-758.81" font-family="Arial" font-size="11.00">• Programar expedição a partir do Centro de Distribuição</text>
</g>
<!-- analise_DPI&#45;&gt;preparar_transporte -->
<g id="edge9" class="edge">
<title>analise_DPI&#45;&gt;preparar_transporte</title>
<path fill="none" stroke="#4a4a4a" d="M162.84,-878.94C162.84,-878.94 162.84,-828.2 162.84,-828.2"/>
<polygon fill="#4a4a4a" stroke="#4a4a4a" points="165.64,-828.2 162.84,-820.2 160.04,-828.2 165.64,-828.2"/>
</g>
<!-- preparar_fatura -->
<g id="node17" class="node">
<title>preparar_fatura</title>
<path fill="#ffffff" stroke="#2b2b2b" d="M258.18,-686.12C258.18,-686.12 67.5,-686.12 67.5,-686.12 61.5,-686.12 55.5,-680.12 55.5,-674.12 55.5,-674.12 55.5,-626.84 55.5,-626.84 55.5,-620.84 61.5,-614.84 67.5,-614.84 67.5,-614.84 258.18,-614.84 258.18,-614.84 264.18,-614.84 270.18,-620.84 270.18,-626.84 270.18,-626.84 270.18,-674.12 270.18,-674.12 270.18,-680.12 264.18,-686.12 258.18,-686.12"/>
<text xml:space="preserve" text-anchor="middle" x="162.84" y="-667.03" font-family="Arial" font-size="11.00">7) Preparar Processo de Faturamento</text>
<text xml:space="preserve" text-anchor="middle" x="162.84" y="-653.53" font-family="Arial" font-size="11.00">Ações:</text>
<text xml:space="preserve" text-anchor="middle" x="162.84" y="-640.03" font-family="Arial" font-size="11.00">• Conferir dados da OV</text>
<text xml:space="preserve" text-anchor="middle" x="162.84" y="-626.53" font-family="Arial" font-size="11.00">• Preparar emissão da Nota Fiscal</text>
</g>
<!-- preparar_transporte&#45;&gt;preparar_fatura -->
<g id="edge10" class="edge">
<title>preparar_transporte&#45;&gt;preparar_fatura</title>
<path fill="none" stroke="#4a4a4a" d="M162.84,-746.96C162.84,-746.96 162.84,-695.82 162.84,-695.82"/>
<polygon fill="#4a4a4a" stroke="#4a4a4a" points="165.64,-695.82 162.84,-687.82 160.04,-695.82 165.64,-695.82"/>
</g>
<!-- emitir_nf -->
<g id="node18" class="node">
<title>emitir_nf</title>
<path fill="#ffffff" stroke="#2b2b2b" d="M270.93,-553.84C270.93,-553.84 54.75,-553.84 54.75,-553.84 48.75,-553.84 42.75,-547.84 42.75,-541.84 42.75,-541.84 42.75,-494.56 42.75,-494.56 42.75,-488.56 48.75,-482.56 54.75,-482.56 54.75,-482.56 270.93,-482.56 270.93,-482.56 276.93,-482.56 282.93,-488.56 282.93,-494.56 282.93,-494.56 282.93,-541.84 282.93,-541.84 282.93,-547.84 276.93,-553.84 270.93,-553.84"/>
<text xml:space="preserve" text-anchor="middle" x="162.84" y="-534.75" font-family="Arial" font-size="11.00">8) Emitir Nota Fiscal</text>
<text xml:space="preserve" text-anchor="middle" x="162.84" y="-521.25" font-family="Arial" font-size="11.00">Ações:</text>
<text xml:space="preserve" text-anchor="middle" x="162.84" y="-507.75" font-family="Arial" font-size="11.00">• Emitir NF no SAP</text>
<text xml:space="preserve" text-anchor="middle" x="162.84" y="-494.25" font-family="Arial" font-size="11.00">• Disponibilizar documentos para transporte</text>
</g>
<!-- preparar_fatura&#45;&gt;emitir_nf -->
<g id="edge11" class="edge">
<title>preparar_fatura&#45;&gt;emitir_nf</title>
<path fill="none" stroke="#4a4a4a" d="M162.84,-614.68C162.84,-614.68 162.84,-563.54 162.84,-563.54"/>
<polygon fill="#4a4a4a" stroke="#4a4a4a" points="165.64,-563.54 162.84,-555.54 160.04,-563.54 165.64,-563.54"/>
</g>
<!-- entregar_produto -->
<g id="node19" class="node">
<title>entregar_produto</title>
<path fill="#d1e7dd" stroke="#1e7e34" stroke-width="1.8" d="M282.56,-414.81C282.56,-414.81 43.12,-414.81 43.12,-414.81 37.12,-414.81 31.12,-408.81 31.12,-402.81 31.12,-402.81 31.12,-355.53 31.12,-355.53 31.12,-349.53 37.12,-343.53 43.12,-343.53 43.12,-343.53 282.56,-343.53 282.56,-343.53 288.56,-343.53 294.56,-349.53 294.56,-355.53 294.56,-355.53 294.56,-402.81 294.56,-402.81 294.56,-408.81 288.56,-414.81 282.56,-414.81"/>
<text xml:space="preserve" text-anchor="middle" x="162.84" y="-395.72" font-family="Arial" font-size="11.00">9) Entregar Produto e Receber Canhoto</text>
<text xml:space="preserve" text-anchor="middle" x="162.84" y="-382.22" font-family="Arial" font-size="11.00">Saída:</text>
<text xml:space="preserve" text-anchor="middle" x="162.84" y="-368.72" font-family="Arial" font-size="11.00">• Pedido, Produção, Fatura e Entrega Realizada</text>
<text xml:space="preserve" text-anchor="middle" x="162.84" y="-355.22" font-family="Arial" font-size="11.00">• Canhoto recebido e registrado</text>
</g>
<!-- emitir_nf&#45;&gt;entregar_produto -->
<g id="edge12" class="edge">
<title>emitir_nf&#45;&gt;entregar_produto</title>
<path fill="none" stroke="#4a4a4a" d="M162.84,-482.4C162.84,-482.4 162.84,-424.85 162.84,-424.85"/>
<polygon fill="#4a4a4a" stroke="#4a4a4a" points="165.64,-424.85 162.84,-416.85 160.04,-424.85 165.64,-424.85"/>
</g>
<!-- irRetornoBateriaLitio -->
<g id="node20" class="node">
<title>irRetornoBateriaLitio</title>
<g id="a_node20"><a xlink:href="RFPMoura_DCBT_Litio_RETORNO_BATERIA.svg" xlink:title="Abrir fluxo: Retorno de Bateria (Lítio)" target="_self">
<path fill="#fff3e0" stroke="#e65100" stroke-width="1.2" d="M270.56,-275.78C270.56,-275.78 55.12,-275.78 55.12,-275.78 49.12,-275.78 43.12,-269.78 43.12,-263.78 43.12,-263.78 43.12,-251.78 43.12,-251.78 43.12,-245.78 49.12,-239.78 55.12,-239.78 55.12,-239.78 270.56,-239.78 270.56,-239.78 276.56,-239.78 282.56,-245.78 282.56,-251.78 282.56,-251.78 282.56,-263.78 282.56,-263.78 282.56,-269.78 276.56,-275.78 270.56,-275.78"/>
<text xml:space="preserve" text-anchor="middle" x="162.84" y="-254.08" font-family="Arial" font-size="11.00">➡ Ir para RETORNO DE BATERIA (Lítio)</text>
</a>
</g>
</g>
<!-- entregar_produto&#45;&gt;irRetornoBateriaLitio -->
<g id="edge13" class="edge">
<title>entregar_produto&#45;&gt;irRetornoBateriaLitio</title>
<path fill="none" stroke="#4a4a4a" d="M162.84,-342.75C162.84,-342.75 162.84,-285.75 162.84,-285.75"/>
<polygon fill="#4a4a4a" stroke="#4a4a4a" points="165.64,-285.75 162.84,-277.75 160.04,-285.75 165.64,-285.75"/>
</g>
<!-- irRetornoBateriaLitio&#45;&gt;end -->
<g id="edge14" class="edge">
<title>irRetornoBateriaLitio&#45;&gt;end</title>
<path fill="none" stroke="#4a4a4a" d="M162.84,-239.44C162.84,-239.44 162.84,-111.96 162.84,-111.96"/>
<polygon fill="#4a4a4a" stroke="#4a4a4a" points="165.64,-111.96 162.84,-103.96 160.04,-111.96 165.64,-111.96"/>
</g>
</g>
</svg>
