<?xml version="1.0" encoding="UTF-8" standalone="no"?>
<!DOCTYPE svg PUBLIC "-//W3C//DTD SVG 1.1//EN"
 "http://www.w3.org/Graphics/SVG/1.1/DTD/svg11.dtd">
<!-- Generated by graphviz version 14.1.0 (20251206.1807)
 -->
<!-- Title: RFPMoura_DCBT_Reposicao_Chumbo_COMISSAO Pages: 1 -->
<svg width="1487pt" height="2068pt"
 viewBox="14.00 14.00 1473.00 2054.00" xmlns="http://www.w3.org/2000/svg" xmlns:xlink="http://www.w3.org/1999/xlink">
<g id="graph0" class="graph" transform="scale(1 1) rotate(0) translate(28.8 2039.28)">
<title>RFPMoura_DCBT_Reposicao_Chumbo_COMISSAO</title>
<polygon fill="white" stroke="none" points="-14.4,14.4 -14.4,-2024.88 1443.95,-2024.88 1443.95,14.4 -14.4,14.4"/>
<text xml:space="preserve" text-anchor="middle" x="714.78" y="-1989.38" font-family="Arial" font-size="18.00">AS&#45;IS | DCBT — Reposição (Chumbo)</text>
<text xml:space="preserve" text-anchor="middle" x="714.78" y="-1968.38" font-family="Arial" font-size="18.00">Comissão (Análise e Validação de Comissionamento)</text>
<!-- start -->
<g id="node1" class="node">
<title>start</title>
<ellipse fill="#2ecc71" stroke="#2ecc71" cx="341.47" cy="-1942.48" rx="7.2" ry="7.2"/>
</g>
<!-- iniciar_ciclo -->
<g id="node13" class="node">
<title>iniciar_ciclo</title>
<path fill="#e7f1ff" stroke="#0b5ed7" stroke-width="1.6" d="M440.18,-1849.98C440.18,-1849.98 242.75,-1849.98 242.75,-1849.98 236.75,-1849.98 230.75,-1843.98 230.75,-1837.98 230.75,-1837.98 230.75,-1817.7 230.75,-1817.7 230.75,-1811.7 236.75,-1805.7 242.75,-1805.7 242.75,-1805.7 440.18,-1805.7 440.18,-1805.7 446.18,-1805.7 452.18,-1811.7 452.18,-1817.7 452.18,-1817.7 452.18,-1837.98 452.18,-1837.98 452.18,-1843.98 446.18,-1849.98 440.18,-1849.98"/>
<text xml:space="preserve" text-anchor="middle" x="341.47" y="-1830.89" font-family="Arial" font-size="11.00">1) Iniciar Ciclo Mensal de Comissão</text>
<text xml:space="preserve" text-anchor="middle" x="341.47" y="-1817.39" font-family="Arial" font-size="11.00">Atividade Executada: Análise Comissão</text>
</g>
<!-- start&#45;&gt;iniciar_ciclo -->
<g id="edge1" class="edge">
<title>start&#45;&gt;iniciar_ciclo</title>
<path fill="none" stroke="#4a4a4a" d="M341.47,-1934.96C341.47,-1934.96 341.47,-1860.23 341.47,-1860.23"/>
<polygon fill="#4a4a4a" stroke="#4a4a4a" points="344.27,-1860.23 341.47,-1852.23 338.67,-1860.23 344.27,-1860.23"/>
</g>
<!-- end -->
<g id="node2" class="node">
<title>end</title>
<ellipse fill="#e74c3c" stroke="#e74c3c" cx="250.47" cy="-75.89" rx="8.64" ry="8.64"/>
<ellipse fill="none" stroke="#e74c3c" cx="250.47" cy="-75.89" rx="12.64" ry="12.64"/>
</g>
<!-- voltarHub -->
<g id="node3" class="node">
<title>voltarHub</title>
<g id="a_node3"><a xlink:href="RFPMoura_DCBT_Processos_MindMap.svg" xlink:title="↩ HUB (DCBT)" target="_self">
<path fill="#eef6ff" stroke="#1f5fbf" stroke-width="1.2" d="M495.31,-1960.48C495.31,-1960.48 403.62,-1960.48 403.62,-1960.48 397.62,-1960.48 391.62,-1954.48 391.62,-1948.48 391.62,-1948.48 391.62,-1936.48 391.62,-1936.48 391.62,-1930.48 397.62,-1924.48 403.62,-1924.48 403.62,-1924.48 495.31,-1924.48 495.31,-1924.48 501.31,-1924.48 507.31,-1930.48 507.31,-1936.48 507.31,-1936.48 507.31,-1948.48 507.31,-1948.48 507.31,-1954.48 501.31,-1960.48 495.31,-1960.48"/>
<text xml:space="preserve" text-anchor="middle" x="449.47" y="-1938.78" font-family="Arial" font-size="11.00">↩ HUB (DCBT)</text>
</a>
</g>
</g>
<!-- voltarReposicao -->
<g id="node4" class="node">
<title>voltarReposicao</title>
<g id="a_node4"><a xlink:href="RFPMoura_DCBT_Reposicao_MindMap.svg" xlink:title="⬅ Voltar para REPOSIÇÃO (Mindmap)" target="_self">
<path fill="#e7f1ff" stroke="#0b5ed7" stroke-width="1.6" d="M764.81,-1960.48C764.81,-1960.48 562.12,-1960.48 562.12,-1960.48 556.12,-1960.48 550.12,-1954.48 550.12,-1948.48 550.12,-1948.48 550.12,-1936.48 550.12,-1936.48 550.12,-1930.48 556.12,-1924.48 562.12,-1924.48 562.12,-1924.48 764.81,-1924.48 764.81,-1924.48 770.81,-1924.48 776.81,-1930.48 776.81,-1936.48 776.81,-1936.48 776.81,-1948.48 776.81,-1948.48 776.81,-1954.48 770.81,-1960.48 764.81,-1960.48"/>
<text xml:space="preserve" text-anchor="middle" x="663.47" y="-1938.78" font-family="Arial" font-size="11.00">⬅ Voltar para REPOSIÇÃO (Mindmap)</text>
</a>
</g>
</g>
<!-- voltarPedido -->
<g id="node5" class="node">
<title>voltarPedido</title>
<g id="a_node5"><a xlink:href="RFPMoura_DCBT_Reposicao_Chumbo_REALIZAR_PEDIDO.svg" xlink:title="⬅ Voltar para REALIZAR PEDIDO" target="_self">
<path fill="#e7f1ff" stroke="#0b5ed7" stroke-width="1.2" d="M1014.68,-1960.48C1014.68,-1960.48 832.25,-1960.48 832.25,-1960.48 826.25,-1960.48 820.25,-1954.48 820.25,-1948.48 820.25,-1948.48 820.25,-1936.48 820.25,-1936.48 820.25,-1930.48 826.25,-1924.48 832.25,-1924.48 832.25,-1924.48 1014.68,-1924.48 1014.68,-1924.48 1020.68,-1924.48 1026.68,-1930.48 1026.68,-1936.48 1026.68,-1936.48 1026.68,-1948.48 1026.68,-1948.48 1026.68,-1954.48 1020.68,-1960.48 1014.68,-1960.48"/>
<text xml:space="preserve" text-anchor="middle" x="923.47" y="-1938.78" font-family="Arial" font-size="11.00">⬅ Voltar para REALIZAR PEDIDO</text>
</a>
</g>
</g>
<!-- voltarSOP -->
<g id="node6" class="node">
<title>voltarSOP</title>
<g id="a_node6"><a xlink:href="RFPMoura_DCBT_Reposicao_Chumbo_SOP.svg" xlink:title="⬅ Voltar para S&amp;OP" target="_self">
<path fill="#e0f2f1" stroke="#00695c" stroke-width="1.2" d="M1194.8,-1960.48C1194.8,-1960.48 1082.12,-1960.48 1082.12,-1960.48 1076.12,-1960.48 1070.12,-1954.48 1070.12,-1948.48 1070.12,-1948.48 1070.12,-1936.48 1070.12,-1936.48 1070.12,-1930.48 1076.12,-1924.48 1082.12,-1924.48 1082.12,-1924.48 1194.8,-1924.48 1194.8,-1924.48 1200.8,-1924.48 1206.8,-1930.48 1206.8,-1936.48 1206.8,-1936.48 1206.8,-1948.48 1206.8,-1948.48 1206.8,-1954.48 1200.8,-1960.48 1194.8,-1960.48"/>
<text xml:space="preserve" text-anchor="middle" x="1138.46" y="-1938.78" font-family="Arial" font-size="11.00">⬅ Voltar para S&amp;OP</text>
</a>
</g>
</g>
<!-- irPrecificacao -->
<g id="node7" class="node">
<title>irPrecificacao</title>
<g id="a_node7"><a xlink:href="RFPMoura_DCBT_Reposicao_Chumbo_PRECIFICACAO.svg" xlink:title="Abrir fluxo: Precificação (quando disponível)" target="_self">
<path fill="#eef6ff" stroke="#1f5fbf" stroke-width="1.2" d="M1417.55,-1960.48C1417.55,-1960.48 1261.38,-1960.48 1261.38,-1960.48 1255.38,-1960.48 1249.38,-1954.48 1249.38,-1948.48 1249.38,-1948.48 1249.38,-1936.48 1249.38,-1936.48 1249.38,-1930.48 1255.38,-1924.48 1261.38,-1924.48 1261.38,-1924.48 1417.55,-1924.48 1417.55,-1924.48 1423.55,-1924.48 1429.55,-1930.48 1429.55,-1936.48 1429.55,-1936.48 1429.55,-1948.48 1429.55,-1948.48 1429.55,-1954.48 1423.55,-1960.48 1417.55,-1960.48"/>
<text xml:space="preserve" text-anchor="middle" x="1339.46" y="-1938.78" font-family="Arial" font-size="11.00">➡ Próximo: PRECIFICAÇÃO</text>
</a>
</g>
</g>
<!-- stakeholders -->
<g id="node8" class="node">
<title>stakeholders</title>
<polygon fill="#f8f9fa" stroke="#2b2b2b" points="729.93,-1863.48 495,-1863.48 495,-1792.2 735.93,-1792.2 735.93,-1857.48 729.93,-1863.48"/>
<polyline fill="none" stroke="#2b2b2b" points="729.93,-1863.48 729.93,-1857.48"/>
<polyline fill="none" stroke="#2b2b2b" points="735.93,-1857.48 729.93,-1857.48"/>
<text xml:space="preserve" text-anchor="middle" x="615.47" y="-1844.39" font-family="Arial" font-size="11.00">Key Users / Áreas / Stakeholders:</text>
<text xml:space="preserve" text-anchor="middle" x="615.47" y="-1830.89" font-family="Arial" font-size="11.00">• P&amp;R</text>
<text xml:space="preserve" text-anchor="middle" x="615.47" y="-1817.39" font-family="Arial" font-size="11.00">• DCBT</text>
<text xml:space="preserve" text-anchor="middle" x="615.47" y="-1803.89" font-family="Arial" font-size="11.00">• Unidades (validação do comissionamento)</text>
</g>
<!-- entradas -->
<g id="node9" class="node">
<title>entradas</title>
<polygon fill="#f8f9fa" stroke="#2b2b2b" points="693.18,-1731.2 501.75,-1731.2 501.75,-1633.42 699.18,-1633.42 699.18,-1725.2 693.18,-1731.2"/>
<polyline fill="none" stroke="#2b2b2b" points="693.18,-1731.2 693.18,-1725.2"/>
<polyline fill="none" stroke="#2b2b2b" points="699.18,-1725.2 693.18,-1725.2"/>
<text xml:space="preserve" text-anchor="middle" x="600.47" y="-1712.11" font-family="Arial" font-size="11.00">Entrada de Dados / Informação:</text>
<text xml:space="preserve" text-anchor="middle" x="600.47" y="-1698.61" font-family="Arial" font-size="11.00">• Relatório Master de Faturamento</text>
<text xml:space="preserve" text-anchor="middle" x="600.47" y="-1672.11" font-family="Arial" font-size="11.00">Origem típica:</text>
<text xml:space="preserve" text-anchor="middle" x="600.47" y="-1658.61" font-family="Arial" font-size="11.00">• SAP (extração/fechamento)</text>
<text xml:space="preserve" text-anchor="middle" x="600.47" y="-1645.11" font-family="Arial" font-size="11.00">• Envio por P&amp;R (e&#45;mail/arquivo)</text>
</g>
<!-- sistemas -->
<g id="node10" class="node">
<title>sistemas</title>
<polygon fill="#f8f9fa" stroke="#2b2b2b" points="594.68,-981.74 472.25,-981.74 472.25,-816.96 600.68,-816.96 600.68,-975.74 594.68,-981.74"/>
<polyline fill="none" stroke="#2b2b2b" points="594.68,-981.74 594.68,-975.74"/>
<polyline fill="none" stroke="#2b2b2b" points="600.68,-975.74 594.68,-975.74"/>
<text xml:space="preserve" text-anchor="middle" x="536.47" y="-962.65" font-family="Arial" font-size="11.00">Sistemas Utilizados:</text>
<text xml:space="preserve" text-anchor="middle" x="536.47" y="-949.15" font-family="Arial" font-size="11.00">• SAP</text>
<text xml:space="preserve" text-anchor="middle" x="536.47" y="-935.65" font-family="Arial" font-size="11.00">• Excel</text>
<text xml:space="preserve" text-anchor="middle" x="536.47" y="-922.15" font-family="Arial" font-size="11.00">• E&#45;mail</text>
<text xml:space="preserve" text-anchor="middle" x="536.47" y="-908.65" font-family="Arial" font-size="11.00">• Power BI (PBI)</text>
<text xml:space="preserve" text-anchor="middle" x="536.47" y="-882.15" font-family="Arial" font-size="11.00">Frequência:</text>
<text xml:space="preserve" text-anchor="middle" x="536.47" y="-868.65" font-family="Arial" font-size="11.00">• Mensal</text>
<text xml:space="preserve" text-anchor="middle" x="536.47" y="-842.15" font-family="Arial" font-size="11.00">Tempo Médio:</text>
<text xml:space="preserve" text-anchor="middle" x="536.47" y="-828.65" font-family="Arial" font-size="11.00">• N/D</text>
</g>
<!-- oportunidades -->
<g id="node11" class="node">
<title>oportunidades</title>
<polygon fill="#f8f9fa" stroke="#2b2b2b" points="835.43,-606.4 579.5,-606.4 579.5,-521.62 841.43,-521.62 841.43,-600.4 835.43,-606.4"/>
<polyline fill="none" stroke="#2b2b2b" points="835.43,-606.4 835.43,-600.4"/>
<polyline fill="none" stroke="#2b2b2b" points="841.43,-600.4 835.43,-600.4"/>
<text xml:space="preserve" text-anchor="middle" x="710.47" y="-587.31" font-family="Arial" font-size="11.00">Oportunidades:</text>
<text xml:space="preserve" text-anchor="middle" x="710.47" y="-573.81" font-family="Arial" font-size="11.00">• Redução de retrabalho entre as áreas</text>
<text xml:space="preserve" text-anchor="middle" x="710.47" y="-560.31" font-family="Arial" font-size="11.00">• Consistência dos dados</text>
<text xml:space="preserve" text-anchor="middle" x="710.47" y="-546.81" font-family="Arial" font-size="11.00">• Redução do lead time operacional</text>
<text xml:space="preserve" text-anchor="middle" x="710.47" y="-533.31" font-family="Arial" font-size="11.00">• Centralização e padronização da comunicação</text>
</g>
<!-- produto_salesforce -->
<g id="node12" class="node">
<title>produto_salesforce</title>
<polygon fill="#f8f9fa" stroke="#2b2b2b" points="628.81,-151.78 306.12,-151.78 306.12,0 634.81,0 634.81,-145.78 628.81,-151.78"/>
<polyline fill="none" stroke="#2b2b2b" points="628.81,-151.78 628.81,-145.78"/>
<polyline fill="none" stroke="#2b2b2b" points="634.81,-145.78 628.81,-145.78"/>
<text xml:space="preserve" text-anchor="middle" x="470.47" y="-132.69" font-family="Arial" font-size="11.00">Produto Salesforce:</text>
<text xml:space="preserve" text-anchor="middle" x="470.47" y="-119.19" font-family="Arial" font-size="11.00">• Sales Cloud</text>
<text xml:space="preserve" text-anchor="middle" x="470.47" y="-105.69" font-family="Arial" font-size="11.00">• Integração</text>
<text xml:space="preserve" text-anchor="middle" x="470.47" y="-79.19" font-family="Arial" font-size="11.00">Soluções Aplicáveis:</text>
<text xml:space="preserve" text-anchor="middle" x="470.47" y="-65.69" font-family="Arial" font-size="11.00">• KPIs avançados a partir de dados integrados</text>
<text xml:space="preserve" text-anchor="middle" x="470.47" y="-52.19" font-family="Arial" font-size="11.00">• Recepção dos itens do pedido (qtd/valores)</text>
<text xml:space="preserve" text-anchor="middle" x="470.47" y="-38.69" font-family="Arial" font-size="11.00">• Performance e qualidade dos segmentos</text>
<text xml:space="preserve" text-anchor="middle" x="470.47" y="-25.19" font-family="Arial" font-size="11.00">• Visão estratégica do impacto dos dados</text>
<text xml:space="preserve" text-anchor="middle" x="470.47" y="-11.69" font-family="Arial" font-size="11.00">• Visão consolidada: receita, forecast vs realizado, conversões</text>
</g>
<!-- receber_master -->
<g id="node14" class="node">
<title>receber_master</title>
<path fill="#ffffff" stroke="#2b2b2b" d="M446.93,-1724.7C446.93,-1724.7 236,-1724.7 236,-1724.7 230,-1724.7 224,-1718.7 224,-1712.7 224,-1712.7 224,-1651.92 224,-1651.92 224,-1645.92 230,-1639.92 236,-1639.92 236,-1639.92 446.93,-1639.92 446.93,-1639.92 452.93,-1639.92 458.93,-1645.92 458.93,-1651.92 458.93,-1651.92 458.93,-1712.7 458.93,-1712.7 458.93,-1718.7 452.93,-1724.7 446.93,-1724.7"/>
<text xml:space="preserve" text-anchor="middle" x="341.47" y="-1705.61" font-family="Arial" font-size="11.00">2) Receber Master de Faturamento (P&amp;R)</text>
<text xml:space="preserve" text-anchor="middle" x="341.47" y="-1692.11" font-family="Arial" font-size="11.00">Ações:</text>
<text xml:space="preserve" text-anchor="middle" x="341.47" y="-1678.61" font-family="Arial" font-size="11.00">• Receber arquivo/base por e&#45;mail</text>
<text xml:space="preserve" text-anchor="middle" x="341.47" y="-1665.11" font-family="Arial" font-size="11.00">• Confirmar período/competência</text>
<text xml:space="preserve" text-anchor="middle" x="341.47" y="-1651.61" font-family="Arial" font-size="11.00">• Registrar versão e origem</text>
</g>
<!-- iniciar_ciclo&#45;&gt;receber_master -->
<g id="edge2" class="edge">
<title>iniciar_ciclo&#45;&gt;receber_master</title>
<path fill="none" stroke="#4a4a4a" d="M341.47,-1805.1C341.47,-1805.1 341.47,-1734.6 341.47,-1734.6"/>
<polygon fill="#4a4a4a" stroke="#4a4a4a" points="344.27,-1734.6 341.47,-1726.6 338.67,-1734.6 344.27,-1734.6"/>
</g>
<!-- checar_base -->
<g id="node15" class="node">
<title>checar_base</title>
<path fill="#ffffff" stroke="#2b2b2b" d="M352.56,-1572.42C352.56,-1572.42 154.38,-1572.42 154.38,-1572.42 148.38,-1572.42 142.38,-1566.42 142.38,-1560.42 142.38,-1560.42 142.38,-1499.64 142.38,-1499.64 142.38,-1493.64 148.38,-1487.64 154.38,-1487.64 154.38,-1487.64 352.56,-1487.64 352.56,-1487.64 358.56,-1487.64 364.56,-1493.64 364.56,-1499.64 364.56,-1499.64 364.56,-1560.42 364.56,-1560.42 364.56,-1566.42 358.56,-1572.42 352.56,-1572.42"/>
<text xml:space="preserve" text-anchor="middle" x="253.47" y="-1553.33" font-family="Arial" font-size="11.00">3) Conferir Base (sanidade)</text>
<text xml:space="preserve" text-anchor="middle" x="253.47" y="-1539.83" font-family="Arial" font-size="11.00">Ações:</text>
<text xml:space="preserve" text-anchor="middle" x="253.47" y="-1526.33" font-family="Arial" font-size="11.00">• Checar campos obrigatórios</text>
<text xml:space="preserve" text-anchor="middle" x="253.47" y="-1512.83" font-family="Arial" font-size="11.00">• Conferir totais vs referência (SAP)</text>
<text xml:space="preserve" text-anchor="middle" x="253.47" y="-1499.33" font-family="Arial" font-size="11.00">• Identificar inconsistências/duplicidades</text>
</g>
<!-- receber_master&#45;&gt;checar_base -->
<g id="edge3" class="edge">
<title>receber_master&#45;&gt;checar_base</title>
<path fill="none" stroke="#4a4a4a" d="M294.28,-1639.49C294.28,-1639.49 294.28,-1582.31 294.28,-1582.31"/>
<polygon fill="#4a4a4a" stroke="#4a4a4a" points="297.08,-1582.31 294.28,-1574.31 291.48,-1582.31 297.08,-1582.31"/>
</g>
<!-- base_ok -->
<g id="node16" class="node">
<title>base_ok</title>
<polygon fill="#fff1b8" stroke="#2b2b2b" points="253.47,-1426.64 161.78,-1382.36 253.46,-1338.08 345.14,-1382.36 253.47,-1426.64"/>
<text xml:space="preserve" text-anchor="middle" x="253.47" y="-1385.41" font-family="Arial" font-size="11.00">Base está</text>
<text xml:space="preserve" text-anchor="middle" x="253.47" y="-1371.91" font-family="Arial" font-size="11.00">consistente?</text>
</g>
<!-- checar_base&#45;&gt;base_ok -->
<g id="edge4" class="edge">
<title>checar_base&#45;&gt;base_ok</title>
<path fill="none" stroke="#4a4a4a" d="M253.47,-1487.32C253.47,-1487.32 253.47,-1436.55 253.47,-1436.55"/>
<polygon fill="#4a4a4a" stroke="#4a4a4a" points="256.27,-1436.55 253.47,-1428.55 250.67,-1436.55 256.27,-1436.55"/>
</g>
<!-- corrigir_base -->
<g id="node17" class="node">
<title>corrigir_base</title>
<path fill="#fffdf2" stroke="#2b2b2b" d="M500.43,-1277.08C500.43,-1277.08 358.5,-1277.08 358.5,-1277.08 352.5,-1277.08 346.5,-1271.08 346.5,-1265.08 346.5,-1265.08 346.5,-1204.3 346.5,-1204.3 346.5,-1198.3 352.5,-1192.3 358.5,-1192.3 358.5,-1192.3 500.43,-1192.3 500.43,-1192.3 506.43,-1192.3 512.43,-1198.3 512.43,-1204.3 512.43,-1204.3 512.43,-1265.08 512.43,-1265.08 512.43,-1271.08 506.43,-1277.08 500.43,-1277.08"/>
<text xml:space="preserve" text-anchor="middle" x="429.47" y="-1257.99" font-family="Arial" font-size="11.00">Corrigir / Reprocessar Base</text>
<text xml:space="preserve" text-anchor="middle" x="429.47" y="-1244.49" font-family="Arial" font-size="11.00">Ações:</text>
<text xml:space="preserve" text-anchor="middle" x="429.47" y="-1230.99" font-family="Arial" font-size="11.00">• Solicitar ajuste ao P&amp;R</text>
<text xml:space="preserve" text-anchor="middle" x="429.47" y="-1217.49" font-family="Arial" font-size="11.00">• Corrigir regras/extração</text>
<text xml:space="preserve" text-anchor="middle" x="429.47" y="-1203.99" font-family="Arial" font-size="11.00">• Atualizar versão da Master</text>
</g>
<!-- base_ok&#45;&gt;corrigir_base -->
<g id="edge6" class="edge">
<title>base_ok&#45;&gt;corrigir_base</title>
<path fill="none" stroke="#4a4a4a" d="M345.37,-1382C351.63,-1382 355.53,-1382 355.53,-1382 355.53,-1382 355.53,-1286.81 355.53,-1286.81"/>
<polygon fill="#4a4a4a" stroke="#4a4a4a" points="358.33,-1286.81 355.53,-1278.81 352.73,-1286.81 358.33,-1286.81"/>
<text xml:space="preserve" text-anchor="middle" x="364.53" y="-1341.99" font-family="Arial" font-size="10.00">Não</text>
</g>
<!-- filtrar_exclusoes -->
<g id="node18" class="node">
<title>filtrar_exclusoes</title>
<path fill="#ffffff" stroke="#2b2b2b" d="M291.93,-1277.08C291.93,-1277.08 87,-1277.08 87,-1277.08 81,-1277.08 75,-1271.08 75,-1265.08 75,-1265.08 75,-1204.3 75,-1204.3 75,-1198.3 81,-1192.3 87,-1192.3 87,-1192.3 291.93,-1192.3 291.93,-1192.3 297.93,-1192.3 303.93,-1198.3 303.93,-1204.3 303.93,-1204.3 303.93,-1265.08 303.93,-1265.08 303.93,-1271.08 297.93,-1277.08 291.93,-1277.08"/>
<text xml:space="preserve" text-anchor="middle" x="189.47" y="-1257.99" font-family="Arial" font-size="11.00">4) Remover Vendas Não Comissionáveis</text>
<text xml:space="preserve" text-anchor="middle" x="189.47" y="-1244.49" font-family="Arial" font-size="11.00">Ações:</text>
<text xml:space="preserve" text-anchor="middle" x="189.47" y="-1230.99" font-family="Arial" font-size="11.00">• Remover montadoras (OEM)</text>
<text xml:space="preserve" text-anchor="middle" x="189.47" y="-1217.49" font-family="Arial" font-size="11.00">• Remover intercompany</text>
<text xml:space="preserve" text-anchor="middle" x="189.47" y="-1203.99" font-family="Arial" font-size="11.00">• Aplicar regras de exceção</text>
</g>
<!-- base_ok&#45;&gt;filtrar_exclusoes -->
<g id="edge5" class="edge">
<title>base_ok&#45;&gt;filtrar_exclusoes</title>
<path fill="none" stroke="#4a4a4a" d="M232.86,-1347.74C232.86,-1347.74 232.86,-1287.06 232.86,-1287.06"/>
<polygon fill="#4a4a4a" stroke="#4a4a4a" points="235.66,-1287.06 232.86,-1279.06 230.06,-1287.06 235.66,-1287.06"/>
<text xml:space="preserve" text-anchor="middle" x="224.23" y="-1319.9" font-family="Arial" font-size="10.00">Sim</text>
</g>
<!-- corrigir_base&#45;&gt;receber_master -->
<g id="edge7" class="edge">
<title>corrigir_base&#45;&gt;receber_master</title>
<path fill="none" stroke="#4a4a4a" d="M411.74,-1277.2C411.74,-1277.2 411.74,-1629.91 411.74,-1629.91"/>
<polygon fill="#4a4a4a" stroke="#4a4a4a" points="408.94,-1629.91 411.74,-1637.91 414.54,-1629.91 408.94,-1629.91"/>
<text xml:space="preserve" text-anchor="middle" x="392.24" y="-1456.06" font-family="Arial" font-size="10.00">Reenviar</text>
</g>
<!-- exclusoes_ok -->
<g id="node19" class="node">
<title>exclusoes_ok</title>
<polygon fill="#fff1b8" stroke="#2b2b2b" points="286.47,-1131.3 158.04,-1087.02 286.46,-1042.74 414.9,-1087.02 286.47,-1131.3"/>
<text xml:space="preserve" text-anchor="middle" x="286.47" y="-1090.07" font-family="Arial" font-size="11.00">Exclusões aplicadas</text>
<text xml:space="preserve" text-anchor="middle" x="286.47" y="-1076.57" font-family="Arial" font-size="11.00">corretamente?</text>
</g>
<!-- filtrar_exclusoes&#45;&gt;exclusoes_ok -->
<g id="edge8" class="edge">
<title>filtrar_exclusoes&#45;&gt;exclusoes_ok</title>
<path fill="none" stroke="#4a4a4a" d="M230.98,-1191.98C230.98,-1191.98 230.98,-1122.04 230.98,-1122.04"/>
<polygon fill="#4a4a4a" stroke="#4a4a4a" points="233.78,-1122.04 230.98,-1114.04 228.18,-1122.04 233.78,-1122.04"/>
</g>
<!-- ajustar_regras -->
<g id="node20" class="node">
<title>ajustar_regras</title>
<path fill="#fffdf2" stroke="#2b2b2b" d="M174.93,-941.74C174.93,-941.74 12,-941.74 12,-941.74 6,-941.74 0,-935.74 0,-929.74 0,-929.74 0,-868.96 0,-868.96 0,-862.96 6,-856.96 12,-856.96 12,-856.96 174.93,-856.96 174.93,-856.96 180.93,-856.96 186.93,-862.96 186.93,-868.96 186.93,-868.96 186.93,-929.74 186.93,-929.74 186.93,-935.74 180.93,-941.74 174.93,-941.74"/>
<text xml:space="preserve" text-anchor="middle" x="93.47" y="-922.65" font-family="Arial" font-size="11.00">Ajustar Regras de Exclusão</text>
<text xml:space="preserve" text-anchor="middle" x="93.47" y="-909.15" font-family="Arial" font-size="11.00">Ações:</text>
<text xml:space="preserve" text-anchor="middle" x="93.47" y="-895.65" font-family="Arial" font-size="11.00">• Revisar critérios/mapeamentos</text>
<text xml:space="preserve" text-anchor="middle" x="93.47" y="-882.15" font-family="Arial" font-size="11.00">• Ajustar filtros no Excel/PBI</text>
<text xml:space="preserve" text-anchor="middle" x="93.47" y="-868.65" font-family="Arial" font-size="11.00">• Validar com P&amp;R</text>
</g>
<!-- exclusoes_ok&#45;&gt;ajustar_regras -->
<g id="edge10" class="edge">
<title>exclusoes_ok&#45;&gt;ajustar_regras</title>
<path fill="none" stroke="#4a4a4a" d="M172.48,-1081.61C172.48,-1081.61 172.48,-951.51 172.48,-951.51"/>
<polygon fill="#4a4a4a" stroke="#4a4a4a" points="175.28,-951.51 172.48,-943.51 169.68,-951.51 175.28,-951.51"/>
<text xml:space="preserve" text-anchor="middle" x="163.48" y="-1019.06" font-family="Arial" font-size="10.00">Não</text>
</g>
<!-- gerar_base_bi -->
<g id="node21" class="node">
<title>gerar_base_bi</title>
<path fill="#ffffff" stroke="#2b2b2b" d="M416.93,-941.74C416.93,-941.74 242,-941.74 242,-941.74 236,-941.74 230,-935.74 230,-929.74 230,-929.74 230,-868.96 230,-868.96 230,-862.96 236,-856.96 242,-856.96 242,-856.96 416.93,-856.96 416.93,-856.96 422.93,-856.96 428.93,-862.96 428.93,-868.96 428.93,-868.96 428.93,-929.74 428.93,-929.74 428.93,-935.74 422.93,-941.74 416.93,-941.74"/>
<text xml:space="preserve" text-anchor="middle" x="329.47" y="-922.65" font-family="Arial" font-size="11.00">5) Gerar Base de Análise (BI)</text>
<text xml:space="preserve" text-anchor="middle" x="329.47" y="-909.15" font-family="Arial" font-size="11.00">Ações:</text>
<text xml:space="preserve" text-anchor="middle" x="329.47" y="-895.65" font-family="Arial" font-size="11.00">• Consolidar dataset</text>
<text xml:space="preserve" text-anchor="middle" x="329.47" y="-882.15" font-family="Arial" font-size="11.00">• Criar medidas/visões por unidade</text>
<text xml:space="preserve" text-anchor="middle" x="329.47" y="-868.65" font-family="Arial" font-size="11.00">• Publicar/atualizar no Power BI</text>
</g>
<!-- exclusoes_ok&#45;&gt;gerar_base_bi -->
<g id="edge9" class="edge">
<title>exclusoes_ok&#45;&gt;gerar_base_bi</title>
<path fill="none" stroke="#4a4a4a" d="M322.45,-1054.76C322.45,-1054.76 322.45,-951.59 322.45,-951.59"/>
<polygon fill="#4a4a4a" stroke="#4a4a4a" points="325.25,-951.59 322.45,-943.59 319.65,-951.59 325.25,-951.59"/>
<text xml:space="preserve" text-anchor="middle" x="313.82" y="-1005.68" font-family="Arial" font-size="10.00">Sim</text>
</g>
<!-- ajustar_regras&#45;&gt;filtrar_exclusoes -->
<g id="edge11" class="edge">
<title>ajustar_regras&#45;&gt;filtrar_exclusoes</title>
<path fill="none" stroke="#4a4a4a" d="M116.52,-942.16C116.52,-942.16 116.52,-1182.36 116.52,-1182.36"/>
<polygon fill="#4a4a4a" stroke="#4a4a4a" points="113.72,-1182.36 116.52,-1190.36 119.32,-1182.36 113.72,-1182.36"/>
<text xml:space="preserve" text-anchor="middle" x="95.89" y="-1064.76" font-family="Arial" font-size="10.00">Reaplicar</text>
</g>
<!-- validar_bi -->
<g id="node22" class="node">
<title>validar_bi</title>
<polygon fill="#fff1b8" stroke="#2b2b2b" points="329.47,-755.96 216.79,-711.68 329.46,-667.4 442.15,-711.68 329.47,-755.96"/>
<text xml:space="preserve" text-anchor="middle" x="329.47" y="-714.73" font-family="Arial" font-size="11.00">Base BI validada</text>
<text xml:space="preserve" text-anchor="middle" x="329.47" y="-701.23" font-family="Arial" font-size="11.00">(totais/recortes)?</text>
</g>
<!-- gerar_base_bi&#45;&gt;validar_bi -->
<g id="edge12" class="edge">
<title>gerar_base_bi&#45;&gt;validar_bi</title>
<path fill="none" stroke="#4a4a4a" d="M329.47,-856.76C329.47,-856.76 329.47,-765.9 329.47,-765.9"/>
<polygon fill="#4a4a4a" stroke="#4a4a4a" points="332.27,-765.9 329.47,-757.9 326.67,-765.9 332.27,-765.9"/>
</g>
<!-- ajustar_bi -->
<g id="node23" class="node">
<title>ajustar_bi</title>
<path fill="#fffdf2" stroke="#2b2b2b" d="M198.18,-606.4C198.18,-606.4 36.75,-606.4 36.75,-606.4 30.75,-606.4 24.75,-600.4 24.75,-594.4 24.75,-594.4 24.75,-533.62 24.75,-533.62 24.75,-527.62 30.75,-521.62 36.75,-521.62 36.75,-521.62 198.18,-521.62 198.18,-521.62 204.18,-521.62 210.18,-527.62 210.18,-533.62 210.18,-533.62 210.18,-594.4 210.18,-594.4 210.18,-600.4 204.18,-606.4 198.18,-606.4"/>
<text xml:space="preserve" text-anchor="middle" x="117.47" y="-587.31" font-family="Arial" font-size="11.00">Ajustar Base BI</text>
<text xml:space="preserve" text-anchor="middle" x="117.47" y="-573.81" font-family="Arial" font-size="11.00">Ações:</text>
<text xml:space="preserve" text-anchor="middle" x="117.47" y="-560.31" font-family="Arial" font-size="11.00">• Corrigir transformações</text>
<text xml:space="preserve" text-anchor="middle" x="117.47" y="-546.81" font-family="Arial" font-size="11.00">• Ajustar segmentação/unidades</text>
<text xml:space="preserve" text-anchor="middle" x="117.47" y="-533.31" font-family="Arial" font-size="11.00">• Republicar dataset</text>
</g>
<!-- validar_bi&#45;&gt;ajustar_bi -->
<g id="edge14" class="edge">
<title>validar_bi&#45;&gt;ajustar_bi</title>
<path fill="none" stroke="#4a4a4a" d="M216.51,-712C207.87,-712 202.43,-712 202.43,-712 202.43,-712 202.43,-616.33 202.43,-616.33"/>
<polygon fill="#4a4a4a" stroke="#4a4a4a" points="205.23,-616.33 202.43,-608.33 199.63,-616.33 205.23,-616.33"/>
<text xml:space="preserve" text-anchor="middle" x="193.43" y="-673.7" font-family="Arial" font-size="10.00">Não</text>
</g>
<!-- disponibilizar_unidades -->
<g id="node24" class="node">
<title>disponibilizar_unidades</title>
<path fill="#ffffff" stroke="#2b2b2b" d="M423.31,-606.4C423.31,-606.4 265.62,-606.4 265.62,-606.4 259.62,-606.4 253.63,-600.4 253.63,-594.4 253.63,-594.4 253.63,-533.62 253.63,-533.62 253.63,-527.62 259.63,-521.62 265.63,-521.62 265.63,-521.62 423.31,-521.62 423.31,-521.62 429.31,-521.62 435.31,-527.62 435.31,-533.62 435.31,-533.62 435.31,-594.4 435.31,-594.4 435.31,-600.4 429.31,-606.4 423.31,-606.4"/>
<text xml:space="preserve" text-anchor="middle" x="344.47" y="-587.31" font-family="Arial" font-size="11.00">6) Disponibilizar para Unidades</text>
<text xml:space="preserve" text-anchor="middle" x="344.47" y="-573.81" font-family="Arial" font-size="11.00">Ações:</text>
<text xml:space="preserve" text-anchor="middle" x="344.47" y="-560.31" font-family="Arial" font-size="11.00">• Comunicar via e&#45;mail</text>
<text xml:space="preserve" text-anchor="middle" x="344.47" y="-546.81" font-family="Arial" font-size="11.00">• Orientar critérios e prazos</text>
<text xml:space="preserve" text-anchor="middle" x="344.47" y="-533.31" font-family="Arial" font-size="11.00">• Registrar canal de dúvidas</text>
</g>
<!-- validar_bi&#45;&gt;disponibilizar_unidades -->
<g id="edge13" class="edge">
<title>validar_bi&#45;&gt;disponibilizar_unidades</title>
<path fill="none" stroke="#4a4a4a" d="M344.47,-672.88C344.47,-672.88 344.47,-616.22 344.47,-616.22"/>
<polygon fill="#4a4a4a" stroke="#4a4a4a" points="347.27,-616.22 344.47,-608.22 341.67,-616.22 347.27,-616.22"/>
<text xml:space="preserve" text-anchor="middle" x="335.84" y="-647.05" font-family="Arial" font-size="10.00">Sim</text>
</g>
<!-- ajustar_bi&#45;&gt;gerar_base_bi -->
<g id="edge15" class="edge">
<title>ajustar_bi&#45;&gt;gerar_base_bi</title>
<path fill="none" stroke="#4a4a4a" d="M194.68,-606.78C194.68,-697.09 194.68,-899 194.68,-899 194.68,-899 220.23,-899 220.23,-899"/>
<polygon fill="#4a4a4a" stroke="#4a4a4a" points="220.23,-901.8 228.23,-899 220.23,-896.2 220.23,-901.8"/>
<text xml:space="preserve" text-anchor="middle" x="171.43" y="-768.16" font-family="Arial" font-size="10.00">Republicar</text>
</g>
<!-- divergencias -->
<g id="node25" class="node">
<title>divergencias</title>
<polygon fill="#fff1b8" stroke="#2b2b2b" points="317.47,-460.62 185.29,-416.34 317.46,-372.06 449.65,-416.34 317.47,-460.62"/>
<text xml:space="preserve" text-anchor="middle" x="317.47" y="-419.39" font-family="Arial" font-size="11.00">Unidades apontaram</text>
<text xml:space="preserve" text-anchor="middle" x="317.47" y="-405.89" font-family="Arial" font-size="11.00">divergências?</text>
</g>
<!-- disponibilizar_unidades&#45;&gt;divergencias -->
<g id="edge16" class="edge">
<title>disponibilizar_unidades&#45;&gt;divergencias</title>
<path fill="none" stroke="#4a4a4a" d="M344.47,-521.3C344.47,-521.3 344.47,-461.49 344.47,-461.49"/>
<polygon fill="#4a4a4a" stroke="#4a4a4a" points="347.27,-461.49 344.47,-453.49 341.67,-461.49 347.27,-461.49"/>
</g>
<!-- tratar_divergencias -->
<g id="node26" class="node">
<title>tratar_divergencias</title>
<path fill="#fffdf2" stroke="#2b2b2b" d="M609.81,-311.06C609.81,-311.06 419.12,-311.06 419.12,-311.06 413.12,-311.06 407.12,-305.06 407.12,-299.06 407.12,-299.06 407.12,-224.78 407.12,-224.78 407.12,-218.78 413.12,-212.78 419.12,-212.78 419.12,-212.78 609.81,-212.78 609.81,-212.78 615.81,-212.78 621.81,-218.78 621.81,-224.78 621.81,-224.78 621.81,-299.06 621.81,-299.06 621.81,-305.06 615.81,-311.06 609.81,-311.06"/>
<text xml:space="preserve" text-anchor="middle" x="514.47" y="-291.97" font-family="Arial" font-size="11.00">Tratar Divergências</text>
<text xml:space="preserve" text-anchor="middle" x="514.47" y="-278.47" font-family="Arial" font-size="11.00">Ações:</text>
<text xml:space="preserve" text-anchor="middle" x="514.47" y="-264.97" font-family="Arial" font-size="11.00">• Analisar casos</text>
<text xml:space="preserve" text-anchor="middle" x="514.47" y="-251.47" font-family="Arial" font-size="11.00">• Validar com P&amp;R</text>
<text xml:space="preserve" text-anchor="middle" x="514.47" y="-237.97" font-family="Arial" font-size="11.00">• Ajustar regras/base quando aplicável</text>
<text xml:space="preserve" text-anchor="middle" x="514.47" y="-224.47" font-family="Arial" font-size="11.00">• Registrar decisão e evidências</text>
</g>
<!-- divergencias&#45;&gt;tratar_divergencias -->
<g id="edge18" class="edge">
<title>divergencias&#45;&gt;tratar_divergencias</title>
<path fill="none" stroke="#4a4a4a" d="M428.38,-408.89C428.38,-408.89 428.38,-320.88 428.38,-320.88"/>
<polygon fill="#4a4a4a" stroke="#4a4a4a" points="431.19,-320.88 428.39,-312.88 425.59,-320.88 431.19,-320.88"/>
<text xml:space="preserve" text-anchor="middle" x="419.76" y="-355.39" font-family="Arial" font-size="10.00">Sim</text>
</g>
<!-- saida -->
<g id="node27" class="node">
<title>saida</title>
<path fill="#d1e7dd" stroke="#1e7e34" stroke-width="1.8" d="M351.81,-304.31C351.81,-304.31 149.12,-304.31 149.12,-304.31 143.12,-304.31 137.12,-298.31 137.12,-292.31 137.12,-292.31 137.12,-231.53 137.12,-231.53 137.12,-225.53 143.12,-219.53 149.12,-219.53 149.12,-219.53 351.81,-219.53 351.81,-219.53 357.81,-219.53 363.81,-225.53 363.81,-231.53 363.81,-231.53 363.81,-292.31 363.81,-292.31 363.81,-298.31 357.81,-304.31 351.81,-304.31"/>
<text xml:space="preserve" text-anchor="middle" x="250.47" y="-285.22" font-family="Arial" font-size="11.00">✅ Comissionamento das Unidades</text>
<text xml:space="preserve" text-anchor="middle" x="250.47" y="-271.72" font-family="Arial" font-size="11.00">Saída de Dados:</text>
<text xml:space="preserve" text-anchor="middle" x="250.47" y="-258.22" font-family="Arial" font-size="11.00">• Base final validada</text>
<text xml:space="preserve" text-anchor="middle" x="250.47" y="-244.72" font-family="Arial" font-size="11.00">• Visão de comissionamento por unidade</text>
<text xml:space="preserve" text-anchor="middle" x="250.47" y="-231.22" font-family="Arial" font-size="11.00">• Registro/comunicação concluídos</text>
</g>
<!-- divergencias&#45;&gt;saida -->
<g id="edge17" class="edge">
<title>divergencias&#45;&gt;saida</title>
<path fill="none" stroke="#4a4a4a" d="M274.55,-386.2C274.55,-386.2 274.55,-314.65 274.55,-314.65"/>
<polygon fill="#4a4a4a" stroke="#4a4a4a" points="277.35,-314.65 274.55,-306.65 271.75,-314.65 277.35,-314.65"/>
<text xml:space="preserve" text-anchor="middle" x="265.55" y="-352.92" font-family="Arial" font-size="10.00">Não</text>
</g>
<!-- tratar_divergencias&#45;&gt;gerar_base_bi -->
<g id="edge19" class="edge">
<title>tratar_divergencias&#45;&gt;gerar_base_bi</title>
<path fill="none" stroke="#4a4a4a" d="M460.95,-311.38C460.95,-461.07 460.95,-899 460.95,-899 460.95,-899 438.63,-899 438.63,-899"/>
<polygon fill="#4a4a4a" stroke="#4a4a4a" points="438.63,-896.2 430.63,-899 438.63,-901.8 438.63,-896.2"/>
<text xml:space="preserve" text-anchor="middle" x="429.82" y="-618.85" font-family="Arial" font-size="10.00">Atualizar base</text>
</g>
<!-- saida&#45;&gt;end -->
<g id="edge20" class="edge">
<title>saida&#45;&gt;end</title>
<path fill="none" stroke="#4a4a4a" d="M250.47,-218.77C250.47,-218.77 250.47,-98.34 250.47,-98.34"/>
<polygon fill="#4a4a4a" stroke="#4a4a4a" points="253.27,-98.34 250.47,-90.34 247.67,-98.34 253.27,-98.34"/>
</g>
</g>
</svg>
