<?xml version="1.0" encoding="UTF-8" standalone="no"?>
<!DOCTYPE svg PUBLIC "-//W3C//DTD SVG 1.1//EN"
 "http://www.w3.org/Graphics/SVG/1.1/DTD/svg11.dtd">
<!-- Generated by graphviz version 14.1.2 (20260124.0452)
 -->
<!-- Title: RFPMoura_DCBE_Projeto_e_Cadastro_PROJETO Pages: 1 -->
<svg width="484pt" height="619pt"
 viewBox="14.00 14.00 470.00 604.00" xmlns="http://www.w3.org/2000/svg" xmlns:xlink="http://www.w3.org/1999/xlink">
<g id="graph0" class="graph" transform="scale(1 1) rotate(0) translate(28.8 589.8)">
<title>RFPMoura_DCBE_Projeto_e_Cadastro_PROJETO</title>
<polygon fill="white" stroke="none" points="-14.4,14.4 -14.4,-575.4 440.9,-575.4 440.9,14.4 -14.4,14.4"/>
<text xml:space="preserve" text-anchor="middle" x="213.25" y="-539.9" font-family="Arial" font-size="18.00">AS&#45;IS | DCBE — Projeto e Cadastro</text>
<text xml:space="preserve" text-anchor="middle" x="213.25" y="-518.9" font-family="Arial" font-size="18.00">(Elaboração de Projetos Técnicos e SKUs)</text>
<!-- start -->
<g id="node1" class="node">
<title>start</title>
<ellipse fill="#2ecc71" stroke="#2ecc71" cx="157.75" cy="-493" rx="7.2" ry="7.2"/>
</g>
<!-- demanda -->
<g id="node3" class="node">
<title>demanda</title>
<path fill="#eef6ff" stroke="#2b2b2b" d="M223.88,-416.75C223.88,-416.75 91.62,-416.75 91.62,-416.75 85.62,-416.75 79.62,-410.75 79.62,-404.75 79.62,-404.75 79.62,-367.25 79.62,-367.25 79.62,-361.25 85.62,-355.25 91.62,-355.25 91.62,-355.25 223.88,-355.25 223.88,-355.25 229.88,-355.25 235.88,-361.25 235.88,-367.25 235.88,-367.25 235.88,-404.75 235.88,-404.75 235.88,-410.75 229.88,-416.75 223.88,-416.75"/>
<text xml:space="preserve" text-anchor="middle" x="157.75" y="-402.3" font-family="Arial" font-size="11.00">1) Identificar Necessidade</text>
<text xml:space="preserve" text-anchor="middle" x="157.75" y="-388.8" font-family="Arial" font-size="11.00">(Novo Projeto ou Novo SKU)</text>
<text xml:space="preserve" text-anchor="middle" x="157.75" y="-362.3" font-family="Arial" font-size="11.00">Entrada: Chamado SDM</text>
</g>
<!-- start&#45;&gt;demanda -->
<g id="edge1" class="edge">
<title>start&#45;&gt;demanda</title>
<path fill="none" stroke="#4a4a4a" d="M157.75,-485.3C157.75,-485.3 157.75,-426.53 157.75,-426.53"/>
<polygon fill="#4a4a4a" stroke="#4a4a4a" points="160.55,-426.53 157.75,-418.53 154.95,-426.53 160.55,-426.53"/>
</g>
<!-- voltarHub -->
<g id="node2" class="node">
<title>voltarHub</title>
<g id="a_node2"><a xlink:href="RFPMoura_DCBE_Processos_MindMap.svg" xlink:title="↩ Voltar para o HUB" target="_self">
<path fill="#eef6ff" stroke="#1f5fbf" stroke-width="1.6" d="M319.38,-511C319.38,-511 220.12,-511 220.12,-511 214.12,-511 208.12,-505 208.12,-499 208.12,-499 208.12,-487 208.12,-487 208.12,-481 214.12,-475 220.12,-475 220.12,-475 319.38,-475 319.38,-475 325.38,-475 331.38,-481 331.38,-487 331.38,-487 331.38,-499 331.38,-499 331.38,-505 325.38,-511 319.38,-511"/>
<text xml:space="preserve" text-anchor="middle" x="269.75" y="-489.3" font-family="Arial" font-size="11.00">↩ Voltar para o HUB</text>
</a>
</g>
</g>
<!-- elaboracao -->
<g id="node5" class="node">
<title>elaboracao</title>
<path fill="#ffffff" stroke="#2b2b2b" d="M216.38,-297C216.38,-297 99.12,-297 99.12,-297 93.12,-297 87.12,-291 87.12,-285 87.12,-285 87.12,-234 87.12,-234 87.12,-228 93.12,-222 99.12,-222 99.12,-222 216.38,-222 216.38,-222 222.38,-222 228.38,-228 228.38,-234 228.38,-234 228.38,-285 228.38,-285 228.38,-291 222.38,-297 216.38,-297"/>
<text xml:space="preserve" text-anchor="middle" x="157.75" y="-282.55" font-family="Arial" font-size="11.00">2) Elaboração Técnica</text>
<text xml:space="preserve" text-anchor="middle" x="157.75" y="-269.05" font-family="Arial" font-size="11.00">• Criar Projeto Técnico</text>
<text xml:space="preserve" text-anchor="middle" x="157.75" y="-255.55" font-family="Arial" font-size="11.00">• Definir Ficha Técnica</text>
<text xml:space="preserve" text-anchor="middle" x="157.75" y="-229.05" font-family="Arial" font-size="11.00">Ferramentas: Excel / SAP</text>
</g>
<!-- demanda&#45;&gt;elaboracao -->
<g id="edge2" class="edge">
<title>demanda&#45;&gt;elaboracao</title>
<path fill="none" stroke="#4a4a4a" d="M157.75,-355.05C157.75,-355.05 157.75,-306.86 157.75,-306.86"/>
<polygon fill="#4a4a4a" stroke="#4a4a4a" points="160.55,-306.86 157.75,-298.86 154.95,-306.86 160.55,-306.86"/>
</g>
<!-- executores -->
<g id="node4" class="node">
<title>executores</title>
<polygon fill="#f8f9fa" stroke="#2b2b2b" points="354.75,-417 278.75,-417 278.75,-355 360.75,-355 360.75,-411 354.75,-417"/>
<polyline fill="none" stroke="#2b2b2b" points="354.75,-417 354.75,-411"/>
<polyline fill="none" stroke="#2b2b2b" points="360.75,-411 354.75,-411"/>
<text xml:space="preserve" text-anchor="middle" x="319.75" y="-402.55" font-family="Arial" font-size="11.00">Stakeholders:</text>
<text xml:space="preserve" text-anchor="middle" x="319.75" y="-389.05" font-family="Arial" font-size="11.00">• DCBE</text>
<text xml:space="preserve" text-anchor="middle" x="319.75" y="-375.55" font-family="Arial" font-size="11.00">• Engenharia</text>
<text xml:space="preserve" text-anchor="middle" x="319.75" y="-362.05" font-family="Arial" font-size="11.00">• P&amp;R</text>
</g>
<!-- validacao -->
<g id="node6" class="node">
<title>validacao</title>
<polygon fill="#fff1b8" stroke="#2b2b2b" points="232.75,-164 148.5,-129 232.75,-94 317,-129 232.75,-164"/>
<text xml:space="preserve" text-anchor="middle" x="232.75" y="-132.05" font-family="Arial" font-size="11.00">Dados</text>
<text xml:space="preserve" text-anchor="middle" x="232.75" y="-118.55" font-family="Arial" font-size="11.00">Consistentes?</text>
</g>
<!-- elaboracao&#45;&gt;validacao -->
<g id="edge3" class="edge">
<title>elaboracao&#45;&gt;validacao</title>
<path fill="none" stroke="#4a4a4a" d="M188.44,-221.75C188.44,-221.75 188.44,-155.58 188.44,-155.58"/>
<polygon fill="#4a4a4a" stroke="#4a4a4a" points="191.24,-155.58 188.44,-147.58 185.64,-155.58 191.24,-155.58"/>
</g>
<!-- ajuste -->
<g id="node7" class="node">
<title>ajuste</title>
<path fill="#fffdf2" stroke="#2b2b2b" d="M155.5,-36C155.5,-36 12,-36 12,-36 6,-36 0,-30 0,-24 0,-24 0,-12 0,-12 0,-6 6,0 12,0 12,0 155.5,0 155.5,0 161.5,0 167.5,-6 167.5,-12 167.5,-12 167.5,-24 167.5,-24 167.5,-30 161.5,-36 155.5,-36"/>
<text xml:space="preserve" text-anchor="middle" x="83.75" y="-21.05" font-family="Arial" font-size="11.00">Revisar Composição de Custos</text>
<text xml:space="preserve" text-anchor="middle" x="83.75" y="-7.55" font-family="Arial" font-size="11.00">e Estrutura do Produto</text>
</g>
<!-- validacao&#45;&gt;ajuste -->
<g id="edge5" class="edge">
<title>validacao&#45;&gt;ajuste</title>
<path fill="none" stroke="#4a4a4a" d="M158,-124.78C158,-124.78 158,-45.95 158,-45.95"/>
<polygon fill="#4a4a4a" stroke="#4a4a4a" points="160.8,-45.95 158,-37.95 155.2,-45.95 160.8,-45.95"/>
<text xml:space="preserve" text-anchor="middle" x="149" y="-75.87" font-family="Arial" font-size="10.00">Não</text>
</g>
<!-- conclusao -->
<g id="node8" class="node">
<title>conclusao</title>
<g id="a_node8"><a xlink:href="RFPMoura_DCBE_Projeto_e_Cadastro_CADASTROSKU.svg" xlink:title="Ir para Cadastro de SKU" target="_self">
<path fill="#d1e7dd" stroke="#1e7e34" stroke-width="1.8" d="M414.5,-36C414.5,-36 223,-36 223,-36 217,-36 211,-30 211,-24 211,-24 211,-12 211,-12 211,-6 217,0 223,0 223,0 414.5,0 414.5,0 420.5,0 426.5,-6 426.5,-12 426.5,-12 426.5,-24 426.5,-24 426.5,-30 420.5,-36 414.5,-36"/>
<text xml:space="preserve" text-anchor="middle" x="318.75" y="-21.05" font-family="Arial" font-size="11.00">✅ Projeto Técnico Finalizado</text>
<text xml:space="preserve" text-anchor="middle" x="318.75" y="-7.55" font-family="Arial" font-size="11.00">Clique para iniciar: CADASTRO DE SKU</text>
</a>
</g>
</g>
<!-- validacao&#45;&gt;conclusao -->
<g id="edge4" class="edge">
<title>validacao&#45;&gt;conclusao</title>
<path fill="none" stroke="#4a4a4a" d="M264,-106.54C264,-106.54 264,-46.26 264,-46.26"/>
<polygon fill="#4a4a4a" stroke="#4a4a4a" points="266.8,-46.26 264,-38.26 261.2,-46.26 266.8,-46.26"/>
<text xml:space="preserve" text-anchor="middle" x="255.38" y="-78.9" font-family="Arial" font-size="10.00">Sim</text>
</g>
<!-- ajuste&#45;&gt;elaboracao -->
<g id="edge6" class="edge">
<title>ajuste&#45;&gt;elaboracao</title>
<path fill="none" stroke="#4a4a4a" d="M117.81,-36.15C117.81,-36.15 117.81,-212.18 117.81,-212.18"/>
<polygon fill="#4a4a4a" stroke="#4a4a4a" points="115.01,-212.18 117.81,-220.18 120.61,-212.18 115.01,-212.18"/>
<text xml:space="preserve" text-anchor="middle" x="102.06" y="-126.67" font-family="Arial" font-size="10.00">Corrigir</text>
</g>
</g>
</svg>
