<?xml version="1.0" encoding="UTF-8" standalone="no"?>
<!DOCTYPE svg PUBLIC "-//W3C//DTD SVG 1.1//EN"
 "http://www.w3.org/Graphics/SVG/1.1/DTD/svg11.dtd">
<!-- Generated by graphviz version 14.1.2 (20260124.0452)
 -->
<!-- Title: RFPMoura_DCBE_Logistica_Reversa_PAM Pages: 1 -->
<svg width="466pt" height="865pt"
 viewBox="14.00 14.00 451.00 851.00" xmlns="http://www.w3.org/2000/svg" xmlns:xlink="http://www.w3.org/1999/xlink">
<g id="graph0" class="graph" transform="scale(1 1) rotate(0) translate(28.8 836.58)">
<title>RFPMoura_DCBE_Logistica_Reversa_PAM</title>
<polygon fill="white" stroke="none" points="-14.4,14.4 -14.4,-822.18 422.65,-822.18 422.65,14.4 -14.4,14.4"/>
<text xml:space="preserve" text-anchor="middle" x="204.12" y="-786.68" font-family="Arial" font-size="18.00">AS&#45;IS | DCBE — Logística Reversa (PAM)</text>
<text xml:space="preserve" text-anchor="middle" x="204.12" y="-765.68" font-family="Arial" font-size="18.00">(Coleta de Inservíveis e Conformidade Ambiental)</text>
<!-- start -->
<g id="node1" class="node">
<title>start</title>
<ellipse fill="#2ecc71" stroke="#2ecc71" cx="132.38" cy="-739.78" rx="7.2" ry="7.2"/>
</g>
<!-- solicitacao -->
<g id="node4" class="node">
<title>solicitacao</title>
<path fill="#fff3e0" stroke="#2b2b2b" d="M189.5,-655.78C189.5,-655.78 75.25,-655.78 75.25,-655.78 69.25,-655.78 63.25,-649.78 63.25,-643.78 63.25,-643.78 63.25,-606.28 63.25,-606.28 63.25,-600.28 69.25,-594.28 75.25,-594.28 75.25,-594.28 189.5,-594.28 189.5,-594.28 195.5,-594.28 201.5,-600.28 201.5,-606.28 201.5,-606.28 201.5,-643.78 201.5,-643.78 201.5,-649.78 195.5,-655.78 189.5,-655.78"/>
<text xml:space="preserve" text-anchor="middle" x="132.38" y="-641.33" font-family="Arial" font-size="11.00">1) Solicitação de Coleta</text>
<text xml:space="preserve" text-anchor="middle" x="132.38" y="-627.83" font-family="Arial" font-size="11.00">(Material Inservível)</text>
<text xml:space="preserve" text-anchor="middle" x="132.38" y="-601.33" font-family="Arial" font-size="11.00">Entrada: E&#45;mail / Planilha</text>
</g>
<!-- start&#45;&gt;solicitacao -->
<g id="edge1" class="edge">
<title>start&#45;&gt;solicitacao</title>
<path fill="none" stroke="#4a4a4a" d="M132.38,-732.25C132.38,-732.25 132.38,-665.75 132.38,-665.75"/>
<polygon fill="#4a4a4a" stroke="#4a4a4a" points="135.18,-665.75 132.38,-657.75 129.58,-665.75 135.18,-665.75"/>
</g>
<!-- end -->
<g id="node2" class="node">
<title>end</title>
<ellipse fill="#e74c3c" stroke="#e74c3c" cx="132.38" cy="-12.64" rx="8.64" ry="8.64"/>
<ellipse fill="none" stroke="#e74c3c" cx="132.38" cy="-12.64" rx="12.64" ry="12.64"/>
</g>
<!-- voltarHub -->
<g id="node3" class="node">
<title>voltarHub</title>
<g id="a_node3"><a xlink:href="RFPMoura_DCBE_Processos_MindMap.svg" xlink:title="Voltar ao Hub" target="_self">
<path fill="#eef6ff" stroke="#1f5fbf" stroke-width="1.6" d="M294,-757.78C294,-757.78 194.75,-757.78 194.75,-757.78 188.75,-757.78 182.75,-751.78 182.75,-745.78 182.75,-745.78 182.75,-733.78 182.75,-733.78 182.75,-727.78 188.75,-721.78 194.75,-721.78 194.75,-721.78 294,-721.78 294,-721.78 300,-721.78 306,-727.78 306,-733.78 306,-733.78 306,-745.78 306,-745.78 306,-751.78 300,-757.78 294,-757.78"/>
<text xml:space="preserve" text-anchor="middle" x="244.38" y="-736.08" font-family="Arial" font-size="11.00">↩ Voltar para o HUB</text>
</a>
</g>
</g>
<!-- documentacao -->
<g id="node6" class="node">
<title>documentacao</title>
<path fill="#ffffff" stroke="#2b2b2b" d="M201.88,-528.28C201.88,-528.28 62.88,-528.28 62.88,-528.28 56.88,-528.28 50.88,-522.28 50.88,-516.28 50.88,-516.28 50.88,-478.28 50.88,-478.28 50.88,-472.28 56.88,-466.28 62.88,-466.28 62.88,-466.28 201.88,-466.28 201.88,-466.28 207.88,-466.28 213.88,-472.28 213.88,-478.28 213.88,-478.28 213.88,-516.28 213.88,-516.28 213.88,-522.28 207.88,-528.28 201.88,-528.28"/>
<text xml:space="preserve" text-anchor="middle" x="132.38" y="-513.83" font-family="Arial" font-size="11.00">2) Geração de Documentos</text>
<text xml:space="preserve" text-anchor="middle" x="132.38" y="-500.33" font-family="Arial" font-size="11.00">• Preenchimento de Planilha</text>
<text xml:space="preserve" text-anchor="middle" x="132.38" y="-486.83" font-family="Arial" font-size="11.00">• Emissão de NF de Coleta</text>
<text xml:space="preserve" text-anchor="middle" x="132.38" y="-473.33" font-family="Arial" font-size="11.00">• Emissão de MTR (Manifesto)</text>
</g>
<!-- solicitacao&#45;&gt;documentacao -->
<g id="edge2" class="edge">
<title>solicitacao&#45;&gt;documentacao</title>
<path fill="none" stroke="#4a4a4a" d="M132.38,-594.11C132.38,-594.11 132.38,-537.88 132.38,-537.88"/>
<polygon fill="#4a4a4a" stroke="#4a4a4a" points="135.18,-537.88 132.38,-529.88 129.58,-537.88 135.18,-537.88"/>
</g>
<!-- stakeholders -->
<g id="node5" class="node">
<title>stakeholders</title>
<polygon fill="#f8f9fa" stroke="#2b2b2b" points="364.5,-662.78 244.25,-662.78 244.25,-587.28 370.5,-587.28 370.5,-656.78 364.5,-662.78"/>
<polyline fill="none" stroke="#2b2b2b" points="364.5,-662.78 364.5,-656.78"/>
<polyline fill="none" stroke="#2b2b2b" points="370.5,-656.78 364.5,-656.78"/>
<text xml:space="preserve" text-anchor="middle" x="307.38" y="-648.33" font-family="Arial" font-size="11.00">Stakeholders:</text>
<text xml:space="preserve" text-anchor="middle" x="307.38" y="-634.83" font-family="Arial" font-size="11.00">• Gestão de Contratos</text>
<text xml:space="preserve" text-anchor="middle" x="307.38" y="-621.33" font-family="Arial" font-size="11.00">• Logística / Admin</text>
<text xml:space="preserve" text-anchor="middle" x="307.38" y="-607.83" font-family="Arial" font-size="11.00">• ESG / Meio Ambiente</text>
<text xml:space="preserve" text-anchor="middle" x="307.38" y="-594.33" font-family="Arial" font-size="11.00">• Fábrica / Financeiro</text>
</g>
<!-- validacao -->
<g id="node7" class="node">
<title>validacao</title>
<polygon fill="#fff1b8" stroke="#2b2b2b" points="132.38,-396.28 55.63,-361.28 132.37,-326.28 209.12,-361.28 132.38,-396.28"/>
<text xml:space="preserve" text-anchor="middle" x="132.38" y="-364.33" font-family="Arial" font-size="11.00">Documentos</text>
<text xml:space="preserve" text-anchor="middle" x="132.38" y="-350.83" font-family="Arial" font-size="11.00">Aprovados?</text>
</g>
<!-- documentacao&#45;&gt;validacao -->
<g id="edge3" class="edge">
<title>documentacao&#45;&gt;validacao</title>
<path fill="none" stroke="#4a4a4a" d="M157.96,-466.08C157.96,-466.08 157.96,-394.64 157.96,-394.64"/>
<polygon fill="#4a4a4a" stroke="#4a4a4a" points="160.76,-394.64 157.96,-386.64 155.16,-394.64 160.76,-394.64"/>
</g>
<!-- validacao&#45;&gt;documentacao -->
<g id="edge5" class="edge">
<title>validacao&#45;&gt;documentacao</title>
<path fill="none" stroke="#4a4a4a" stroke-dasharray="5,2" d="M106.79,-384.97C106.79,-384.97 106.79,-456.44 106.79,-456.44"/>
<polygon fill="#4a4a4a" stroke="#4a4a4a" points="103.99,-456.44 106.79,-464.44 109.59,-456.44 103.99,-456.44"/>
<text xml:space="preserve" text-anchor="middle" x="182.75" y="-427.78" font-family="Arial" font-size="10.00">Ajustar</text>
</g>
<!-- operacional -->
<g id="node8" class="node">
<title>operacional</title>
<path fill="#ffffff" stroke="#2b2b2b" d="M189.88,-267.28C189.88,-267.28 74.88,-267.28 74.88,-267.28 68.88,-267.28 62.88,-261.28 62.88,-255.28 62.88,-255.28 62.88,-217.28 62.88,-217.28 62.88,-211.28 68.88,-205.28 74.88,-205.28 74.88,-205.28 189.88,-205.28 189.88,-205.28 195.88,-205.28 201.88,-211.28 201.88,-217.28 201.88,-217.28 201.88,-255.28 201.88,-255.28 201.88,-261.28 195.88,-267.28 189.88,-267.28"/>
<text xml:space="preserve" text-anchor="middle" x="132.38" y="-252.83" font-family="Arial" font-size="11.00">3) Execução Logística</text>
<text xml:space="preserve" text-anchor="middle" x="132.38" y="-239.33" font-family="Arial" font-size="11.00">• Agendamento de Coleta</text>
<text xml:space="preserve" text-anchor="middle" x="132.38" y="-225.83" font-family="Arial" font-size="11.00">• Transporte para Fábrica</text>
<text xml:space="preserve" text-anchor="middle" x="132.38" y="-212.33" font-family="Arial" font-size="11.00">• Registro de Entrada</text>
</g>
<!-- validacao&#45;&gt;operacional -->
<g id="edge4" class="edge">
<title>validacao&#45;&gt;operacional</title>
<path fill="none" stroke="#4a4a4a" d="M132.38,-325.79C132.38,-325.79 132.38,-277.11 132.38,-277.11"/>
<polygon fill="#4a4a4a" stroke="#4a4a4a" points="135.18,-277.11 132.38,-269.11 129.58,-277.11 135.18,-277.11"/>
<text xml:space="preserve" text-anchor="middle" x="123.75" y="-303.95" font-family="Arial" font-size="10.00">Sim</text>
</g>
<!-- certificacao -->
<g id="node9" class="node">
<title>certificacao</title>
<path fill="#d1e7dd" stroke="#1e7e34" stroke-width="1.8" d="M215,-146.28C215,-146.28 49.75,-146.28 49.75,-146.28 43.75,-146.28 37.75,-140.28 37.75,-134.28 37.75,-134.28 37.75,-96.28 37.75,-96.28 37.75,-90.28 43.75,-84.28 49.75,-84.28 49.75,-84.28 215,-84.28 215,-84.28 221,-84.28 227,-90.28 227,-96.28 227,-96.28 227,-134.28 227,-134.28 227,-140.28 221,-146.28 215,-146.28"/>
<text xml:space="preserve" text-anchor="middle" x="132.38" y="-131.83" font-family="Arial" font-size="11.00">✅ Encerramento e Rastreabilidade</text>
<text xml:space="preserve" text-anchor="middle" x="132.38" y="-118.33" font-family="Arial" font-size="11.00">• Emissão do CDF (Certificado)</text>
<text xml:space="preserve" text-anchor="middle" x="132.38" y="-104.83" font-family="Arial" font-size="11.00">• Envio ao Cliente</text>
<text xml:space="preserve" text-anchor="middle" x="132.38" y="-91.33" font-family="Arial" font-size="11.00">Saída: CDF Emitido</text>
</g>
<!-- operacional&#45;&gt;certificacao -->
<g id="edge6" class="edge">
<title>operacional&#45;&gt;certificacao</title>
<path fill="none" stroke="#4a4a4a" d="M132.38,-204.8C132.38,-204.8 132.38,-156.53 132.38,-156.53"/>
<polygon fill="#4a4a4a" stroke="#4a4a4a" points="135.18,-156.53 132.38,-148.53 129.58,-156.53 135.18,-156.53"/>
</g>
<!-- certificacao&#45;&gt;end -->
<g id="edge7" class="edge">
<title>certificacao&#45;&gt;end</title>
<path fill="none" stroke="#4a4a4a" d="M132.38,-83.65C132.38,-83.65 132.38,-35.06 132.38,-35.06"/>
<polygon fill="#4a4a4a" stroke="#4a4a4a" points="135.18,-35.06 132.38,-27.06 129.58,-35.06 135.18,-35.06"/>
</g>
</g>
</svg>
