<?xml version="1.0" encoding="UTF-8" standalone="no"?>
<!DOCTYPE svg PUBLIC "-//W3C//DTD SVG 1.1//EN"
 "http://www.w3.org/Graphics/SVG/1.1/DTD/svg11.dtd">
<!-- Generated by graphviz version 14.1.0 (20251206.1807)
 -->
<!-- Title: RFPMoura_DCM_Montadoras_CADASTRO_SKU Pages: 1 -->
<svg width="833pt" height="636pt"
 viewBox="0.00 0.00 833.00 636.00" xmlns="http://www.w3.org/2000/svg" xmlns:xlink="http://www.w3.org/1999/xlink">
<g id="graph0" class="graph" transform="scale(1 1) rotate(0) translate(36 600.3)">
<title>RFPMoura_DCM_Montadoras_CADASTRO_SKU</title>
<polygon fill="white" stroke="none" points="-36,36 -36,-600.3 796.75,-600.3 796.75,36 -36,36"/>
<text xml:space="preserve" text-anchor="middle" x="380.38" y="-537.5" font-family="Arial Bold" font-size="24.00">RFPMoura | DCM — Processo de CADASTRO_SKU (Montadoras)</text>
<!-- CADASTRO_SKU_VOLTAR -->
<g id="node1" class="node">
<title>CADASTRO_SKU_VOLTAR</title>
<g id="a_node1"><a xlink:href="RFPMoura_DCM_Montadoras_MindMap.svg" xlink:title="Voltar ao mindmap Montadoras" target="_self">
<path fill="#ffffff" stroke="#1f5fbf" stroke-width="3" d="M500.75,-529.3C500.75,-529.3 260,-529.3 260,-529.3 254,-529.3 248,-523.3 248,-517.3 248,-517.3 248,-505.3 248,-505.3 248,-499.3 254,-493.3 260,-493.3 260,-493.3 500.75,-493.3 500.75,-493.3 506.75,-493.3 512.75,-499.3 512.75,-505.3 512.75,-505.3 512.75,-517.3 512.75,-517.3 512.75,-523.3 506.75,-529.3 500.75,-529.3"/>
<text xml:space="preserve" text-anchor="middle" x="380.38" y="-507.02" font-family="Arial" font-size="12.00" fill="#1f5fbf">⟵ Voltar para Macroprocesso Montadoras</text>
</a>
</g>
</g>
<!-- CAD_SKU_ETAPA1 -->
<g id="node2" class="node">
<title>CAD_SKU_ETAPA1</title>
<path fill="#e7f1ff" stroke="#0b5ed7" stroke-width="2" d="M479.38,-443.3C479.38,-443.3 281.38,-443.3 281.38,-443.3 275.38,-443.3 269.38,-437.3 269.38,-431.3 269.38,-431.3 269.38,-406.64 269.38,-406.64 269.38,-400.64 275.38,-394.64 281.38,-394.64 281.38,-394.64 479.38,-394.64 479.38,-394.64 485.38,-394.64 491.38,-400.64 491.38,-406.64 491.38,-406.64 491.38,-431.3 491.38,-431.3 491.38,-437.3 485.38,-443.3 479.38,-443.3"/>
<text xml:space="preserve" text-anchor="middle" x="380.38" y="-421.82" font-family="Arial" font-size="12.00" fill="#0b5ed7">1. Receber demanda de novo SKU</text>
<text xml:space="preserve" text-anchor="middle" x="380.38" y="-407.57" font-family="Arial" font-size="12.00" fill="#0b5ed7">(Entrada: Chamado SDM)</text>
</g>
<!-- CADASTRO_SKU_VOLTAR&#45;&gt;CAD_SKU_ETAPA1 -->
<g id="edge1" class="edge">
<title>CADASTRO_SKU_VOLTAR&#45;&gt;CAD_SKU_ETAPA1</title>
<path fill="none" stroke="#6c757d" stroke-width="1.7" d="M380.38,-492.17C380.38,-492.17 380.38,-455.61 380.38,-455.61"/>
<polygon fill="#6c757d" stroke="#6c757d" stroke-width="1.7" points="383.53,-455.61 380.38,-446.61 377.23,-455.61 383.53,-455.61"/>
</g>
<!-- CAD_SKU_ETAPA2 -->
<g id="node3" class="node">
<title>CAD_SKU_ETAPA2</title>
<path fill="#ffffff" stroke="#2b2b2b" d="M548.75,-344.64C548.75,-344.64 212,-344.64 212,-344.64 206,-344.64 200,-338.64 200,-332.64 200,-332.64 200,-307.98 200,-307.98 200,-301.98 206,-295.98 212,-295.98 212,-295.98 548.75,-295.98 548.75,-295.98 554.75,-295.98 560.75,-301.98 560.75,-307.98 560.75,-307.98 560.75,-332.64 560.75,-332.64 560.75,-338.64 554.75,-344.64 548.75,-344.64"/>
<text xml:space="preserve" text-anchor="middle" x="380.38" y="-323.16" font-family="Arial" font-size="12.00">2. Consolidar informações técnicas e de custos</text>
<text xml:space="preserve" text-anchor="middle" x="380.38" y="-308.91" font-family="Arial" font-size="12.00">(DCM, Engenharia, P&amp;R, Central de Cadastros, Compliance)</text>
</g>
<!-- CAD_SKU_ETAPA1&#45;&gt;CAD_SKU_ETAPA2 -->
<g id="edge2" class="edge">
<title>CAD_SKU_ETAPA1&#45;&gt;CAD_SKU_ETAPA2</title>
<path fill="none" stroke="#6c757d" stroke-width="1.7" d="M380.38,-393.82C380.38,-393.82 380.38,-356.65 380.38,-356.65"/>
<polygon fill="#6c757d" stroke="#6c757d" stroke-width="1.7" points="383.53,-356.65 380.38,-347.65 377.23,-356.65 383.53,-356.65"/>
</g>
<!-- CAD_SKU_ETAPA3 -->
<g id="node4" class="node">
<title>CAD_SKU_ETAPA3</title>
<path fill="#ffffff" stroke="#2b2b2b" d="M483.5,-245.98C483.5,-245.98 277.25,-245.98 277.25,-245.98 271.25,-245.98 265.25,-239.98 265.25,-233.98 265.25,-233.98 265.25,-209.32 265.25,-209.32 265.25,-203.32 271.25,-197.32 277.25,-197.32 277.25,-197.32 483.5,-197.32 483.5,-197.32 489.5,-197.32 495.5,-203.32 495.5,-209.32 495.5,-209.32 495.5,-233.98 495.5,-233.98 495.5,-239.98 489.5,-245.98 483.5,-245.98"/>
<text xml:space="preserve" text-anchor="middle" x="380.38" y="-224.5" font-family="Arial" font-size="12.00">3. Registrar dados do novo SKU</text>
<text xml:space="preserve" text-anchor="middle" x="380.38" y="-210.25" font-family="Arial" font-size="12.00">nos artefatos de apoio (SDM / Excel)</text>
</g>
<!-- CAD_SKU_ETAPA2&#45;&gt;CAD_SKU_ETAPA3 -->
<g id="edge3" class="edge">
<title>CAD_SKU_ETAPA2&#45;&gt;CAD_SKU_ETAPA3</title>
<path fill="none" stroke="#6c757d" stroke-width="1.7" d="M380.38,-295.67C380.38,-295.67 380.38,-257.89 380.38,-257.89"/>
<polygon fill="#6c757d" stroke="#6c757d" stroke-width="1.7" points="383.53,-257.89 380.38,-248.89 377.23,-257.89 383.53,-257.89"/>
</g>
<!-- CAD_SKU_ETAPA4 -->
<g id="node5" class="node">
<title>CAD_SKU_ETAPA4</title>
<path fill="#ffffff" stroke="#2b2b2b" d="M490.62,-147.32C490.62,-147.32 270.12,-147.32 270.12,-147.32 264.12,-147.32 258.12,-141.32 258.12,-135.32 258.12,-135.32 258.12,-110.66 258.12,-110.66 258.12,-104.66 264.12,-98.66 270.12,-98.66 270.12,-98.66 490.62,-98.66 490.62,-98.66 496.62,-98.66 502.62,-104.66 502.62,-110.66 502.62,-110.66 502.62,-135.32 502.62,-135.32 502.62,-141.32 496.62,-147.32 490.62,-147.32"/>
<text xml:space="preserve" text-anchor="middle" x="380.38" y="-125.84" font-family="Arial" font-size="12.00">4. Efetivar cadastro do SKU no SAP</text>
<text xml:space="preserve" text-anchor="middle" x="380.38" y="-111.59" font-family="Arial" font-size="12.00">(com base em especificações e custos)</text>
</g>
<!-- CAD_SKU_ETAPA3&#45;&gt;CAD_SKU_ETAPA4 -->
<g id="edge4" class="edge">
<title>CAD_SKU_ETAPA3&#45;&gt;CAD_SKU_ETAPA4</title>
<path fill="none" stroke="#6c757d" stroke-width="1.7" d="M380.38,-197.01C380.38,-197.01 380.38,-159.23 380.38,-159.23"/>
<polygon fill="#6c757d" stroke="#6c757d" stroke-width="1.7" points="383.53,-159.23 380.38,-150.23 377.23,-159.23 383.53,-159.23"/>
</g>
<!-- CAD_SKU_ETAPA5 -->
<g id="node6" class="node">
<title>CAD_SKU_ETAPA5</title>
<path fill="#eaf7ef" stroke="#146c43" stroke-width="2" d="M506,-48.66C506,-48.66 254.75,-48.66 254.75,-48.66 248.75,-48.66 242.75,-42.66 242.75,-36.66 242.75,-36.66 242.75,-12 242.75,-12 242.75,-6 248.75,0 254.75,0 254.75,0 506,0 506,0 512,0 518,-6 518,-12 518,-12 518,-36.66 518,-36.66 518,-42.66 512,-48.66 506,-48.66"/>
<text xml:space="preserve" text-anchor="middle" x="380.38" y="-27.18" font-family="Arial" font-size="12.00" fill="#146c43">5. Disponibilizar SKU para uso em propostas</text>
<text xml:space="preserve" text-anchor="middle" x="380.38" y="-12.93" font-family="Arial" font-size="12.00" fill="#146c43">Saída: SKU Cadastrado (Excel e SAP)</text>
</g>
<!-- CAD_SKU_ETAPA4&#45;&gt;CAD_SKU_ETAPA5 -->
<g id="edge5" class="edge">
<title>CAD_SKU_ETAPA4&#45;&gt;CAD_SKU_ETAPA5</title>
<path fill="none" stroke="#6c757d" stroke-width="1.7" d="M380.38,-98.35C380.38,-98.35 380.38,-60.92 380.38,-60.92"/>
<polygon fill="#6c757d" stroke="#6c757d" stroke-width="1.7" points="383.53,-60.92 380.38,-51.92 377.23,-60.92 383.53,-60.92"/>
</g>
</g>
</svg>
