<?xml version="1.0" encoding="UTF-8" standalone="no"?>
<!DOCTYPE svg PUBLIC "-//W3C//DTD SVG 1.1//EN"
 "http://www.w3.org/Graphics/SVG/1.1/DTD/svg11.dtd">
<!-- Generated by graphviz version 14.1.0 (20251206.1807)
 -->
<!-- Title: RFPMoura_DCBT_Reposicao_Chumbo_CADASTRO_SKU Pages: 1 -->
<svg width="1170pt" height="1631pt"
 viewBox="14.00 14.00 1156.00 1617.00" xmlns="http://www.w3.org/2000/svg" xmlns:xlink="http://www.w3.org/1999/xlink">
<g id="graph0" class="graph" transform="scale(1 1) rotate(0) translate(28.8 1602.38)">
<title>RFPMoura_DCBT_Reposicao_Chumbo_CADASTRO_SKU</title>
<polygon fill="white" stroke="none" points="-14.4,14.4 -14.4,-1587.98 1126.71,-1587.98 1126.71,14.4 -14.4,14.4"/>
<text xml:space="preserve" text-anchor="middle" x="556.15" y="-1552.48" font-family="Arial" font-size="18.00">AS&#45;IS | DCBT — Reposição (Chumbo)</text>
<text xml:space="preserve" text-anchor="middle" x="556.15" y="-1531.48" font-family="Arial" font-size="18.00">Cadastro de SKU</text>
<text xml:space="preserve" text-anchor="middle" x="556.15" y="-1510.48" font-family="Arial" font-size="18.00">(Disponibilização de Dados para Proposta Comercial)</text>
<!-- start -->
<g id="node1" class="node">
<title>start</title>
<ellipse fill="#2ecc71" stroke="#2ecc71" cx="228.84" cy="-1484.58" rx="7.2" ry="7.2"/>
</g>
<!-- receber_sdm -->
<g id="node13" class="node">
<title>receber_sdm</title>
<path fill="#e7f1ff" stroke="#0b5ed7" stroke-width="1.6" d="M336.56,-1391.83C336.56,-1391.83 121.13,-1391.83 121.13,-1391.83 115.13,-1391.83 109.13,-1385.83 109.13,-1379.83 109.13,-1379.83 109.13,-1319.55 109.13,-1319.55 109.13,-1313.55 115.13,-1307.55 121.13,-1307.55 121.13,-1307.55 336.56,-1307.55 336.56,-1307.55 342.56,-1307.55 348.56,-1313.55 348.56,-1319.55 348.56,-1319.55 348.56,-1379.83 348.56,-1379.83 348.56,-1385.83 342.56,-1391.83 336.56,-1391.83"/>
<text xml:space="preserve" text-anchor="middle" x="228.84" y="-1372.74" font-family="Arial" font-size="11.00">1) Receber Chamado de Cadastro de SKU</text>
<text xml:space="preserve" text-anchor="middle" x="228.84" y="-1359.24" font-family="Arial" font-size="11.00">Entrada: Chamado SDM</text>
<text xml:space="preserve" text-anchor="middle" x="228.84" y="-1332.74" font-family="Arial" font-size="11.00">Atividade Executada:</text>
<text xml:space="preserve" text-anchor="middle" x="228.84" y="-1319.24" font-family="Arial" font-size="11.00">Cadastrar Novo SKU</text>
</g>
<!-- start&#45;&gt;receber_sdm -->
<g id="edge1" class="edge">
<title>start&#45;&gt;receber_sdm</title>
<path fill="none" stroke="#4a4a4a" d="M228.84,-1476.94C228.84,-1476.94 228.84,-1402.06 228.84,-1402.06"/>
<polygon fill="#4a4a4a" stroke="#4a4a4a" points="231.64,-1402.06 228.84,-1394.06 226.04,-1402.06 231.64,-1402.06"/>
</g>
<!-- end -->
<g id="node2" class="node">
<title>end</title>
<ellipse fill="#e74c3c" stroke="#e74c3c" cx="568.84" cy="-62.39" rx="8.64" ry="8.64"/>
<ellipse fill="none" stroke="#e74c3c" cx="568.84" cy="-62.39" rx="12.64" ry="12.64"/>
</g>
<!-- voltarHub -->
<g id="node3" class="node">
<title>voltarHub</title>
<g id="a_node3"><a xlink:href="RFPMoura_DCBT_Processos_MindMap.svg" xlink:title="↩ HUB (DCBT)" target="_self">
<path fill="#eef6ff" stroke="#1f5fbf" stroke-width="1.2" d="M382.68,-1502.58C382.68,-1502.58 291,-1502.58 291,-1502.58 285,-1502.58 279,-1496.58 279,-1490.58 279,-1490.58 279,-1478.58 279,-1478.58 279,-1472.58 285,-1466.58 291,-1466.58 291,-1466.58 382.68,-1466.58 382.68,-1466.58 388.68,-1466.58 394.68,-1472.58 394.68,-1478.58 394.68,-1478.58 394.68,-1490.58 394.68,-1490.58 394.68,-1496.58 388.68,-1502.58 382.68,-1502.58"/>
<text xml:space="preserve" text-anchor="middle" x="336.84" y="-1480.88" font-family="Arial" font-size="11.00">↩ HUB (DCBT)</text>
</a>
</g>
</g>
<!-- voltarReposicao -->
<g id="node4" class="node">
<title>voltarReposicao</title>
<g id="a_node4"><a xlink:href="RFPMoura_DCBT_Reposicao_MindMap.svg" xlink:title="⬅ Voltar para REPOSIÇÃO (Mindmap)" target="_self">
<path fill="#e7f1ff" stroke="#0b5ed7" stroke-width="1.6" d="M652.18,-1502.58C652.18,-1502.58 449.5,-1502.58 449.5,-1502.58 443.5,-1502.58 437.5,-1496.58 437.5,-1490.58 437.5,-1490.58 437.5,-1478.58 437.5,-1478.58 437.5,-1472.58 443.5,-1466.58 449.5,-1466.58 449.5,-1466.58 652.18,-1466.58 652.18,-1466.58 658.18,-1466.58 664.18,-1472.58 664.18,-1478.58 664.18,-1478.58 664.18,-1490.58 664.18,-1490.58 664.18,-1496.58 658.18,-1502.58 652.18,-1502.58"/>
<text xml:space="preserve" text-anchor="middle" x="550.84" y="-1480.88" font-family="Arial" font-size="11.00">⬅ Voltar para REPOSIÇÃO (Mindmap)</text>
</a>
</g>
</g>
<!-- voltarProjeto -->
<g id="node5" class="node">
<title>voltarProjeto</title>
<g id="a_node5"><a xlink:href="RFPMoura_DCBT_Reposicao_Chumbo_PROJETO.svg" xlink:title="⬅ Voltar para PROJETO" target="_self">
<path fill="#e7f1ff" stroke="#0b5ed7" stroke-width="1.2" d="M852.68,-1502.58C852.68,-1502.58 719,-1502.58 719,-1502.58 713,-1502.58 707,-1496.58 707,-1490.58 707,-1490.58 707,-1478.58 707,-1478.58 707,-1472.58 713,-1466.58 719,-1466.58 719,-1466.58 852.68,-1466.58 852.68,-1466.58 858.68,-1466.58 864.68,-1472.58 864.68,-1478.58 864.68,-1478.58 864.68,-1490.58 864.68,-1490.58 864.68,-1496.58 858.68,-1502.58 852.68,-1502.58"/>
<text xml:space="preserve" text-anchor="middle" x="785.84" y="-1480.88" font-family="Arial" font-size="11.00">⬅ Voltar para PROJETO</text>
</a>
</g>
</g>
<!-- voltarCriarProposta -->
<g id="node6" class="node">
<title>voltarCriarProposta</title>
<g id="a_node6"><a xlink:href="RFPMoura_DCBT_Reposicao_Chumbo_CRIAR_PROPOSTA.svg" xlink:title="⬅ Voltar para CRIAR PROPOSTA" target="_self">
<path fill="#e7f1ff" stroke="#0b5ed7" stroke-width="1.2" d="M1100.31,-1502.58C1100.31,-1502.58 919.38,-1502.58 919.38,-1502.58 913.38,-1502.58 907.38,-1496.58 907.38,-1490.58 907.38,-1490.58 907.38,-1478.58 907.38,-1478.58 907.38,-1472.58 913.38,-1466.58 919.38,-1466.58 919.38,-1466.58 1100.31,-1466.58 1100.31,-1466.58 1106.31,-1466.58 1112.31,-1472.58 1112.31,-1478.58 1112.31,-1478.58 1112.31,-1490.58 1112.31,-1490.58 1112.31,-1496.58 1106.31,-1502.58 1100.31,-1502.58"/>
<text xml:space="preserve" text-anchor="middle" x="1009.84" y="-1480.88" font-family="Arial" font-size="11.00">⬅ Voltar para CRIAR PROPOSTA</text>
</a>
</g>
</g>
<!-- stakeholders -->
<g id="node7" class="node">
<title>stakeholders</title>
<polygon fill="#f8f9fa" stroke="#2b2b2b" points="637.93,-1405.58 391.75,-1405.58 391.75,-1293.8 643.93,-1293.8 643.93,-1399.58 637.93,-1405.58"/>
<polyline fill="none" stroke="#2b2b2b" points="637.93,-1405.58 637.93,-1399.58"/>
<polyline fill="none" stroke="#2b2b2b" points="643.93,-1399.58 637.93,-1399.58"/>
<text xml:space="preserve" text-anchor="middle" x="517.84" y="-1386.49" font-family="Arial" font-size="11.00">Key Users / Áreas / Stakeholders:</text>
<text xml:space="preserve" text-anchor="middle" x="517.84" y="-1372.99" font-family="Arial" font-size="11.00">• Unidades RSM</text>
<text xml:space="preserve" text-anchor="middle" x="517.84" y="-1359.49" font-family="Arial" font-size="11.00">• Atendimento de Vendas e Serviço ao Cliente</text>
<text xml:space="preserve" text-anchor="middle" x="517.84" y="-1345.99" font-family="Arial" font-size="11.00">• P&amp;R</text>
<text xml:space="preserve" text-anchor="middle" x="517.84" y="-1332.49" font-family="Arial" font-size="11.00">• Engenharia</text>
<text xml:space="preserve" text-anchor="middle" x="517.84" y="-1318.99" font-family="Arial" font-size="11.00">• Central de Cadastro</text>
<text xml:space="preserve" text-anchor="middle" x="517.84" y="-1305.49" font-family="Arial" font-size="11.00">• Controladoria</text>
</g>
<!-- entradas -->
<g id="node8" class="node">
<title>entradas</title>
<polygon fill="#f8f9fa" stroke="#2b2b2b" points="597.56,-1232.8 412.12,-1232.8 412.12,-1121.52 603.56,-1121.52 603.56,-1226.8 597.56,-1232.8"/>
<polyline fill="none" stroke="#2b2b2b" points="597.56,-1232.8 597.56,-1226.8"/>
<polyline fill="none" stroke="#2b2b2b" points="603.56,-1226.8 597.56,-1226.8"/>
<text xml:space="preserve" text-anchor="middle" x="507.84" y="-1213.71" font-family="Arial" font-size="11.00">Entrada de Dados / Informação:</text>
<text xml:space="preserve" text-anchor="middle" x="507.84" y="-1200.21" font-family="Arial" font-size="11.00">• Chamado SDM</text>
<text xml:space="preserve" text-anchor="middle" x="507.84" y="-1173.71" font-family="Arial" font-size="11.00">(Insumos podem incluir:</text>
<text xml:space="preserve" text-anchor="middle" x="507.84" y="-1160.21" font-family="Arial" font-size="11.00">• Projeto/Ficha técnica</text>
<text xml:space="preserve" text-anchor="middle" x="507.84" y="-1146.71" font-family="Arial" font-size="11.00">• Estrutura/composição de custos</text>
<text xml:space="preserve" text-anchor="middle" x="507.84" y="-1133.21" font-family="Arial" font-size="11.00">• Especificações técnicas)</text>
</g>
<!-- sistemas -->
<g id="node9" class="node">
<title>sistemas</title>
<polygon fill="#f8f9fa" stroke="#2b2b2b" points="762.06,-910.96 639.62,-910.96 639.62,-799.68 768.06,-799.68 768.06,-904.96 762.06,-910.96"/>
<polyline fill="none" stroke="#2b2b2b" points="762.06,-910.96 762.06,-904.96"/>
<polyline fill="none" stroke="#2b2b2b" points="768.06,-904.96 762.06,-904.96"/>
<text xml:space="preserve" text-anchor="middle" x="703.84" y="-891.87" font-family="Arial" font-size="11.00">Sistemas Utilizados:</text>
<text xml:space="preserve" text-anchor="middle" x="703.84" y="-878.37" font-family="Arial" font-size="11.00">• SDM</text>
<text xml:space="preserve" text-anchor="middle" x="703.84" y="-864.87" font-family="Arial" font-size="11.00">• SAP</text>
<text xml:space="preserve" text-anchor="middle" x="703.84" y="-851.37" font-family="Arial" font-size="11.00">• Ploomes</text>
<text xml:space="preserve" text-anchor="middle" x="703.84" y="-824.87" font-family="Arial" font-size="11.00">Frequência:</text>
<text xml:space="preserve" text-anchor="middle" x="703.84" y="-811.37" font-family="Arial" font-size="11.00">• Sob demanda</text>
</g>
<!-- sla -->
<g id="node10" class="node">
<title>sla</title>
<polygon fill="#fffdf2" stroke="#2b2b2b" points="999.56,-736.54 784.12,-736.54 784.12,-652.26 1005.56,-652.26 1005.56,-730.54 999.56,-736.54"/>
<polyline fill="none" stroke="#2b2b2b" points="999.56,-736.54 999.56,-730.54"/>
<polyline fill="none" stroke="#2b2b2b" points="1005.56,-730.54 999.56,-730.54"/>
<text xml:space="preserve" text-anchor="middle" x="894.84" y="-717.45" font-family="Arial" font-size="11.00">Tempo Médio (SLA):</text>
<text xml:space="preserve" text-anchor="middle" x="894.84" y="-703.95" font-family="Arial" font-size="11.00">• 5 dias úteis</text>
<text xml:space="preserve" text-anchor="middle" x="894.84" y="-677.45" font-family="Arial" font-size="11.00">Oportunidade:</text>
<text xml:space="preserve" text-anchor="middle" x="894.84" y="-663.95" font-family="Arial" font-size="11.00">• Gestão de SLA e visibilidade de status</text>
</g>
<!-- oportunidades -->
<g id="node11" class="node">
<title>oportunidades</title>
<polygon fill="#f8f9fa" stroke="#2b2b2b" points="980.06,-270.56 707.62,-270.56 707.62,-185.78 986.06,-185.78 986.06,-264.56 980.06,-270.56"/>
<polyline fill="none" stroke="#2b2b2b" points="980.06,-270.56 980.06,-264.56"/>
<polyline fill="none" stroke="#2b2b2b" points="986.06,-264.56 980.06,-264.56"/>
<text xml:space="preserve" text-anchor="middle" x="846.84" y="-251.47" font-family="Arial" font-size="11.00">Oportunidades:</text>
<text xml:space="preserve" text-anchor="middle" x="846.84" y="-237.97" font-family="Arial" font-size="11.00">• Aprimoramento da rastreabilidade das solicitações</text>
<text xml:space="preserve" text-anchor="middle" x="846.84" y="-224.47" font-family="Arial" font-size="11.00">• Maior visibilidade e alinhamento entre áreas</text>
<text xml:space="preserve" text-anchor="middle" x="846.84" y="-210.97" font-family="Arial" font-size="11.00">• Melhoria na experiência de uso</text>
<text xml:space="preserve" text-anchor="middle" x="846.84" y="-197.47" font-family="Arial" font-size="11.00">• Fortalecimento da governança de processos</text>
</g>
<!-- produto_salesforce -->
<g id="node12" class="node">
<title>produto_salesforce</title>
<polygon fill="#f8f9fa" stroke="#2b2b2b" points="949.31,-124.78 624.38,-124.78 624.38,0 955.31,0 955.31,-118.78 949.31,-124.78"/>
<polyline fill="none" stroke="#2b2b2b" points="949.31,-124.78 949.31,-118.78"/>
<polyline fill="none" stroke="#2b2b2b" points="955.31,-118.78 949.31,-118.78"/>
<text xml:space="preserve" text-anchor="middle" x="789.84" y="-105.69" font-family="Arial" font-size="11.00">Produto Salesforce:</text>
<text xml:space="preserve" text-anchor="middle" x="789.84" y="-92.19" font-family="Arial" font-size="11.00">• Service Cloud</text>
<text xml:space="preserve" text-anchor="middle" x="789.84" y="-78.69" font-family="Arial" font-size="11.00">• Integração</text>
<text xml:space="preserve" text-anchor="middle" x="789.84" y="-52.19" font-family="Arial" font-size="11.00">Soluções Aplicáveis:</text>
<text xml:space="preserve" text-anchor="middle" x="789.84" y="-38.69" font-family="Arial" font-size="11.00">• Recepção da composição de custos e estrutura dos produtos</text>
<text xml:space="preserve" text-anchor="middle" x="789.84" y="-25.19" font-family="Arial" font-size="11.00">• Recepção de tabelas de preço e condições comerciais</text>
<text xml:space="preserve" text-anchor="middle" x="789.84" y="-11.69" font-family="Arial" font-size="11.00">• Recepção do catálogo de produtos e códigos</text>
</g>
<!-- triagem -->
<g id="node14" class="node">
<title>triagem</title>
<path fill="#ffffff" stroke="#2b2b2b" d="M356.81,-1219.55C356.81,-1219.55 100.88,-1219.55 100.88,-1219.55 94.88,-1219.55 88.88,-1213.55 88.88,-1207.55 88.88,-1207.55 88.88,-1146.77 88.88,-1146.77 88.88,-1140.77 94.88,-1134.77 100.88,-1134.77 100.88,-1134.77 356.81,-1134.77 356.81,-1134.77 362.81,-1134.77 368.81,-1140.77 368.81,-1146.77 368.81,-1146.77 368.81,-1207.55 368.81,-1207.55 368.81,-1213.55 362.81,-1219.55 356.81,-1219.55"/>
<text xml:space="preserve" text-anchor="middle" x="228.84" y="-1200.46" font-family="Arial" font-size="11.00">2) Triagem da Solicitação</text>
<text xml:space="preserve" text-anchor="middle" x="228.84" y="-1186.96" font-family="Arial" font-size="11.00">Ações:</text>
<text xml:space="preserve" text-anchor="middle" x="228.84" y="-1173.46" font-family="Arial" font-size="11.00">• Confirmar objetivo do cadastro</text>
<text xml:space="preserve" text-anchor="middle" x="228.84" y="-1159.96" font-family="Arial" font-size="11.00">• Identificar solicitante e área</text>
<text xml:space="preserve" text-anchor="middle" x="228.84" y="-1146.46" font-family="Arial" font-size="11.00">• Verificar se há referência de Projeto/Ficha Técnica</text>
</g>
<!-- receber_sdm&#45;&gt;triagem -->
<g id="edge2" class="edge">
<title>receber_sdm&#45;&gt;triagem</title>
<path fill="none" stroke="#4a4a4a" d="M228.84,-1307.04C228.84,-1307.04 228.84,-1229.43 228.84,-1229.43"/>
<polygon fill="#4a4a4a" stroke="#4a4a4a" points="231.64,-1229.43 228.84,-1221.43 226.04,-1229.43 231.64,-1229.43"/>
</g>
<!-- info_completa -->
<g id="node15" class="node">
<title>info_completa</title>
<polygon fill="#fff1b8" stroke="#2b2b2b" points="328.84,-1060.52 194.41,-1016.24 328.84,-971.96 463.27,-1016.24 328.84,-1060.52"/>
<text xml:space="preserve" text-anchor="middle" x="328.84" y="-1019.29" font-family="Arial" font-size="11.00">Informações mínimas</text>
<text xml:space="preserve" text-anchor="middle" x="328.84" y="-1005.79" font-family="Arial" font-size="11.00">estão completas?</text>
</g>
<!-- triagem&#45;&gt;info_completa -->
<g id="edge3" class="edge">
<title>triagem&#45;&gt;info_completa</title>
<path fill="none" stroke="#4a4a4a" d="M281.61,-1134.46C281.61,-1134.46 281.61,-1054.91 281.61,-1054.91"/>
<polygon fill="#4a4a4a" stroke="#4a4a4a" points="284.41,-1054.91 281.61,-1046.91 278.81,-1054.91 284.41,-1054.91"/>
</g>
<!-- complementar_dados -->
<g id="node16" class="node">
<title>complementar_dados</title>
<path fill="#fffdf2" stroke="#2b2b2b" d="M247.68,-897.71C247.68,-897.71 12,-897.71 12,-897.71 6,-897.71 0,-891.71 0,-885.71 0,-885.71 0,-824.93 0,-824.93 0,-818.93 6,-812.93 12,-812.93 12,-812.93 247.68,-812.93 247.68,-812.93 253.68,-812.93 259.68,-818.93 259.68,-824.93 259.68,-824.93 259.68,-885.71 259.68,-885.71 259.68,-891.71 253.68,-897.71 247.68,-897.71"/>
<text xml:space="preserve" text-anchor="middle" x="129.84" y="-878.62" font-family="Arial" font-size="11.00">Complementar Informações</text>
<text xml:space="preserve" text-anchor="middle" x="129.84" y="-865.12" font-family="Arial" font-size="11.00">Ações:</text>
<text xml:space="preserve" text-anchor="middle" x="129.84" y="-851.62" font-family="Arial" font-size="11.00">• Solicitar dados faltantes (técnicos e/ou custos)</text>
<text xml:space="preserve" text-anchor="middle" x="129.84" y="-838.12" font-family="Arial" font-size="11.00">• Registrar anexos/evidências</text>
<text xml:space="preserve" text-anchor="middle" x="129.84" y="-824.62" font-family="Arial" font-size="11.00">• Atualizar chamado SDM</text>
</g>
<!-- info_completa&#45;&gt;complementar_dados -->
<g id="edge5" class="edge">
<title>info_completa&#45;&gt;complementar_dados</title>
<path fill="none" stroke="#4a4a4a" d="M227.05,-1005.18C227.05,-1005.18 227.05,-907.54 227.05,-907.54"/>
<polygon fill="#4a4a4a" stroke="#4a4a4a" points="229.85,-907.54 227.05,-899.54 224.25,-907.54 229.85,-907.54"/>
<text xml:space="preserve" text-anchor="middle" x="218.05" y="-958.86" font-family="Arial" font-size="10.00">Não</text>
</g>
<!-- consolidar_insumos -->
<g id="node17" class="node">
<title>consolidar_insumos</title>
<path fill="#ffffff" stroke="#2b2b2b" d="M584.56,-897.71C584.56,-897.71 315.12,-897.71 315.12,-897.71 309.12,-897.71 303.12,-891.71 303.12,-885.71 303.12,-885.71 303.12,-824.93 303.12,-824.93 303.12,-818.93 309.12,-812.93 315.12,-812.93 315.12,-812.93 584.56,-812.93 584.56,-812.93 590.56,-812.93 596.56,-818.93 596.56,-824.93 596.56,-824.93 596.56,-885.71 596.56,-885.71 596.56,-891.71 590.56,-897.71 584.56,-897.71"/>
<text xml:space="preserve" text-anchor="middle" x="449.84" y="-878.62" font-family="Arial" font-size="11.00">3) Consolidar Insumos do SKU</text>
<text xml:space="preserve" text-anchor="middle" x="449.84" y="-865.12" font-family="Arial" font-size="11.00">Ações:</text>
<text xml:space="preserve" text-anchor="middle" x="449.84" y="-851.62" font-family="Arial" font-size="11.00">• Especificações técnicas (Engenharia/P&amp;R)</text>
<text xml:space="preserve" text-anchor="middle" x="449.84" y="-838.12" font-family="Arial" font-size="11.00">• Estrutura/composição de custos (P&amp;R/Controladoria)</text>
<text xml:space="preserve" text-anchor="middle" x="449.84" y="-824.62" font-family="Arial" font-size="11.00">• Regras/condições aplicáveis (quando necessário)</text>
</g>
<!-- info_completa&#45;&gt;consolidar_insumos -->
<g id="edge4" class="edge">
<title>info_completa&#45;&gt;consolidar_insumos</title>
<path fill="none" stroke="#4a4a4a" d="M383.2,-989.67C383.2,-989.67 383.2,-907.51 383.2,-907.51"/>
<polygon fill="#4a4a4a" stroke="#4a4a4a" points="386,-907.5 383.2,-899.51 380.4,-907.51 386,-907.5"/>
<text xml:space="preserve" text-anchor="middle" x="374.57" y="-951.09" font-family="Arial" font-size="10.00">Sim</text>
</g>
<!-- complementar_dados&#45;&gt;triagem -->
<g id="edge6" class="edge">
<title>complementar_dados&#45;&gt;triagem</title>
<path fill="none" stroke="#4a4a4a" d="M141.64,-898.06C141.64,-898.06 141.64,-1124.99 141.64,-1124.99"/>
<polygon fill="#4a4a4a" stroke="#4a4a4a" points="138.84,-1124.99 141.64,-1132.99 144.44,-1124.99 138.84,-1124.99"/>
<text xml:space="preserve" text-anchor="middle" x="122.52" y="-1014.02" font-family="Arial" font-size="10.00">Atualizar</text>
</g>
<!-- validar_custos_especificacao -->
<g id="node18" class="node">
<title>validar_custos_especificacao</title>
<polygon fill="#fff1b8" stroke="#2b2b2b" points="568.84,-738.68 396.16,-694.4 568.84,-650.12 741.52,-694.4 568.84,-738.68"/>
<text xml:space="preserve" text-anchor="middle" x="568.84" y="-697.45" font-family="Arial" font-size="11.00">Validação técnica e de custos</text>
<text xml:space="preserve" text-anchor="middle" x="568.84" y="-683.95" font-family="Arial" font-size="11.00">aprovada?</text>
</g>
<!-- consolidar_insumos&#45;&gt;validar_custos_especificacao -->
<g id="edge7" class="edge">
<title>consolidar_insumos&#45;&gt;validar_custos_especificacao</title>
<path fill="none" stroke="#4a4a4a" d="M496.36,-812.62C496.36,-812.62 496.36,-729.69 496.36,-729.69"/>
<polygon fill="#4a4a4a" stroke="#4a4a4a" points="499.16,-729.69 496.36,-721.69 493.56,-729.69 499.16,-729.69"/>
</g>
<!-- ajustar_insumos -->
<g id="node19" class="node">
<title>ajustar_insumos</title>
<path fill="#fffdf2" stroke="#2b2b2b" d="M402.18,-582.37C402.18,-582.37 271.5,-582.37 271.5,-582.37 265.5,-582.37 259.5,-576.37 259.5,-570.37 259.5,-570.37 259.5,-509.59 259.5,-509.59 259.5,-503.59 265.5,-497.59 271.5,-497.59 271.5,-497.59 402.18,-497.59 402.18,-497.59 408.18,-497.59 414.18,-503.59 414.18,-509.59 414.18,-509.59 414.18,-570.37 414.18,-570.37 414.18,-576.37 408.18,-582.37 402.18,-582.37"/>
<text xml:space="preserve" text-anchor="middle" x="336.84" y="-563.28" font-family="Arial" font-size="11.00">Ajustar Insumos</text>
<text xml:space="preserve" text-anchor="middle" x="336.84" y="-549.78" font-family="Arial" font-size="11.00">Ações:</text>
<text xml:space="preserve" text-anchor="middle" x="336.84" y="-536.28" font-family="Arial" font-size="11.00">• Corrigir especificações</text>
<text xml:space="preserve" text-anchor="middle" x="336.84" y="-522.78" font-family="Arial" font-size="11.00">• Corrigir custos/estrutura</text>
<text xml:space="preserve" text-anchor="middle" x="336.84" y="-509.28" font-family="Arial" font-size="11.00">• Reenviar para validação</text>
</g>
<!-- validar_custos_especificacao&#45;&gt;ajustar_insumos -->
<g id="edge9" class="edge">
<title>validar_custos_especificacao&#45;&gt;ajustar_insumos</title>
<path fill="none" stroke="#4a4a4a" d="M405.17,-691.72C405.17,-691.72 405.17,-592.1 405.17,-592.1"/>
<polygon fill="#4a4a4a" stroke="#4a4a4a" points="407.97,-592.1 405.17,-584.1 402.37,-592.1 407.97,-592.1"/>
<text xml:space="preserve" text-anchor="middle" x="396.17" y="-632.41" font-family="Arial" font-size="10.00">Não</text>
</g>
<!-- cadastrar_sap -->
<g id="node20" class="node">
<title>cadastrar_sap</title>
<path fill="#ffffff" stroke="#2b2b2b" d="M662.31,-589.12C662.31,-589.12 475.38,-589.12 475.38,-589.12 469.38,-589.12 463.38,-583.12 463.38,-577.12 463.38,-577.12 463.38,-502.84 463.38,-502.84 463.38,-496.84 469.38,-490.84 475.38,-490.84 475.38,-490.84 662.31,-490.84 662.31,-490.84 668.31,-490.84 674.31,-496.84 674.31,-502.84 674.31,-502.84 674.31,-577.12 674.31,-577.12 674.31,-583.12 668.31,-589.12 662.31,-589.12"/>
<text xml:space="preserve" text-anchor="middle" x="568.84" y="-570.03" font-family="Arial" font-size="11.00">4) Executar Cadastro do SKU</text>
<text xml:space="preserve" text-anchor="middle" x="568.84" y="-556.53" font-family="Arial" font-size="11.00">Sistema: SAP</text>
<text xml:space="preserve" text-anchor="middle" x="568.84" y="-543.03" font-family="Arial" font-size="11.00">Ações:</text>
<text xml:space="preserve" text-anchor="middle" x="568.84" y="-529.53" font-family="Arial" font-size="11.00">• Criar/atualizar código do produto</text>
<text xml:space="preserve" text-anchor="middle" x="568.84" y="-516.03" font-family="Arial" font-size="11.00">• Registrar especificações</text>
<text xml:space="preserve" text-anchor="middle" x="568.84" y="-502.53" font-family="Arial" font-size="11.00">• Registrar dados mestre necessários</text>
</g>
<!-- validar_custos_especificacao&#45;&gt;cadastrar_sap -->
<g id="edge8" class="edge">
<title>validar_custos_especificacao&#45;&gt;cadastrar_sap</title>
<path fill="none" stroke="#4a4a4a" d="M568.84,-649.74C568.84,-649.74 568.84,-598.93 568.84,-598.93"/>
<polygon fill="#4a4a4a" stroke="#4a4a4a" points="571.64,-598.93 568.84,-590.93 566.04,-598.93 571.64,-598.93"/>
<text xml:space="preserve" text-anchor="middle" x="560.22" y="-626.83" font-family="Arial" font-size="10.00">Sim</text>
</g>
<!-- ajustar_insumos&#45;&gt;consolidar_insumos -->
<g id="edge10" class="edge">
<title>ajustar_insumos&#45;&gt;consolidar_insumos</title>
<path fill="none" stroke="#4a4a4a" d="M349.64,-582.84C349.64,-582.84 349.64,-803.04 349.64,-803.04"/>
<polygon fill="#4a4a4a" stroke="#4a4a4a" points="346.84,-803.04 349.64,-811.04 352.44,-803.04 346.84,-803.04"/>
<text xml:space="preserve" text-anchor="middle" x="332.77" y="-695.44" font-family="Arial" font-size="10.00">Revisar</text>
</g>
<!-- disponibilizar_ploomes -->
<g id="node21" class="node">
<title>disponibilizar_ploomes</title>
<path fill="#ffffff" stroke="#2b2b2b" d="M684.06,-429.84C684.06,-429.84 453.62,-429.84 453.62,-429.84 447.62,-429.84 441.62,-423.84 441.62,-417.84 441.62,-417.84 441.62,-343.56 441.62,-343.56 441.62,-337.56 447.62,-331.56 453.62,-331.56 453.62,-331.56 684.06,-331.56 684.06,-331.56 690.06,-331.56 696.06,-337.56 696.06,-343.56 696.06,-343.56 696.06,-417.84 696.06,-417.84 696.06,-423.84 690.06,-429.84 684.06,-429.84"/>
<text xml:space="preserve" text-anchor="middle" x="568.84" y="-410.75" font-family="Arial" font-size="11.00">5) Disponibilizar SKU para Proposta</text>
<text xml:space="preserve" text-anchor="middle" x="568.84" y="-397.25" font-family="Arial" font-size="11.00">Sistema: Ploomes</text>
<text xml:space="preserve" text-anchor="middle" x="568.84" y="-383.75" font-family="Arial" font-size="11.00">Ações:</text>
<text xml:space="preserve" text-anchor="middle" x="568.84" y="-370.25" font-family="Arial" font-size="11.00">• Publicar/espelhar SKU e atributos</text>
<text xml:space="preserve" text-anchor="middle" x="568.84" y="-356.75" font-family="Arial" font-size="11.00">• Garantir visibilidade para criação de proposta</text>
<text xml:space="preserve" text-anchor="middle" x="568.84" y="-343.25" font-family="Arial" font-size="11.00">• Atualizar status do chamado (SDM/Ploomes)</text>
</g>
<!-- cadastrar_sap&#45;&gt;disponibilizar_ploomes -->
<g id="edge11" class="edge">
<title>cadastrar_sap&#45;&gt;disponibilizar_ploomes</title>
<path fill="none" stroke="#4a4a4a" d="M568.84,-490.46C568.84,-490.46 568.84,-439.71 568.84,-439.71"/>
<polygon fill="#4a4a4a" stroke="#4a4a4a" points="571.64,-439.71 568.84,-431.71 566.04,-439.71 571.64,-439.71"/>
</g>
<!-- saida -->
<g id="node22" class="node">
<title>saida</title>
<path fill="#d1e7dd" stroke="#1e7e34" stroke-width="1.8" d="M652.93,-270.56C652.93,-270.56 484.75,-270.56 484.75,-270.56 478.75,-270.56 472.75,-264.56 472.75,-258.56 472.75,-258.56 472.75,-197.78 472.75,-197.78 472.75,-191.78 478.75,-185.78 484.75,-185.78 484.75,-185.78 652.93,-185.78 652.93,-185.78 658.93,-185.78 664.93,-191.78 664.93,-197.78 664.93,-197.78 664.93,-258.56 664.93,-258.56 664.93,-264.56 658.93,-270.56 652.93,-270.56"/>
<text xml:space="preserve" text-anchor="middle" x="568.84" y="-251.47" font-family="Arial" font-size="11.00">✅ SKU Cadastrado</text>
<text xml:space="preserve" text-anchor="middle" x="568.84" y="-237.97" font-family="Arial" font-size="11.00">Saída de Dados:</text>
<text xml:space="preserve" text-anchor="middle" x="568.84" y="-224.47" font-family="Arial" font-size="11.00">• SKU cadastrado no SAP</text>
<text xml:space="preserve" text-anchor="middle" x="568.84" y="-210.97" font-family="Arial" font-size="11.00">• SKU disponível no Ploomes</text>
<text xml:space="preserve" text-anchor="middle" x="568.84" y="-197.47" font-family="Arial" font-size="11.00">• Solicitação rastreável/encerrada</text>
</g>
<!-- disponibilizar_ploomes&#45;&gt;saida -->
<g id="edge12" class="edge">
<title>disponibilizar_ploomes&#45;&gt;saida</title>
<path fill="none" stroke="#4a4a4a" d="M568.84,-331.18C568.84,-331.18 568.84,-280.8 568.84,-280.8"/>
<polygon fill="#4a4a4a" stroke="#4a4a4a" points="571.64,-280.8 568.84,-272.8 566.04,-280.8 571.64,-280.8"/>
</g>
<!-- saida&#45;&gt;end -->
<g id="edge13" class="edge">
<title>saida&#45;&gt;end</title>
<path fill="none" stroke="#4a4a4a" d="M568.84,-185.05C568.84,-185.05 568.84,-84.89 568.84,-84.89"/>
<polygon fill="#4a4a4a" stroke="#4a4a4a" points="571.64,-84.89 568.84,-76.89 566.04,-84.89 571.64,-84.89"/>
</g>
</g>
</svg>
