<?xml version="1.0" encoding="UTF-8" standalone="no"?>
<!DOCTYPE svg PUBLIC "-//W3C//DTD SVG 1.1//EN"
 "http://www.w3.org/Graphics/SVG/1.1/DTD/svg11.dtd">
<!-- Generated by graphviz version 14.1.0 (20251206.1807)
 -->
<!-- Title: RFPMoura_DCBT_OEM_Chumbo_PAM Pages: 1 -->
<svg width="1199pt" height="1125pt"
 viewBox="14.00 14.00 1185.00 1111.00" xmlns="http://www.w3.org/2000/svg" xmlns:xlink="http://www.w3.org/1999/xlink">
<g id="graph0" class="graph" transform="scale(1 1) rotate(0) translate(28.8 1096.48)">
<title>RFPMoura_DCBT_OEM_Chumbo_PAM</title>
<polygon fill="white" stroke="none" points="-14.4,14.4 -14.4,-1082.08 1155.71,-1082.08 1155.71,14.4 -14.4,14.4"/>
<text xml:space="preserve" text-anchor="middle" x="570.65" y="-1046.58" font-family="Arial" font-size="18.00">AS&#45;IS | OEM (Chumbo)</text>
<text xml:space="preserve" text-anchor="middle" x="570.65" y="-1025.58" font-family="Arial" font-size="18.00">PAM (Programa Ambiental Moura)</text>
<!-- start -->
<g id="node1" class="node">
<title>start</title>
<ellipse fill="#2ecc71" stroke="#2ecc71" cx="121.97" cy="-999.68" rx="7.2" ry="7.2"/>
</g>
<!-- receber_solicitacao_coleta -->
<g id="node10" class="node">
<title>receber_solicitacao_coleta</title>
<path fill="#e7f1ff" stroke="#0b5ed7" stroke-width="1.6" d="M231.93,-853.43C231.93,-853.43 12,-853.43 12,-853.43 6,-853.43 0,-847.43 0,-841.43 0,-841.43 0,-794.15 0,-794.15 0,-788.15 6,-782.15 12,-782.15 12,-782.15 231.93,-782.15 231.93,-782.15 237.93,-782.15 243.93,-788.15 243.93,-794.15 243.93,-794.15 243.93,-841.43 243.93,-841.43 243.93,-847.43 237.93,-853.43 231.93,-853.43"/>
<text xml:space="preserve" text-anchor="middle" x="121.97" y="-834.34" font-family="Arial" font-size="11.00">1) Receber Solicitação de Coleta de BIN</text>
<text xml:space="preserve" text-anchor="middle" x="121.97" y="-820.84" font-family="Arial" font-size="11.00">Entrada: E&#45;mail de solicitação de coleta</text>
<text xml:space="preserve" text-anchor="middle" x="121.97" y="-807.34" font-family="Arial" font-size="11.00">Ações:</text>
<text xml:space="preserve" text-anchor="middle" x="121.97" y="-793.84" font-family="Arial" font-size="11.00">• Registrar demanda de coleta no fluxo PAM</text>
</g>
<!-- start&#45;&gt;receber_solicitacao_coleta -->
<g id="edge1" class="edge">
<title>start&#45;&gt;receber_solicitacao_coleta</title>
<path fill="none" stroke="#4a4a4a" d="M121.97,-992.32C121.97,-992.32 121.97,-863.58 121.97,-863.58"/>
<polygon fill="#4a4a4a" stroke="#4a4a4a" points="124.77,-863.58 121.97,-855.58 119.17,-863.58 124.77,-863.58"/>
</g>
<!-- end -->
<g id="node2" class="node">
<title>end</title>
<ellipse fill="#e74c3c" stroke="#e74c3c" cx="299.97" cy="-817.79" rx="8.64" ry="8.64"/>
<ellipse fill="none" stroke="#e74c3c" cx="299.97" cy="-817.79" rx="12.64" ry="12.64"/>
</g>
<!-- voltarOEMMindMap -->
<g id="node3" class="node">
<title>voltarOEMMindMap</title>
<g id="a_node3"><a xlink:href="RFPMoura_DCBT_OEM_MindMap.svg" xlink:title="Voltar para o mindmap de OEM (Chumbo)" target="_self">
<path fill="#e7f1ff" stroke="#0b5ed7" stroke-width="1.6" d="M731.93,-1017.68C731.93,-1017.68 512,-1017.68 512,-1017.68 506,-1017.68 500,-1011.68 500,-1005.68 500,-1005.68 500,-993.68 500,-993.68 500,-987.68 506,-981.68 512,-981.68 512,-981.68 731.93,-981.68 731.93,-981.68 737.93,-981.68 743.93,-987.68 743.93,-993.68 743.93,-993.68 743.93,-1005.68 743.93,-1005.68 743.93,-1011.68 737.93,-1017.68 731.93,-1017.68"/>
<text xml:space="preserve" text-anchor="middle" x="621.97" y="-995.98" font-family="Arial" font-size="11.00">⬅ Voltar para OEM (Chumbo) — Mindmap</text>
</a>
</g>
</g>
<!-- irPosVendaOEM -->
<g id="node4" class="node">
<title>irPosVendaOEM</title>
<g id="a_node4"><a xlink:href="RFPMoura_DCBT_OEM_Chumbo_POS_VENDA_GARANTIA.svg" xlink:title="Abrir fluxo: Pós&#45;Venda (Garantia / OEM Chumbo)" target="_self">
<path fill="#f3e5f5" stroke="#6a1b9a" stroke-width="1.2" d="M444.81,-1017.68C444.81,-1017.68 233.13,-1017.68 233.13,-1017.68 227.13,-1017.68 221.13,-1011.68 221.13,-1005.68 221.13,-1005.68 221.13,-993.68 221.13,-993.68 221.13,-987.68 227.13,-981.68 233.13,-981.68 233.13,-981.68 444.81,-981.68 444.81,-981.68 450.81,-981.68 456.81,-987.68 456.81,-993.68 456.81,-993.68 456.81,-1005.68 456.81,-1005.68 456.81,-1011.68 450.81,-1017.68 444.81,-1017.68"/>
<text xml:space="preserve" text-anchor="middle" x="338.97" y="-995.98" font-family="Arial" font-size="11.00">➡ Ir para PÓS&#45;VENDA (Garantia / OEM)</text>
</a>
</g>
</g>
<!-- irPosVendaOEM&#45;&gt;end -->
<g id="edge8" class="edge">
<title>irPosVendaOEM&#45;&gt;end</title>
<path fill="none" stroke="#4a4a4a" d="M299.97,-981.24C299.97,-981.24 299.97,-840.23 299.97,-840.23"/>
<polygon fill="#4a4a4a" stroke="#4a4a4a" points="302.77,-840.23 299.97,-832.23 297.17,-840.23 302.77,-840.23"/>
</g>
<!-- stakeholders -->
<g id="node5" class="node">
<title>stakeholders</title>
<polygon fill="#f8f9fa" stroke="#2b2b2b" points="679.18,-860.18 442.75,-860.18 442.75,-775.4 685.18,-775.4 685.18,-854.18 679.18,-860.18"/>
<polyline fill="none" stroke="#2b2b2b" points="679.18,-860.18 679.18,-854.18"/>
<polyline fill="none" stroke="#2b2b2b" points="685.18,-854.18 679.18,-854.18"/>
<text xml:space="preserve" text-anchor="middle" x="563.97" y="-841.09" font-family="Arial" font-size="11.00">Stakeholders / Áreas:</text>
<text xml:space="preserve" text-anchor="middle" x="563.97" y="-827.59" font-family="Arial" font-size="11.00">• DCBT</text>
<text xml:space="preserve" text-anchor="middle" x="563.97" y="-814.09" font-family="Arial" font-size="11.00">• Atendimento Vendas e Serviços ao Cliente</text>
<text xml:space="preserve" text-anchor="middle" x="563.97" y="-800.59" font-family="Arial" font-size="11.00">• Transportadora</text>
<text xml:space="preserve" text-anchor="middle" x="563.97" y="-787.09" font-family="Arial" font-size="11.00">• Almoxarifado</text>
</g>
<!-- entradas -->
<g id="node6" class="node">
<title>entradas</title>
<polygon fill="#f8f9fa" stroke="#2b2b2b" points="622.68,-640.4 443.25,-640.4 443.25,-596.12 628.68,-596.12 628.68,-634.4 622.68,-640.4"/>
<polyline fill="none" stroke="#2b2b2b" points="622.68,-640.4 622.68,-634.4"/>
<polyline fill="none" stroke="#2b2b2b" points="628.68,-634.4 622.68,-634.4"/>
<text xml:space="preserve" text-anchor="middle" x="535.97" y="-621.31" font-family="Arial" font-size="11.00">Entrada de Dados / Informação:</text>
<text xml:space="preserve" text-anchor="middle" x="535.97" y="-607.81" font-family="Arial" font-size="11.00">• E&#45;mail de solicitação de coleta</text>
</g>
<!-- sistemas -->
<g id="node7" class="node">
<title>sistemas</title>
<polygon fill="#f8f9fa" stroke="#2b2b2b" points="565.18,-389.34 442.75,-389.34 442.75,-278.06 571.18,-278.06 571.18,-383.34 565.18,-389.34"/>
<polyline fill="none" stroke="#2b2b2b" points="565.18,-389.34 565.18,-383.34"/>
<polyline fill="none" stroke="#2b2b2b" points="571.18,-383.34 565.18,-383.34"/>
<text xml:space="preserve" text-anchor="middle" x="506.97" y="-370.25" font-family="Arial" font-size="11.00">Sistemas Utilizados:</text>
<text xml:space="preserve" text-anchor="middle" x="506.97" y="-356.75" font-family="Arial" font-size="11.00">• E&#45;mail</text>
<text xml:space="preserve" text-anchor="middle" x="506.97" y="-343.25" font-family="Arial" font-size="11.00">• SAP</text>
<text xml:space="preserve" text-anchor="middle" x="506.97" y="-329.75" font-family="Arial" font-size="11.00">• Excel</text>
<text xml:space="preserve" text-anchor="middle" x="506.97" y="-303.25" font-family="Arial" font-size="11.00">Frequência:</text>
<text xml:space="preserve" text-anchor="middle" x="506.97" y="-289.75" font-family="Arial" font-size="11.00">• Sob Demanda</text>
</g>
<!-- oportunidades -->
<g id="node8" class="node">
<title>oportunidades</title>
<polygon fill="#f8f9fa" stroke="#2b2b2b" points="764.56,-84.78 455.38,-84.78 455.38,0 770.56,0 770.56,-78.78 764.56,-84.78"/>
<polyline fill="none" stroke="#2b2b2b" points="764.56,-84.78 764.56,-78.78"/>
<polyline fill="none" stroke="#2b2b2b" points="770.56,-78.78 764.56,-78.78"/>
<text xml:space="preserve" text-anchor="middle" x="612.97" y="-65.69" font-family="Arial" font-size="11.00">Oportunidades:</text>
<text xml:space="preserve" text-anchor="middle" x="612.97" y="-52.19" font-family="Arial" font-size="11.00">• Evolução das regras de validação e governança de dados</text>
<text xml:space="preserve" text-anchor="middle" x="612.97" y="-38.69" font-family="Arial" font-size="11.00">• Centralização e padronização da comunicação</text>
<text xml:space="preserve" text-anchor="middle" x="612.97" y="-25.19" font-family="Arial" font-size="11.00">• Melhoria na experiência de uso</text>
<text xml:space="preserve" text-anchor="middle" x="612.97" y="-11.69" font-family="Arial" font-size="11.00">• Gestão de SLAs</text>
</g>
<!-- produto_salesforce -->
<g id="node9" class="node">
<title>produto_salesforce</title>
<polygon fill="#f8f9fa" stroke="#2b2b2b" points="1135.31,-920.68 728.62,-920.68 728.62,-714.9 1141.31,-714.9 1141.31,-914.68 1135.31,-920.68"/>
<polyline fill="none" stroke="#2b2b2b" points="1135.31,-920.68 1135.31,-914.68"/>
<polyline fill="none" stroke="#2b2b2b" points="1141.31,-914.68 1135.31,-914.68"/>
<text xml:space="preserve" text-anchor="middle" x="934.97" y="-901.59" font-family="Arial" font-size="11.00">Produto Salesforce:</text>
<text xml:space="preserve" text-anchor="middle" x="934.97" y="-888.09" font-family="Arial" font-size="11.00">• Sales Cloud</text>
<text xml:space="preserve" text-anchor="middle" x="934.97" y="-874.59" font-family="Arial" font-size="11.00">• Service Cloud</text>
<text xml:space="preserve" text-anchor="middle" x="934.97" y="-861.09" font-family="Arial" font-size="11.00">• Experience Cloud</text>
<text xml:space="preserve" text-anchor="middle" x="934.97" y="-847.59" font-family="Arial" font-size="11.00">• Integração</text>
<text xml:space="preserve" text-anchor="middle" x="934.97" y="-821.09" font-family="Arial" font-size="11.00">Soluções Aplicáveis:</text>
<text xml:space="preserve" text-anchor="middle" x="934.97" y="-807.59" font-family="Arial" font-size="11.00">• Portal para registrar solicitações e acompanhar progresso</text>
<text xml:space="preserve" text-anchor="middle" x="934.97" y="-794.09" font-family="Arial" font-size="11.00">• Acesso a dados pessoais, pedidos e documentos</text>
<text xml:space="preserve" text-anchor="middle" x="934.97" y="-780.59" font-family="Arial" font-size="11.00">• Conteúdo que reduz dependência do suporte</text>
<text xml:space="preserve" text-anchor="middle" x="934.97" y="-767.09" font-family="Arial" font-size="11.00">• Atualização de informações diretamente pelo cliente</text>
<text xml:space="preserve" text-anchor="middle" x="934.97" y="-753.59" font-family="Arial" font-size="11.00">• Eficiência do autosserviço e redução de custo</text>
<text xml:space="preserve" text-anchor="middle" x="934.97" y="-740.09" font-family="Arial" font-size="11.00">• Consulta do status de pedidos vinculados ao caso</text>
<text xml:space="preserve" text-anchor="middle" x="934.97" y="-726.59" font-family="Arial" font-size="11.00">• Abertura, classificação, priorização e resolução de solicitações de atendimento</text>
</g>
<!-- planejar_coleta -->
<g id="node11" class="node">
<title>planejar_coleta</title>
<path fill="#ffffff" stroke="#2b2b2b" d="M240.68,-653.9C240.68,-653.9 19.25,-653.9 19.25,-653.9 13.25,-653.9 7.25,-647.9 7.25,-641.9 7.25,-641.9 7.25,-594.62 7.25,-594.62 7.25,-588.62 13.25,-582.62 19.25,-582.62 19.25,-582.62 240.68,-582.62 240.68,-582.62 246.68,-582.62 252.68,-588.62 252.68,-594.62 252.68,-594.62 252.68,-641.9 252.68,-641.9 252.68,-647.9 246.68,-653.9 240.68,-653.9"/>
<text xml:space="preserve" text-anchor="middle" x="129.97" y="-634.81" font-family="Arial" font-size="11.00">2) Planejar Coleta de BIN</text>
<text xml:space="preserve" text-anchor="middle" x="129.97" y="-621.31" font-family="Arial" font-size="11.00">Ações:</text>
<text xml:space="preserve" text-anchor="middle" x="129.97" y="-607.81" font-family="Arial" font-size="11.00">• Definir data e condições da coleta</text>
<text xml:space="preserve" text-anchor="middle" x="129.97" y="-594.31" font-family="Arial" font-size="11.00">• Alinhar com Transportadora e Almoxarifado</text>
</g>
<!-- receber_solicitacao_coleta&#45;&gt;planejar_coleta -->
<g id="edge2" class="edge">
<title>receber_solicitacao_coleta&#45;&gt;planejar_coleta</title>
<path fill="none" stroke="#4a4a4a" d="M125.59,-781.66C125.59,-781.66 125.59,-663.64 125.59,-663.64"/>
<polygon fill="#4a4a4a" stroke="#4a4a4a" points="128.39,-663.64 125.59,-655.64 122.79,-663.64 128.39,-663.64"/>
</g>
<!-- executar_coleta -->
<g id="node12" class="node">
<title>executar_coleta</title>
<path fill="#ffffff" stroke="#2b2b2b" d="M220.06,-521.62C220.06,-521.62 69.88,-521.62 69.88,-521.62 63.88,-521.62 57.88,-515.62 57.88,-509.62 57.88,-509.62 57.88,-462.34 57.88,-462.34 57.88,-456.34 63.88,-450.34 69.88,-450.34 69.88,-450.34 220.06,-450.34 220.06,-450.34 226.06,-450.34 232.06,-456.34 232.06,-462.34 232.06,-462.34 232.06,-509.62 232.06,-509.62 232.06,-515.62 226.06,-521.62 220.06,-521.62"/>
<text xml:space="preserve" text-anchor="middle" x="144.97" y="-502.53" font-family="Arial" font-size="11.00">3) Realizar Coleta das BINs</text>
<text xml:space="preserve" text-anchor="middle" x="144.97" y="-489.03" font-family="Arial" font-size="11.00">Ações:</text>
<text xml:space="preserve" text-anchor="middle" x="144.97" y="-475.53" font-family="Arial" font-size="11.00">• Coletar BINs no cliente</text>
<text xml:space="preserve" text-anchor="middle" x="144.97" y="-462.03" font-family="Arial" font-size="11.00">• Registrar volumes coletados</text>
</g>
<!-- planejar_coleta&#45;&gt;executar_coleta -->
<g id="edge3" class="edge">
<title>planejar_coleta&#45;&gt;executar_coleta</title>
<path fill="none" stroke="#4a4a4a" d="M144.97,-582.46C144.97,-582.46 144.97,-531.32 144.97,-531.32"/>
<polygon fill="#4a4a4a" stroke="#4a4a4a" points="147.77,-531.32 144.97,-523.32 142.17,-531.32 147.77,-531.32"/>
</g>
<!-- validar_peso_registrar -->
<g id="node13" class="node">
<title>validar_peso_registrar</title>
<path fill="#ffffff" stroke="#2b2b2b" d="M274.81,-376.09C274.81,-376.09 75.12,-376.09 75.12,-376.09 69.12,-376.09 63.12,-370.09 63.12,-364.09 63.12,-364.09 63.12,-303.31 63.12,-303.31 63.12,-297.31 69.12,-291.31 75.12,-291.31 75.12,-291.31 274.81,-291.31 274.81,-291.31 280.81,-291.31 286.81,-297.31 286.81,-303.31 286.81,-303.31 286.81,-364.09 286.81,-364.09 286.81,-370.09 280.81,-376.09 274.81,-376.09"/>
<text xml:space="preserve" text-anchor="middle" x="174.97" y="-357" font-family="Arial" font-size="11.00">4) Validar Peso e Registrar Informações</text>
<text xml:space="preserve" text-anchor="middle" x="174.97" y="-343.5" font-family="Arial" font-size="11.00">Ações:</text>
<text xml:space="preserve" text-anchor="middle" x="174.97" y="-330" font-family="Arial" font-size="11.00">• Validar peso das BINs coletadas</text>
<text xml:space="preserve" text-anchor="middle" x="174.97" y="-316.5" font-family="Arial" font-size="11.00">• Alimentar informações fiscais</text>
<text xml:space="preserve" text-anchor="middle" x="174.97" y="-303" font-family="Arial" font-size="11.00">• Alimentar ficha PAM no SAP</text>
</g>
<!-- executar_coleta&#45;&gt;validar_peso_registrar -->
<g id="edge4" class="edge">
<title>executar_coleta&#45;&gt;validar_peso_registrar</title>
<path fill="none" stroke="#4a4a4a" d="M147.59,-449.89C147.59,-449.89 147.59,-386.08 147.59,-386.08"/>
<polygon fill="#4a4a4a" stroke="#4a4a4a" points="150.39,-386.08 147.59,-378.08 144.79,-386.08 150.39,-386.08"/>
</g>
<!-- atualizar_controles -->
<g id="node14" class="node">
<title>atualizar_controles</title>
<path fill="#ffffff" stroke="#2b2b2b" d="M296.81,-217.06C296.81,-217.06 61.12,-217.06 61.12,-217.06 55.12,-217.06 49.12,-211.06 49.12,-205.06 49.12,-205.06 49.12,-157.78 49.12,-157.78 49.12,-151.78 55.12,-145.78 61.12,-145.78 61.12,-145.78 296.81,-145.78 296.81,-145.78 302.81,-145.78 308.81,-151.78 308.81,-157.78 308.81,-157.78 308.81,-205.06 308.81,-205.06 308.81,-211.06 302.81,-217.06 296.81,-217.06"/>
<text xml:space="preserve" text-anchor="middle" x="178.97" y="-197.97" font-family="Arial" font-size="11.00">5) Atualizar Controles em Sistema</text>
<text xml:space="preserve" text-anchor="middle" x="178.97" y="-184.47" font-family="Arial" font-size="11.00">Ações:</text>
<text xml:space="preserve" text-anchor="middle" x="178.97" y="-170.97" font-family="Arial" font-size="11.00">• Atualizar SAP com dados da coleta</text>
<text xml:space="preserve" text-anchor="middle" x="178.97" y="-157.47" font-family="Arial" font-size="11.00">• Atualizar controles em Excel, quando aplicável</text>
</g>
<!-- validar_peso_registrar&#45;&gt;atualizar_controles -->
<g id="edge5" class="edge">
<title>validar_peso_registrar&#45;&gt;atualizar_controles</title>
<path fill="none" stroke="#4a4a4a" d="M174.97,-290.88C174.97,-290.88 174.97,-227 174.97,-227"/>
<polygon fill="#4a4a4a" stroke="#4a4a4a" points="177.77,-227 174.97,-219 172.17,-227 177.77,-227"/>
</g>
<!-- tratar_material -->
<g id="node15" class="node">
<title>tratar_material</title>
<path fill="#d1e7dd" stroke="#1e7e34" stroke-width="1.8" d="M400.18,-78.03C400.18,-78.03 151.75,-78.03 151.75,-78.03 145.75,-78.03 139.75,-72.03 139.75,-66.03 139.75,-66.03 139.75,-18.75 139.75,-18.75 139.75,-12.75 145.75,-6.75 151.75,-6.75 151.75,-6.75 400.18,-6.75 400.18,-6.75 406.18,-6.75 412.18,-12.75 412.18,-18.75 412.18,-18.75 412.18,-66.03 412.18,-66.03 412.18,-72.03 406.18,-78.03 400.18,-78.03"/>
<text xml:space="preserve" text-anchor="middle" x="275.97" y="-58.94" font-family="Arial" font-size="11.00">6) Executar Reciclagem e/ou Descarte de BINs</text>
<text xml:space="preserve" text-anchor="middle" x="275.97" y="-45.44" font-family="Arial" font-size="11.00">Saída de Dados:</text>
<text xml:space="preserve" text-anchor="middle" x="275.97" y="-31.94" font-family="Arial" font-size="11.00">• Reciclagem e/ou descarte correto das BINs</text>
<text xml:space="preserve" text-anchor="middle" x="275.97" y="-18.44" font-family="Arial" font-size="11.00">• Processo encerrado no SAP e controles internos</text>
</g>
<!-- atualizar_controles&#45;&gt;tratar_material -->
<g id="edge6" class="edge">
<title>atualizar_controles&#45;&gt;tratar_material</title>
<path fill="none" stroke="#4a4a4a" d="M224.28,-145.62C224.28,-145.62 224.28,-88.07 224.28,-88.07"/>
<polygon fill="#4a4a4a" stroke="#4a4a4a" points="227.08,-88.07 224.28,-80.07 221.48,-88.07 227.08,-88.07"/>
</g>
<!-- tratar_material&#45;&gt;irPosVendaOEM -->
<g id="edge7" class="edge">
<title>tratar_material&#45;&gt;irPosVendaOEM</title>
<path fill="none" stroke="#4a4a4a" d="M362.39,-78.75C362.39,-78.75 362.39,-971.58 362.39,-971.58"/>
<polygon fill="#4a4a4a" stroke="#4a4a4a" points="359.59,-971.58 362.39,-979.58 365.19,-971.58 359.59,-971.58"/>
</g>
</g>
</svg>
