<?xml version="1.0" encoding="UTF-8" standalone="no"?>
<!DOCTYPE svg PUBLIC "-//W3C//DTD SVG 1.1//EN"
 "http://www.w3.org/Graphics/SVG/1.1/DTD/svg11.dtd">
<!-- Generated by graphviz version 14.1.0 (20251206.1807)
 -->
<!-- Title: RFPMoura_DCBT_Reposicao_Chumbo_ANALISE_CREDITO Pages: 1 -->
<svg width="1223pt" height="2270pt"
 viewBox="14.00 14.00 1209.00 2256.00" xmlns="http://www.w3.org/2000/svg" xmlns:xlink="http://www.w3.org/1999/xlink">
<g id="graph0" class="graph" transform="scale(1 1) rotate(0) translate(28.8 2241.28)">
<title>RFPMoura_DCBT_Reposicao_Chumbo_ANALISE_CREDITO</title>
<polygon fill="white" stroke="none" points="-14.4,14.4 -14.4,-2226.88 1179.71,-2226.88 1179.71,14.4 -14.4,14.4"/>
<text xml:space="preserve" text-anchor="middle" x="582.65" y="-2191.38" font-family="Arial" font-size="18.00">AS&#45;IS | DCBT — Reposição (Chumbo)</text>
<text xml:space="preserve" text-anchor="middle" x="582.65" y="-2170.38" font-family="Arial" font-size="18.00">Análise de Crédito</text>
<!-- start -->
<g id="node1" class="node">
<title>start</title>
<ellipse fill="#2ecc71" stroke="#2ecc71" cx="227.97" cy="-2144.48" rx="7.2" ry="7.2"/>
</g>
<!-- receber_solicitacao -->
<g id="node13" class="node">
<title>receber_solicitacao</title>
<path fill="#e7f1ff" stroke="#0b5ed7" stroke-width="1.6" d="M339.06,-2044.98C339.06,-2044.98 116.88,-2044.98 116.88,-2044.98 110.88,-2044.98 104.88,-2038.98 104.88,-2032.98 104.88,-2032.98 104.88,-1972.7 104.88,-1972.7 104.88,-1966.7 110.88,-1960.7 116.88,-1960.7 116.88,-1960.7 339.06,-1960.7 339.06,-1960.7 345.06,-1960.7 351.06,-1966.7 351.06,-1972.7 351.06,-1972.7 351.06,-2032.98 351.06,-2032.98 351.06,-2038.98 345.06,-2044.98 339.06,-2044.98"/>
<text xml:space="preserve" text-anchor="middle" x="227.97" y="-2025.89" font-family="Arial" font-size="11.00">1) Receber Solicitação de Análise de Crédito</text>
<text xml:space="preserve" text-anchor="middle" x="227.97" y="-2012.39" font-family="Arial" font-size="11.00">Entrada: Chamado SDM</text>
<text xml:space="preserve" text-anchor="middle" x="227.97" y="-1985.89" font-family="Arial" font-size="11.00">Atividade Executada:</text>
<text xml:space="preserve" text-anchor="middle" x="227.97" y="-1972.39" font-family="Arial" font-size="11.00">Analisar Crédito do Cliente</text>
</g>
<!-- start&#45;&gt;receber_solicitacao -->
<g id="edge1" class="edge">
<title>start&#45;&gt;receber_solicitacao</title>
<path fill="none" stroke="#4a4a4a" d="M227.97,-2136.86C227.97,-2136.86 227.97,-2055.04 227.97,-2055.04"/>
<polygon fill="#4a4a4a" stroke="#4a4a4a" points="230.77,-2055.04 227.97,-2047.04 225.17,-2055.04 230.77,-2055.04"/>
</g>
<!-- end -->
<g id="node2" class="node">
<title>end</title>
<ellipse fill="#e74c3c" stroke="#e74c3c" cx="358.97" cy="-82.64" rx="8.64" ry="8.64"/>
<ellipse fill="none" stroke="#e74c3c" cx="358.97" cy="-82.64" rx="12.64" ry="12.64"/>
</g>
<!-- voltarHub -->
<g id="node3" class="node">
<title>voltarHub</title>
<g id="a_node3"><a xlink:href="RFPMoura_DCBT_Processos_MindMap.svg" xlink:title="↩ HUB (DCBT)" target="_self">
<path fill="#eef6ff" stroke="#1f5fbf" stroke-width="1.2" d="M381.81,-2162.48C381.81,-2162.48 290.12,-2162.48 290.12,-2162.48 284.12,-2162.48 278.12,-2156.48 278.12,-2150.48 278.12,-2150.48 278.12,-2138.48 278.12,-2138.48 278.12,-2132.48 284.12,-2126.48 290.12,-2126.48 290.12,-2126.48 381.81,-2126.48 381.81,-2126.48 387.81,-2126.48 393.81,-2132.48 393.81,-2138.48 393.81,-2138.48 393.81,-2150.48 393.81,-2150.48 393.81,-2156.48 387.81,-2162.48 381.81,-2162.48"/>
<text xml:space="preserve" text-anchor="middle" x="335.97" y="-2140.78" font-family="Arial" font-size="11.00">↩ HUB (DCBT)</text>
</a>
</g>
</g>
<!-- voltarReposicao -->
<g id="node4" class="node">
<title>voltarReposicao</title>
<g id="a_node4"><a xlink:href="RFPMoura_DCBT_Reposicao_MindMap.svg" xlink:title="⬅ Voltar para REPOSIÇÃO (Mindmap)" target="_self">
<path fill="#e7f1ff" stroke="#0b5ed7" stroke-width="1.6" d="M651.31,-2162.48C651.31,-2162.48 448.62,-2162.48 448.62,-2162.48 442.62,-2162.48 436.62,-2156.48 436.62,-2150.48 436.62,-2150.48 436.62,-2138.48 436.62,-2138.48 436.62,-2132.48 442.62,-2126.48 448.62,-2126.48 448.62,-2126.48 651.31,-2126.48 651.31,-2126.48 657.31,-2126.48 663.31,-2132.48 663.31,-2138.48 663.31,-2138.48 663.31,-2150.48 663.31,-2150.48 663.31,-2156.48 657.31,-2162.48 651.31,-2162.48"/>
<text xml:space="preserve" text-anchor="middle" x="549.97" y="-2140.78" font-family="Arial" font-size="11.00">⬅ Voltar para REPOSIÇÃO (Mindmap)</text>
</a>
</g>
</g>
<!-- voltarCadastroCliente -->
<g id="node5" class="node">
<title>voltarCadastroCliente</title>
<g id="a_node5"><a xlink:href="RFPMoura_DCBT_Reposicao_Chumbo_CADASTRO_CLIENTE.svg" xlink:title="⬅ Voltar para CADASTRO CLIENTE" target="_self">
<path fill="#e7f1ff" stroke="#0b5ed7" stroke-width="1.2" d="M913.18,-2162.48C913.18,-2162.48 718.75,-2162.48 718.75,-2162.48 712.75,-2162.48 706.75,-2156.48 706.75,-2150.48 706.75,-2150.48 706.75,-2138.48 706.75,-2138.48 706.75,-2132.48 712.75,-2126.48 718.75,-2126.48 718.75,-2126.48 913.18,-2126.48 913.18,-2126.48 919.18,-2126.48 925.18,-2132.48 925.18,-2138.48 925.18,-2138.48 925.18,-2150.48 925.18,-2150.48 925.18,-2156.48 919.18,-2162.48 913.18,-2162.48"/>
<text xml:space="preserve" text-anchor="middle" x="815.97" y="-2140.78" font-family="Arial" font-size="11.00">⬅ Voltar para CADASTRO CLIENTE</text>
</a>
</g>
</g>
<!-- irRealizarPedido -->
<g id="node6" class="node">
<title>irRealizarPedido</title>
<g id="a_node6"><a xlink:href="RFPMoura_DCBT_Reposicao_Chumbo_REALIZAR_PEDIDO.svg" xlink:title="Abrir fluxo: Realizar Pedido (quando disponível)" target="_self">
<path fill="#eef6ff" stroke="#1f5fbf" stroke-width="1.2" d="M1153.31,-2162.48C1153.31,-2162.48 980.63,-2162.48 980.63,-2162.48 974.63,-2162.48 968.63,-2156.48 968.63,-2150.48 968.63,-2150.48 968.63,-2138.48 968.63,-2138.48 968.63,-2132.48 974.63,-2126.48 980.63,-2126.48 980.63,-2126.48 1153.31,-2126.48 1153.31,-2126.48 1159.31,-2126.48 1165.31,-2132.48 1165.31,-2138.48 1165.31,-2138.48 1165.31,-2150.48 1165.31,-2150.48 1165.31,-2156.48 1159.31,-2162.48 1153.31,-2162.48"/>
<text xml:space="preserve" text-anchor="middle" x="1066.97" y="-2140.78" font-family="Arial" font-size="11.00">➡ Próximo: REALIZAR PEDIDO</text>
</a>
</g>
</g>
<!-- stakeholders -->
<g id="node7" class="node">
<title>stakeholders</title>
<polygon fill="#f8f9fa" stroke="#2b2b2b" points="640.06,-2065.48 393.88,-2065.48 393.88,-1940.2 646.06,-1940.2 646.06,-2059.48 640.06,-2065.48"/>
<polyline fill="none" stroke="#2b2b2b" points="640.06,-2065.48 640.06,-2059.48"/>
<polyline fill="none" stroke="#2b2b2b" points="646.06,-2059.48 640.06,-2059.48"/>
<text xml:space="preserve" text-anchor="middle" x="519.97" y="-2046.39" font-family="Arial" font-size="11.00">Key Users / Áreas / Stakeholders:</text>
<text xml:space="preserve" text-anchor="middle" x="519.97" y="-2032.89" font-family="Arial" font-size="11.00">• Contas a Receber</text>
<text xml:space="preserve" text-anchor="middle" x="519.97" y="-2019.39" font-family="Arial" font-size="11.00">• Supervisão</text>
<text xml:space="preserve" text-anchor="middle" x="519.97" y="-2005.89" font-family="Arial" font-size="11.00">• Gerência</text>
<text xml:space="preserve" text-anchor="middle" x="519.97" y="-1992.39" font-family="Arial" font-size="11.00">• Diretoria</text>
<text xml:space="preserve" text-anchor="middle" x="519.97" y="-1978.89" font-family="Arial" font-size="11.00">• Seguradora</text>
<text xml:space="preserve" text-anchor="middle" x="519.97" y="-1965.39" font-family="Arial" font-size="11.00">• Atendimento de Vendas e Serviço ao Cliente</text>
<text xml:space="preserve" text-anchor="middle" x="519.97" y="-1951.89" font-family="Arial" font-size="11.00">• Unidades RSM</text>
</g>
<!-- entradas -->
<g id="node8" class="node">
<title>entradas</title>
<polygon fill="#f8f9fa" stroke="#2b2b2b" points="635.06,-1879.2 388.88,-1879.2 388.88,-1714.42 641.06,-1714.42 641.06,-1873.2 635.06,-1879.2"/>
<polyline fill="none" stroke="#2b2b2b" points="635.06,-1879.2 635.06,-1873.2"/>
<polyline fill="none" stroke="#2b2b2b" points="641.06,-1873.2 635.06,-1873.2"/>
<text xml:space="preserve" text-anchor="middle" x="514.97" y="-1860.11" font-family="Arial" font-size="11.00">Entrada de Dados / Informação:</text>
<text xml:space="preserve" text-anchor="middle" x="514.97" y="-1846.61" font-family="Arial" font-size="11.00">• Chamado SDM</text>
<text xml:space="preserve" text-anchor="middle" x="514.97" y="-1820.11" font-family="Arial" font-size="11.00">Contexto:</text>
<text xml:space="preserve" text-anchor="middle" x="514.97" y="-1806.61" font-family="Arial" font-size="11.00">• Novo cliente: definir limite</text>
<text xml:space="preserve" text-anchor="middle" x="514.97" y="-1793.11" font-family="Arial" font-size="11.00">• Cliente da base: avaliar limite tomado e risco</text>
<text xml:space="preserve" text-anchor="middle" x="514.97" y="-1766.61" font-family="Arial" font-size="11.00">Possíveis dados analisados:</text>
<text xml:space="preserve" text-anchor="middle" x="514.97" y="-1753.11" font-family="Arial" font-size="11.00">• Restrições / inadimplência</text>
<text xml:space="preserve" text-anchor="middle" x="514.97" y="-1739.61" font-family="Arial" font-size="11.00">• Saldos / títulos / vencimentos</text>
<text xml:space="preserve" text-anchor="middle" x="514.97" y="-1726.11" font-family="Arial" font-size="11.00">• Bloqueios financeiros/comerciais</text>
</g>
<!-- sistemas -->
<g id="node9" class="node">
<title>sistemas</title>
<polygon fill="#f8f9fa" stroke="#2b2b2b" points="702.93,-1476.86 567,-1476.86 567,-1352.08 708.93,-1352.08 708.93,-1470.86 702.93,-1476.86"/>
<polyline fill="none" stroke="#2b2b2b" points="702.93,-1476.86 702.93,-1470.86"/>
<polyline fill="none" stroke="#2b2b2b" points="708.93,-1470.86 702.93,-1470.86"/>
<text xml:space="preserve" text-anchor="middle" x="637.97" y="-1457.77" font-family="Arial" font-size="11.00">Sistemas Utilizados:</text>
<text xml:space="preserve" text-anchor="middle" x="637.97" y="-1444.27" font-family="Arial" font-size="11.00">• SDM</text>
<text xml:space="preserve" text-anchor="middle" x="637.97" y="-1430.77" font-family="Arial" font-size="11.00">• Portal da Seguradora</text>
<text xml:space="preserve" text-anchor="middle" x="637.97" y="-1417.27" font-family="Arial" font-size="11.00">• E&#45;mail</text>
<text xml:space="preserve" text-anchor="middle" x="637.97" y="-1403.77" font-family="Arial" font-size="11.00">• Teams</text>
<text xml:space="preserve" text-anchor="middle" x="637.97" y="-1377.27" font-family="Arial" font-size="11.00">Frequência:</text>
<text xml:space="preserve" text-anchor="middle" x="637.97" y="-1363.77" font-family="Arial" font-size="11.00">• Sob demanda</text>
</g>
<!-- sla -->
<g id="node10" class="node">
<title>sla</title>
<polygon fill="#fffdf2" stroke="#2b2b2b" points="748.68,-1262.19 581.25,-1262.19 581.25,-1204.41 754.68,-1204.41 754.68,-1256.19 748.68,-1262.19"/>
<polyline fill="none" stroke="#2b2b2b" points="748.68,-1262.19 748.68,-1256.19"/>
<polyline fill="none" stroke="#2b2b2b" points="754.68,-1256.19 748.68,-1256.19"/>
<text xml:space="preserve" text-anchor="middle" x="667.97" y="-1243.1" font-family="Arial" font-size="11.00">Tempo Médio (SLA):</text>
<text xml:space="preserve" text-anchor="middle" x="667.97" y="-1229.6" font-family="Arial" font-size="11.00">• Interno: até 48h</text>
<text xml:space="preserve" text-anchor="middle" x="667.97" y="-1216.1" font-family="Arial" font-size="11.00">• Seguradora: até 5 dias úteis</text>
</g>
<!-- oportunidades -->
<g id="node11" class="node">
<title>oportunidades</title>
<polygon fill="#f8f9fa" stroke="#2b2b2b" points="841.56,-450.09 532.38,-450.09 532.38,-378.81 847.56,-378.81 847.56,-444.09 841.56,-450.09"/>
<polyline fill="none" stroke="#2b2b2b" points="841.56,-450.09 841.56,-444.09"/>
<polyline fill="none" stroke="#2b2b2b" points="847.56,-444.09 841.56,-444.09"/>
<text xml:space="preserve" text-anchor="middle" x="689.97" y="-431" font-family="Arial" font-size="11.00">Oportunidades:</text>
<text xml:space="preserve" text-anchor="middle" x="689.97" y="-417.5" font-family="Arial" font-size="11.00">• Redução de retrabalho entre as áreas</text>
<text xml:space="preserve" text-anchor="middle" x="689.97" y="-404" font-family="Arial" font-size="11.00">• Centralização e padronização da comunicação</text>
<text xml:space="preserve" text-anchor="middle" x="689.97" y="-390.5" font-family="Arial" font-size="11.00">• Evolução das regras de validação e governança de dados</text>
</g>
<!-- produto_salesforce -->
<g id="node12" class="node">
<title>produto_salesforce</title>
<polygon fill="#f8f9fa" stroke="#2b2b2b" points="729.56,-165.28 414.38,-165.28 414.38,0 735.56,0 735.56,-159.28 729.56,-165.28"/>
<polyline fill="none" stroke="#2b2b2b" points="729.56,-165.28 729.56,-159.28"/>
<polyline fill="none" stroke="#2b2b2b" points="735.56,-159.28 729.56,-159.28"/>
<text xml:space="preserve" text-anchor="middle" x="574.97" y="-146.19" font-family="Arial" font-size="11.00">Produto Salesforce:</text>
<text xml:space="preserve" text-anchor="middle" x="574.97" y="-132.69" font-family="Arial" font-size="11.00">• Sales Cloud</text>
<text xml:space="preserve" text-anchor="middle" x="574.97" y="-119.19" font-family="Arial" font-size="11.00">• Service Cloud</text>
<text xml:space="preserve" text-anchor="middle" x="574.97" y="-105.69" font-family="Arial" font-size="11.00">• Integração</text>
<text xml:space="preserve" text-anchor="middle" x="574.97" y="-79.19" font-family="Arial" font-size="11.00">Soluções Aplicáveis:</text>
<text xml:space="preserve" text-anchor="middle" x="574.97" y="-65.69" font-family="Arial" font-size="11.00">• Consulta do limite de crédito disponível e bloqueios</text>
<text xml:space="preserve" text-anchor="middle" x="574.97" y="-52.19" font-family="Arial" font-size="11.00">• Consulta de situação financeira (saldos, vencimentos)</text>
<text xml:space="preserve" text-anchor="middle" x="574.97" y="-38.69" font-family="Arial" font-size="11.00">• Envio de solicitações de aprovação para o ERP</text>
<text xml:space="preserve" text-anchor="middle" x="574.97" y="-25.19" font-family="Arial" font-size="11.00">• Consulta de títulos, saldos e restrições financeiras</text>
<text xml:space="preserve" text-anchor="middle" x="574.97" y="-11.69" font-family="Arial" font-size="11.00">• Consulta de bloqueios comerciais por crédito/inadimplência</text>
</g>
<!-- triagem -->
<g id="node14" class="node">
<title>triagem</title>
<path fill="#ffffff" stroke="#2b2b2b" d="M334.18,-1839.2C334.18,-1839.2 121.75,-1839.2 121.75,-1839.2 115.75,-1839.2 109.75,-1833.2 109.75,-1827.2 109.75,-1827.2 109.75,-1766.42 109.75,-1766.42 109.75,-1760.42 115.75,-1754.42 121.75,-1754.42 121.75,-1754.42 334.18,-1754.42 334.18,-1754.42 340.18,-1754.42 346.18,-1760.42 346.18,-1766.42 346.18,-1766.42 346.18,-1827.2 346.18,-1827.2 346.18,-1833.2 340.18,-1839.2 334.18,-1839.2"/>
<text xml:space="preserve" text-anchor="middle" x="227.97" y="-1820.11" font-family="Arial" font-size="11.00">2) Triagem e Classificação da Solicitação</text>
<text xml:space="preserve" text-anchor="middle" x="227.97" y="-1806.61" font-family="Arial" font-size="11.00">Ações:</text>
<text xml:space="preserve" text-anchor="middle" x="227.97" y="-1793.11" font-family="Arial" font-size="11.00">• Identificar cliente (novo ou base)</text>
<text xml:space="preserve" text-anchor="middle" x="227.97" y="-1779.61" font-family="Arial" font-size="11.00">• Identificar pedido/negociação relacionada</text>
<text xml:space="preserve" text-anchor="middle" x="227.97" y="-1766.11" font-family="Arial" font-size="11.00">• Conferir dados mínimos e anexos</text>
</g>
<!-- receber_solicitacao&#45;&gt;triagem -->
<g id="edge2" class="edge">
<title>receber_solicitacao&#45;&gt;triagem</title>
<path fill="none" stroke="#4a4a4a" d="M227.97,-1959.9C227.97,-1959.9 227.97,-1849.21 227.97,-1849.21"/>
<polygon fill="#4a4a4a" stroke="#4a4a4a" points="230.77,-1849.21 227.97,-1841.21 225.17,-1849.21 230.77,-1849.21"/>
</g>
<!-- info_completa -->
<g id="node15" class="node">
<title>info_completa</title>
<polygon fill="#fff1b8" stroke="#2b2b2b" points="318.97,-1653.42 203.29,-1595.64 318.96,-1537.86 434.65,-1595.64 318.97,-1653.42"/>
<text xml:space="preserve" text-anchor="middle" x="318.97" y="-1605.44" font-family="Arial" font-size="11.00">Dados mínimos</text>
<text xml:space="preserve" text-anchor="middle" x="318.97" y="-1591.94" font-family="Arial" font-size="11.00">para análise</text>
<text xml:space="preserve" text-anchor="middle" x="318.97" y="-1578.44" font-family="Arial" font-size="11.00">estão completos?</text>
</g>
<!-- triagem&#45;&gt;info_completa -->
<g id="edge3" class="edge">
<title>triagem&#45;&gt;info_completa</title>
<path fill="none" stroke="#4a4a4a" d="M274.73,-1754.15C274.73,-1754.15 274.73,-1641.36 274.73,-1641.36"/>
<polygon fill="#4a4a4a" stroke="#4a4a4a" points="277.53,-1641.36 274.73,-1633.36 271.93,-1641.36 277.53,-1641.36"/>
</g>
<!-- complementar_info -->
<g id="node16" class="node">
<title>complementar_info</title>
<path fill="#fffdf2" stroke="#2b2b2b" d="M232.93,-1476.86C232.93,-1476.86 43,-1476.86 43,-1476.86 37,-1476.86 31,-1470.86 31,-1464.86 31,-1464.86 31,-1364.08 31,-1364.08 31,-1358.08 37,-1352.08 43,-1352.08 43,-1352.08 232.93,-1352.08 232.93,-1352.08 238.93,-1352.08 244.93,-1358.08 244.93,-1364.08 244.93,-1364.08 244.93,-1464.86 244.93,-1464.86 244.93,-1470.86 238.93,-1476.86 232.93,-1476.86"/>
<text xml:space="preserve" text-anchor="middle" x="137.97" y="-1457.77" font-family="Arial" font-size="11.00">Complementar Informações</text>
<text xml:space="preserve" text-anchor="middle" x="137.97" y="-1444.27" font-family="Arial" font-size="11.00">Ações:</text>
<text xml:space="preserve" text-anchor="middle" x="137.97" y="-1430.77" font-family="Arial" font-size="11.00">• Solicitar dados/documentos faltantes</text>
<text xml:space="preserve" text-anchor="middle" x="137.97" y="-1417.27" font-family="Arial" font-size="11.00">• Registrar evidências no SDM</text>
<text xml:space="preserve" text-anchor="middle" x="137.97" y="-1403.77" font-family="Arial" font-size="11.00">• Alinhar via Teams/E&#45;mail</text>
<text xml:space="preserve" text-anchor="middle" x="137.97" y="-1377.27" font-family="Arial" font-size="11.00">Saída:</text>
<text xml:space="preserve" text-anchor="middle" x="137.97" y="-1363.77" font-family="Arial" font-size="11.00">• Chamado atualizado</text>
</g>
<!-- info_completa&#45;&gt;complementar_info -->
<g id="edge5" class="edge">
<title>info_completa&#45;&gt;complementar_info</title>
<path fill="none" stroke="#4a4a4a" d="M224.11,-1584.85C224.11,-1584.85 224.11,-1486.67 224.11,-1486.67"/>
<polygon fill="#4a4a4a" stroke="#4a4a4a" points="226.91,-1486.67 224.11,-1478.67 221.31,-1486.67 226.91,-1486.67"/>
<text xml:space="preserve" text-anchor="middle" x="215.11" y="-1526.26" font-family="Arial" font-size="10.00">Não</text>
</g>
<!-- avaliar_exposicao -->
<g id="node17" class="node">
<title>avaliar_exposicao</title>
<path fill="#ffffff" stroke="#2b2b2b" d="M512.18,-1470.11C512.18,-1470.11 299.75,-1470.11 299.75,-1470.11 293.75,-1470.11 287.75,-1464.11 287.75,-1458.11 287.75,-1458.11 287.75,-1370.83 287.75,-1370.83 287.75,-1364.83 293.75,-1358.83 299.75,-1358.83 299.75,-1358.83 512.18,-1358.83 512.18,-1358.83 518.18,-1358.83 524.18,-1364.83 524.18,-1370.83 524.18,-1370.83 524.18,-1458.11 524.18,-1458.11 524.18,-1464.11 518.18,-1470.11 512.18,-1470.11"/>
<text xml:space="preserve" text-anchor="middle" x="405.97" y="-1451.02" font-family="Arial" font-size="11.00">3) Avaliar Exposição e Situação Financeira</text>
<text xml:space="preserve" text-anchor="middle" x="405.97" y="-1437.52" font-family="Arial" font-size="11.00">Ações:</text>
<text xml:space="preserve" text-anchor="middle" x="405.97" y="-1424.02" font-family="Arial" font-size="11.00">• Consultar limite tomado (cliente base)</text>
<text xml:space="preserve" text-anchor="middle" x="405.97" y="-1410.52" font-family="Arial" font-size="11.00">• Verificar restrições/inadimplência</text>
<text xml:space="preserve" text-anchor="middle" x="405.97" y="-1397.02" font-family="Arial" font-size="11.00">• Analisar risco do novo pedido</text>
<text xml:space="preserve" text-anchor="middle" x="405.97" y="-1370.52" font-family="Arial" font-size="11.00">Canais: SDM / E&#45;mail / Teams</text>
</g>
<!-- info_completa&#45;&gt;avaliar_exposicao -->
<g id="edge4" class="edge">
<title>info_completa&#45;&gt;avaliar_exposicao</title>
<path fill="none" stroke="#4a4a4a" d="M361.2,-1558.54C361.2,-1558.54 361.2,-1479.97 361.2,-1479.97"/>
<polygon fill="#4a4a4a" stroke="#4a4a4a" points="364,-1479.97 361.2,-1471.97 358.4,-1479.97 364,-1479.97"/>
<text xml:space="preserve" text-anchor="middle" x="352.57" y="-1521.75" font-family="Arial" font-size="10.00">Sim</text>
</g>
<!-- complementar_info&#45;&gt;triagem -->
<g id="edge6" class="edge">
<title>complementar_info&#45;&gt;triagem</title>
<path fill="none" stroke="#4a4a4a" d="M156.52,-1477.18C156.52,-1477.18 156.52,-1744.44 156.52,-1744.44"/>
<polygon fill="#4a4a4a" stroke="#4a4a4a" points="153.72,-1744.44 156.52,-1752.44 159.32,-1744.44 153.72,-1744.44"/>
<text xml:space="preserve" text-anchor="middle" x="135.89" y="-1613.31" font-family="Arial" font-size="10.00">Reavaliar</text>
</g>
<!-- decisao_origem_limite -->
<g id="node18" class="node">
<title>decisao_origem_limite</title>
<polygon fill="#fff1b8" stroke="#2b2b2b" points="405.97,-1291.08 273.79,-1233.3 405.96,-1175.52 538.14,-1233.3 405.97,-1291.08"/>
<text xml:space="preserve" text-anchor="middle" x="405.97" y="-1243.1" font-family="Arial" font-size="11.00">Limite será aprovado</text>
<text xml:space="preserve" text-anchor="middle" x="405.97" y="-1229.6" font-family="Arial" font-size="11.00">via Seguradora</text>
<text xml:space="preserve" text-anchor="middle" x="405.97" y="-1216.1" font-family="Arial" font-size="11.00">ou Risco Interno?</text>
</g>
<!-- avaliar_exposicao&#45;&gt;decisao_origem_limite -->
<g id="edge7" class="edge">
<title>avaliar_exposicao&#45;&gt;decisao_origem_limite</title>
<path fill="none" stroke="#4a4a4a" d="M405.97,-1358.63C405.97,-1358.63 405.97,-1300.97 405.97,-1300.97"/>
<polygon fill="#4a4a4a" stroke="#4a4a4a" points="408.77,-1300.97 405.97,-1292.97 403.17,-1300.97 408.77,-1300.97"/>
</g>
<!-- encaminhar_seguradora -->
<g id="node19" class="node">
<title>encaminhar_seguradora</title>
<path fill="#ffffff" stroke="#2b2b2b" d="M351.18,-1114.52C351.18,-1114.52 180.75,-1114.52 180.75,-1114.52 174.75,-1114.52 168.75,-1108.52 168.75,-1102.52 168.75,-1102.52 168.75,-1015.24 168.75,-1015.24 168.75,-1009.24 174.75,-1003.24 180.75,-1003.24 180.75,-1003.24 351.18,-1003.24 351.18,-1003.24 357.18,-1003.24 363.18,-1009.24 363.18,-1015.24 363.18,-1015.24 363.18,-1102.52 363.18,-1102.52 363.18,-1108.52 357.18,-1114.52 351.18,-1114.52"/>
<text xml:space="preserve" text-anchor="middle" x="265.97" y="-1095.43" font-family="Arial" font-size="11.00">4A) Encaminhar para Seguradora</text>
<text xml:space="preserve" text-anchor="middle" x="265.97" y="-1081.93" font-family="Arial" font-size="11.00">Ações:</text>
<text xml:space="preserve" text-anchor="middle" x="265.97" y="-1068.43" font-family="Arial" font-size="11.00">• Preparar solicitação</text>
<text xml:space="preserve" text-anchor="middle" x="265.97" y="-1054.93" font-family="Arial" font-size="11.00">• Enviar via Portal da Seguradora</text>
<text xml:space="preserve" text-anchor="middle" x="265.97" y="-1041.43" font-family="Arial" font-size="11.00">• Acompanhar retorno</text>
<text xml:space="preserve" text-anchor="middle" x="265.97" y="-1014.93" font-family="Arial" font-size="11.00">SLA: até 5 dias úteis</text>
</g>
<!-- decisao_origem_limite&#45;&gt;encaminhar_seguradora -->
<g id="edge8" class="edge">
<title>decisao_origem_limite&#45;&gt;encaminhar_seguradora</title>
<path fill="none" stroke="#4a4a4a" d="M318.48,-1213.29C318.48,-1213.29 318.48,-1124.21 318.48,-1124.21"/>
<polygon fill="#4a4a4a" stroke="#4a4a4a" points="321.28,-1124.21 318.48,-1116.21 315.68,-1124.21 321.28,-1124.21"/>
<text xml:space="preserve" text-anchor="middle" x="293.73" y="-1159.25" font-family="Arial" font-size="10.00">Seguradora</text>
</g>
<!-- analise_interna -->
<g id="node21" class="node">
<title>analise_interna</title>
<path fill="#ffffff" stroke="#2b2b2b" d="M675.31,-1107.77C675.31,-1107.77 418.62,-1107.77 418.62,-1107.77 412.62,-1107.77 406.62,-1101.77 406.62,-1095.77 406.62,-1095.77 406.62,-1021.99 406.62,-1021.99 406.62,-1015.99 412.62,-1009.99 418.62,-1009.99 418.62,-1009.99 675.31,-1009.99 675.31,-1009.99 681.31,-1009.99 687.31,-1015.99 687.31,-1021.99 687.31,-1021.99 687.31,-1095.77 687.31,-1095.77 687.31,-1101.77 681.31,-1107.77 675.31,-1107.77"/>
<text xml:space="preserve" text-anchor="middle" x="546.97" y="-1088.68" font-family="Arial" font-size="11.00">4B) Análise Interna (Risco Interno)</text>
<text xml:space="preserve" text-anchor="middle" x="546.97" y="-1075.18" font-family="Arial" font-size="11.00">Ações:</text>
<text xml:space="preserve" text-anchor="middle" x="546.97" y="-1061.68" font-family="Arial" font-size="11.00">• Contas a Receber emite parecer</text>
<text xml:space="preserve" text-anchor="middle" x="546.97" y="-1048.18" font-family="Arial" font-size="11.00">• Submeter alçadas (Supervisão/Gerência/Diretoria)</text>
<text xml:space="preserve" text-anchor="middle" x="546.97" y="-1021.68" font-family="Arial" font-size="11.00">SLA: até 48h</text>
</g>
<!-- decisao_origem_limite&#45;&gt;analise_interna -->
<g id="edge9" class="edge">
<title>decisao_origem_limite&#45;&gt;analise_interna</title>
<path fill="none" stroke="#4a4a4a" d="M472.39,-1204.11C472.39,-1204.11 472.39,-1117.51 472.39,-1117.51"/>
<polygon fill="#4a4a4a" stroke="#4a4a4a" points="475.19,-1117.51 472.39,-1109.51 469.59,-1117.51 475.19,-1117.51"/>
<text xml:space="preserve" text-anchor="middle" x="457.39" y="-1163.31" font-family="Arial" font-size="10.00">Interno</text>
</g>
<!-- retorno_seguradora -->
<g id="node20" class="node">
<title>retorno_seguradora</title>
<polygon fill="#fff1b8" stroke="#2b2b2b" points="267.97,-928.74 147.04,-884.46 267.96,-840.18 388.9,-884.46 267.97,-928.74"/>
<text xml:space="preserve" text-anchor="middle" x="267.97" y="-887.51" font-family="Arial" font-size="11.00">Seguradora</text>
<text xml:space="preserve" text-anchor="middle" x="267.97" y="-874.01" font-family="Arial" font-size="11.00">aprovou o crédito?</text>
</g>
<!-- encaminhar_seguradora&#45;&gt;retorno_seguradora -->
<g id="edge10" class="edge">
<title>encaminhar_seguradora&#45;&gt;retorno_seguradora</title>
<path fill="none" stroke="#4a4a4a" d="M265.97,-1003.21C265.97,-1003.21 265.97,-937.81 265.97,-937.81"/>
<polygon fill="#4a4a4a" stroke="#4a4a4a" points="268.77,-937.81 265.97,-929.81 263.17,-937.81 268.77,-937.81"/>
</g>
<!-- ajustar_limite_condicoes -->
<g id="node25" class="node">
<title>ajustar_limite_condicoes</title>
<path fill="#fffdf2" stroke="#2b2b2b" d="M177.93,-765.68C177.93,-765.68 12,-765.68 12,-765.68 6,-765.68 0,-759.68 0,-753.68 0,-753.68 0,-679.4 0,-679.4 0,-673.4 6,-667.4 12,-667.4 12,-667.4 177.93,-667.4 177.93,-667.4 183.93,-667.4 189.93,-673.4 189.93,-679.4 189.93,-679.4 189.93,-753.68 189.93,-753.68 189.93,-759.68 183.93,-765.68 177.93,-765.68"/>
<text xml:space="preserve" text-anchor="middle" x="94.97" y="-746.59" font-family="Arial" font-size="11.00">Ajustar Limite/Condições</text>
<text xml:space="preserve" text-anchor="middle" x="94.97" y="-733.09" font-family="Arial" font-size="11.00">Ações:</text>
<text xml:space="preserve" text-anchor="middle" x="94.97" y="-719.59" font-family="Arial" font-size="11.00">• Revisar valor de limite</text>
<text xml:space="preserve" text-anchor="middle" x="94.97" y="-706.09" font-family="Arial" font-size="11.00">• Definir condições adicionais</text>
<text xml:space="preserve" text-anchor="middle" x="94.97" y="-692.59" font-family="Arial" font-size="11.00">• Solicitar garantias (se aplicável)</text>
<text xml:space="preserve" text-anchor="middle" x="94.97" y="-679.09" font-family="Arial" font-size="11.00">• Reavaliar</text>
</g>
<!-- retorno_seguradora&#45;&gt;ajustar_limite_condicoes -->
<g id="edge12" class="edge">
<title>retorno_seguradora&#45;&gt;ajustar_limite_condicoes</title>
<path fill="none" stroke="#4a4a4a" d="M168.48,-876.36C168.48,-876.36 168.48,-775.46 168.48,-775.46"/>
<polygon fill="#4a4a4a" stroke="#4a4a4a" points="171.28,-775.46 168.48,-767.46 165.68,-775.46 171.28,-775.46"/>
<text xml:space="preserve" text-anchor="middle" x="140.36" y="-828.41" font-family="Arial" font-size="10.00">Não (ajustar)</text>
</g>
<!-- registrar_aprovacao -->
<g id="node26" class="node">
<title>registrar_aprovacao</title>
<path fill="#d1e7dd" stroke="#1e7e34" stroke-width="1.8" d="M373.06,-456.84C373.06,-456.84 162.88,-456.84 162.88,-456.84 156.88,-456.84 150.88,-450.84 150.88,-444.84 150.88,-444.84 150.88,-384.06 150.88,-384.06 150.88,-378.06 156.88,-372.06 162.88,-372.06 162.88,-372.06 373.06,-372.06 373.06,-372.06 379.06,-372.06 385.06,-378.06 385.06,-384.06 385.06,-384.06 385.06,-444.84 385.06,-444.84 385.06,-450.84 379.06,-456.84 373.06,-456.84"/>
<text xml:space="preserve" text-anchor="middle" x="267.97" y="-437.75" font-family="Arial" font-size="11.00">✅ Aprovação de Crédito</text>
<text xml:space="preserve" text-anchor="middle" x="267.97" y="-424.25" font-family="Arial" font-size="11.00">Saída de Dados:</text>
<text xml:space="preserve" text-anchor="middle" x="267.97" y="-410.75" font-family="Arial" font-size="11.00">• Limite aprovado (Seguradora ou Interno)</text>
<text xml:space="preserve" text-anchor="middle" x="267.97" y="-397.25" font-family="Arial" font-size="11.00">• Condições registradas</text>
<text xml:space="preserve" text-anchor="middle" x="267.97" y="-383.75" font-family="Arial" font-size="11.00">• Status atualizado no SDM</text>
</g>
<!-- retorno_seguradora&#45;&gt;registrar_aprovacao -->
<g id="edge11" class="edge">
<title>retorno_seguradora&#45;&gt;registrar_aprovacao</title>
<path fill="none" stroke="#4a4a4a" d="M261.23,-842.34C261.23,-842.34 261.23,-467.18 261.23,-467.18"/>
<polygon fill="#4a4a4a" stroke="#4a4a4a" points="264.03,-467.18 261.23,-459.18 258.43,-467.18 264.03,-467.18"/>
<text xml:space="preserve" text-anchor="middle" x="252.61" y="-657.26" font-family="Arial" font-size="10.00">Sim</text>
</g>
<!-- decisao_alcada -->
<g id="node22" class="node">
<title>decisao_alcada</title>
<polygon fill="#fff1b8" stroke="#2b2b2b" points="546.97,-942.24 434.29,-884.46 546.97,-826.68 659.64,-884.46 546.97,-942.24"/>
<text xml:space="preserve" text-anchor="middle" x="546.97" y="-894.26" font-family="Arial" font-size="11.00">Necessita</text>
<text xml:space="preserve" text-anchor="middle" x="546.97" y="-880.76" font-family="Arial" font-size="11.00">alçada superior</text>
<text xml:space="preserve" text-anchor="middle" x="546.97" y="-867.26" font-family="Arial" font-size="11.00">para aprovação?</text>
</g>
<!-- analise_interna&#45;&gt;decisao_alcada -->
<g id="edge14" class="edge">
<title>analise_interna&#45;&gt;decisao_alcada</title>
<path fill="none" stroke="#4a4a4a" d="M546.97,-1009.83C546.97,-1009.83 546.97,-952.23 546.97,-952.23"/>
<polygon fill="#4a4a4a" stroke="#4a4a4a" points="549.77,-952.23 546.97,-944.23 544.17,-952.23 549.77,-952.23"/>
</g>
<!-- submeter_alcada -->
<g id="node23" class="node">
<title>submeter_alcada</title>
<path fill="#ffffff" stroke="#2b2b2b" d="M517.31,-758.93C517.31,-758.93 356.62,-758.93 356.62,-758.93 350.62,-758.93 344.62,-752.93 344.62,-746.93 344.62,-746.93 344.62,-686.15 344.62,-686.15 344.62,-680.15 350.62,-674.15 356.62,-674.15 356.62,-674.15 517.31,-674.15 517.31,-674.15 523.31,-674.15 529.31,-680.15 529.31,-686.15 529.31,-686.15 529.31,-746.93 529.31,-746.93 529.31,-752.93 523.31,-758.93 517.31,-758.93"/>
<text xml:space="preserve" text-anchor="middle" x="436.97" y="-739.84" font-family="Arial" font-size="11.00">Submeter para Alçada</text>
<text xml:space="preserve" text-anchor="middle" x="436.97" y="-726.34" font-family="Arial" font-size="11.00">Ações:</text>
<text xml:space="preserve" text-anchor="middle" x="436.97" y="-712.84" font-family="Arial" font-size="11.00">• Enviar parecer e justificativas</text>
<text xml:space="preserve" text-anchor="middle" x="436.97" y="-699.34" font-family="Arial" font-size="11.00">• Solicitar decisão (Sup/Ger/Dir)</text>
<text xml:space="preserve" text-anchor="middle" x="436.97" y="-685.84" font-family="Arial" font-size="11.00">• Registrar retorno no SDM</text>
</g>
<!-- decisao_alcada&#45;&gt;submeter_alcada -->
<g id="edge15" class="edge">
<title>decisao_alcada&#45;&gt;submeter_alcada</title>
<path fill="none" stroke="#4a4a4a" d="M481.8,-859.68C481.8,-859.68 481.8,-768.86 481.8,-768.86"/>
<polygon fill="#4a4a4a" stroke="#4a4a4a" points="484.6,-768.86 481.8,-760.86 479,-768.86 484.6,-768.86"/>
<text xml:space="preserve" text-anchor="middle" x="473.17" y="-816.77" font-family="Arial" font-size="10.00">Sim</text>
</g>
<!-- aprovado_interno -->
<g id="node24" class="node">
<title>aprovado_interno</title>
<polygon fill="#fff1b8" stroke="#2b2b2b" points="448.97,-606.4 332.54,-562.12 448.96,-517.84 565.39,-562.12 448.97,-606.4"/>
<text xml:space="preserve" text-anchor="middle" x="448.97" y="-565.17" font-family="Arial" font-size="11.00">Crédito aprovado</text>
<text xml:space="preserve" text-anchor="middle" x="448.97" y="-551.67" font-family="Arial" font-size="11.00">no Risco Interno?</text>
</g>
<!-- decisao_alcada&#45;&gt;aprovado_interno -->
<g id="edge16" class="edge">
<title>decisao_alcada&#45;&gt;aprovado_interno</title>
<path fill="none" stroke="#4a4a4a" d="M547.35,-826.46C547.35,-826.46 547.35,-578.74 547.35,-578.74"/>
<polygon fill="#4a4a4a" stroke="#4a4a4a" points="550.15,-578.74 547.35,-570.74 544.55,-578.74 550.15,-578.74"/>
<text xml:space="preserve" text-anchor="middle" x="538.35" y="-705.1" font-family="Arial" font-size="10.00">Não</text>
</g>
<!-- submeter_alcada&#45;&gt;aprovado_interno -->
<g id="edge17" class="edge">
<title>submeter_alcada&#45;&gt;aprovado_interno</title>
<path fill="none" stroke="#4a4a4a" d="M436.97,-673.94C436.97,-673.94 436.97,-611.71 436.97,-611.71"/>
<polygon fill="#4a4a4a" stroke="#4a4a4a" points="439.77,-611.71 436.97,-603.71 434.17,-611.71 439.77,-611.71"/>
</g>
<!-- aprovado_interno&#45;&gt;registrar_aprovacao -->
<g id="edge18" class="edge">
<title>aprovado_interno&#45;&gt;registrar_aprovacao</title>
<path fill="none" stroke="#4a4a4a" d="M358.8,-551.97C358.8,-551.97 358.8,-467.11 358.8,-467.11"/>
<polygon fill="#4a4a4a" stroke="#4a4a4a" points="361.6,-467.11 358.8,-459.11 356,-467.11 361.6,-467.11"/>
<text xml:space="preserve" text-anchor="middle" x="350.17" y="-500.04" font-family="Arial" font-size="10.00">Sim</text>
</g>
<!-- reprovar -->
<g id="node27" class="node">
<title>reprovar</title>
<path fill="#fdecea" stroke="#b02a37" stroke-width="1.2" d="M575.93,-311.06C575.93,-311.06 392,-311.06 392,-311.06 386,-311.06 380,-305.06 380,-299.06 380,-299.06 380,-238.28 380,-238.28 380,-232.28 386,-226.28 392,-226.28 392,-226.28 575.93,-226.28 575.93,-226.28 581.93,-226.28 587.93,-232.28 587.93,-238.28 587.93,-238.28 587.93,-299.06 587.93,-299.06 587.93,-305.06 581.93,-311.06 575.93,-311.06"/>
<text xml:space="preserve" text-anchor="middle" x="483.97" y="-291.97" font-family="Arial" font-size="11.00">❌ Crédito Não Aprovado / Bloqueio</text>
<text xml:space="preserve" text-anchor="middle" x="483.97" y="-278.47" font-family="Arial" font-size="11.00">Saída alternativa:</text>
<text xml:space="preserve" text-anchor="middle" x="483.97" y="-264.97" font-family="Arial" font-size="11.00">• Reprovação registrada</text>
<text xml:space="preserve" text-anchor="middle" x="483.97" y="-251.47" font-family="Arial" font-size="11.00">• Justificativa e restrições registradas</text>
<text xml:space="preserve" text-anchor="middle" x="483.97" y="-237.97" font-family="Arial" font-size="11.00">• Orientação para próximos passos</text>
</g>
<!-- aprovado_interno&#45;&gt;reprovar -->
<g id="edge19" class="edge">
<title>aprovado_interno&#45;&gt;reprovar</title>
<path fill="none" stroke="#4a4a4a" d="M458.72,-521.32C458.72,-521.32 458.72,-321.02 458.72,-321.02"/>
<polygon fill="#4a4a4a" stroke="#4a4a4a" points="461.52,-321.02 458.72,-313.02 455.92,-321.02 461.52,-321.02"/>
<text xml:space="preserve" text-anchor="middle" x="449.72" y="-423.67" font-family="Arial" font-size="10.00">Não</text>
</g>
<!-- ajustar_limite_condicoes&#45;&gt;encaminhar_seguradora -->
<g id="edge13" class="edge">
<title>ajustar_limite_condicoes&#45;&gt;encaminhar_seguradora</title>
<path fill="none" stroke="#4a4a4a" d="M89.02,-765.97C89.02,-860.81 89.02,-1059 89.02,-1059 89.02,-1059 158.92,-1059 158.92,-1059"/>
<polygon fill="#4a4a4a" stroke="#4a4a4a" points="158.92,-1061.8 166.92,-1059 158.92,-1056.2 158.92,-1061.8"/>
<text xml:space="preserve" text-anchor="middle" x="69.52" y="-949.94" font-family="Arial" font-size="10.00">Reenviar</text>
</g>
<!-- proximo_pedido -->
<g id="node28" class="node">
<title>proximo_pedido</title>
<g id="a_node28"><a xlink:href="RFPMoura_DCBT_Reposicao_Chumbo_REALIZAR_PEDIDO.svg" xlink:title="Abrir fluxo: Realizar Pedido (quando disponível)" target="_self">
<path fill="#eef6ff" stroke="#1f5fbf" stroke-width="1.2" d="M324.81,-290.81C324.81,-290.81 143.13,-290.81 143.13,-290.81 137.13,-290.81 131.13,-284.81 131.13,-278.81 131.13,-278.81 131.13,-258.53 131.13,-258.53 131.13,-252.53 137.13,-246.53 143.13,-246.53 143.13,-246.53 324.81,-246.53 324.81,-246.53 330.81,-246.53 336.81,-252.53 336.81,-258.53 336.81,-258.53 336.81,-278.81 336.81,-278.81 336.81,-284.81 330.81,-290.81 324.81,-290.81"/>
<text xml:space="preserve" text-anchor="middle" x="233.97" y="-271.72" font-family="Arial" font-size="11.00">➡ Próximo Passo: Realizar Pedido</text>
<text xml:space="preserve" text-anchor="middle" x="233.97" y="-258.22" font-family="Arial" font-size="11.00">(clique para abrir o fluxo)</text>
</a>
</g>
</g>
<!-- registrar_aprovacao&#45;&gt;proximo_pedido -->
<g id="edge20" class="edge">
<title>registrar_aprovacao&#45;&gt;proximo_pedido</title>
<path fill="none" stroke="#4a4a4a" d="M243.84,-371.5C243.84,-371.5 243.84,-300.59 243.84,-300.59"/>
<polygon fill="#4a4a4a" stroke="#4a4a4a" points="246.64,-300.59 243.84,-292.59 241.04,-300.59 246.64,-300.59"/>
</g>
<!-- reprovar&#45;&gt;end -->
<g id="edge22" class="edge">
<title>reprovar&#45;&gt;end</title>
<path fill="none" stroke="#4a4a4a" d="M379.47,-236C369.59,-236 363.18,-236 363.18,-236 363.18,-236 363.18,-104.44 363.18,-104.44"/>
<polygon fill="#4a4a4a" stroke="#4a4a4a" points="365.98,-104.44 363.18,-96.44 360.38,-104.44 365.98,-104.44"/>
</g>
<!-- proximo_pedido&#45;&gt;end -->
<g id="edge21" class="edge">
<title>proximo_pedido&#45;&gt;end</title>
<path fill="none" stroke="#4a4a4a" d="M337.19,-269C347.78,-269 354.75,-269 354.75,-269 354.75,-269 354.75,-104.38 354.75,-104.38"/>
<polygon fill="#4a4a4a" stroke="#4a4a4a" points="357.55,-104.38 354.75,-96.38 351.95,-104.38 357.55,-104.38"/>
</g>
</g>
</svg>
