<?xml version="1.0" encoding="UTF-8" standalone="no"?>
<!DOCTYPE svg PUBLIC "-//W3C//DTD SVG 1.1//EN"
 "http://www.w3.org/Graphics/SVG/1.1/DTD/svg11.dtd">
<!-- Generated by graphviz version 14.1.0 (20251206.1807)
 -->
<!-- Title: RFPMoura_DCM_Montadoras_MindMap Pages: 1 -->
<svg width="844pt" height="589pt"
 viewBox="0.00 0.00 844.00 589.00" xmlns="http://www.w3.org/2000/svg" xmlns:xlink="http://www.w3.org/1999/xlink">
<g id="graph0" class="graph" transform="scale(1 1) rotate(0) translate(36 553.16)">
<title>RFPMoura_DCM_Montadoras_MindMap</title>
<polygon fill="white" stroke="none" points="-36,36 -36,-553.16 808.12,-553.16 808.12,36 -36,36"/>
<text xml:space="preserve" text-anchor="middle" x="386.06" y="-490.36" font-family="Arial Bold" font-size="24.00">RFPMoura | DCM — Montadoras (Macroprocesso AS&#45;IS)</text>
<!-- DCM_HUB&#45;&gt;P1_PreVenda -->
<g id="edge1" class="edge">
<title>DCM_HUB&#45;&gt;P1_PreVenda</title>
<path fill="none" stroke="#1f5fbf" stroke-width="2.3" d="M178.35,-241.08C202.16,-241.08 228.39,-241.08 253.8,-241.08"/>
<polygon fill="#1f5fbf" stroke="#1f5fbf" stroke-width="2.3" points="253.72,-244.23 262.72,-241.08 253.72,-237.93 253.72,-244.23"/>
<text xml:space="preserve" text-anchor="middle" x="237.05" y="-232.53" font-family="Arial" font-size="9.00">Fluxo principal</text>
</g>
<!-- P1_PreVenda&#45;&gt;P2_RealizarPedido -->
<g id="edge3" class="edge">
<title>P1_PreVenda&#45;&gt;P2_RealizarPedido</title>
<path fill="none" stroke="#198754" stroke-width="2.4" d="M430.86,-214.84C479.23,-190.65 551.12,-154.71 602.74,-128.9"/>
<polygon fill="#198754" stroke="#198754" stroke-width="2.4" points="603.87,-131.85 610.51,-125.01 601.05,-126.22 603.87,-131.85"/>
<text xml:space="preserve" text-anchor="middle" x="462" y="-171.03" font-family="Arial" font-size="9.00">Proposta aprovada → Pedido</text>
</g>
<!-- P1_PreVenda&#45;&gt;P3_AnaliseCritica -->
<g id="edge2" class="edge">
<title>P1_PreVenda&#45;&gt;P3_AnaliseCritica</title>
<path fill="none" stroke="#6c757d" stroke-width="1.8" stroke-dasharray="5,2" d="M430.86,-267.32C484.14,-293.96 565.95,-334.87 617.78,-360.78"/>
<polygon fill="#6c757d" stroke="#6c757d" stroke-width="1.8" points="616.16,-363.49 625.61,-364.7 618.97,-357.86 616.16,-363.49"/>
<text xml:space="preserve" text-anchor="middle" x="466.2" y="-318.44" font-family="Arial" font-size="9.00">Tratativas e ajustes contratuais</text>
</g>
<!-- P1_PreVenda&#45;&gt;P4_Projeto -->
<g id="edge4" class="edge">
<title>P1_PreVenda&#45;&gt;P4_Projeto</title>
<path fill="none" stroke="#6c757d" stroke-width="1.8" stroke-dasharray="5,2" d="M378.38,-267.13C378.38,-305.08 378.38,-375.78 378.38,-419.4"/>
<polygon fill="#6c757d" stroke="#6c757d" stroke-width="1.8" points="375.23,-419.21 378.38,-428.21 381.53,-419.21 375.23,-419.21"/>
<text xml:space="preserve" text-anchor="middle" x="335.62" y="-350.94" font-family="Arial" font-size="9.00">Necessidade técnica</text>
</g>
<!-- P1_PreVenda&#45;&gt;P5_CadastroSKU -->
<g id="edge5" class="edge">
<title>P1_PreVenda&#45;&gt;P5_CadastroSKU</title>
<path fill="none" stroke="#6c757d" stroke-width="1.8" stroke-dasharray="5,2" d="M378.38,-215.03C378.38,-177.08 378.38,-106.38 378.38,-62.76"/>
<polygon fill="#6c757d" stroke="#6c757d" stroke-width="1.8" points="381.53,-62.95 378.38,-53.95 375.23,-62.95 381.53,-62.95"/>
<text xml:space="preserve" text-anchor="middle" x="327.38" y="-135.12" font-family="Arial" font-size="9.00">Novo SKU para proposta</text>
</g>
<!-- P1_PreVenda&#45;&gt;P6_PosVenda -->
<g id="edge6" class="edge">
<title>P1_PreVenda&#45;&gt;P6_PosVenda</title>
<path fill="none" stroke="#6c757d" stroke-width="1.8" stroke-dasharray="5,2" d="M343.35,-214.81C287.8,-173.15 180.14,-92.41 124.91,-50.98"/>
<polygon fill="#6c757d" stroke="#6c757d" stroke-width="1.8" points="127.14,-48.71 118.05,-45.83 123.36,-53.75 127.14,-48.71"/>
<text xml:space="preserve" text-anchor="middle" x="182.09" y="-131.53" font-family="Arial" font-size="9.00">Requisição de garantia</text>
</g>
<!-- DCM_HUB -->
<g id="node1" class="node">
<title>DCM_HUB</title>
<g id="a_node1"><a xlink:href="RFPMoura_DCM_Processos_MindMap.svg" xlink:title="Voltar ao mindmap geral de DCM" target="_self">
<path fill="#ffffff" stroke="#1f5fbf" stroke-width="3" d="M165,-266.91C165,-266.91 15.75,-266.91 15.75,-266.91 9.75,-266.91 3.75,-260.91 3.75,-254.91 3.75,-254.91 3.75,-227.25 3.75,-227.25 3.75,-221.25 9.75,-215.25 15.75,-215.25 15.75,-215.25 165,-215.25 165,-215.25 171,-215.25 177,-221.25 177,-227.25 177,-227.25 177,-254.91 177,-254.91 177,-260.91 171,-266.91 165,-266.91"/>
<text xml:space="preserve" text-anchor="middle" x="90.38" y="-243.53" font-family="Arial" font-size="14.00">Montadoras</text>
<text xml:space="preserve" text-anchor="middle" x="90.38" y="-227.78" font-family="Arial" font-size="14.00">(Macroprocesso DCM)</text>
</a>
</g>
</g>
<!-- P1_PreVenda -->
<g id="node2" class="node">
<title>P1_PreVenda</title>
<g id="a_node2"><a xlink:href="RFPMoura_DCM_Montadoras_PREVENDA.svg" xlink:title="Abrir fluxo detalhado de Pré&#45;Venda" target="_self">
<path fill="#e7f1ff" stroke="#0b5ed7" stroke-width="2.6" d="M477.38,-266.16C477.38,-266.16 279.38,-266.16 279.38,-266.16 273.38,-266.16 267.38,-260.16 267.38,-254.16 267.38,-254.16 267.38,-228 267.38,-228 267.38,-222 273.38,-216 279.38,-216 279.38,-216 477.38,-216 477.38,-216 483.38,-216 489.38,-222 489.38,-228 489.38,-228 489.38,-254.16 489.38,-254.16 489.38,-260.16 483.38,-266.16 477.38,-266.16"/>
<text xml:space="preserve" text-anchor="middle" x="378.38" y="-243.73" font-family="Arial" font-size="13.00" fill="#0b5ed7">1. Pré&#45;Venda</text>
<text xml:space="preserve" text-anchor="middle" x="378.38" y="-228.73" font-family="Arial" font-size="13.00" fill="#0b5ed7">Geração/Qualificação/Proposta</text>
</a>
</g>
</g>
<!-- P2_RealizarPedido -->
<g id="node3" class="node">
<title>P2_RealizarPedido</title>
<g id="a_node3"><a xlink:href="RFPMoura_DCM_Montadoras_REALIZAR_PEDIDO.svg" xlink:title="Abrir fluxo detalhado de Realizar Pedido" target="_self">
<path fill="#e7f1ff" stroke="#0b5ed7" stroke-width="2.6" d="M733.12,-122.16C733.12,-122.16 599.62,-122.16 599.62,-122.16 593.62,-122.16 587.62,-116.16 587.62,-110.16 587.62,-110.16 587.62,-84 587.62,-84 587.62,-78 593.62,-72 599.62,-72 599.62,-72 733.12,-72 733.12,-72 739.12,-72 745.12,-78 745.12,-84 745.12,-84 745.12,-110.16 745.12,-110.16 745.12,-116.16 739.12,-122.16 733.12,-122.16"/>
<text xml:space="preserve" text-anchor="middle" x="666.37" y="-99.73" font-family="Arial" font-size="13.00" fill="#0b5ed7">2. Realizar Pedido</text>
<text xml:space="preserve" text-anchor="middle" x="666.37" y="-84.73" font-family="Arial" font-size="13.00" fill="#0b5ed7">Execução e Entrega</text>
</a>
</g>
</g>
<!-- P3_AnaliseCritica -->
<g id="node4" class="node">
<title>P3_AnaliseCritica</title>
<g id="a_node4"><a xlink:href="RFPMoura_DCM_Montadoras_ANALISE_CRITICA.svg" xlink:title="Abrir fluxo detalhado de Análise Crítica de Contrato" target="_self">
<path fill="#e7f1ff" stroke="#0b5ed7" stroke-width="2.6" d="M760.12,-403.08C760.12,-403.08 572.62,-403.08 572.62,-403.08 566.62,-403.08 560.62,-397.08 560.62,-391.08 560.62,-391.08 560.62,-379.08 560.62,-379.08 560.62,-373.08 566.62,-367.08 572.62,-367.08 572.62,-367.08 760.12,-367.08 760.12,-367.08 766.12,-367.08 772.12,-373.08 772.12,-379.08 772.12,-379.08 772.12,-391.08 772.12,-391.08 772.12,-397.08 766.12,-403.08 760.12,-403.08"/>
<text xml:space="preserve" text-anchor="middle" x="666.37" y="-380.23" font-family="Arial" font-size="13.00" fill="#0b5ed7">3. Análise Crítica de Contrato</text>
</a>
</g>
</g>
<!-- P4_Projeto -->
<g id="node5" class="node">
<title>P4_Projeto</title>
<g id="a_node5"><a xlink:href="RFPMoura_DCM_Montadoras_PROJETO.svg" xlink:title="Abrir fluxo detalhado de Projeto" target="_self">
<path fill="#e7f1ff" stroke="#0b5ed7" stroke-width="2.6" d="M474.38,-482.16C474.38,-482.16 282.38,-482.16 282.38,-482.16 276.38,-482.16 270.38,-476.16 270.38,-470.16 270.38,-470.16 270.38,-444 270.38,-444 270.38,-438 276.38,-432 282.38,-432 282.38,-432 474.38,-432 474.38,-432 480.38,-432 486.38,-438 486.38,-444 486.38,-444 486.38,-470.16 486.38,-470.16 486.38,-476.16 480.38,-482.16 474.38,-482.16"/>
<text xml:space="preserve" text-anchor="middle" x="378.38" y="-459.73" font-family="Arial" font-size="13.00" fill="#0b5ed7">4. Projeto</text>
<text xml:space="preserve" text-anchor="middle" x="378.38" y="-444.73" font-family="Arial" font-size="13.00" fill="#0b5ed7">Projeto técnico / Ficha técnica</text>
</a>
</g>
</g>
<!-- P5_CadastroSKU -->
<g id="node6" class="node">
<title>P5_CadastroSKU</title>
<g id="a_node6"><a xlink:href="RFPMoura_DCM_Montadoras_CADASTRO_SKU.svg" xlink:title="Abrir fluxo detalhado de Cadastro de SKU" target="_self">
<path fill="#e7f1ff" stroke="#0b5ed7" stroke-width="2.6" d="M444.38,-50.16C444.38,-50.16 312.38,-50.16 312.38,-50.16 306.38,-50.16 300.38,-44.16 300.38,-38.16 300.38,-38.16 300.38,-12 300.38,-12 300.38,-6 306.38,0 312.38,0 312.38,0 444.38,0 444.38,0 450.38,0 456.38,-6 456.38,-12 456.38,-12 456.38,-38.16 456.38,-38.16 456.38,-44.16 450.38,-50.16 444.38,-50.16"/>
<text xml:space="preserve" text-anchor="middle" x="378.38" y="-27.73" font-family="Arial" font-size="13.00" fill="#0b5ed7">5. Cadastro de SKU</text>
<text xml:space="preserve" text-anchor="middle" x="378.38" y="-12.73" font-family="Arial" font-size="13.00" fill="#0b5ed7">Novo produto</text>
</a>
</g>
</g>
<!-- P6_PosVenda -->
<g id="node7" class="node">
<title>P6_PosVenda</title>
<g id="a_node7"><a xlink:href="RFPMoura_DCM_Montadoras_POS_VENDA.svg" xlink:title="Abrir fluxo detalhado de Pós&#45;Venda (Garantia)" target="_self">
<path fill="#e7f1ff" stroke="#0b5ed7" stroke-width="2.6" d="M168.75,-43.08C168.75,-43.08 12,-43.08 12,-43.08 6,-43.08 0,-37.08 0,-31.08 0,-31.08 0,-19.08 0,-19.08 0,-13.08 6,-7.08 12,-7.08 12,-7.08 168.75,-7.08 168.75,-7.08 174.75,-7.08 180.75,-13.08 180.75,-19.08 180.75,-19.08 180.75,-31.08 180.75,-31.08 180.75,-37.08 174.75,-43.08 168.75,-43.08"/>
<text xml:space="preserve" text-anchor="middle" x="90.38" y="-20.23" font-family="Arial" font-size="13.00" fill="#0b5ed7">6. Pós&#45;Venda (Garantia)</text>
</a>
</g>
</g>
</g>
</svg>
