<?xml version="1.0" encoding="UTF-8" standalone="no"?>
<!DOCTYPE svg PUBLIC "-//W3C//DTD SVG 1.1//EN"
 "http://www.w3.org/Graphics/SVG/1.1/DTD/svg11.dtd">
<!-- Generated by graphviz version 14.1.0 (20251206.1807)
 -->
<!-- Title: RFPMoura_DCEX_Extracompany_REALIZAR_PEDIDO Pages: 1 -->
<svg width="900pt" height="996pt"
 viewBox="0.00 0.00 900.00 996.00" xmlns="http://www.w3.org/2000/svg" xmlns:xlink="http://www.w3.org/1999/xlink">
<g id="graph0" class="graph" transform="scale(1 1) rotate(0) translate(36 960.28)">
<title>RFPMoura_DCEX_Extracompany_REALIZAR_PEDIDO</title>
<polygon fill="white" stroke="none" points="-36,36 -36,-960.28 863.5,-960.28 863.5,36 -36,36"/>
<text xml:space="preserve" text-anchor="middle" x="413.75" y="-897.48" font-family="Arial Bold" font-size="24.00">RFPMoura | DCEX — Processo de REALIZAR_PEDIDO (Extracompany)</text>
<!-- REALIZAR_PEDIDO_VOLTAR -->
<g id="node1" class="node">
<title>REALIZAR_PEDIDO_VOLTAR</title>
<g id="a_node1"><a xlink:href="RFPMoura_DCEX_Extracompany_MindMap.svg" xlink:title="Voltar ao mindmap de Extracompany" target="_self">
<path fill="#ffffff" stroke="#1f5fbf" stroke-width="3" d="M540.88,-889.28C540.88,-889.28 286.62,-889.28 286.62,-889.28 280.62,-889.28 274.62,-883.28 274.62,-877.28 274.62,-877.28 274.62,-865.28 274.62,-865.28 274.62,-859.28 280.62,-853.28 286.62,-853.28 286.62,-853.28 540.88,-853.28 540.88,-853.28 546.88,-853.28 552.88,-859.28 552.88,-865.28 552.88,-865.28 552.88,-877.28 552.88,-877.28 552.88,-883.28 546.88,-889.28 540.88,-889.28"/>
<text xml:space="preserve" text-anchor="middle" x="413.75" y="-867" font-family="Arial" font-size="12.00" fill="#1f5fbf">⟵ Voltar para Macroprocesso Extracompany</text>
</a>
</g>
</g>
<!-- REALIZAR_PEDIDO_ETAPA1 -->
<g id="node2" class="node">
<title>REALIZAR_PEDIDO_ETAPA1</title>
<path fill="#e7f1ff" stroke="#0b5ed7" stroke-width="2" d="M506.38,-795.28C506.38,-795.28 321.12,-795.28 321.12,-795.28 315.12,-795.28 309.12,-789.28 309.12,-783.28 309.12,-783.28 309.12,-758.62 309.12,-758.62 309.12,-752.62 315.12,-746.62 321.12,-746.62 321.12,-746.62 506.38,-746.62 506.38,-746.62 512.38,-746.62 518.38,-752.62 518.38,-758.62 518.38,-758.62 518.38,-783.28 518.38,-783.28 518.38,-789.28 512.38,-795.28 506.38,-795.28"/>
<text xml:space="preserve" text-anchor="middle" x="413.75" y="-773.8" font-family="Arial" font-size="12.00" fill="#0b5ed7">1. Receber solicitação do cliente</text>
<text xml:space="preserve" text-anchor="middle" x="413.75" y="-759.55" font-family="Arial" font-size="12.00" fill="#0b5ed7">(Entrada: E&#45;mail)</text>
</g>
<!-- REALIZAR_PEDIDO_VOLTAR&#45;&gt;REALIZAR_PEDIDO_ETAPA1 -->
<g id="edge1" class="edge">
<title>REALIZAR_PEDIDO_VOLTAR&#45;&gt;REALIZAR_PEDIDO_ETAPA1</title>
<path fill="none" stroke="#6c757d" stroke-width="1.8" d="M413.75,-851.94C413.75,-851.94 413.75,-807.67 413.75,-807.67"/>
<polygon fill="#6c757d" stroke="#6c757d" stroke-width="1.8" points="416.9,-807.67 413.75,-798.67 410.6,-807.67 416.9,-807.67"/>
</g>
<!-- REALIZAR_PEDIDO_ETAPA2 -->
<g id="node3" class="node">
<title>REALIZAR_PEDIDO_ETAPA2</title>
<path fill="#ffffff" stroke="#2b2b2b" d="M512.75,-688.62C512.75,-688.62 314.75,-688.62 314.75,-688.62 308.75,-688.62 302.75,-682.62 302.75,-676.62 302.75,-676.62 302.75,-651.96 302.75,-651.96 302.75,-645.96 308.75,-639.96 314.75,-639.96 314.75,-639.96 512.75,-639.96 512.75,-639.96 518.75,-639.96 524.75,-645.96 524.75,-651.96 524.75,-651.96 524.75,-676.62 524.75,-676.62 524.75,-682.62 518.75,-688.62 512.75,-688.62"/>
<text xml:space="preserve" text-anchor="middle" x="413.75" y="-667.14" font-family="Arial" font-size="12.00">2. Verificar otimização de container</text>
<text xml:space="preserve" text-anchor="middle" x="413.75" y="-652.89" font-family="Arial" font-size="12.00">(Análise logística inicial)</text>
</g>
<!-- REALIZAR_PEDIDO_ETAPA1&#45;&gt;REALIZAR_PEDIDO_ETAPA2 -->
<g id="edge2" class="edge">
<title>REALIZAR_PEDIDO_ETAPA1&#45;&gt;REALIZAR_PEDIDO_ETAPA2</title>
<path fill="none" stroke="#6c757d" stroke-width="1.8" d="M413.75,-745.67C413.75,-745.67 413.75,-700.74 413.75,-700.74"/>
<polygon fill="#6c757d" stroke="#6c757d" stroke-width="1.8" points="416.9,-700.74 413.75,-691.74 410.6,-700.74 416.9,-700.74"/>
</g>
<!-- REALIZAR_PEDIDO_ETAPA3 -->
<g id="node4" class="node">
<title>REALIZAR_PEDIDO_ETAPA3</title>
<path fill="#ffffff" stroke="#2b2b2b" d="M504.88,-581.96C504.88,-581.96 322.62,-581.96 322.62,-581.96 316.62,-581.96 310.62,-575.96 310.62,-569.96 310.62,-569.96 310.62,-545.3 310.62,-545.3 310.62,-539.3 316.62,-533.3 322.62,-533.3 322.62,-533.3 504.88,-533.3 504.88,-533.3 510.88,-533.3 516.88,-539.3 516.88,-545.3 516.88,-545.3 516.88,-569.96 516.88,-569.96 516.88,-575.96 510.88,-581.96 504.88,-581.96"/>
<text xml:space="preserve" text-anchor="middle" x="413.75" y="-560.48" font-family="Arial" font-size="12.00">3. Preencher Proforma</text>
<text xml:space="preserve" text-anchor="middle" x="413.75" y="-546.23" font-family="Arial" font-size="12.00">(Base para formalização da OV)</text>
</g>
<!-- REALIZAR_PEDIDO_ETAPA2&#45;&gt;REALIZAR_PEDIDO_ETAPA3 -->
<g id="edge3" class="edge">
<title>REALIZAR_PEDIDO_ETAPA2&#45;&gt;REALIZAR_PEDIDO_ETAPA3</title>
<path fill="none" stroke="#6c757d" stroke-width="1.8" d="M413.75,-639.55C413.75,-639.55 413.75,-593.96 413.75,-593.96"/>
<polygon fill="#6c757d" stroke="#6c757d" stroke-width="1.8" points="416.9,-593.96 413.75,-584.96 410.6,-593.96 416.9,-593.96"/>
</g>
<!-- REALIZAR_PEDIDO_ETAPA4 -->
<g id="node5" class="node">
<title>REALIZAR_PEDIDO_ETAPA4</title>
<path fill="#ffffff" stroke="#2b2b2b" d="M491.38,-475.3C491.38,-475.3 336.12,-475.3 336.12,-475.3 330.12,-475.3 324.12,-469.3 324.12,-463.3 324.12,-463.3 324.12,-438.64 324.12,-438.64 324.12,-432.64 330.12,-426.64 336.12,-426.64 336.12,-426.64 491.38,-426.64 491.38,-426.64 497.38,-426.64 503.38,-432.64 503.38,-438.64 503.38,-438.64 503.38,-463.3 503.38,-463.3 503.38,-469.3 497.38,-475.3 491.38,-475.3"/>
<text xml:space="preserve" text-anchor="middle" x="413.75" y="-453.82" font-family="Arial" font-size="12.00">4. Formalizar OV no OSGT</text>
<text xml:space="preserve" text-anchor="middle" x="413.75" y="-439.57" font-family="Arial" font-size="12.00">(Registro da ordem)</text>
</g>
<!-- REALIZAR_PEDIDO_ETAPA3&#45;&gt;REALIZAR_PEDIDO_ETAPA4 -->
<g id="edge4" class="edge">
<title>REALIZAR_PEDIDO_ETAPA3&#45;&gt;REALIZAR_PEDIDO_ETAPA4</title>
<path fill="none" stroke="#6c757d" stroke-width="1.8" d="M413.75,-532.89C413.75,-532.89 413.75,-487.3 413.75,-487.3"/>
<polygon fill="#6c757d" stroke="#6c757d" stroke-width="1.8" points="416.9,-487.3 413.75,-478.3 410.6,-487.3 416.9,-487.3"/>
</g>
<!-- REALIZAR_PEDIDO_ETAPA5 -->
<g id="node6" class="node">
<title>REALIZAR_PEDIDO_ETAPA5</title>
<path fill="#ffffff" stroke="#2b2b2b" d="M536.38,-368.64C536.38,-368.64 291.12,-368.64 291.12,-368.64 285.12,-368.64 279.12,-362.64 279.12,-356.64 279.12,-356.64 279.12,-331.98 279.12,-331.98 279.12,-325.98 285.12,-319.98 291.12,-319.98 291.12,-319.98 536.38,-319.98 536.38,-319.98 542.38,-319.98 548.38,-325.98 548.38,-331.98 548.38,-331.98 548.38,-356.64 548.38,-356.64 548.38,-362.64 542.38,-368.64 536.38,-368.64"/>
<text xml:space="preserve" text-anchor="middle" x="413.75" y="-347.16" font-family="Arial" font-size="12.00">5. Acompanhar embarque e transporte</text>
<text xml:space="preserve" text-anchor="middle" x="413.75" y="-332.91" font-family="Arial" font-size="12.00">(Monitoramento em OSGT / SAP / Power BI)</text>
</g>
<!-- REALIZAR_PEDIDO_ETAPA4&#45;&gt;REALIZAR_PEDIDO_ETAPA5 -->
<g id="edge5" class="edge">
<title>REALIZAR_PEDIDO_ETAPA4&#45;&gt;REALIZAR_PEDIDO_ETAPA5</title>
<path fill="none" stroke="#6c757d" stroke-width="1.8" d="M413.75,-426.23C413.75,-426.23 413.75,-380.64 413.75,-380.64"/>
<polygon fill="#6c757d" stroke="#6c757d" stroke-width="1.8" points="416.9,-380.64 413.75,-371.64 410.6,-380.64 416.9,-380.64"/>
</g>
<!-- REALIZAR_PEDIDO_ETAPA6 -->
<g id="node7" class="node">
<title>REALIZAR_PEDIDO_ETAPA6</title>
<path fill="#ffffff" stroke="#2b2b2b" d="M492.5,-261.98C492.5,-261.98 335,-261.98 335,-261.98 329,-261.98 323,-255.98 323,-249.98 323,-249.98 323,-225.32 323,-225.32 323,-219.32 329,-213.32 335,-213.32 335,-213.32 492.5,-213.32 492.5,-213.32 498.5,-213.32 504.5,-219.32 504.5,-225.32 504.5,-225.32 504.5,-249.98 504.5,-249.98 504.5,-255.98 498.5,-261.98 492.5,-261.98"/>
<text xml:space="preserve" text-anchor="middle" x="413.75" y="-240.5" font-family="Arial" font-size="12.00">6. Faturamento</text>
<text xml:space="preserve" text-anchor="middle" x="413.75" y="-226.25" font-family="Arial" font-size="12.00">(Emissão das notas fiscais)</text>
</g>
<!-- REALIZAR_PEDIDO_ETAPA5&#45;&gt;REALIZAR_PEDIDO_ETAPA6 -->
<g id="edge6" class="edge">
<title>REALIZAR_PEDIDO_ETAPA5&#45;&gt;REALIZAR_PEDIDO_ETAPA6</title>
<path fill="none" stroke="#6c757d" stroke-width="1.8" d="M413.75,-319.57C413.75,-319.57 413.75,-273.98 413.75,-273.98"/>
<polygon fill="#6c757d" stroke="#6c757d" stroke-width="1.8" points="416.9,-273.98 413.75,-264.98 410.6,-273.98 416.9,-273.98"/>
</g>
<!-- REALIZAR_PEDIDO_ETAPA7 -->
<g id="node8" class="node">
<title>REALIZAR_PEDIDO_ETAPA7</title>
<path fill="#ffffff" stroke="#2b2b2b" d="M539.75,-155.32C539.75,-155.32 287.75,-155.32 287.75,-155.32 281.75,-155.32 275.75,-149.32 275.75,-143.32 275.75,-143.32 275.75,-118.66 275.75,-118.66 275.75,-112.66 281.75,-106.66 287.75,-106.66 287.75,-106.66 539.75,-106.66 539.75,-106.66 545.75,-106.66 551.75,-112.66 551.75,-118.66 551.75,-118.66 551.75,-143.32 551.75,-143.32 551.75,-149.32 545.75,-155.32 539.75,-155.32"/>
<text xml:space="preserve" text-anchor="middle" x="413.75" y="-133.84" font-family="Arial" font-size="12.00">7. Preenchimento e envio de documentações</text>
<text xml:space="preserve" text-anchor="middle" x="413.75" y="-119.59" font-family="Arial" font-size="12.00">(Documentação comercial, logística e fiscal)</text>
</g>
<!-- REALIZAR_PEDIDO_ETAPA6&#45;&gt;REALIZAR_PEDIDO_ETAPA7 -->
<g id="edge7" class="edge">
<title>REALIZAR_PEDIDO_ETAPA6&#45;&gt;REALIZAR_PEDIDO_ETAPA7</title>
<path fill="none" stroke="#6c757d" stroke-width="1.8" d="M413.75,-212.91C413.75,-212.91 413.75,-167.32 413.75,-167.32"/>
<polygon fill="#6c757d" stroke="#6c757d" stroke-width="1.8" points="416.9,-167.32 413.75,-158.32 410.6,-167.32 416.9,-167.32"/>
</g>
<!-- REALIZAR_PEDIDO_ETAPA8 -->
<g id="node9" class="node">
<title>REALIZAR_PEDIDO_ETAPA8</title>
<path fill="#eaf7ef" stroke="#146c43" stroke-width="2" d="M575.38,-48.66C575.38,-48.66 252.12,-48.66 252.12,-48.66 246.12,-48.66 240.12,-42.66 240.12,-36.66 240.12,-36.66 240.12,-12 240.12,-12 240.12,-6 246.12,0 252.12,0 252.12,0 575.38,0 575.38,0 581.38,0 587.38,-6 587.38,-12 587.38,-12 587.38,-36.66 587.38,-36.66 587.38,-42.66 581.38,-48.66 575.38,-48.66"/>
<text xml:space="preserve" text-anchor="middle" x="413.75" y="-27.18" font-family="Arial" font-size="12.00" fill="#146c43">8. Entrega do produto ao cliente</text>
<text xml:space="preserve" text-anchor="middle" x="413.75" y="-12.93" font-family="Arial" font-size="12.00" fill="#146c43">(Saída: Pedido/Produção/Faturamento/Entrega Realizada)</text>
</g>
<!-- REALIZAR_PEDIDO_ETAPA7&#45;&gt;REALIZAR_PEDIDO_ETAPA8 -->
<g id="edge8" class="edge">
<title>REALIZAR_PEDIDO_ETAPA7&#45;&gt;REALIZAR_PEDIDO_ETAPA8</title>
<path fill="none" stroke="#6c757d" stroke-width="1.8" d="M413.75,-106.25C413.75,-106.25 413.75,-61.03 413.75,-61.03"/>
<polygon fill="#6c757d" stroke="#6c757d" stroke-width="1.8" points="416.9,-61.03 413.75,-52.03 410.6,-61.03 416.9,-61.03"/>
</g>
</g>
</svg>
