<?xml version="1.0" encoding="UTF-8" standalone="no"?>
<!DOCTYPE svg PUBLIC "-//W3C//DTD SVG 1.1//EN"
 "http://www.w3.org/Graphics/SVG/1.1/DTD/svg11.dtd">
<!-- Generated by graphviz version 14.1.0 (20251206.1807)
 -->
<!-- Title: RFPMoura_DCBT_Reposicao_Chumbo_PROJETO Pages: 1 -->
<svg width="1710pt" height="1732pt"
 viewBox="14.00 14.00 1695.00 1718.00" xmlns="http://www.w3.org/2000/svg" xmlns:xlink="http://www.w3.org/1999/xlink">
<g id="graph0" class="graph" transform="scale(1 1) rotate(0) translate(28.8 1703.44)">
<title>RFPMoura_DCBT_Reposicao_Chumbo_PROJETO</title>
<polygon fill="white" stroke="none" points="-14.4,14.4 -14.4,-1689.04 1666.58,-1689.04 1666.58,14.4 -14.4,14.4"/>
<text xml:space="preserve" text-anchor="middle" x="826.09" y="-1653.54" font-family="Arial" font-size="18.00">AS&#45;IS | DCBT — Reposição (Chumbo)</text>
<text xml:space="preserve" text-anchor="middle" x="826.09" y="-1632.54" font-family="Arial" font-size="18.00">Projeto (Criação de Projeto e/ou Ficha Técnica)</text>
<!-- start -->
<g id="node1" class="node">
<title>start</title>
<ellipse fill="#2ecc71" stroke="#2ecc71" cx="438.47" cy="-1606.64" rx="7.2" ry="7.2"/>
</g>
<!-- receber_chamado -->
<g id="node14" class="node">
<title>receber_chamado</title>
<path fill="#e7f1ff" stroke="#0b5ed7" stroke-width="1.6" d="M551.81,-1527.64C551.81,-1527.64 325.12,-1527.64 325.12,-1527.64 319.12,-1527.64 313.12,-1521.64 313.12,-1515.64 313.12,-1515.64 313.12,-1455.36 313.12,-1455.36 313.12,-1449.36 319.12,-1443.36 325.12,-1443.36 325.12,-1443.36 551.81,-1443.36 551.81,-1443.36 557.81,-1443.36 563.81,-1449.36 563.81,-1455.36 563.81,-1455.36 563.81,-1515.64 563.81,-1515.64 563.81,-1521.64 557.81,-1527.64 551.81,-1527.64"/>
<text xml:space="preserve" text-anchor="middle" x="438.47" y="-1508.55" font-family="Arial" font-size="11.00">1) Receber Solicitação de Projeto</text>
<text xml:space="preserve" text-anchor="middle" x="438.47" y="-1495.05" font-family="Arial" font-size="11.00">Entrada: Ticket Ploomes e/ou Chamado SDM</text>
<text xml:space="preserve" text-anchor="middle" x="438.47" y="-1468.55" font-family="Arial" font-size="11.00">Atividade Executada:</text>
<text xml:space="preserve" text-anchor="middle" x="438.47" y="-1455.05" font-family="Arial" font-size="11.00">Criação de Projeto e/ou Ficha Técnica</text>
</g>
<!-- start&#45;&gt;receber_chamado -->
<g id="edge1" class="edge">
<title>start&#45;&gt;receber_chamado</title>
<path fill="none" stroke="#4a4a4a" d="M438.47,-1599.06C438.47,-1599.06 438.47,-1537.77 438.47,-1537.77"/>
<polygon fill="#4a4a4a" stroke="#4a4a4a" points="441.27,-1537.77 438.47,-1529.77 435.67,-1537.77 441.27,-1537.77"/>
</g>
<!-- end -->
<g id="node2" class="node">
<title>end</title>
<ellipse fill="#e74c3c" stroke="#e74c3c" cx="178.47" cy="-82.64" rx="8.64" ry="8.64"/>
<ellipse fill="none" stroke="#e74c3c" cx="178.47" cy="-82.64" rx="12.64" ry="12.64"/>
</g>
<!-- voltarHub -->
<g id="node3" class="node">
<title>voltarHub</title>
<g id="a_node3"><a xlink:href="RFPMoura_DCBT_Processos_MindMap.svg" xlink:title="↩ HUB (DCBT)" target="_self">
<path fill="#eef6ff" stroke="#1f5fbf" stroke-width="1.2" d="M592.31,-1624.64C592.31,-1624.64 500.62,-1624.64 500.62,-1624.64 494.62,-1624.64 488.62,-1618.64 488.62,-1612.64 488.62,-1612.64 488.62,-1600.64 488.62,-1600.64 488.62,-1594.64 494.62,-1588.64 500.62,-1588.64 500.62,-1588.64 592.31,-1588.64 592.31,-1588.64 598.31,-1588.64 604.31,-1594.64 604.31,-1600.64 604.31,-1600.64 604.31,-1612.64 604.31,-1612.64 604.31,-1618.64 598.31,-1624.64 592.31,-1624.64"/>
<text xml:space="preserve" text-anchor="middle" x="546.47" y="-1602.94" font-family="Arial" font-size="11.00">↩ HUB (DCBT)</text>
</a>
</g>
</g>
<!-- voltarReposicao -->
<g id="node4" class="node">
<title>voltarReposicao</title>
<g id="a_node4"><a xlink:href="RFPMoura_DCBT_Reposicao_MindMap.svg" xlink:title="⬅ Voltar para REPOSIÇÃO (Mindmap)" target="_self">
<path fill="#e7f1ff" stroke="#0b5ed7" stroke-width="1.6" d="M861.81,-1624.64C861.81,-1624.64 659.12,-1624.64 659.12,-1624.64 653.12,-1624.64 647.12,-1618.64 647.12,-1612.64 647.12,-1612.64 647.12,-1600.64 647.12,-1600.64 647.12,-1594.64 653.12,-1588.64 659.12,-1588.64 659.12,-1588.64 861.81,-1588.64 861.81,-1588.64 867.81,-1588.64 873.81,-1594.64 873.81,-1600.64 873.81,-1600.64 873.81,-1612.64 873.81,-1612.64 873.81,-1618.64 867.81,-1624.64 861.81,-1624.64"/>
<text xml:space="preserve" text-anchor="middle" x="760.47" y="-1602.94" font-family="Arial" font-size="11.00">⬅ Voltar para REPOSIÇÃO (Mindmap)</text>
</a>
</g>
</g>
<!-- voltarCriarProposta -->
<g id="node5" class="node">
<title>voltarCriarProposta</title>
<g id="a_node5"><a xlink:href="RFPMoura_DCBT_Reposicao_Chumbo_CRIAR_PROPOSTA.svg" xlink:title="⬅ Voltar para CRIAR PROPOSTA" target="_self">
<path fill="#e7f1ff" stroke="#0b5ed7" stroke-width="1.2" d="M1109.93,-1624.64C1109.93,-1624.64 929,-1624.64 929,-1624.64 923,-1624.64 917,-1618.64 917,-1612.64 917,-1612.64 917,-1600.64 917,-1600.64 917,-1594.64 923,-1588.64 929,-1588.64 929,-1588.64 1109.93,-1588.64 1109.93,-1588.64 1115.93,-1588.64 1121.93,-1594.64 1121.93,-1600.64 1121.93,-1600.64 1121.93,-1612.64 1121.93,-1612.64 1121.93,-1618.64 1115.93,-1624.64 1109.93,-1624.64"/>
<text xml:space="preserve" text-anchor="middle" x="1019.47" y="-1602.94" font-family="Arial" font-size="11.00">⬅ Voltar para CRIAR PROPOSTA</text>
</a>
</g>
</g>
<!-- voltarProspeccao -->
<g id="node6" class="node">
<title>voltarProspeccao</title>
<g id="a_node6"><a xlink:href="RFPMoura_DCBT_Reposicao_Chumbo_PROSPECCAO_QUALIFICACAO.svg" xlink:title="⬅ Voltar para PROSPECÇÃO/QUALIFICAÇÃO" target="_self">
<path fill="#e7f1ff" stroke="#0b5ed7" stroke-width="1.2" d="M1423.56,-1624.64C1423.56,-1624.64 1177.38,-1624.64 1177.38,-1624.64 1171.38,-1624.64 1165.38,-1618.64 1165.38,-1612.64 1165.38,-1612.64 1165.38,-1600.64 1165.38,-1600.64 1165.38,-1594.64 1171.38,-1588.64 1177.38,-1588.64 1177.38,-1588.64 1423.56,-1588.64 1423.56,-1588.64 1429.56,-1588.64 1435.56,-1594.64 1435.56,-1600.64 1435.56,-1600.64 1435.56,-1612.64 1435.56,-1612.64 1435.56,-1618.64 1429.56,-1624.64 1423.56,-1624.64"/>
<text xml:space="preserve" text-anchor="middle" x="1300.47" y="-1602.94" font-family="Arial" font-size="11.00">⬅ Voltar para PROSPECÇÃO/QUALIFICAÇÃO</text>
</a>
</g>
</g>
<!-- irCadastroSKU -->
<g id="node7" class="node">
<title>irCadastroSKU</title>
<g id="a_node7"><a xlink:href="RFPMoura_DCBT_Reposicao_Chumbo_CADASTRO_SKU.svg" xlink:title="Abrir fluxo: Cadastro SKU" target="_self">
<path fill="#f3e5f5" stroke="#6a1b9a" stroke-width="1.2" d="M1640.18,-1624.64C1640.18,-1624.64 1490.75,-1624.64 1490.75,-1624.64 1484.75,-1624.64 1478.75,-1618.64 1478.75,-1612.64 1478.75,-1612.64 1478.75,-1600.64 1478.75,-1600.64 1478.75,-1594.64 1484.75,-1588.64 1490.75,-1588.64 1490.75,-1588.64 1640.18,-1588.64 1640.18,-1588.64 1646.18,-1588.64 1652.18,-1594.64 1652.18,-1600.64 1652.18,-1600.64 1652.18,-1612.64 1652.18,-1612.64 1652.18,-1618.64 1646.18,-1624.64 1640.18,-1624.64"/>
<text xml:space="preserve" text-anchor="middle" x="1565.47" y="-1602.94" font-family="Arial" font-size="11.00">➡ Ir para CADASTRO SKU</text>
</a>
</g>
</g>
<!-- stakeholders -->
<g id="node8" class="node">
<title>stakeholders</title>
<polygon fill="#f8f9fa" stroke="#2b2b2b" points="852.56,-1521.14 606.38,-1521.14 606.38,-1449.86 858.56,-1449.86 858.56,-1515.14 852.56,-1521.14"/>
<polyline fill="none" stroke="#2b2b2b" points="852.56,-1521.14 852.56,-1515.14"/>
<polyline fill="none" stroke="#2b2b2b" points="858.56,-1515.14 852.56,-1515.14"/>
<text xml:space="preserve" text-anchor="middle" x="732.47" y="-1502.05" font-family="Arial" font-size="11.00">Key Users / Áreas / Stakeholders:</text>
<text xml:space="preserve" text-anchor="middle" x="732.47" y="-1488.55" font-family="Arial" font-size="11.00">• Unidades RSM</text>
<text xml:space="preserve" text-anchor="middle" x="732.47" y="-1475.05" font-family="Arial" font-size="11.00">• Atendimento de Vendas e Serviço ao Cliente</text>
<text xml:space="preserve" text-anchor="middle" x="732.47" y="-1461.55" font-family="Arial" font-size="11.00">• Engenharia</text>
</g>
<!-- entradas -->
<g id="node9" class="node">
<title>entradas</title>
<polygon fill="#f8f9fa" stroke="#2b2b2b" points="877.81,-1382.36 603.12,-1382.36 603.12,-1271.08 883.81,-1271.08 883.81,-1376.36 877.81,-1382.36"/>
<polyline fill="none" stroke="#2b2b2b" points="877.81,-1382.36 877.81,-1376.36"/>
<polyline fill="none" stroke="#2b2b2b" points="883.81,-1376.36 877.81,-1376.36"/>
<text xml:space="preserve" text-anchor="middle" x="743.47" y="-1363.27" font-family="Arial" font-size="11.00">Entrada de Dados / Informação:</text>
<text xml:space="preserve" text-anchor="middle" x="743.47" y="-1349.77" font-family="Arial" font-size="11.00">• Ticket Ploomes</text>
<text xml:space="preserve" text-anchor="middle" x="743.47" y="-1336.27" font-family="Arial" font-size="11.00">• Chamado SDM</text>
<text xml:space="preserve" text-anchor="middle" x="743.47" y="-1309.77" font-family="Arial" font-size="11.00">Observação:</text>
<text xml:space="preserve" text-anchor="middle" x="743.47" y="-1296.27" font-family="Arial" font-size="11.00">Pode ser acionado por necessidade de novo projeto</text>
<text xml:space="preserve" text-anchor="middle" x="743.47" y="-1282.77" font-family="Arial" font-size="11.00">ou por necessidade de cadastro de novo SKU</text>
</g>
<!-- sistemas -->
<g id="node10" class="node">
<title>sistemas</title>
<polygon fill="#f8f9fa" stroke="#2b2b2b" points="832.68,-883.96 710.25,-883.96 710.25,-772.68 838.68,-772.68 838.68,-877.96 832.68,-883.96"/>
<polyline fill="none" stroke="#2b2b2b" points="832.68,-883.96 832.68,-877.96"/>
<polyline fill="none" stroke="#2b2b2b" points="838.68,-877.96 832.68,-877.96"/>
<text xml:space="preserve" text-anchor="middle" x="774.47" y="-864.87" font-family="Arial" font-size="11.00">Sistemas Utilizados:</text>
<text xml:space="preserve" text-anchor="middle" x="774.47" y="-851.37" font-family="Arial" font-size="11.00">• SDM</text>
<text xml:space="preserve" text-anchor="middle" x="774.47" y="-837.87" font-family="Arial" font-size="11.00">• SAP</text>
<text xml:space="preserve" text-anchor="middle" x="774.47" y="-824.37" font-family="Arial" font-size="11.00">• Ploomes</text>
<text xml:space="preserve" text-anchor="middle" x="774.47" y="-797.87" font-family="Arial" font-size="11.00">Frequência:</text>
<text xml:space="preserve" text-anchor="middle" x="774.47" y="-784.37" font-family="Arial" font-size="11.00">• Sob demanda</text>
</g>
<!-- sla -->
<g id="node11" class="node">
<title>sla</title>
<polygon fill="#fffdf2" stroke="#2b2b2b" points="677.18,-711.43 461.75,-711.43 461.75,-627.15 683.18,-627.15 683.18,-705.43 677.18,-711.43"/>
<polyline fill="none" stroke="#2b2b2b" points="677.18,-711.43 677.18,-705.43"/>
<polyline fill="none" stroke="#2b2b2b" points="683.18,-705.43 677.18,-705.43"/>
<text xml:space="preserve" text-anchor="middle" x="572.47" y="-692.34" font-family="Arial" font-size="11.00">Tempo Médio (SLA):</text>
<text xml:space="preserve" text-anchor="middle" x="572.47" y="-678.84" font-family="Arial" font-size="11.00">• 5 dias úteis</text>
<text xml:space="preserve" text-anchor="middle" x="572.47" y="-652.34" font-family="Arial" font-size="11.00">Oportunidade:</text>
<text xml:space="preserve" text-anchor="middle" x="572.47" y="-638.84" font-family="Arial" font-size="11.00">• Gestão de SLA e visibilidade de status</text>
</g>
<!-- oportunidades -->
<g id="node12" class="node">
<title>oportunidades</title>
<polygon fill="#f8f9fa" stroke="#2b2b2b" points="939.81,-416.34 695.12,-416.34 695.12,-331.56 945.81,-331.56 945.81,-410.34 939.81,-416.34"/>
<polyline fill="none" stroke="#2b2b2b" points="939.81,-416.34 939.81,-410.34"/>
<polyline fill="none" stroke="#2b2b2b" points="945.81,-410.34 939.81,-410.34"/>
<text xml:space="preserve" text-anchor="middle" x="820.47" y="-397.25" font-family="Arial" font-size="11.00">Oportunidades:</text>
<text xml:space="preserve" text-anchor="middle" x="820.47" y="-383.75" font-family="Arial" font-size="11.00">• Gestão de SLA</text>
<text xml:space="preserve" text-anchor="middle" x="820.47" y="-370.25" font-family="Arial" font-size="11.00">• Redução de retrabalho entre áreas</text>
<text xml:space="preserve" text-anchor="middle" x="820.47" y="-356.75" font-family="Arial" font-size="11.00">• Maior visibilidade e alinhamento</text>
<text xml:space="preserve" text-anchor="middle" x="820.47" y="-343.25" font-family="Arial" font-size="11.00">• Fortalecimento da governança de processos</text>
</g>
<!-- produto_salesforce -->
<g id="node13" class="node">
<title>produto_salesforce</title>
<polygon fill="#f8f9fa" stroke="#2b2b2b" points="560.68,-165.28 234.25,-165.28 234.25,0 566.68,0 566.68,-159.28 560.68,-165.28"/>
<polyline fill="none" stroke="#2b2b2b" points="560.68,-165.28 560.68,-159.28"/>
<polyline fill="none" stroke="#2b2b2b" points="566.68,-159.28 560.68,-159.28"/>
<text xml:space="preserve" text-anchor="middle" x="400.47" y="-146.19" font-family="Arial" font-size="11.00">Produto Salesforce:</text>
<text xml:space="preserve" text-anchor="middle" x="400.47" y="-132.69" font-family="Arial" font-size="11.00">• Sales Cloud</text>
<text xml:space="preserve" text-anchor="middle" x="400.47" y="-119.19" font-family="Arial" font-size="11.00">• Service Cloud</text>
<text xml:space="preserve" text-anchor="middle" x="400.47" y="-105.69" font-family="Arial" font-size="11.00">• Experience Cloud</text>
<text xml:space="preserve" text-anchor="middle" x="400.47" y="-92.19" font-family="Arial" font-size="11.00">• Partner Community</text>
<text xml:space="preserve" text-anchor="middle" x="400.47" y="-65.69" font-family="Arial" font-size="11.00">Soluções Aplicáveis:</text>
<text xml:space="preserve" text-anchor="middle" x="400.47" y="-52.19" font-family="Arial" font-size="11.00">• Recepção da composição de custos e estrutura dos produtos</text>
<text xml:space="preserve" text-anchor="middle" x="400.47" y="-38.69" font-family="Arial" font-size="11.00">• Envio/consulta de ordens e status</text>
<text xml:space="preserve" text-anchor="middle" x="400.47" y="-25.19" font-family="Arial" font-size="11.00">• Controle de prazos e SLAs</text>
<text xml:space="preserve" text-anchor="middle" x="400.47" y="-11.69" font-family="Arial" font-size="11.00">• Colaboração segura e compartilhamento (comunidade/portal)</text>
</g>
<!-- triagem -->
<g id="node15" class="node">
<title>triagem</title>
<path fill="#ffffff" stroke="#2b2b2b" d="M548.06,-1369.11C548.06,-1369.11 328.88,-1369.11 328.88,-1369.11 322.88,-1369.11 316.88,-1363.11 316.88,-1357.11 316.88,-1357.11 316.88,-1296.33 316.88,-1296.33 316.88,-1290.33 322.88,-1284.33 328.88,-1284.33 328.88,-1284.33 548.06,-1284.33 548.06,-1284.33 554.06,-1284.33 560.06,-1290.33 560.06,-1296.33 560.06,-1296.33 560.06,-1357.11 560.06,-1357.11 560.06,-1363.11 554.06,-1369.11 548.06,-1369.11"/>
<text xml:space="preserve" text-anchor="middle" x="438.47" y="-1350.02" font-family="Arial" font-size="11.00">2) Triagem e Entendimento da Necessidade</text>
<text xml:space="preserve" text-anchor="middle" x="438.47" y="-1336.52" font-family="Arial" font-size="11.00">Ações:</text>
<text xml:space="preserve" text-anchor="middle" x="438.47" y="-1323.02" font-family="Arial" font-size="11.00">• Validar escopo (novo projeto? novo SKU?)</text>
<text xml:space="preserve" text-anchor="middle" x="438.47" y="-1309.52" font-family="Arial" font-size="11.00">• Checar informações mínimas</text>
<text xml:space="preserve" text-anchor="middle" x="438.47" y="-1296.02" font-family="Arial" font-size="11.00">• Identificar área responsável (Engenharia)</text>
</g>
<!-- receber_chamado&#45;&gt;triagem -->
<g id="edge2" class="edge">
<title>receber_chamado&#45;&gt;triagem</title>
<path fill="none" stroke="#4a4a4a" d="M438.47,-1442.95C438.47,-1442.95 438.47,-1378.9 438.47,-1378.9"/>
<polygon fill="#4a4a4a" stroke="#4a4a4a" points="441.27,-1378.9 438.47,-1370.9 435.67,-1378.9 441.27,-1378.9"/>
</g>
<!-- decisao_necessita_projeto -->
<g id="node16" class="node">
<title>decisao_necessita_projeto</title>
<polygon fill="#fff1b8" stroke="#2b2b2b" points="339.47,-1210.08 234.29,-1152.3 339.46,-1094.52 444.65,-1152.3 339.47,-1210.08"/>
<text xml:space="preserve" text-anchor="middle" x="339.47" y="-1162.1" font-family="Arial" font-size="11.00">Necessita novo</text>
<text xml:space="preserve" text-anchor="middle" x="339.47" y="-1148.6" font-family="Arial" font-size="11.00">Projeto e/ou</text>
<text xml:space="preserve" text-anchor="middle" x="339.47" y="-1135.1" font-family="Arial" font-size="11.00">Ficha Técnica?</text>
</g>
<!-- triagem&#45;&gt;decisao_necessita_projeto -->
<g id="edge3" class="edge">
<title>triagem&#45;&gt;decisao_necessita_projeto</title>
<path fill="none" stroke="#4a4a4a" d="M380.76,-1284.05C380.76,-1284.05 380.76,-1197.29 380.76,-1197.29"/>
<polygon fill="#4a4a4a" stroke="#4a4a4a" points="383.56,-1197.29 380.76,-1189.29 377.96,-1197.29 383.56,-1197.29"/>
</g>
<!-- registrar_e_encerrar -->
<g id="node17" class="node">
<title>registrar_e_encerrar</title>
<path fill="#fdecea" stroke="#b02a37" stroke-width="1.2" d="M180.93,-711.68C180.93,-711.68 12,-711.68 12,-711.68 6,-711.68 0,-705.68 0,-699.68 0,-699.68 0,-638.9 0,-638.9 0,-632.9 6,-626.9 12,-626.9 12,-626.9 180.93,-626.9 180.93,-626.9 186.93,-626.9 192.93,-632.9 192.93,-638.9 192.93,-638.9 192.93,-699.68 192.93,-699.68 192.93,-705.68 186.93,-711.68 180.93,-711.68"/>
<text xml:space="preserve" text-anchor="middle" x="96.47" y="-692.59" font-family="Arial" font-size="11.00">Encerrar/Redirecionar Solicitação</text>
<text xml:space="preserve" text-anchor="middle" x="96.47" y="-679.09" font-family="Arial" font-size="11.00">Ações:</text>
<text xml:space="preserve" text-anchor="middle" x="96.47" y="-665.59" font-family="Arial" font-size="11.00">• Registrar motivo (não aplicável)</text>
<text xml:space="preserve" text-anchor="middle" x="96.47" y="-652.09" font-family="Arial" font-size="11.00">• Orientar solicitante</text>
<text xml:space="preserve" text-anchor="middle" x="96.47" y="-638.59" font-family="Arial" font-size="11.00">• Encaminhar para etapa correta</text>
</g>
<!-- decisao_necessita_projeto&#45;&gt;registrar_e_encerrar -->
<g id="edge4" class="edge">
<title>decisao_necessita_projeto&#45;&gt;registrar_e_encerrar</title>
<path fill="none" stroke="#4a4a4a" d="M233.94,-1152C168.36,-1152 96.47,-1152 96.47,-1152 96.47,-1152 96.47,-721.64 96.47,-721.64"/>
<polygon fill="#4a4a4a" stroke="#4a4a4a" points="99.27,-721.64 96.47,-713.64 93.67,-721.64 99.27,-721.64"/>
<text xml:space="preserve" text-anchor="middle" x="87.47" y="-1008.06" font-family="Arial" font-size="10.00">Não</text>
</g>
<!-- decisao_info_completa -->
<g id="node18" class="node">
<title>decisao_info_completa</title>
<polygon fill="#fff1b8" stroke="#2b2b2b" points="339.47,-1033.52 205.04,-989.24 339.46,-944.96 473.9,-989.24 339.47,-1033.52"/>
<text xml:space="preserve" text-anchor="middle" x="339.47" y="-992.29" font-family="Arial" font-size="11.00">Informações mínimas</text>
<text xml:space="preserve" text-anchor="middle" x="339.47" y="-978.79" font-family="Arial" font-size="11.00">estão completas?</text>
</g>
<!-- decisao_necessita_projeto&#45;&gt;decisao_info_completa -->
<g id="edge6" class="edge">
<title>decisao_necessita_projeto&#45;&gt;decisao_info_completa</title>
<path fill="none" stroke="#4a4a4a" d="M339.47,-1094.35C339.47,-1094.35 339.47,-1043.44 339.47,-1043.44"/>
<polygon fill="#4a4a4a" stroke="#4a4a4a" points="342.27,-1043.44 339.47,-1035.44 336.67,-1043.44 342.27,-1043.44"/>
<text xml:space="preserve" text-anchor="middle" x="330.84" y="-1071.4" font-family="Arial" font-size="10.00">Sim</text>
</g>
<!-- registrar_e_encerrar&#45;&gt;end -->
<g id="edge5" class="edge">
<title>registrar_e_encerrar&#45;&gt;end</title>
<path fill="none" stroke="#4a4a4a" d="M80.56,-626.65C80.56,-491.74 80.56,-83 80.56,-83 80.56,-83 156.15,-83 156.15,-83"/>
<polygon fill="#4a4a4a" stroke="#4a4a4a" points="156.15,-85.8 164.15,-83 156.15,-80.2 156.15,-85.8"/>
</g>
<!-- complementar_info -->
<g id="node19" class="node">
<title>complementar_info</title>
<path fill="#fffdf2" stroke="#2b2b2b" d="M655.43,-883.96C655.43,-883.96 483.5,-883.96 483.5,-883.96 477.5,-883.96 471.5,-877.96 471.5,-871.96 471.5,-871.96 471.5,-784.68 471.5,-784.68 471.5,-778.68 477.5,-772.68 483.5,-772.68 483.5,-772.68 655.43,-772.68 655.43,-772.68 661.43,-772.68 667.43,-778.68 667.43,-784.68 667.43,-784.68 667.43,-871.96 667.43,-871.96 667.43,-877.96 661.43,-883.96 655.43,-883.96"/>
<text xml:space="preserve" text-anchor="middle" x="569.47" y="-864.87" font-family="Arial" font-size="11.00">3) Complementar Informações</text>
<text xml:space="preserve" text-anchor="middle" x="569.47" y="-851.37" font-family="Arial" font-size="11.00">Ações:</text>
<text xml:space="preserve" text-anchor="middle" x="569.47" y="-837.87" font-family="Arial" font-size="11.00">• Solicitar dados faltantes</text>
<text xml:space="preserve" text-anchor="middle" x="569.47" y="-824.37" font-family="Arial" font-size="11.00">• Ajustar ticket/chamado</text>
<text xml:space="preserve" text-anchor="middle" x="569.47" y="-810.87" font-family="Arial" font-size="11.00">• Registrar evidências e anexos</text>
<text xml:space="preserve" text-anchor="middle" x="569.47" y="-784.37" font-family="Arial" font-size="11.00">Saída: Ticket/Chamado atualizado</text>
</g>
<!-- decisao_info_completa&#45;&gt;complementar_info -->
<g id="edge8" class="edge">
<title>decisao_info_completa&#45;&gt;complementar_info</title>
<path fill="none" stroke="#4a4a4a" d="M466.62,-986.44C466.62,-965.03 466.62,-828 466.62,-828 466.62,-828 467.07,-828 467.07,-828"/>
<polygon fill="#4a4a4a" stroke="#4a4a4a" points="461.53,-830.8 469.53,-828 461.53,-825.2 461.53,-830.8"/>
<text xml:space="preserve" text-anchor="middle" x="457.62" y="-909.5" font-family="Arial" font-size="10.00">Não</text>
</g>
<!-- elaborar_projeto -->
<g id="node20" class="node">
<title>elaborar_projeto</title>
<path fill="#ffffff" stroke="#2b2b2b" d="M416.93,-883.96C416.93,-883.96 212,-883.96 212,-883.96 206,-883.96 200,-877.96 200,-871.96 200,-871.96 200,-784.68 200,-784.68 200,-778.68 206,-772.68 212,-772.68 212,-772.68 416.93,-772.68 416.93,-772.68 422.93,-772.68 428.93,-778.68 428.93,-784.68 428.93,-784.68 428.93,-871.96 428.93,-871.96 428.93,-877.96 422.93,-883.96 416.93,-883.96"/>
<text xml:space="preserve" text-anchor="middle" x="314.47" y="-864.87" font-family="Arial" font-size="11.00">4) Elaborar Projeto / Ficha Técnica</text>
<text xml:space="preserve" text-anchor="middle" x="314.47" y="-851.37" font-family="Arial" font-size="11.00">Ações:</text>
<text xml:space="preserve" text-anchor="middle" x="314.47" y="-837.87" font-family="Arial" font-size="11.00">• Definir especificação técnica</text>
<text xml:space="preserve" text-anchor="middle" x="314.47" y="-824.37" font-family="Arial" font-size="11.00">• Consolidar estrutura/composição</text>
<text xml:space="preserve" text-anchor="middle" x="314.47" y="-810.87" font-family="Arial" font-size="11.00">• Preparar documentação técnica</text>
<text xml:space="preserve" text-anchor="middle" x="314.47" y="-784.37" font-family="Arial" font-size="11.00">Sistemas: SDM / SAP (quando aplicável)</text>
</g>
<!-- decisao_info_completa&#45;&gt;elaborar_projeto -->
<g id="edge7" class="edge">
<title>decisao_info_completa&#45;&gt;elaborar_projeto</title>
<path fill="none" stroke="#4a4a4a" d="M316.98,-951.92C316.98,-951.92 316.98,-893.89 316.98,-893.89"/>
<polygon fill="#4a4a4a" stroke="#4a4a4a" points="319.78,-893.89 316.98,-885.89 314.18,-893.89 319.78,-893.89"/>
<text xml:space="preserve" text-anchor="middle" x="308.36" y="-925.4" font-family="Arial" font-size="10.00">Sim</text>
</g>
<!-- complementar_info&#45;&gt;triagem -->
<g id="edge9" class="edge">
<title>complementar_info&#45;&gt;triagem</title>
<path fill="none" stroke="#4a4a4a" d="M516.98,-884.04C516.98,-884.04 516.98,-1274.48 516.98,-1274.48"/>
<polygon fill="#4a4a4a" stroke="#4a4a4a" points="514.18,-1274.48 516.98,-1282.48 519.78,-1274.48 514.18,-1274.48"/>
<text xml:space="preserve" text-anchor="middle" x="496.35" y="-1081.76" font-family="Arial" font-size="10.00">Reavaliar</text>
</g>
<!-- revisar_validar -->
<g id="node21" class="node">
<title>revisar_validar</title>
<path fill="#ffffff" stroke="#2b2b2b" d="M406.68,-711.68C406.68,-711.68 248.25,-711.68 248.25,-711.68 242.25,-711.68 236.25,-705.68 236.25,-699.68 236.25,-699.68 236.25,-638.9 236.25,-638.9 236.25,-632.9 242.25,-626.9 248.25,-626.9 248.25,-626.9 406.68,-626.9 406.68,-626.9 412.68,-626.9 418.68,-632.9 418.68,-638.9 418.68,-638.9 418.68,-699.68 418.68,-699.68 418.68,-705.68 412.68,-711.68 406.68,-711.68"/>
<text xml:space="preserve" text-anchor="middle" x="327.47" y="-692.59" font-family="Arial" font-size="11.00">5) Revisão e Validação Técnica</text>
<text xml:space="preserve" text-anchor="middle" x="327.47" y="-679.09" font-family="Arial" font-size="11.00">Ações:</text>
<text xml:space="preserve" text-anchor="middle" x="327.47" y="-665.59" font-family="Arial" font-size="11.00">• Checagem por Engenharia</text>
<text xml:space="preserve" text-anchor="middle" x="327.47" y="-652.09" font-family="Arial" font-size="11.00">• Ajustes finais</text>
<text xml:space="preserve" text-anchor="middle" x="327.47" y="-638.59" font-family="Arial" font-size="11.00">• Versionamento do documento</text>
</g>
<!-- elaborar_projeto&#45;&gt;revisar_validar -->
<g id="edge10" class="edge">
<title>elaborar_projeto&#45;&gt;revisar_validar</title>
<path fill="none" stroke="#4a4a4a" d="M327.47,-772.25C327.47,-772.25 327.47,-721.62 327.47,-721.62"/>
<polygon fill="#4a4a4a" stroke="#4a4a4a" points="330.27,-721.62 327.47,-713.62 324.67,-721.62 330.27,-721.62"/>
</g>
<!-- decisao_validado -->
<g id="node22" class="node">
<title>decisao_validado</title>
<polygon fill="#fff1b8" stroke="#2b2b2b" points="445.47,-565.9 315.54,-521.62 445.46,-477.34 575.39,-521.62 445.47,-565.9"/>
<text xml:space="preserve" text-anchor="middle" x="445.47" y="-524.67" font-family="Arial" font-size="11.00">Documento validado</text>
<text xml:space="preserve" text-anchor="middle" x="445.47" y="-511.17" font-family="Arial" font-size="11.00">(Engenharia)?</text>
</g>
<!-- revisar_validar&#45;&gt;decisao_validado -->
<g id="edge11" class="edge">
<title>revisar_validar&#45;&gt;decisao_validado</title>
<path fill="none" stroke="#4a4a4a" d="M367.11,-626.58C367.11,-626.58 367.11,-548.9 367.11,-548.9"/>
<polygon fill="#4a4a4a" stroke="#4a4a4a" points="369.91,-548.9 367.11,-540.9 364.31,-548.9 369.91,-548.9"/>
</g>
<!-- ajustar_documento -->
<g id="node23" class="node">
<title>ajustar_documento</title>
<path fill="#fffdf2" stroke="#2b2b2b" d="M327.81,-416.34C327.81,-416.34 173.13,-416.34 173.13,-416.34 167.13,-416.34 161.13,-410.34 161.13,-404.34 161.13,-404.34 161.13,-343.56 161.13,-343.56 161.13,-337.56 167.13,-331.56 173.13,-331.56 173.13,-331.56 327.81,-331.56 327.81,-331.56 333.81,-331.56 339.81,-337.56 339.81,-343.56 339.81,-343.56 339.81,-404.34 339.81,-404.34 339.81,-410.34 333.81,-416.34 327.81,-416.34"/>
<text xml:space="preserve" text-anchor="middle" x="250.47" y="-397.25" font-family="Arial" font-size="11.00">Ajustar Projeto / Ficha Técnica</text>
<text xml:space="preserve" text-anchor="middle" x="250.47" y="-383.75" font-family="Arial" font-size="11.00">Ações:</text>
<text xml:space="preserve" text-anchor="middle" x="250.47" y="-370.25" font-family="Arial" font-size="11.00">• Corrigir inconsistências</text>
<text xml:space="preserve" text-anchor="middle" x="250.47" y="-356.75" font-family="Arial" font-size="11.00">• Atualizar versão</text>
<text xml:space="preserve" text-anchor="middle" x="250.47" y="-343.25" font-family="Arial" font-size="11.00">• Revalidar</text>
</g>
<!-- decisao_validado&#45;&gt;ajustar_documento -->
<g id="edge13" class="edge">
<title>decisao_validado&#45;&gt;ajustar_documento</title>
<path fill="none" stroke="#4a4a4a" d="M327.67,-517.04C327.67,-517.04 327.67,-426.01 327.67,-426.01"/>
<polygon fill="#4a4a4a" stroke="#4a4a4a" points="330.47,-426.01 327.67,-418.01 324.87,-426.01 330.47,-426.01"/>
<text xml:space="preserve" text-anchor="middle" x="318.67" y="-462.03" font-family="Arial" font-size="10.00">Não</text>
</g>
<!-- publicar_saida -->
<g id="node24" class="node">
<title>publicar_saida</title>
<path fill="#d1e7dd" stroke="#1e7e34" stroke-width="1.8" d="M640.18,-409.59C640.18,-409.59 394.75,-409.59 394.75,-409.59 388.75,-409.59 382.75,-403.59 382.75,-397.59 382.75,-397.59 382.75,-350.31 382.75,-350.31 382.75,-344.31 388.75,-338.31 394.75,-338.31 394.75,-338.31 640.18,-338.31 640.18,-338.31 646.18,-338.31 652.18,-344.31 652.18,-350.31 652.18,-350.31 652.18,-397.59 652.18,-397.59 652.18,-403.59 646.18,-409.59 640.18,-409.59"/>
<text xml:space="preserve" text-anchor="middle" x="517.47" y="-390.5" font-family="Arial" font-size="11.00">✅ Projeto e/ou Ficha Técnica Concluídos</text>
<text xml:space="preserve" text-anchor="middle" x="517.47" y="-377" font-family="Arial" font-size="11.00">Saída de Dados:</text>
<text xml:space="preserve" text-anchor="middle" x="517.47" y="-363.5" font-family="Arial" font-size="11.00">• Projeto e/ou ficha técnica para cadastro do SKU</text>
<text xml:space="preserve" text-anchor="middle" x="517.47" y="-350" font-family="Arial" font-size="11.00">• Status atualizado no SDM/Ploomes</text>
</g>
<!-- decisao_validado&#45;&gt;publicar_saida -->
<g id="edge12" class="edge">
<title>decisao_validado&#45;&gt;publicar_saida</title>
<path fill="none" stroke="#4a4a4a" d="M479.07,-488.48C479.07,-488.48 479.07,-419.86 479.07,-419.86"/>
<polygon fill="#4a4a4a" stroke="#4a4a4a" points="481.87,-419.86 479.07,-411.86 476.27,-419.86 481.87,-419.86"/>
<text xml:space="preserve" text-anchor="middle" x="470.45" y="-456.67" font-family="Arial" font-size="10.00">Sim</text>
</g>
<!-- ajustar_documento&#45;&gt;revisar_validar -->
<g id="edge14" class="edge">
<title>ajustar_documento&#45;&gt;revisar_validar</title>
<path fill="none" stroke="#4a4a4a" d="M275.89,-416.58C275.89,-416.58 275.89,-617.16 275.89,-617.16"/>
<polygon fill="#4a4a4a" stroke="#4a4a4a" points="273.09,-617.16 275.89,-625.16 278.69,-617.16 273.09,-617.16"/>
<text xml:space="preserve" text-anchor="middle" x="255.27" y="-519.37" font-family="Arial" font-size="10.00">Revalidar</text>
</g>
<!-- proximo_cadastro_sku -->
<g id="node25" class="node">
<title>proximo_cadastro_sku</title>
<g id="a_node25"><a xlink:href="RFPMoura_DCBT_Reposicao_Chumbo_CADASTRO_SKU.svg" xlink:title="➡ Próximo Passo: Cadastro SKU\n(clique para abrir o fluxo)" target="_self">
<path fill="#eef6ff" stroke="#1f5fbf" stroke-width="1.2" d="M477.31,-270.56C477.31,-270.56 301.62,-270.56 301.62,-270.56 295.62,-270.56 289.62,-264.56 289.62,-258.56 289.62,-258.56 289.62,-238.28 289.62,-238.28 289.62,-232.28 295.62,-226.28 301.62,-226.28 301.62,-226.28 477.31,-226.28 477.31,-226.28 483.31,-226.28 489.31,-232.28 489.31,-238.28 489.31,-238.28 489.31,-258.56 489.31,-258.56 489.31,-264.56 483.31,-270.56 477.31,-270.56"/>
<text xml:space="preserve" text-anchor="middle" x="389.47" y="-251.47" font-family="Arial" font-size="11.00">➡ Próximo Passo: Cadastro SKU</text>
<text xml:space="preserve" text-anchor="middle" x="389.47" y="-237.97" font-family="Arial" font-size="11.00">(clique para abrir o fluxo)</text>
</a>
</g>
</g>
<!-- publicar_saida&#45;&gt;proximo_cadastro_sku -->
<g id="edge15" class="edge">
<title>publicar_saida&#45;&gt;proximo_cadastro_sku</title>
<path fill="none" stroke="#4a4a4a" d="M436.03,-337.64C436.03,-337.64 436.03,-280.36 436.03,-280.36"/>
<polygon fill="#4a4a4a" stroke="#4a4a4a" points="438.83,-280.36 436.03,-272.36 433.23,-280.36 438.83,-280.36"/>
</g>
<!-- proximo_cadastro_sku&#45;&gt;end -->
<g id="edge16" class="edge">
<title>proximo_cadastro_sku&#45;&gt;end</title>
<path fill="none" stroke="#4a4a4a" d="M289.22,-248C234.78,-248 178.47,-248 178.47,-248 178.47,-248 178.47,-105.13 178.47,-105.13"/>
<polygon fill="#4a4a4a" stroke="#4a4a4a" points="181.27,-105.13 178.47,-97.13 175.67,-105.13 181.27,-105.13"/>
</g>
</g>
</svg>
