<?xml version="1.0" encoding="UTF-8" standalone="no"?>
<!DOCTYPE svg PUBLIC "-//W3C//DTD SVG 1.1//EN"
 "http://www.w3.org/Graphics/SVG/1.1/DTD/svg11.dtd">
<!-- Generated by graphviz version 14.1.0 (20251206.1807)
 -->
<!-- Title: RFPMoura_DCBT_Reposicao_Chumbo_SOP Pages: 1 -->
<svg width="1481pt" height="1567pt"
 viewBox="14.00 14.00 1467.00 1553.00" xmlns="http://www.w3.org/2000/svg" xmlns:xlink="http://www.w3.org/1999/xlink">
<g id="graph0" class="graph" transform="scale(1 1) rotate(0) translate(28.8 1538.1)">
<title>RFPMoura_DCBT_Reposicao_Chumbo_SOP</title>
<polygon fill="white" stroke="none" points="-14.4,14.4 -14.4,-1523.7 1437.95,-1523.7 1437.95,14.4 -14.4,14.4"/>
<text xml:space="preserve" text-anchor="middle" x="711.78" y="-1488.2" font-family="Arial" font-size="18.00">AS&#45;IS | DCBT — Reposição (Chumbo)</text>
<text xml:space="preserve" text-anchor="middle" x="711.78" y="-1467.2" font-family="Arial" font-size="18.00">S&amp;OP (Análise de Produção Prevista)</text>
<!-- start -->
<g id="node1" class="node">
<title>start</title>
<ellipse fill="#2ecc71" stroke="#2ecc71" cx="291.84" cy="-1441.3" rx="7.2" ry="7.2"/>
</g>
<!-- iniciar_ciclo -->
<g id="node13" class="node">
<title>iniciar_ciclo</title>
<path fill="#e0f2f1" stroke="#00695c" stroke-width="1.8" d="M397.31,-1362.3C397.31,-1362.3 186.38,-1362.3 186.38,-1362.3 180.38,-1362.3 174.38,-1356.3 174.38,-1350.3 174.38,-1350.3 174.38,-1316.52 174.38,-1316.52 174.38,-1310.52 180.38,-1304.52 186.38,-1304.52 186.38,-1304.52 397.31,-1304.52 397.31,-1304.52 403.31,-1304.52 409.31,-1310.52 409.31,-1316.52 409.31,-1316.52 409.31,-1350.3 409.31,-1350.3 409.31,-1356.3 403.31,-1362.3 397.31,-1362.3"/>
<text xml:space="preserve" text-anchor="middle" x="291.84" y="-1343.21" font-family="Arial" font-size="11.00">1) Iniciar Ciclo Mensal de S&amp;OP</text>
<text xml:space="preserve" text-anchor="middle" x="291.84" y="-1329.71" font-family="Arial" font-size="11.00">Objetivo: alinhar DCBT e DPI</text>
<text xml:space="preserve" text-anchor="middle" x="291.84" y="-1316.21" font-family="Arial" font-size="11.00">para planejamento adequado da produção</text>
</g>
<!-- start&#45;&gt;iniciar_ciclo -->
<g id="edge1" class="edge">
<title>start&#45;&gt;iniciar_ciclo</title>
<path fill="none" stroke="#4a4a4a" d="M291.84,-1433.88C291.84,-1433.88 291.84,-1372.51 291.84,-1372.51"/>
<polygon fill="#4a4a4a" stroke="#4a4a4a" points="294.64,-1372.51 291.84,-1364.51 289.04,-1372.51 294.64,-1372.51"/>
</g>
<!-- end -->
<g id="node2" class="node">
<title>end</title>
<ellipse fill="#e74c3c" stroke="#e74c3c" cx="135.84" cy="-82.64" rx="8.64" ry="8.64"/>
<ellipse fill="none" stroke="#e74c3c" cx="135.84" cy="-82.64" rx="12.64" ry="12.64"/>
</g>
<!-- voltarHub -->
<g id="node3" class="node">
<title>voltarHub</title>
<g id="a_node3"><a xlink:href="RFPMoura_DCBT_Processos_MindMap.svg" xlink:title="↩ HUB (DCBT)" target="_self">
<path fill="#eef6ff" stroke="#1f5fbf" stroke-width="1.2" d="M445.68,-1459.3C445.68,-1459.3 354,-1459.3 354,-1459.3 348,-1459.3 342,-1453.3 342,-1447.3 342,-1447.3 342,-1435.3 342,-1435.3 342,-1429.3 348,-1423.3 354,-1423.3 354,-1423.3 445.68,-1423.3 445.68,-1423.3 451.68,-1423.3 457.68,-1429.3 457.68,-1435.3 457.68,-1435.3 457.68,-1447.3 457.68,-1447.3 457.68,-1453.3 451.68,-1459.3 445.68,-1459.3"/>
<text xml:space="preserve" text-anchor="middle" x="399.84" y="-1437.6" font-family="Arial" font-size="11.00">↩ HUB (DCBT)</text>
</a>
</g>
</g>
<!-- voltarReposicao -->
<g id="node4" class="node">
<title>voltarReposicao</title>
<g id="a_node4"><a xlink:href="RFPMoura_DCBT_Reposicao_MindMap.svg" xlink:title="⬅ Voltar para REPOSIÇÃO (Mindmap)" target="_self">
<path fill="#e7f1ff" stroke="#0b5ed7" stroke-width="1.6" d="M715.18,-1459.3C715.18,-1459.3 512.5,-1459.3 512.5,-1459.3 506.5,-1459.3 500.5,-1453.3 500.5,-1447.3 500.5,-1447.3 500.5,-1435.3 500.5,-1435.3 500.5,-1429.3 506.5,-1423.3 512.5,-1423.3 512.5,-1423.3 715.18,-1423.3 715.18,-1423.3 721.18,-1423.3 727.18,-1429.3 727.18,-1435.3 727.18,-1435.3 727.18,-1447.3 727.18,-1447.3 727.18,-1453.3 721.18,-1459.3 715.18,-1459.3"/>
<text xml:space="preserve" text-anchor="middle" x="613.84" y="-1437.6" font-family="Arial" font-size="11.00">⬅ Voltar para REPOSIÇÃO (Mindmap)</text>
</a>
</g>
</g>
<!-- voltarProposta -->
<g id="node5" class="node">
<title>voltarProposta</title>
<g id="a_node5"><a xlink:href="RFPMoura_DCBT_Reposicao_Chumbo_CRIAR_PROPOSTA.svg" xlink:title="⬅ Voltar para CRIAR PROPOSTA" target="_self">
<path fill="#e7f1ff" stroke="#0b5ed7" stroke-width="1.2" d="M963.31,-1459.3C963.31,-1459.3 782.38,-1459.3 782.38,-1459.3 776.38,-1459.3 770.38,-1453.3 770.38,-1447.3 770.38,-1447.3 770.38,-1435.3 770.38,-1435.3 770.38,-1429.3 776.38,-1423.3 782.38,-1423.3 782.38,-1423.3 963.31,-1423.3 963.31,-1423.3 969.31,-1423.3 975.31,-1429.3 975.31,-1435.3 975.31,-1435.3 975.31,-1447.3 975.31,-1447.3 975.31,-1453.3 969.31,-1459.3 963.31,-1459.3"/>
<text xml:space="preserve" text-anchor="middle" x="872.84" y="-1437.6" font-family="Arial" font-size="11.00">⬅ Voltar para CRIAR PROPOSTA</text>
</a>
</g>
</g>
<!-- voltarPedido -->
<g id="node6" class="node">
<title>voltarPedido</title>
<g id="a_node6"><a xlink:href="RFPMoura_DCBT_Reposicao_Chumbo_REALIZAR_PEDIDO.svg" xlink:title="⬅ Voltar para REALIZAR PEDIDO" target="_self">
<path fill="#e7f1ff" stroke="#0b5ed7" stroke-width="1.2" d="M1213.05,-1459.3C1213.05,-1459.3 1030.62,-1459.3 1030.62,-1459.3 1024.62,-1459.3 1018.62,-1453.3 1018.62,-1447.3 1018.62,-1447.3 1018.62,-1435.3 1018.62,-1435.3 1018.62,-1429.3 1024.62,-1423.3 1030.62,-1423.3 1030.62,-1423.3 1213.05,-1423.3 1213.05,-1423.3 1219.05,-1423.3 1225.05,-1429.3 1225.05,-1435.3 1225.05,-1435.3 1225.05,-1447.3 1225.05,-1447.3 1225.05,-1453.3 1219.05,-1459.3 1213.05,-1459.3"/>
<text xml:space="preserve" text-anchor="middle" x="1121.84" y="-1437.6" font-family="Arial" font-size="11.00">⬅ Voltar para REALIZAR PEDIDO</text>
</a>
</g>
</g>
<!-- irComissao -->
<g id="node7" class="node">
<title>irComissao</title>
<g id="a_node7"><a xlink:href="RFPMoura_DCBT_REP_Comissao.svg" xlink:title="Abrir (quando disponível)" target="_self">
<path fill="#eef6ff" stroke="#1f5fbf" stroke-width="1.2" d="M1411.55,-1459.3C1411.55,-1459.3 1280.12,-1459.3 1280.12,-1459.3 1274.12,-1459.3 1268.12,-1453.3 1268.12,-1447.3 1268.12,-1447.3 1268.12,-1435.3 1268.12,-1435.3 1268.12,-1429.3 1274.12,-1423.3 1280.12,-1423.3 1280.12,-1423.3 1411.55,-1423.3 1411.55,-1423.3 1417.55,-1423.3 1423.55,-1429.3 1423.55,-1435.3 1423.55,-1435.3 1423.55,-1447.3 1423.55,-1447.3 1423.55,-1453.3 1417.55,-1459.3 1411.55,-1459.3"/>
<text xml:space="preserve" text-anchor="middle" x="1345.84" y="-1437.6" font-family="Arial" font-size="11.00">➡ Próximo: COMISSÃO</text>
</a>
</g>
</g>
<!-- stakeholders -->
<g id="node8" class="node">
<title>stakeholders</title>
<polygon fill="#f8f9fa" stroke="#2b2b2b" points="715.56,-1362.3 452.12,-1362.3 452.12,-1304.52 721.56,-1304.52 721.56,-1356.3 715.56,-1362.3"/>
<polyline fill="none" stroke="#2b2b2b" points="715.56,-1362.3 715.56,-1356.3"/>
<polyline fill="none" stroke="#2b2b2b" points="721.56,-1356.3 715.56,-1356.3"/>
<text xml:space="preserve" text-anchor="middle" x="586.84" y="-1343.21" font-family="Arial" font-size="11.00">Key Users / Áreas / Stakeholders:</text>
<text xml:space="preserve" text-anchor="middle" x="586.84" y="-1329.71" font-family="Arial" font-size="11.00">• DCBT</text>
<text xml:space="preserve" text-anchor="middle" x="586.84" y="-1316.21" font-family="Arial" font-size="11.00">• DPI (Departamento de Planejamento Integrado)</text>
</g>
<!-- entradas -->
<g id="node9" class="node">
<title>entradas</title>
<polygon fill="#f8f9fa" stroke="#2b2b2b" points="657.18,-1236.52 448.5,-1236.52 448.5,-1152.24 663.18,-1152.24 663.18,-1230.52 657.18,-1236.52"/>
<polyline fill="none" stroke="#2b2b2b" points="657.18,-1236.52 657.18,-1230.52"/>
<polyline fill="none" stroke="#2b2b2b" points="663.18,-1230.52 657.18,-1230.52"/>
<text xml:space="preserve" text-anchor="middle" x="555.84" y="-1217.43" font-family="Arial" font-size="11.00">Entrada de Dados / Informação:</text>
<text xml:space="preserve" text-anchor="middle" x="555.84" y="-1203.93" font-family="Arial" font-size="11.00">• Relatório de Negociações (Ploomes)</text>
<text xml:space="preserve" text-anchor="middle" x="555.84" y="-1177.43" font-family="Arial" font-size="11.00">Frequência:</text>
<text xml:space="preserve" text-anchor="middle" x="555.84" y="-1163.93" font-family="Arial" font-size="11.00">• Mensal</text>
</g>
<!-- sistemas -->
<g id="node10" class="node">
<title>sistemas</title>
<polygon fill="#f8f9fa" stroke="#2b2b2b" points="574.06,-1077.49 451.62,-1077.49 451.62,-1006.21 580.06,-1006.21 580.06,-1071.49 574.06,-1077.49"/>
<polyline fill="none" stroke="#2b2b2b" points="574.06,-1077.49 574.06,-1071.49"/>
<polyline fill="none" stroke="#2b2b2b" points="580.06,-1071.49 574.06,-1071.49"/>
<text xml:space="preserve" text-anchor="middle" x="515.84" y="-1058.4" font-family="Arial" font-size="11.00">Sistemas Utilizados:</text>
<text xml:space="preserve" text-anchor="middle" x="515.84" y="-1044.9" font-family="Arial" font-size="11.00">• Ploomes</text>
<text xml:space="preserve" text-anchor="middle" x="515.84" y="-1031.4" font-family="Arial" font-size="11.00">• Excel</text>
<text xml:space="preserve" text-anchor="middle" x="515.84" y="-1017.9" font-family="Arial" font-size="11.00">• E&#45;mail</text>
</g>
<!-- oportunidades -->
<g id="node11" class="node">
<title>oportunidades</title>
<polygon fill="#f8f9fa" stroke="#2b2b2b" points="479.06,-629.62 278.62,-629.62 278.62,-531.34 485.06,-531.34 485.06,-623.62 479.06,-629.62"/>
<polyline fill="none" stroke="#2b2b2b" points="479.06,-629.62 479.06,-623.62"/>
<polyline fill="none" stroke="#2b2b2b" points="485.06,-623.62 479.06,-623.62"/>
<text xml:space="preserve" text-anchor="middle" x="381.84" y="-610.53" font-family="Arial" font-size="11.00">Oportunidades:</text>
<text xml:space="preserve" text-anchor="middle" x="381.84" y="-597.03" font-family="Arial" font-size="11.00">• Consistência dos dados</text>
<text xml:space="preserve" text-anchor="middle" x="381.84" y="-583.53" font-family="Arial" font-size="11.00">• Redução de retrabalho entre áreas</text>
<text xml:space="preserve" text-anchor="middle" x="381.84" y="-570.03" font-family="Arial" font-size="11.00">• Assertividade na produção</text>
<text xml:space="preserve" text-anchor="middle" x="381.84" y="-556.53" font-family="Arial" font-size="11.00">• Gerenciamento de insumos</text>
<text xml:space="preserve" text-anchor="middle" x="381.84" y="-543.03" font-family="Arial" font-size="11.00">• Redução do lead time operacional</text>
</g>
<!-- produto_salesforce -->
<g id="node12" class="node">
<title>produto_salesforce</title>
<polygon fill="#f8f9fa" stroke="#2b2b2b" points="462.31,-165.28 191.38,-165.28 191.38,0 468.31,0 468.31,-159.28 462.31,-165.28"/>
<polyline fill="none" stroke="#2b2b2b" points="462.31,-165.28 462.31,-159.28"/>
<polyline fill="none" stroke="#2b2b2b" points="468.31,-159.28 462.31,-159.28"/>
<text xml:space="preserve" text-anchor="middle" x="329.84" y="-146.19" font-family="Arial" font-size="11.00">Produto Salesforce:</text>
<text xml:space="preserve" text-anchor="middle" x="329.84" y="-132.69" font-family="Arial" font-size="11.00">• Sales Cloud</text>
<text xml:space="preserve" text-anchor="middle" x="329.84" y="-119.19" font-family="Arial" font-size="11.00">• Service Cloud</text>
<text xml:space="preserve" text-anchor="middle" x="329.84" y="-105.69" font-family="Arial" font-size="11.00">• Integração</text>
<text xml:space="preserve" text-anchor="middle" x="329.84" y="-79.19" font-family="Arial" font-size="11.00">Soluções Aplicáveis:</text>
<text xml:space="preserve" text-anchor="middle" x="329.84" y="-65.69" font-family="Arial" font-size="11.00">• Previsão de receita baseada no pipeline</text>
<text xml:space="preserve" text-anchor="middle" x="329.84" y="-52.19" font-family="Arial" font-size="11.00">• Consulta de estoque no ERP</text>
<text xml:space="preserve" text-anchor="middle" x="329.84" y="-38.69" font-family="Arial" font-size="11.00">• Recepção de itens/quantidades/valores do pedido</text>
<text xml:space="preserve" text-anchor="middle" x="329.84" y="-25.19" font-family="Arial" font-size="11.00">• Monitoramento da confiabilidade dos dados</text>
<text xml:space="preserve" text-anchor="middle" x="329.84" y="-11.69" font-family="Arial" font-size="11.00">• Visão estratégica do impacto dos dados</text>
</g>
<!-- extrair_relatorio -->
<g id="node14" class="node">
<title>extrair_relatorio</title>
<path fill="#ffffff" stroke="#2b2b2b" d="M393.56,-1243.52C393.56,-1243.52 190.13,-1243.52 190.13,-1243.52 184.13,-1243.52 178.13,-1237.52 178.13,-1231.52 178.13,-1231.52 178.13,-1157.24 178.13,-1157.24 178.13,-1151.24 184.13,-1145.24 190.13,-1145.24 190.13,-1145.24 393.56,-1145.24 393.56,-1145.24 399.56,-1145.24 405.56,-1151.24 405.56,-1157.24 405.56,-1157.24 405.56,-1231.52 405.56,-1231.52 405.56,-1237.52 399.56,-1243.52 393.56,-1243.52"/>
<text xml:space="preserve" text-anchor="middle" x="291.84" y="-1224.43" font-family="Arial" font-size="11.00">2) Extrair Relatório de Negociações</text>
<text xml:space="preserve" text-anchor="middle" x="291.84" y="-1210.93" font-family="Arial" font-size="11.00">Fonte: Ploomes</text>
<text xml:space="preserve" text-anchor="middle" x="291.84" y="-1197.43" font-family="Arial" font-size="11.00">Ações:</text>
<text xml:space="preserve" text-anchor="middle" x="291.84" y="-1183.93" font-family="Arial" font-size="11.00">• Filtrar negociações &#39;quentes&#39;</text>
<text xml:space="preserve" text-anchor="middle" x="291.84" y="-1170.43" font-family="Arial" font-size="11.00">• Consolidar pipeline relevante</text>
<text xml:space="preserve" text-anchor="middle" x="291.84" y="-1156.93" font-family="Arial" font-size="11.00">• Exportar para Excel quando necessário</text>
</g>
<!-- iniciar_ciclo&#45;&gt;extrair_relatorio -->
<g id="edge2" class="edge">
<title>iniciar_ciclo&#45;&gt;extrair_relatorio</title>
<path fill="none" stroke="#4a4a4a" d="M291.84,-1303.93C291.84,-1303.93 291.84,-1253.31 291.84,-1253.31"/>
<polygon fill="#4a4a4a" stroke="#4a4a4a" points="294.64,-1253.31 291.84,-1245.31 289.04,-1253.31 294.64,-1253.31"/>
</g>
<!-- validar_dados -->
<g id="node15" class="node">
<title>validar_dados</title>
<path fill="#ffffff" stroke="#2b2b2b" d="M302.93,-1084.24C302.93,-1084.24 104.75,-1084.24 104.75,-1084.24 98.75,-1084.24 92.75,-1078.24 92.75,-1072.24 92.75,-1072.24 92.75,-1011.46 92.75,-1011.46 92.75,-1005.46 98.75,-999.46 104.75,-999.46 104.75,-999.46 302.93,-999.46 302.93,-999.46 308.93,-999.46 314.93,-1005.46 314.93,-1011.46 314.93,-1011.46 314.93,-1072.24 314.93,-1072.24 314.93,-1078.24 308.93,-1084.24 302.93,-1084.24"/>
<text xml:space="preserve" text-anchor="middle" x="203.84" y="-1065.15" font-family="Arial" font-size="11.00">3) Validar Consistência dos Dados</text>
<text xml:space="preserve" text-anchor="middle" x="203.84" y="-1051.65" font-family="Arial" font-size="11.00">Ações:</text>
<text xml:space="preserve" text-anchor="middle" x="203.84" y="-1038.15" font-family="Arial" font-size="11.00">• Checar volumes, datas, SKUs</text>
<text xml:space="preserve" text-anchor="middle" x="203.84" y="-1024.65" font-family="Arial" font-size="11.00">• Identificar duplicidades/inconsistências</text>
<text xml:space="preserve" text-anchor="middle" x="203.84" y="-1011.15" font-family="Arial" font-size="11.00">• Ajustar critérios de corte</text>
</g>
<!-- extrair_relatorio&#45;&gt;validar_dados -->
<g id="edge3" class="edge">
<title>extrair_relatorio&#45;&gt;validar_dados</title>
<path fill="none" stroke="#4a4a4a" d="M246.53,-1144.86C246.53,-1144.86 246.53,-1094.23 246.53,-1094.23"/>
<polygon fill="#4a4a4a" stroke="#4a4a4a" points="249.33,-1094.23 246.53,-1086.23 243.73,-1094.23 249.33,-1094.23"/>
</g>
<!-- dados_ok -->
<g id="node16" class="node">
<title>dados_ok</title>
<polygon fill="#fff1b8" stroke="#2b2b2b" points="196.84,-938.46 71.41,-894.18 196.84,-849.9 322.27,-894.18 196.84,-938.46"/>
<text xml:space="preserve" text-anchor="middle" x="196.84" y="-897.23" font-family="Arial" font-size="11.00">Dados consistentes</text>
<text xml:space="preserve" text-anchor="middle" x="196.84" y="-883.73" font-family="Arial" font-size="11.00">para análise?</text>
</g>
<!-- validar_dados&#45;&gt;dados_ok -->
<g id="edge4" class="edge">
<title>validar_dados&#45;&gt;dados_ok</title>
<path fill="none" stroke="#4a4a4a" d="M203.84,-999.14C203.84,-999.14 203.84,-945.8 203.84,-945.8"/>
<polygon fill="#4a4a4a" stroke="#4a4a4a" points="206.64,-945.8 203.84,-937.8 201.04,-945.8 206.64,-945.8"/>
</g>
<!-- corrigir_base -->
<g id="node17" class="node">
<title>corrigir_base</title>
<path fill="#fffdf2" stroke="#2b2b2b" d="M481.81,-782.15C481.81,-782.15 291.88,-782.15 291.88,-782.15 285.88,-782.15 279.88,-776.15 279.88,-770.15 279.88,-770.15 279.88,-709.37 279.88,-709.37 279.88,-703.37 285.88,-697.37 291.88,-697.37 291.88,-697.37 481.81,-697.37 481.81,-697.37 487.81,-697.37 493.81,-703.37 493.81,-709.37 493.81,-709.37 493.81,-770.15 493.81,-770.15 493.81,-776.15 487.81,-782.15 481.81,-782.15"/>
<text xml:space="preserve" text-anchor="middle" x="386.84" y="-763.06" font-family="Arial" font-size="11.00">Corrigir/Complementar Base</text>
<text xml:space="preserve" text-anchor="middle" x="386.84" y="-749.56" font-family="Arial" font-size="11.00">Ações:</text>
<text xml:space="preserve" text-anchor="middle" x="386.84" y="-736.06" font-family="Arial" font-size="11.00">• Ajustar informações no Ploomes</text>
<text xml:space="preserve" text-anchor="middle" x="386.84" y="-722.56" font-family="Arial" font-size="11.00">• Solicitar correções ao time comercial</text>
<text xml:space="preserve" text-anchor="middle" x="386.84" y="-709.06" font-family="Arial" font-size="11.00">• Atualizar Excel e versão do relatório</text>
</g>
<!-- dados_ok&#45;&gt;corrigir_base -->
<g id="edge6" class="edge">
<title>dados_ok&#45;&gt;corrigir_base</title>
<path fill="none" stroke="#4a4a4a" d="M301.07,-886.31C301.07,-886.31 301.07,-791.87 301.07,-791.87"/>
<polygon fill="#4a4a4a" stroke="#4a4a4a" points="303.87,-791.87 301.07,-783.87 298.27,-791.87 303.87,-791.87"/>
<text xml:space="preserve" text-anchor="middle" x="292.07" y="-829.59" font-family="Arial" font-size="10.00">Não</text>
</g>
<!-- analisar_capacidade -->
<g id="node18" class="node">
<title>analisar_capacidade</title>
<path fill="#ffffff" stroke="#2b2b2b" d="M224.81,-788.9C224.81,-788.9 46.88,-788.9 46.88,-788.9 40.88,-788.9 34.88,-782.9 34.88,-776.9 34.88,-776.9 34.88,-702.62 34.88,-702.62 34.88,-696.62 40.88,-690.62 46.88,-690.62 46.88,-690.62 224.81,-690.62 224.81,-690.62 230.81,-690.62 236.81,-696.62 236.81,-702.62 236.81,-702.62 236.81,-776.9 236.81,-776.9 236.81,-782.9 230.81,-788.9 224.81,-788.9"/>
<text xml:space="preserve" text-anchor="middle" x="135.84" y="-769.81" font-family="Arial" font-size="11.00">4) Analisar Impacto em Produção</text>
<text xml:space="preserve" text-anchor="middle" x="135.84" y="-756.31" font-family="Arial" font-size="11.00">Ações (DCBT + DPI):</text>
<text xml:space="preserve" text-anchor="middle" x="135.84" y="-742.81" font-family="Arial" font-size="11.00">• Capacidade produtiva e restrições</text>
<text xml:space="preserve" text-anchor="middle" x="135.84" y="-729.31" font-family="Arial" font-size="11.00">• Insumos críticos e disponibilidade</text>
<text xml:space="preserve" text-anchor="middle" x="135.84" y="-715.81" font-family="Arial" font-size="11.00">• Estoque (quando aplicável)</text>
<text xml:space="preserve" text-anchor="middle" x="135.84" y="-702.31" font-family="Arial" font-size="11.00">• Cenários e priorização</text>
</g>
<!-- dados_ok&#45;&gt;analisar_capacidade -->
<g id="edge5" class="edge">
<title>dados_ok&#45;&gt;analisar_capacidade</title>
<path fill="none" stroke="#4a4a4a" d="M154.11,-864.77C154.11,-864.77 154.11,-798.62 154.11,-798.62"/>
<polygon fill="#4a4a4a" stroke="#4a4a4a" points="156.91,-798.62 154.11,-790.62 151.31,-798.62 156.91,-798.62"/>
<text xml:space="preserve" text-anchor="middle" x="145.48" y="-834.2" font-family="Arial" font-size="10.00">Sim</text>
</g>
<!-- corrigir_base&#45;&gt;extrair_relatorio -->
<g id="edge7" class="edge">
<title>corrigir_base&#45;&gt;extrair_relatorio</title>
<path fill="none" stroke="#4a4a4a" d="M363.91,-782.53C363.91,-782.53 363.91,-1135.38 363.91,-1135.38"/>
<polygon fill="#4a4a4a" stroke="#4a4a4a" points="361.11,-1135.38 363.91,-1143.38 366.71,-1135.38 361.11,-1135.38"/>
<text xml:space="preserve" text-anchor="middle" x="344.04" y="-961.45" font-family="Arial" font-size="10.00">Reextrair</text>
</g>
<!-- alinhar_plano -->
<g id="node19" class="node">
<title>alinhar_plano</title>
<path fill="#ffffff" stroke="#2b2b2b" d="M224.06,-629.62C224.06,-629.62 47.62,-629.62 47.62,-629.62 41.62,-629.62 35.62,-623.62 35.62,-617.62 35.62,-617.62 35.62,-543.34 35.62,-543.34 35.62,-537.34 41.62,-531.34 47.62,-531.34 47.62,-531.34 224.06,-531.34 224.06,-531.34 230.06,-531.34 236.06,-537.34 236.06,-543.34 236.06,-543.34 236.06,-617.62 236.06,-617.62 236.06,-623.62 230.06,-629.62 224.06,-629.62"/>
<text xml:space="preserve" text-anchor="middle" x="135.84" y="-610.53" font-family="Arial" font-size="11.00">5) Alinhamento DCBT ↔ DPI</text>
<text xml:space="preserve" text-anchor="middle" x="135.84" y="-597.03" font-family="Arial" font-size="11.00">Ações:</text>
<text xml:space="preserve" text-anchor="middle" x="135.84" y="-583.53" font-family="Arial" font-size="11.00">• Reunião/cadência mensal</text>
<text xml:space="preserve" text-anchor="middle" x="135.84" y="-570.03" font-family="Arial" font-size="11.00">• Ajustes de forecast</text>
<text xml:space="preserve" text-anchor="middle" x="135.84" y="-556.53" font-family="Arial" font-size="11.00">• Definição de prioridades e janelas</text>
<text xml:space="preserve" text-anchor="middle" x="135.84" y="-543.03" font-family="Arial" font-size="11.00">• Registro de decisões</text>
</g>
<!-- analisar_capacidade&#45;&gt;alinhar_plano -->
<g id="edge8" class="edge">
<title>analisar_capacidade&#45;&gt;alinhar_plano</title>
<path fill="none" stroke="#4a4a4a" d="M135.84,-690.24C135.84,-690.24 135.84,-639.49 135.84,-639.49"/>
<polygon fill="#4a4a4a" stroke="#4a4a4a" points="138.64,-639.49 135.84,-631.49 133.04,-639.49 138.64,-639.49"/>
</g>
<!-- consolidar_saida -->
<g id="node20" class="node">
<title>consolidar_saida</title>
<path fill="#d1e7dd" stroke="#1e7e34" stroke-width="1.8" d="M221.06,-470.34C221.06,-470.34 50.62,-470.34 50.62,-470.34 44.62,-470.34 38.62,-464.34 38.62,-458.34 38.62,-458.34 38.62,-397.56 38.62,-397.56 38.62,-391.56 44.62,-385.56 50.62,-385.56 50.62,-385.56 221.06,-385.56 221.06,-385.56 227.06,-385.56 233.06,-391.56 233.06,-397.56 233.06,-397.56 233.06,-458.34 233.06,-458.34 233.06,-464.34 227.06,-470.34 221.06,-470.34"/>
<text xml:space="preserve" text-anchor="middle" x="135.84" y="-451.25" font-family="Arial" font-size="11.00">✅ Análise de Produção Prevista</text>
<text xml:space="preserve" text-anchor="middle" x="135.84" y="-437.75" font-family="Arial" font-size="11.00">Saída de Dados:</text>
<text xml:space="preserve" text-anchor="middle" x="135.84" y="-424.25" font-family="Arial" font-size="11.00">• Plano/forecast consolidado</text>
<text xml:space="preserve" text-anchor="middle" x="135.84" y="-410.75" font-family="Arial" font-size="11.00">• Lista de negociações priorizadas</text>
<text xml:space="preserve" text-anchor="middle" x="135.84" y="-397.25" font-family="Arial" font-size="11.00">• Riscos e restrições mapeados</text>
</g>
<!-- alinhar_plano&#45;&gt;consolidar_saida -->
<g id="edge9" class="edge">
<title>alinhar_plano&#45;&gt;consolidar_saida</title>
<path fill="none" stroke="#4a4a4a" d="M135.84,-530.96C135.84,-530.96 135.84,-480.58 135.84,-480.58"/>
<polygon fill="#4a4a4a" stroke="#4a4a4a" points="138.64,-480.58 135.84,-472.58 133.04,-480.58 138.64,-480.58"/>
</g>
<!-- comunicar -->
<g id="node21" class="node">
<title>comunicar</title>
<path fill="#ffffff" stroke="#2b2b2b" d="M259.68,-324.56C259.68,-324.56 12,-324.56 12,-324.56 6,-324.56 0,-318.56 0,-312.56 0,-312.56 0,-238.28 0,-238.28 0,-232.28 6,-226.28 12,-226.28 12,-226.28 259.68,-226.28 259.68,-226.28 265.68,-226.28 271.68,-232.28 271.68,-238.28 271.68,-238.28 271.68,-312.56 271.68,-312.56 271.68,-318.56 265.68,-324.56 259.68,-324.56"/>
<text xml:space="preserve" text-anchor="middle" x="135.84" y="-305.47" font-family="Arial" font-size="11.00">6) Comunicar e Registrar</text>
<text xml:space="preserve" text-anchor="middle" x="135.84" y="-291.97" font-family="Arial" font-size="11.00">Canais: E&#45;mail / Share / Teams (quando aplicável)</text>
<text xml:space="preserve" text-anchor="middle" x="135.84" y="-278.47" font-family="Arial" font-size="11.00">Ações:</text>
<text xml:space="preserve" text-anchor="middle" x="135.84" y="-264.97" font-family="Arial" font-size="11.00">• Enviar análise aos envolvidos</text>
<text xml:space="preserve" text-anchor="middle" x="135.84" y="-251.47" font-family="Arial" font-size="11.00">• Versionar arquivo e registrar decisões</text>
<text xml:space="preserve" text-anchor="middle" x="135.84" y="-237.97" font-family="Arial" font-size="11.00">• Encaminhar pontos de ação</text>
</g>
<!-- consolidar_saida&#45;&gt;comunicar -->
<g id="edge10" class="edge">
<title>consolidar_saida&#45;&gt;comunicar</title>
<path fill="none" stroke="#4a4a4a" d="M135.84,-385.06C135.84,-385.06 135.84,-334.51 135.84,-334.51"/>
<polygon fill="#4a4a4a" stroke="#4a4a4a" points="138.64,-334.51 135.84,-326.51 133.04,-334.51 138.64,-334.51"/>
</g>
<!-- comunicar&#45;&gt;end -->
<g id="edge11" class="edge">
<title>comunicar&#45;&gt;end</title>
<path fill="none" stroke="#4a4a4a" d="M135.84,-226.02C135.84,-226.02 135.84,-105.29 135.84,-105.29"/>
<polygon fill="#4a4a4a" stroke="#4a4a4a" points="138.64,-105.29 135.84,-97.29 133.04,-105.29 138.64,-105.29"/>
</g>
</g>
</svg>
