<?xml version="1.0" encoding="UTF-8" standalone="no"?>
<!DOCTYPE svg PUBLIC "-//W3C//DTD SVG 1.1//EN"
 "http://www.w3.org/Graphics/SVG/1.1/DTD/svg11.dtd">
<!-- Generated by graphviz version 14.1.0 (20251206.1807)
 -->
<!-- Title: RFPMoura_DCM_Montadoras_POS_VENDA Pages: 1 -->
<svg width="780pt" height="948pt"
 viewBox="0.00 0.00 780.00 948.00" xmlns="http://www.w3.org/2000/svg" xmlns:xlink="http://www.w3.org/1999/xlink">
<g id="graph0" class="graph" transform="scale(1 1) rotate(0) translate(36 911.62)">
<title>RFPMoura_DCM_Montadoras_POS_VENDA</title>
<polygon fill="white" stroke="none" points="-36,36 -36,-911.62 743.5,-911.62 743.5,36 -36,36"/>
<text xml:space="preserve" text-anchor="middle" x="353.75" y="-848.82" font-family="Arial Bold" font-size="24.00">RFPMoura | DCM — Processo de POS_VENDA (Montadoras)</text>
<!-- POSVENDA_VOLTAR -->
<g id="node1" class="node">
<title>POSVENDA_VOLTAR</title>
<g id="a_node1"><a xlink:href="RFPMoura_DCM_Montadoras_MindMap.svg" xlink:title="Voltar ao mindmap Montadoras" target="_self">
<path fill="#ffffff" stroke="#1f5fbf" stroke-width="3" d="M474.12,-840.62C474.12,-840.62 233.38,-840.62 233.38,-840.62 227.38,-840.62 221.38,-834.62 221.38,-828.62 221.38,-828.62 221.38,-816.62 221.38,-816.62 221.38,-810.62 227.38,-804.62 233.38,-804.62 233.38,-804.62 474.12,-804.62 474.12,-804.62 480.12,-804.62 486.12,-810.62 486.12,-816.62 486.12,-816.62 486.12,-828.62 486.12,-828.62 486.12,-834.62 480.12,-840.62 474.12,-840.62"/>
<text xml:space="preserve" text-anchor="middle" x="353.75" y="-818.34" font-family="Arial" font-size="12.00" fill="#1f5fbf">⟵ Voltar para Macroprocesso Montadoras</text>
</a>
</g>
</g>
<!-- PV_ETAPA1 -->
<g id="node2" class="node">
<title>PV_ETAPA1</title>
<path fill="#e7f1ff" stroke="#0b5ed7" stroke-width="2" d="M494.75,-754.62C494.75,-754.62 212.75,-754.62 212.75,-754.62 206.75,-754.62 200.75,-748.62 200.75,-742.62 200.75,-742.62 200.75,-717.96 200.75,-717.96 200.75,-711.96 206.75,-705.96 212.75,-705.96 212.75,-705.96 494.75,-705.96 494.75,-705.96 500.75,-705.96 506.75,-711.96 506.75,-717.96 506.75,-717.96 506.75,-742.62 506.75,-742.62 506.75,-748.62 500.75,-754.62 494.75,-754.62"/>
<text xml:space="preserve" text-anchor="middle" x="353.75" y="-733.14" font-family="Arial" font-size="12.00" fill="#0b5ed7">1. Recebimento da solicitação do cliente</text>
<text xml:space="preserve" text-anchor="middle" x="353.75" y="-718.89" font-family="Arial" font-size="12.00" fill="#0b5ed7">(Canais: E&#45;mail / WhatsApp / Portal / 0800 / Forms)</text>
</g>
<!-- POSVENDA_VOLTAR&#45;&gt;PV_ETAPA1 -->
<g id="edge1" class="edge">
<title>POSVENDA_VOLTAR&#45;&gt;PV_ETAPA1</title>
<path fill="none" stroke="#6c757d" stroke-width="1.7" d="M353.75,-803.49C353.75,-803.49 353.75,-766.93 353.75,-766.93"/>
<polygon fill="#6c757d" stroke="#6c757d" stroke-width="1.7" points="356.9,-766.93 353.75,-757.93 350.6,-766.93 356.9,-766.93"/>
</g>
<!-- PV_ETAPA2 -->
<g id="node3" class="node">
<title>PV_ETAPA2</title>
<path fill="#ffffff" stroke="#2b2b2b" d="M476.75,-655.96C476.75,-655.96 230.75,-655.96 230.75,-655.96 224.75,-655.96 218.75,-649.96 218.75,-643.96 218.75,-643.96 218.75,-619.3 218.75,-619.3 218.75,-613.3 224.75,-607.3 230.75,-607.3 230.75,-607.3 476.75,-607.3 476.75,-607.3 482.75,-607.3 488.75,-613.3 488.75,-619.3 488.75,-619.3 488.75,-643.96 488.75,-643.96 488.75,-649.96 482.75,-655.96 476.75,-655.96"/>
<text xml:space="preserve" text-anchor="middle" x="353.75" y="-634.48" font-family="Arial" font-size="12.00">2. Verificação de elegibilidade para garantia</text>
<text xml:space="preserve" text-anchor="middle" x="353.75" y="-620.23" font-family="Arial" font-size="12.00">(Análise inicial da cobertura)</text>
</g>
<!-- PV_ETAPA1&#45;&gt;PV_ETAPA2 -->
<g id="edge2" class="edge">
<title>PV_ETAPA1&#45;&gt;PV_ETAPA2</title>
<path fill="none" stroke="#6c757d" stroke-width="1.7" d="M353.75,-705.14C353.75,-705.14 353.75,-667.97 353.75,-667.97"/>
<polygon fill="#6c757d" stroke="#6c757d" stroke-width="1.7" points="356.9,-667.97 353.75,-658.97 350.6,-667.97 356.9,-667.97"/>
</g>
<!-- PV_ETAPA3 -->
<g id="node4" class="node">
<title>PV_ETAPA3</title>
<path fill="#ffffff" stroke="#2b2b2b" d="M483.5,-557.3C483.5,-557.3 224,-557.3 224,-557.3 218,-557.3 212,-551.3 212,-545.3 212,-545.3 212,-492.14 212,-492.14 212,-486.14 218,-480.14 224,-480.14 224,-480.14 483.5,-480.14 483.5,-480.14 489.5,-480.14 495.5,-486.14 495.5,-492.14 495.5,-492.14 495.5,-545.3 495.5,-545.3 495.5,-551.3 489.5,-557.3 483.5,-557.3"/>
<text xml:space="preserve" text-anchor="middle" x="353.75" y="-535.82" font-family="Arial" font-size="12.00">3. Análise técnica do item</text>
<text xml:space="preserve" text-anchor="middle" x="353.75" y="-521.57" font-family="Arial" font-size="12.00">&#45; Identificação da causa da falha</text>
<text xml:space="preserve" text-anchor="middle" x="353.75" y="-507.32" font-family="Arial" font-size="12.00">&#45; Avaliação da cobertura</text>
<text xml:space="preserve" text-anchor="middle" x="353.75" y="-493.07" font-family="Arial" font-size="12.00">(Engenharia de Pós‑Vendas / RSM / Planta)</text>
</g>
<!-- PV_ETAPA2&#45;&gt;PV_ETAPA3 -->
<g id="edge3" class="edge">
<title>PV_ETAPA2&#45;&gt;PV_ETAPA3</title>
<path fill="none" stroke="#6c757d" stroke-width="1.7" d="M353.75,-606.85C353.75,-606.85 353.75,-569.22 353.75,-569.22"/>
<polygon fill="#6c757d" stroke="#6c757d" stroke-width="1.7" points="356.9,-569.22 353.75,-560.22 350.6,-569.22 356.9,-569.22"/>
</g>
<!-- PV_ETAPA4 -->
<g id="node5" class="node">
<title>PV_ETAPA4</title>
<path fill="#ffffff" stroke="#2b2b2b" d="M438.88,-430.14C438.88,-430.14 268.62,-430.14 268.62,-430.14 262.62,-430.14 256.62,-424.14 256.62,-418.14 256.62,-418.14 256.62,-350.73 256.62,-350.73 256.62,-344.73 262.62,-338.73 268.62,-338.73 268.62,-338.73 438.88,-338.73 438.88,-338.73 444.88,-338.73 450.88,-344.73 450.88,-350.73 450.88,-350.73 450.88,-418.14 450.88,-418.14 450.88,-424.14 444.88,-430.14 438.88,-430.14"/>
<text xml:space="preserve" text-anchor="middle" x="353.75" y="-408.66" font-family="Arial" font-size="12.00">4. Definição da ação corretiva</text>
<text xml:space="preserve" text-anchor="middle" x="353.75" y="-394.41" font-family="Arial" font-size="12.00">• Substituição</text>
<text xml:space="preserve" text-anchor="middle" x="353.75" y="-380.16" font-family="Arial" font-size="12.00">• Devolução p/ análise</text>
<text xml:space="preserve" text-anchor="middle" x="353.75" y="-365.91" font-family="Arial" font-size="12.00">• Peças de reposição</text>
<text xml:space="preserve" text-anchor="middle" x="353.75" y="-351.66" font-family="Arial" font-size="12.00">• Outra tratativa</text>
</g>
<!-- PV_ETAPA3&#45;&gt;PV_ETAPA4 -->
<g id="edge4" class="edge">
<title>PV_ETAPA3&#45;&gt;PV_ETAPA4</title>
<path fill="none" stroke="#6c757d" stroke-width="1.7" d="M353.75,-479.88C353.75,-479.88 353.75,-441.88 353.75,-441.88"/>
<polygon fill="#6c757d" stroke="#6c757d" stroke-width="1.7" points="356.9,-441.88 353.75,-432.88 350.6,-441.88 356.9,-441.88"/>
</g>
<!-- PV_ETAPA5 -->
<g id="node6" class="node">
<title>PV_ETAPA5</title>
<path fill="#ffffff" stroke="#2b2b2b" d="M571.25,-288.73C571.25,-288.73 136.25,-288.73 136.25,-288.73 130.25,-288.73 124.25,-282.73 124.25,-276.73 124.25,-276.73 124.25,-252.07 124.25,-252.07 124.25,-246.07 130.25,-240.07 136.25,-240.07 136.25,-240.07 571.25,-240.07 571.25,-240.07 577.25,-240.07 583.25,-246.07 583.25,-252.07 583.25,-252.07 583.25,-276.73 583.25,-276.73 583.25,-282.73 577.25,-288.73 571.25,-288.73"/>
<text xml:space="preserve" text-anchor="middle" x="353.75" y="-267.25" font-family="Arial" font-size="12.00">5. Execução do serviço</text>
<text xml:space="preserve" text-anchor="middle" x="353.75" y="-253" font-family="Arial" font-size="12.00">(Logística, operação e tratativas com RSM / Engenharia / Compras / Financeiro)</text>
</g>
<!-- PV_ETAPA4&#45;&gt;PV_ETAPA5 -->
<g id="edge5" class="edge">
<title>PV_ETAPA4&#45;&gt;PV_ETAPA5</title>
<path fill="none" stroke="#6c757d" stroke-width="1.7" d="M353.75,-338.37C353.75,-338.37 353.75,-300.6 353.75,-300.6"/>
<polygon fill="#6c757d" stroke="#6c757d" stroke-width="1.7" points="356.9,-300.6 353.75,-291.6 350.6,-300.6 356.9,-300.6"/>
</g>
<!-- PV_ETAPA6 -->
<g id="node7" class="node">
<title>PV_ETAPA6</title>
<path fill="#ffffff" stroke="#2b2b2b" d="M435.88,-190.07C435.88,-190.07 271.62,-190.07 271.62,-190.07 265.62,-190.07 259.62,-184.07 259.62,-178.07 259.62,-178.07 259.62,-110.66 259.62,-110.66 259.62,-104.66 265.62,-98.66 271.62,-98.66 271.62,-98.66 435.88,-98.66 435.88,-98.66 441.88,-98.66 447.88,-104.66 447.88,-110.66 447.88,-110.66 447.88,-178.07 447.88,-178.07 447.88,-184.07 441.88,-190.07 435.88,-190.07"/>
<text xml:space="preserve" text-anchor="middle" x="353.75" y="-168.59" font-family="Arial" font-size="12.00">6. Tratamento administrativo</text>
<text xml:space="preserve" text-anchor="middle" x="353.75" y="-154.34" font-family="Arial" font-size="12.00">• Emissão/baixa de NF</text>
<text xml:space="preserve" text-anchor="middle" x="353.75" y="-140.09" font-family="Arial" font-size="12.00">• Registro no SAP / sistemas</text>
<text xml:space="preserve" text-anchor="middle" x="353.75" y="-125.84" font-family="Arial" font-size="12.00">• Atualização de evidências</text>
<text xml:space="preserve" text-anchor="middle" x="353.75" y="-111.59" font-family="Arial" font-size="12.00">• Comunicação ao cliente</text>
</g>
<!-- PV_ETAPA5&#45;&gt;PV_ETAPA6 -->
<g id="edge6" class="edge">
<title>PV_ETAPA5&#45;&gt;PV_ETAPA6</title>
<path fill="none" stroke="#6c757d" stroke-width="1.7" d="M353.75,-239.82C353.75,-239.82 353.75,-201.84 353.75,-201.84"/>
<polygon fill="#6c757d" stroke="#6c757d" stroke-width="1.7" points="356.9,-201.84 353.75,-192.84 350.6,-201.84 356.9,-201.84"/>
</g>
<!-- PV_ETAPA7 -->
<g id="node8" class="node">
<title>PV_ETAPA7</title>
<path fill="#eaf7ef" stroke="#146c43" stroke-width="2" d="M538.62,-48.66C538.62,-48.66 168.88,-48.66 168.88,-48.66 162.88,-48.66 156.88,-42.66 156.88,-36.66 156.88,-36.66 156.88,-12 156.88,-12 156.88,-6 162.88,0 168.88,0 168.88,0 538.62,0 538.62,0 544.62,0 550.62,-6 550.62,-12 550.62,-12 550.62,-36.66 550.62,-36.66 550.62,-42.66 544.62,-48.66 538.62,-48.66"/>
<text xml:space="preserve" text-anchor="middle" x="353.75" y="-27.18" font-family="Arial" font-size="12.00" fill="#146c43">7. Encerramento do caso</text>
<text xml:space="preserve" text-anchor="middle" x="353.75" y="-12.93" font-family="Arial" font-size="12.00" fill="#146c43">Saída: Execução concluída + Pagamento de NF (quando aplicável)</text>
</g>
<!-- PV_ETAPA6&#45;&gt;PV_ETAPA7 -->
<g id="edge7" class="edge">
<title>PV_ETAPA6&#45;&gt;PV_ETAPA7</title>
<path fill="none" stroke="#6c757d" stroke-width="1.7" d="M353.75,-98.3C353.75,-98.3 353.75,-61.2 353.75,-61.2"/>
<polygon fill="#6c757d" stroke="#6c757d" stroke-width="1.7" points="356.9,-61.2 353.75,-52.2 350.6,-61.2 356.9,-61.2"/>
</g>
</g>
</svg>
