<?xml version="1.0" encoding="UTF-8" standalone="no"?>
<!DOCTYPE svg PUBLIC "-//W3C//DTD SVG 1.1//EN"
 "http://www.w3.org/Graphics/SVG/1.1/DTD/svg11.dtd">
<!-- Generated by graphviz version 14.1.0 (20251206.1807)
 -->
<!-- Title: RFPMoura_DCM_Montadoras_PROJETO Pages: 1 -->
<svg width="747pt" height="765pt"
 viewBox="0.00 0.00 747.00 765.00" xmlns="http://www.w3.org/2000/svg" xmlns:xlink="http://www.w3.org/1999/xlink">
<g id="graph0" class="graph" transform="scale(1 1) rotate(0) translate(36 729.05)">
<title>RFPMoura_DCM_Montadoras_PROJETO</title>
<polygon fill="white" stroke="none" points="-36,36 -36,-729.05 711.25,-729.05 711.25,36 -36,36"/>
<text xml:space="preserve" text-anchor="middle" x="337.62" y="-666.25" font-family="Arial Bold" font-size="24.00">RFPMoura | DCM — Processo de PROJETO (Montadoras)</text>
<!-- PROJETO_VOLTAR -->
<g id="node1" class="node">
<title>PROJETO_VOLTAR</title>
<g id="a_node1"><a xlink:href="RFPMoura_DCM_Montadoras_MindMap.svg" xlink:title="Voltar ao mindmap Montadoras" target="_self">
<path fill="#ffffff" stroke="#1f5fbf" stroke-width="3" d="M458,-658.05C458,-658.05 217.25,-658.05 217.25,-658.05 211.25,-658.05 205.25,-652.05 205.25,-646.05 205.25,-646.05 205.25,-634.05 205.25,-634.05 205.25,-628.05 211.25,-622.05 217.25,-622.05 217.25,-622.05 458,-622.05 458,-622.05 464,-622.05 470,-628.05 470,-634.05 470,-634.05 470,-646.05 470,-646.05 470,-652.05 464,-658.05 458,-658.05"/>
<text xml:space="preserve" text-anchor="middle" x="337.62" y="-635.77" font-family="Arial" font-size="12.00" fill="#1f5fbf">⟵ Voltar para Macroprocesso Montadoras</text>
</a>
</g>
</g>
<!-- PROJETO_ETAPA1 -->
<g id="node2" class="node">
<title>PROJETO_ETAPA1</title>
<path fill="#e7f1ff" stroke="#0b5ed7" stroke-width="2" d="M431,-572.05C431,-572.05 244.25,-572.05 244.25,-572.05 238.25,-572.05 232.25,-566.05 232.25,-560.05 232.25,-560.05 232.25,-535.39 232.25,-535.39 232.25,-529.39 238.25,-523.39 244.25,-523.39 244.25,-523.39 431,-523.39 431,-523.39 437,-523.39 443,-529.39 443,-535.39 443,-535.39 443,-560.05 443,-560.05 443,-566.05 437,-572.05 431,-572.05"/>
<text xml:space="preserve" text-anchor="middle" x="337.62" y="-550.57" font-family="Arial" font-size="12.00" fill="#0b5ed7">1. Receber solicitação de projeto</text>
<text xml:space="preserve" text-anchor="middle" x="337.62" y="-536.32" font-family="Arial" font-size="12.00" fill="#0b5ed7">(Chamado SDM)</text>
</g>
<!-- PROJETO_VOLTAR&#45;&gt;PROJETO_ETAPA1 -->
<g id="edge1" class="edge">
<title>PROJETO_VOLTAR&#45;&gt;PROJETO_ETAPA1</title>
<path fill="none" stroke="#6c757d" stroke-width="1.7" d="M337.62,-620.92C337.62,-620.92 337.62,-584.36 337.62,-584.36"/>
<polygon fill="#6c757d" stroke="#6c757d" stroke-width="1.7" points="340.78,-584.36 337.63,-575.36 334.48,-584.36 340.78,-584.36"/>
</g>
<!-- PROJETO_ETAPA2 -->
<g id="node3" class="node">
<title>PROJETO_ETAPA2</title>
<path fill="#ffffff" stroke="#2b2b2b" d="M413.75,-473.39C413.75,-473.39 261.5,-473.39 261.5,-473.39 255.5,-473.39 249.5,-467.39 249.5,-461.39 249.5,-461.39 249.5,-408.23 249.5,-408.23 249.5,-402.23 255.5,-396.23 261.5,-396.23 261.5,-396.23 413.75,-396.23 413.75,-396.23 419.75,-396.23 425.75,-402.23 425.75,-408.23 425.75,-408.23 425.75,-461.39 425.75,-461.39 425.75,-467.39 419.75,-473.39 413.75,-473.39"/>
<text xml:space="preserve" text-anchor="middle" x="337.62" y="-451.91" font-family="Arial" font-size="12.00">2. Avaliar necessidade de:</text>
<text xml:space="preserve" text-anchor="middle" x="337.62" y="-437.66" font-family="Arial" font-size="12.00">• Novo projeto</text>
<text xml:space="preserve" text-anchor="middle" x="337.62" y="-423.41" font-family="Arial" font-size="12.00">• Nova ficha técnica</text>
<text xml:space="preserve" text-anchor="middle" x="337.62" y="-409.16" font-family="Arial" font-size="12.00">• Cadastro de novo SKU</text>
</g>
<!-- PROJETO_ETAPA1&#45;&gt;PROJETO_ETAPA2 -->
<g id="edge2" class="edge">
<title>PROJETO_ETAPA1&#45;&gt;PROJETO_ETAPA2</title>
<path fill="none" stroke="#6c757d" stroke-width="1.7" d="M337.62,-522.66C337.62,-522.66 337.62,-485.13 337.62,-485.13"/>
<polygon fill="#6c757d" stroke="#6c757d" stroke-width="1.7" points="340.78,-485.13 337.63,-476.13 334.48,-485.13 340.78,-485.13"/>
</g>
<!-- PROJETO_ETAPA3 -->
<g id="node4" class="node">
<title>PROJETO_ETAPA3</title>
<path fill="#ffffff" stroke="#2b2b2b" d="M429.88,-346.23C429.88,-346.23 245.38,-346.23 245.38,-346.23 239.38,-346.23 233.38,-340.23 233.38,-334.23 233.38,-334.23 233.38,-309.57 233.38,-309.57 233.38,-303.57 239.38,-297.57 245.38,-297.57 245.38,-297.57 429.88,-297.57 429.88,-297.57 435.88,-297.57 441.88,-303.57 441.88,-309.57 441.88,-309.57 441.88,-334.23 441.88,-334.23 441.88,-340.23 435.88,-346.23 429.88,-346.23"/>
<text xml:space="preserve" text-anchor="middle" x="337.62" y="-324.75" font-family="Arial" font-size="12.00">3. Analisar informações técnicas</text>
<text xml:space="preserve" text-anchor="middle" x="337.62" y="-310.5" font-family="Arial" font-size="12.00">(DCM + Engenharia + P&amp;R)</text>
</g>
<!-- PROJETO_ETAPA2&#45;&gt;PROJETO_ETAPA3 -->
<g id="edge3" class="edge">
<title>PROJETO_ETAPA2&#45;&gt;PROJETO_ETAPA3</title>
<path fill="none" stroke="#6c757d" stroke-width="1.7" d="M337.62,-395.95C337.62,-395.95 337.62,-358.25 337.62,-358.25"/>
<polygon fill="#6c757d" stroke="#6c757d" stroke-width="1.7" points="340.78,-358.25 337.63,-349.25 334.48,-358.25 340.78,-358.25"/>
</g>
<!-- PROJETO_ETAPA4 -->
<g id="node5" class="node">
<title>PROJETO_ETAPA4</title>
<path fill="#ffffff" stroke="#2b2b2b" d="M420.12,-247.57C420.12,-247.57 255.12,-247.57 255.12,-247.57 249.12,-247.57 243.12,-241.57 243.12,-235.57 243.12,-235.57 243.12,-210.91 243.12,-210.91 243.12,-204.91 249.12,-198.91 255.12,-198.91 255.12,-198.91 420.12,-198.91 420.12,-198.91 426.12,-198.91 432.12,-204.91 432.12,-210.91 432.12,-210.91 432.12,-235.57 432.12,-235.57 432.12,-241.57 426.12,-247.57 420.12,-247.57"/>
<text xml:space="preserve" text-anchor="middle" x="337.62" y="-226.09" font-family="Arial" font-size="12.00">4. Validação jurídica do NDA</text>
<text xml:space="preserve" text-anchor="middle" x="337.62" y="-211.84" font-family="Arial" font-size="12.00">(quando aplicável)</text>
</g>
<!-- PROJETO_ETAPA3&#45;&gt;PROJETO_ETAPA4 -->
<g id="edge4" class="edge">
<title>PROJETO_ETAPA3&#45;&gt;PROJETO_ETAPA4</title>
<path fill="none" stroke="#6c757d" stroke-width="1.7" d="M337.62,-297.26C337.62,-297.26 337.62,-259.48 337.62,-259.48"/>
<polygon fill="#6c757d" stroke="#6c757d" stroke-width="1.7" points="340.78,-259.48 337.63,-250.48 334.48,-259.48 340.78,-259.48"/>
</g>
<!-- PROJETO_ETAPA5 -->
<g id="node6" class="node">
<title>PROJETO_ETAPA5</title>
<path fill="#ffffff" stroke="#2b2b2b" d="M459.12,-148.91C459.12,-148.91 216.12,-148.91 216.12,-148.91 210.12,-148.91 204.12,-142.91 204.12,-136.91 204.12,-136.91 204.12,-124.91 204.12,-124.91 204.12,-118.91 210.12,-112.91 216.12,-112.91 216.12,-112.91 459.12,-112.91 459.12,-112.91 465.12,-112.91 471.12,-118.91 471.12,-124.91 471.12,-124.91 471.12,-136.91 471.12,-136.91 471.12,-142.91 465.12,-148.91 459.12,-148.91"/>
<text xml:space="preserve" text-anchor="middle" x="337.62" y="-126.63" font-family="Arial" font-size="12.00">5. Criar Projeto Técnico e/ou Ficha Técnica</text>
</g>
<!-- PROJETO_ETAPA4&#45;&gt;PROJETO_ETAPA5 -->
<g id="edge5" class="edge">
<title>PROJETO_ETAPA4&#45;&gt;PROJETO_ETAPA5</title>
<path fill="none" stroke="#6c757d" stroke-width="1.7" d="M337.62,-198.5C337.62,-198.5 337.62,-160.85 337.62,-160.85"/>
<polygon fill="#6c757d" stroke="#6c757d" stroke-width="1.7" points="340.78,-160.85 337.63,-151.85 334.48,-160.85 340.78,-160.85"/>
</g>
<!-- PROJETO_ETAPA6 -->
<g id="node7" class="node">
<title>PROJETO_ETAPA6</title>
<path fill="#eaf7ef" stroke="#146c43" stroke-width="2" d="M482,-62.91C482,-62.91 193.25,-62.91 193.25,-62.91 187.25,-62.91 181.25,-56.91 181.25,-50.91 181.25,-50.91 181.25,-12 181.25,-12 181.25,-6 187.25,0 193.25,0 193.25,0 482,0 482,0 488,0 494,-6 494,-12 494,-12 494,-50.91 494,-50.91 494,-56.91 488,-62.91 482,-62.91"/>
<text xml:space="preserve" text-anchor="middle" x="337.62" y="-41.43" font-family="Arial" font-size="12.00" fill="#146c43">6. Disponibilizar saída:</text>
<text xml:space="preserve" text-anchor="middle" x="337.62" y="-27.18" font-family="Arial" font-size="12.00" fill="#146c43">Projeto e/ou Ficha Técnica</text>
<text xml:space="preserve" text-anchor="middle" x="337.62" y="-12.93" font-family="Arial" font-size="12.00" fill="#146c43">→ Insumo para Cadastro de SKU e Realizar Pedido</text>
</g>
<!-- PROJETO_ETAPA5&#45;&gt;PROJETO_ETAPA6 -->
<g id="edge6" class="edge">
<title>PROJETO_ETAPA5&#45;&gt;PROJETO_ETAPA6</title>
<path fill="none" stroke="#6c757d" stroke-width="1.7" d="M337.62,-112.67C337.62,-112.67 337.62,-75.24 337.62,-75.24"/>
<polygon fill="#6c757d" stroke="#6c757d" stroke-width="1.7" points="340.78,-75.24 337.63,-66.24 334.48,-75.24 340.78,-75.24"/>
</g>
</g>
</svg>
