<?xml version="1.0" encoding="UTF-8" standalone="no"?>
<!DOCTYPE svg PUBLIC "-//W3C//DTD SVG 1.1//EN"
 "http://www.w3.org/Graphics/SVG/1.1/DTD/svg11.dtd">
<!-- Generated by graphviz version 14.1.0 (20251206.1807)
 -->
<!-- Title: RFPMoura_DCBE_Lead_Proposta_Comercial_PROPOSTA Pages: 1 -->
<svg width="569pt" height="1258pt"
 viewBox="14.00 14.00 555.00 1244.00" xmlns="http://www.w3.org/2000/svg" xmlns:xlink="http://www.w3.org/1999/xlink">
<g id="graph0" class="graph" transform="scale(1 1) rotate(0) translate(28.8 1229.58)">
<title>RFPMoura_DCBE_Lead_Proposta_Comercial_PROPOSTA</title>
<polygon fill="white" stroke="none" points="-14.4,14.4 -14.4,-1215.18 526.02,-1215.18 526.02,14.4 -14.4,14.4"/>
<text xml:space="preserve" text-anchor="middle" x="255.81" y="-1179.68" font-family="Arial" font-size="18.00">AS&#45;IS | DCBE — Lead e Proposta Comercial → PROPOSTA </text>
<text xml:space="preserve" text-anchor="middle" x="255.81" y="-1158.68" font-family="Arial" font-size="18.00">Entrada: Lead Qualificado</text>
<!-- start -->
<g id="node1" class="node">
<title>start</title>
<ellipse fill="#2ecc71" stroke="#2ecc71" cx="128" cy="-1132.78" rx="7.2" ry="7.2"/>
</g>
<!-- entrada_qualif -->
<g id="node5" class="node">
<title>entrada_qualif</title>
<path fill="#d1e7dd" stroke="#1e7e34" stroke-width="1.6" d="M329.75,-1053.78C329.75,-1053.78 60.25,-1053.78 60.25,-1053.78 54.25,-1053.78 48.25,-1047.78 48.25,-1041.78 48.25,-1041.78 48.25,-963.78 48.25,-963.78 48.25,-957.78 54.25,-951.78 60.25,-951.78 60.25,-951.78 329.75,-951.78 329.75,-951.78 335.75,-951.78 341.75,-957.78 341.75,-963.78 341.75,-963.78 341.75,-1041.78 341.75,-1041.78 341.75,-1047.78 335.75,-1053.78 329.75,-1053.78"/>
<text xml:space="preserve" text-anchor="middle" x="195" y="-1039.33" font-family="Arial" font-size="11.00">Entrada (vinda da QUALIFICAÇÃO): Lead Qualificado</text>
<text xml:space="preserve" text-anchor="middle" x="195" y="-1025.83" font-family="Arial" font-size="11.00">Principais insumos que chegam aqui:</text>
<text xml:space="preserve" text-anchor="middle" x="195" y="-1012.33" font-family="Arial" font-size="11.00">• Dados obrigatórios preenchidos no Ploomes</text>
<text xml:space="preserve" text-anchor="middle" x="195" y="-998.83" font-family="Arial" font-size="11.00">• Origem: pesquisa de mercado (Empresômetro) / internet</text>
<text xml:space="preserve" text-anchor="middle" x="195" y="-985.33" font-family="Arial" font-size="11.00">• Informações organizadas (planilha/e&#45;mail)</text>
<text xml:space="preserve" text-anchor="middle" x="195" y="-958.83" font-family="Arial" font-size="11.00">Resultado: Lead pronto para virar Oportunidade/RFQ</text>
</g>
<!-- start&#45;&gt;entrada_qualif -->
<g id="edge1" class="edge">
<title>start&#45;&gt;entrada_qualif</title>
<path fill="none" stroke="#4a4a4a" d="M128,-1125.42C128,-1125.42 128,-1063.94 128,-1063.94"/>
<polygon fill="#4a4a4a" stroke="#4a4a4a" points="130.8,-1063.94 128,-1055.94 125.2,-1063.94 130.8,-1063.94"/>
</g>
<!-- end -->
<g id="node2" class="node">
<title>end</title>
<ellipse fill="#e74c3c" stroke="#e74c3c" cx="92" cy="-12.64" rx="8.64" ry="8.64"/>
<ellipse fill="none" stroke="#e74c3c" cx="92" cy="-12.64" rx="12.64" ry="12.64"/>
</g>
<!-- voltar -->
<g id="node3" class="node">
<title>voltar</title>
<g id="a_node3"><a xlink:href="RFPMoura_DCBE_Lead_Proposta_Comercial_QUALIFICACAO.svg" xlink:title="Abrir o fluxo de Qualificação (SVG)" target="_self">
<path fill="#eef6ff" stroke="#1f5fbf" stroke-width="1.6" d="M336.38,-1150.78C336.38,-1150.78 187.62,-1150.78 187.62,-1150.78 181.62,-1150.78 175.62,-1144.78 175.62,-1138.78 175.62,-1138.78 175.62,-1126.78 175.62,-1126.78 175.62,-1120.78 181.62,-1114.78 187.62,-1114.78 187.62,-1114.78 336.38,-1114.78 336.38,-1114.78 342.38,-1114.78 348.38,-1120.78 348.38,-1126.78 348.38,-1126.78 348.38,-1138.78 348.38,-1138.78 348.38,-1144.78 342.38,-1150.78 336.38,-1150.78"/>
<text xml:space="preserve" text-anchor="middle" x="262" y="-1129.08" font-family="Arial" font-size="11.00">↩ Voltar para QUALIFICAÇÃO</text>
</a>
</g>
</g>
<!-- voltar&#45;&gt;entrada_qualif -->
<g id="edge13" class="edge">
<title>voltar&#45;&gt;entrada_qualif</title>
<path fill="none" stroke="#9aa0a6" stroke-dasharray="5,2" d="M258.69,-1114.15C258.69,-1114.15 258.69,-1063.01 258.69,-1063.01"/>
<polygon fill="#9aa0a6" stroke="#9aa0a6" points="261.14,-1063.01 258.69,-1056.01 256.24,-1063.01 261.14,-1063.01"/>
<text xml:space="preserve" text-anchor="middle" x="239.94" y="-1091.08" font-family="Arial" font-size="10.00">contexto</text>
</g>
<!-- voltarHub -->
<g id="node4" class="node">
<title>voltarHub</title>
<g id="a_node4"><a xlink:href="RFPMoura_DCBE_Processos_MindMap.svg" xlink:title="Voltar ao Hub" target="_self">
<path fill="#eef6ff" stroke="#1f5fbf" stroke-width="1.6" d="M499.62,-1150.78C499.62,-1150.78 400.38,-1150.78 400.38,-1150.78 394.38,-1150.78 388.38,-1144.78 388.38,-1138.78 388.38,-1138.78 388.38,-1126.78 388.38,-1126.78 388.38,-1120.78 394.38,-1114.78 400.38,-1114.78 400.38,-1114.78 499.62,-1114.78 499.62,-1114.78 505.62,-1114.78 511.62,-1120.78 511.62,-1126.78 511.62,-1126.78 511.62,-1138.78 511.62,-1138.78 511.62,-1144.78 505.62,-1150.78 499.62,-1150.78"/>
<text xml:space="preserve" text-anchor="middle" x="450" y="-1129.08" font-family="Arial" font-size="11.00">↩ Voltar para o HUB</text>
</a>
</g>
</g>
<!-- rfq -->
<g id="node6" class="node">
<title>rfq</title>
<path fill="#f3f8ff" stroke="#2b2b2b" d="M297.5,-890.78C297.5,-890.78 92.5,-890.78 92.5,-890.78 86.5,-890.78 80.5,-884.78 80.5,-878.78 80.5,-878.78 80.5,-840.78 80.5,-840.78 80.5,-834.78 86.5,-828.78 92.5,-828.78 92.5,-828.78 297.5,-828.78 297.5,-828.78 303.5,-828.78 309.5,-834.78 309.5,-840.78 309.5,-840.78 309.5,-878.78 309.5,-878.78 309.5,-884.78 303.5,-890.78 297.5,-890.78"/>
<text xml:space="preserve" text-anchor="middle" x="195" y="-876.33" font-family="Arial" font-size="11.00">1) RFQ conduzida</text>
<text xml:space="preserve" text-anchor="middle" x="195" y="-862.83" font-family="Arial" font-size="11.00">(Executivo de Contas)</text>
<text xml:space="preserve" text-anchor="middle" x="195" y="-849.33" font-family="Arial" font-size="11.00">Entradas: RFQ + dados do Lead Qualificado</text>
<text xml:space="preserve" text-anchor="middle" x="195" y="-835.83" font-family="Arial" font-size="11.00">Canais: Ploomes / e&#45;mail</text>
</g>
<!-- entrada_qualif&#45;&gt;rfq -->
<g id="edge2" class="edge">
<title>entrada_qualif&#45;&gt;rfq</title>
<path fill="none" stroke="#4a4a4a" d="M195,-951.15C195,-951.15 195,-900.45 195,-900.45"/>
<polygon fill="#4a4a4a" stroke="#4a4a4a" points="197.8,-900.45 195,-892.45 192.2,-900.45 197.8,-900.45"/>
</g>
<!-- opp -->
<g id="node7" class="node">
<title>opp</title>
<path fill="#f3f8ff" stroke="#2b2b2b" d="M269,-767.78C269,-767.78 121,-767.78 121,-767.78 115,-767.78 109,-761.78 109,-755.78 109,-755.78 109,-743.78 109,-743.78 109,-737.78 115,-731.78 121,-731.78 121,-731.78 269,-731.78 269,-731.78 275,-731.78 281,-737.78 281,-743.78 281,-743.78 281,-755.78 281,-755.78 281,-761.78 275,-767.78 269,-767.78"/>
<text xml:space="preserve" text-anchor="middle" x="195" y="-752.83" font-family="Arial" font-size="11.00">2) Criar/Estruturar Oportunidade</text>
<text xml:space="preserve" text-anchor="middle" x="195" y="-739.33" font-family="Arial" font-size="11.00">(registro central da negociação)</text>
</g>
<!-- rfq&#45;&gt;opp -->
<g id="edge3" class="edge">
<title>rfq&#45;&gt;opp</title>
<path fill="none" stroke="#4a4a4a" d="M195,-828.55C195,-828.55 195,-777.53 195,-777.53"/>
<polygon fill="#4a4a4a" stroke="#4a4a4a" points="197.8,-777.53 195,-769.53 192.2,-777.53 197.8,-777.53"/>
</g>
<!-- val -->
<g id="node8" class="node">
<title>val</title>
<path fill="#fff7f0" stroke="#2b2b2b" d="M277.62,-670.78C277.62,-670.78 112.38,-670.78 112.38,-670.78 106.38,-670.78 100.38,-664.78 100.38,-658.78 100.38,-658.78 100.38,-620.78 100.38,-620.78 100.38,-614.78 106.38,-608.78 112.38,-608.78 112.38,-608.78 277.62,-608.78 277.62,-608.78 283.62,-608.78 289.62,-614.78 289.62,-620.78 289.62,-620.78 289.62,-658.78 289.62,-658.78 289.62,-664.78 283.62,-670.78 277.62,-670.78"/>
<text xml:space="preserve" text-anchor="middle" x="195" y="-656.33" font-family="Arial" font-size="11.00">3) Validações e análises</text>
<text xml:space="preserve" text-anchor="middle" x="195" y="-642.83" font-family="Arial" font-size="11.00">• Logística reversa • Instalação</text>
<text xml:space="preserve" text-anchor="middle" x="195" y="-629.33" font-family="Arial" font-size="11.00">• Projeto/SKU • Referência de custo</text>
<text xml:space="preserve" text-anchor="middle" x="195" y="-615.83" font-family="Arial" font-size="11.00">• Proposta técnica</text>
</g>
<!-- opp&#45;&gt;val -->
<g id="edge4" class="edge">
<title>opp&#45;&gt;val</title>
<path fill="none" stroke="#4a4a4a" d="M195,-731.62C195,-731.62 195,-680.41 195,-680.41"/>
<polygon fill="#4a4a4a" stroke="#4a4a4a" points="197.8,-680.41 195,-672.41 192.2,-680.41 197.8,-680.41"/>
</g>
<!-- cons -->
<g id="node9" class="node">
<title>cons</title>
<path fill="#eef6ff" stroke="#2b2b2b" d="M291.12,-547.78C291.12,-547.78 98.88,-547.78 98.88,-547.78 92.88,-547.78 86.88,-541.78 86.88,-535.78 86.88,-535.78 86.88,-511.28 86.88,-511.28 86.88,-505.28 92.88,-499.28 98.88,-499.28 98.88,-499.28 291.12,-499.28 291.12,-499.28 297.12,-499.28 303.12,-505.28 303.12,-511.28 303.12,-511.28 303.12,-535.78 303.12,-535.78 303.12,-541.78 297.12,-547.78 291.12,-547.78"/>
<text xml:space="preserve" text-anchor="middle" x="195" y="-533.33" font-family="Arial" font-size="11.00">4) Consolidar visão única</text>
<text xml:space="preserve" text-anchor="middle" x="195" y="-519.83" font-family="Arial" font-size="11.00">(escopo + viabilidade + serviços + custos)</text>
<text xml:space="preserve" text-anchor="middle" x="195" y="-506.33" font-family="Arial" font-size="11.00">para negociação</text>
</g>
<!-- val&#45;&gt;cons -->
<g id="edge5" class="edge">
<title>val&#45;&gt;cons</title>
<path fill="none" stroke="#4a4a4a" d="M195,-608.32C195,-608.32 195,-557.52 195,-557.52"/>
<polygon fill="#4a4a4a" stroke="#4a4a4a" points="197.8,-557.52 195,-549.52 192.2,-557.52 197.8,-557.52"/>
</g>
<!-- doc -->
<g id="node10" class="node">
<title>doc</title>
<path fill="#f2fbf6" stroke="#2b2b2b" d="M208,-438.28C208,-438.28 12,-438.28 12,-438.28 6,-438.28 0,-432.28 0,-426.28 0,-426.28 0,-401.78 0,-401.78 0,-395.78 6,-389.78 12,-389.78 12,-389.78 208,-389.78 208,-389.78 214,-389.78 220,-395.78 220,-401.78 220,-401.78 220,-426.28 220,-426.28 220,-432.28 214,-438.28 208,-438.28"/>
<text xml:space="preserve" text-anchor="middle" x="110" y="-423.83" font-family="Arial" font-size="11.00">5) Minuta/Contrato + Proposta</text>
<text xml:space="preserve" text-anchor="middle" x="110" y="-410.33" font-family="Arial" font-size="11.00">(revisões: Gestão de Contratos/Jurídico)</text>
<text xml:space="preserve" text-anchor="middle" x="110" y="-396.83" font-family="Arial" font-size="11.00">Saídas: minuta revisada + proposta pronta</text>
</g>
<!-- cons&#45;&gt;doc -->
<g id="edge6" class="edge">
<title>cons&#45;&gt;doc</title>
<path fill="none" stroke="#4a4a4a" d="M153.44,-498.96C153.44,-498.96 153.44,-448.04 153.44,-448.04"/>
<polygon fill="#4a4a4a" stroke="#4a4a4a" points="156.24,-448.04 153.44,-440.04 150.64,-448.04 156.24,-448.04"/>
</g>
<!-- send -->
<g id="node11" class="node">
<title>send</title>
<path fill="#eef6ff" stroke="#2b2b2b" d="M176.88,-328.78C176.88,-328.78 43.12,-328.78 43.12,-328.78 37.12,-328.78 31.12,-322.78 31.12,-316.78 31.12,-316.78 31.12,-304.78 31.12,-304.78 31.12,-298.78 37.12,-292.78 43.12,-292.78 43.12,-292.78 176.88,-292.78 176.88,-292.78 182.88,-292.78 188.88,-298.78 188.88,-304.78 188.88,-304.78 188.88,-316.78 188.88,-316.78 188.88,-322.78 182.88,-328.78 176.88,-328.78"/>
<text xml:space="preserve" text-anchor="middle" x="110" y="-313.83" font-family="Arial" font-size="11.00">6) Enviar Proposta ao Cliente</text>
<text xml:space="preserve" text-anchor="middle" x="110" y="-300.33" font-family="Arial" font-size="11.00">(PDF / e&#45;mail)</text>
</g>
<!-- doc&#45;&gt;send -->
<g id="edge7" class="edge">
<title>doc&#45;&gt;send</title>
<path fill="none" stroke="#4a4a4a" d="M110,-389.3C110,-389.3 110,-338.68 110,-338.68"/>
<polygon fill="#4a4a4a" stroke="#4a4a4a" points="112.8,-338.68 110,-330.68 107.2,-338.68 112.8,-338.68"/>
</g>
<!-- dec -->
<g id="node12" class="node">
<title>dec</title>
<polygon fill="#fff1b8" stroke="#2b2b2b" points="110,-231.78 29.11,-213.78 110,-195.78 190.89,-213.78 110,-231.78"/>
<text xml:space="preserve" text-anchor="middle" x="110" y="-210.08" font-family="Arial" font-size="11.00">Cliente aprova?</text>
</g>
<!-- send&#45;&gt;dec -->
<g id="edge8" class="edge">
<title>send&#45;&gt;dec</title>
<path fill="none" stroke="#4a4a4a" d="M110,-292.54C110,-292.54 110,-241.79 110,-241.79"/>
<polygon fill="#4a4a4a" stroke="#4a4a4a" points="112.8,-241.79 110,-233.79 107.2,-241.79 112.8,-241.79"/>
</g>
<!-- adj -->
<g id="node13" class="node">
<title>adj</title>
<path fill="#fffdf2" stroke="#2b2b2b" d="M349.38,-128.53C349.38,-128.53 212.62,-128.53 212.62,-128.53 206.62,-128.53 200.62,-122.53 200.62,-116.53 200.62,-116.53 200.62,-104.53 200.62,-104.53 200.62,-98.53 206.62,-92.53 212.62,-92.53 212.62,-92.53 349.38,-92.53 349.38,-92.53 355.38,-92.53 361.38,-98.53 361.38,-104.53 361.38,-104.53 361.38,-116.53 361.38,-116.53 361.38,-122.53 355.38,-128.53 349.38,-128.53"/>
<text xml:space="preserve" text-anchor="middle" x="281" y="-113.58" font-family="Arial" font-size="11.00">Ajustes solicitados</text>
<text xml:space="preserve" text-anchor="middle" x="281" y="-100.08" font-family="Arial" font-size="11.00">(comercial / contrato / escopo)</text>
</g>
<!-- dec&#45;&gt;adj -->
<g id="edge10" class="edge">
<title>dec&#45;&gt;adj</title>
<path fill="none" stroke="#4a4a4a" d="M191.91,-214C202.81,-214 210.31,-214 210.31,-214 210.31,-214 210.31,-138.54 210.31,-138.54"/>
<polygon fill="#4a4a4a" stroke="#4a4a4a" points="213.11,-138.54 210.31,-130.54 207.51,-138.54 213.11,-138.54"/>
<text xml:space="preserve" text-anchor="middle" x="201.31" y="-187.97" font-family="Arial" font-size="10.00">Não</text>
</g>
<!-- win -->
<g id="node14" class="node">
<title>win</title>
<path fill="#fcebea" stroke="#2b2b2b" d="M148.38,-134.78C148.38,-134.78 35.62,-134.78 35.62,-134.78 29.62,-134.78 23.62,-128.78 23.62,-122.78 23.62,-122.78 23.62,-98.28 23.62,-98.28 23.62,-92.28 29.62,-86.28 35.62,-86.28 35.62,-86.28 148.38,-86.28 148.38,-86.28 154.38,-86.28 160.38,-92.28 160.38,-98.28 160.38,-98.28 160.38,-122.78 160.38,-122.78 160.38,-128.78 154.38,-134.78 148.38,-134.78"/>
<text xml:space="preserve" text-anchor="middle" x="92" y="-120.33" font-family="Arial" font-size="11.00">7) Encerrar oportunidade</text>
<text xml:space="preserve" text-anchor="middle" x="92" y="-106.83" font-family="Arial" font-size="11.00">Proposta aprovada</text>
<text xml:space="preserve" text-anchor="middle" x="92" y="-93.33" font-family="Arial" font-size="11.00">(pronta para execução)</text>
</g>
<!-- dec&#45;&gt;win -->
<g id="edge9" class="edge">
<title>dec&#45;&gt;win</title>
<path fill="none" stroke="#4a4a4a" d="M94.74,-198.99C94.74,-198.99 94.74,-144.78 94.74,-144.78"/>
<polygon fill="#4a4a4a" stroke="#4a4a4a" points="97.54,-144.78 94.74,-136.78 91.94,-144.78 97.54,-144.78"/>
<text xml:space="preserve" text-anchor="middle" x="86.12" y="-174.38" font-family="Arial" font-size="10.00">Sim</text>
</g>
<!-- adj&#45;&gt;cons -->
<g id="edge11" class="edge">
<title>adj&#45;&gt;cons</title>
<path fill="none" stroke="#4a4a4a" d="M261.56,-128.81C261.56,-128.81 261.56,-489.45 261.56,-489.45"/>
<polygon fill="#4a4a4a" stroke="#4a4a4a" points="258.76,-489.45 261.56,-497.45 264.36,-489.45 258.76,-489.45"/>
<text xml:space="preserve" text-anchor="middle" x="338.44" y="-311.63" font-family="Arial" font-size="10.00">Revisar condições/escopo/contrato</text>
</g>
<!-- win&#45;&gt;end -->
<g id="edge12" class="edge">
<title>win&#45;&gt;end</title>
<path fill="none" stroke="#4a4a4a" d="M92,-85.83C92,-85.83 92,-35.13 92,-35.13"/>
<polygon fill="#4a4a4a" stroke="#4a4a4a" points="94.8,-35.13 92,-27.13 89.2,-35.13 94.8,-35.13"/>
</g>
</g>
</svg>
